<svg id="svg" version="1.1" xmlns="http://www.w3.org/2000/svg" xmlns:xlink="http://www.w3.org/1999/xlink" width="400" height="383.1417624521073" viewBox="0, 0, 400,383.1417624521073"><g id="svgg"><path id="path0" d="M240.996 44.068 C 239.626 44.457,237.989 44.794,237.356 44.815 C 236.724 44.836,235.517 45.187,234.674 45.594 C 233.831 46.001,232.824 46.340,232.435 46.347 C 232.046 46.354,231.270 46.602,230.710 46.899 C 230.151 47.195,228.659 47.921,227.395 48.513 C 217.297 53.238,209.066 60.285,202.894 69.489 C 201.935 70.920,201.149 72.226,201.149 72.392 C 201.149 72.558,200.828 73.105,200.436 73.607 C 200.043 74.110,199.591 74.952,199.431 75.479 C 199.271 76.006,198.951 76.672,198.720 76.960 C 198.489 77.248,198.096 78.024,197.846 78.684 C 197.597 79.345,196.934 81.092,196.373 82.567 C 195.812 84.042,195.121 86.370,194.838 87.739 C 194.555 89.109,194.139 90.920,193.914 91.762 C 193.689 92.605,193.501 95.239,193.496 97.615 L 193.487 101.935 194.540 102.342 C 196.048 102.924,203.031 102.388,205.574 101.494 C 206.712 101.094,207.864 100.767,208.132 100.767 C 208.658 100.768,209.650 100.320,215.421 97.466 C 217.476 96.450,219.157 95.512,219.157 95.381 C 219.157 95.250,219.608 94.937,220.160 94.685 C 223.504 93.161,231.846 85.124,234.763 80.614 C 235.023 80.213,235.694 79.195,236.255 78.352 C 239.079 74.109,243.295 64.993,243.295 63.129 C 243.295 62.772,243.618 61.655,244.012 60.646 C 244.929 58.303,245.812 48.140,245.337 45.402 C 244.942 43.126,244.639 43.033,240.996 44.068 M234.866 107.457 C 232.443 107.713,229.635 108.209,228.626 108.559 C 227.618 108.909,226.443 109.195,226.015 109.195 C 225.587 109.195,224.868 109.393,224.418 109.634 C 223.967 109.875,222.815 110.296,221.857 110.569 C 220.899 110.843,218.994 111.491,217.625 112.010 C 216.255 112.528,214.531 113.173,213.793 113.441 C 213.056 113.710,211.751 114.244,210.894 114.628 C 210.038 115.012,209.132 115.326,208.881 115.326 C 208.631 115.326,207.783 115.670,206.997 116.092 C 206.210 116.513,205.285 116.858,204.939 116.858 C 204.594 116.858,203.471 117.234,202.443 117.694 C 199.963 118.803,191.649 118.895,188.889 117.845 C 187.941 117.484,186.496 117.022,185.678 116.819 C 184.861 116.615,183.831 116.196,183.390 115.887 C 182.949 115.578,182.322 115.326,181.997 115.326 C 181.672 115.326,180.763 114.981,179.977 114.559 C 179.190 114.138,178.350 113.793,178.108 113.793 C 177.867 113.793,176.962 113.469,176.096 113.074 C 174.627 112.403,173.196 111.868,168.391 110.193 C 167.337 109.825,165.354 109.294,163.985 109.012 C 162.615 108.730,160.805 108.316,159.962 108.090 C 157.205 107.354,146.592 107.567,143.103 108.429 C 141.418 108.846,139.693 109.188,139.272 109.191 C 137.669 109.200,128.456 112.620,125.670 114.240 C 125.354 114.424,124.579 114.842,123.946 115.168 C 121.079 116.648,117.534 119.035,114.368 121.617 C 111.546 123.919,104.598 131.051,104.598 131.647 C 104.598 131.778,103.951 132.687,103.161 133.665 C 101.694 135.481,101.365 135.964,99.990 138.314 C 99.558 139.052,98.789 140.345,98.280 141.188 C 97.771 142.031,97.245 142.979,97.111 143.295 C 96.977 143.611,96.432 144.818,95.900 145.977 C 93.840 150.463,92.526 153.934,92.128 155.939 C 91.982 156.676,91.647 157.711,91.385 158.238 C 91.123 158.764,90.789 160.130,90.643 161.273 C 90.497 162.416,90.206 163.672,89.996 164.064 C 89.786 164.456,89.371 166.969,89.074 169.649 C 88.777 172.329,88.358 175.642,88.144 177.011 C 87.682 179.966,87.670 190.035,88.125 193.295 C 88.301 194.559,88.643 197.577,88.884 200.000 C 89.125 202.423,89.497 205.268,89.711 206.322 C 89.925 207.375,90.277 209.444,90.493 210.920 C 90.709 212.395,91.213 214.708,91.612 216.061 C 92.011 217.413,92.337 218.885,92.337 219.331 C 92.337 219.777,92.682 221.123,93.103 222.322 C 93.525 223.521,93.870 224.860,93.870 225.297 C 93.870 225.734,94.134 226.603,94.457 227.227 C 94.780 227.852,95.198 229.093,95.386 229.986 C 95.793 231.918,96.779 234.839,97.758 237.015 C 98.148 237.881,98.467 238.829,98.466 239.122 C 98.466 239.415,98.794 240.345,99.196 241.188 C 100.724 244.393,101.533 246.264,101.532 246.594 C 101.531 246.913,102.782 249.671,103.511 250.958 C 103.690 251.274,104.027 251.964,104.258 252.490 C 104.490 253.017,104.835 253.707,105.025 254.023 C 105.362 254.586,105.828 255.557,106.309 256.705 C 106.442 257.021,106.972 257.969,107.487 258.812 C 108.002 259.655,108.696 260.930,109.030 261.646 C 109.363 262.361,109.881 263.193,110.182 263.493 C 110.482 263.794,110.728 264.183,110.728 264.358 C 110.728 264.730,115.323 271.560,117.822 274.904 C 118.767 276.169,119.656 277.449,119.798 277.749 C 119.940 278.049,120.294 278.566,120.584 278.898 C 120.874 279.230,122.897 281.743,125.079 284.483 C 130.520 291.314,135.819 296.625,139.692 299.131 C 140.093 299.390,141.076 300.037,141.875 300.568 C 142.675 301.098,143.502 301.533,143.714 301.533 C 143.926 301.533,144.651 301.829,145.326 302.191 C 146.000 302.553,147.414 303.055,148.467 303.305 C 149.521 303.556,151.073 303.945,151.916 304.170 C 154.260 304.796,157.723 304.668,161.111 303.831 C 162.797 303.415,164.432 303.072,164.744 303.070 C 165.465 303.064,171.457 300.784,174.946 299.188 C 175.812 298.792,176.718 298.467,176.959 298.467 C 177.200 298.467,178.041 298.123,178.827 297.701 C 179.613 297.280,180.609 296.935,181.039 296.935 C 181.470 296.935,182.169 296.692,182.594 296.394 C 183.018 296.097,184.350 295.672,185.554 295.449 C 186.757 295.227,188.129 294.823,188.603 294.553 C 189.832 293.851,207.869 293.851,209.098 294.553 C 209.572 294.823,210.935 295.225,212.128 295.446 C 213.320 295.666,214.657 296.072,215.098 296.348 C 215.539 296.623,216.530 296.959,217.299 297.094 C 218.068 297.228,218.908 297.592,219.166 297.903 C 219.423 298.213,219.915 298.468,220.258 298.470 C 220.601 298.471,221.398 298.744,222.031 299.076 C 222.663 299.408,223.784 299.907,224.521 300.186 C 225.259 300.464,227.069 301.147,228.544 301.703 C 235.353 304.271,247.183 304.505,251.533 302.158 C 252.165 301.816,252.941 301.532,253.257 301.526 C 253.573 301.520,254.262 301.178,254.789 300.766 C 255.316 300.354,255.928 300.013,256.148 300.009 C 256.369 300.004,256.886 299.739,257.298 299.421 C 257.709 299.102,258.878 298.301,259.895 297.641 C 262.353 296.046,268.553 289.874,271.769 285.824 C 275.325 281.343,276.331 280.028,277.698 278.075 C 278.181 277.385,279.256 275.888,280.086 274.748 C 280.916 273.609,281.697 272.359,281.820 271.970 C 281.943 271.582,282.209 271.264,282.411 271.264 C 282.613 271.264,282.949 270.876,283.159 270.402 C 283.369 269.928,284.051 268.764,284.674 267.816 C 285.298 266.868,285.981 265.747,286.193 265.326 C 286.404 264.904,287.011 263.870,287.541 263.027 C 288.071 262.184,288.848 260.805,289.267 259.962 C 289.686 259.119,290.203 258.170,290.417 257.854 C 290.630 257.538,290.977 256.849,291.187 256.322 C 291.397 255.795,291.723 255.105,291.910 254.789 C 292.255 254.210,293.850 250.755,294.917 248.276 C 295.235 247.538,295.819 246.297,296.215 245.518 C 296.611 244.739,296.935 243.827,296.935 243.491 C 296.935 243.156,297.280 242.205,297.701 241.379 C 298.123 240.553,298.468 239.569,298.470 239.192 C 298.471 238.814,298.703 238.064,298.984 237.525 C 299.531 236.477,299.207 234.866,298.451 234.866 C 297.998 234.866,293.536 232.374,290.996 230.702 C 284.402 226.362,277.455 219.398,273.554 213.218 C 271.990 210.742,271.734 210.279,270.478 207.663 C 269.820 206.293,269.027 204.641,268.715 203.991 C 268.403 203.341,267.996 202.221,267.812 201.501 C 267.627 200.781,267.227 199.416,266.922 198.467 C 266.290 196.499,265.665 193.642,265.079 190.038 C 264.475 186.318,264.876 173.437,265.663 171.312 C 266.004 170.390,266.287 169.097,266.292 168.438 C 266.297 167.780,266.641 166.490,267.058 165.571 C 267.475 164.653,267.816 163.637,267.816 163.314 C 267.816 162.992,268.183 161.933,268.632 160.962 C 270.650 156.596,272.289 153.367,273.084 152.195 C 273.558 151.496,273.946 150.836,273.946 150.729 C 273.946 148.717,287.389 135.112,291.475 132.988 C 292.771 132.315,292.551 131.619,290.091 128.610 C 286.545 124.271,280.239 118.617,276.820 116.712 C 276.188 116.360,274.981 115.653,274.138 115.142 C 269.950 112.599,263.187 109.820,259.630 109.180 C 258.605 108.995,256.967 108.594,255.990 108.287 C 252.211 107.100,242.037 106.700,234.866 107.457 " stroke="none" fill="#040404" fill-rule="evenodd"></path><path id="path1" d="M0.000 191.571 L 0.000 383.142 200.000 383.142 L 400.000 383.142 400.000 191.571 L 400.000 0.000 200.000 0.000 L 0.000 0.000 0.000 191.571 M246.191 43.073 C 247.236 43.837,247.266 52.368,246.241 56.897 C 244.881 62.898,243.923 66.340,243.149 68.008 C 241.507 71.541,239.198 76.179,238.664 77.011 C 236.304 80.697,235.772 81.452,235.346 81.724 C 235.082 81.893,234.866 82.219,234.866 82.449 C 234.866 83.440,229.507 89.154,225.670 92.253 C 224.301 93.360,222.907 94.521,222.573 94.834 C 222.239 95.147,221.822 95.402,221.646 95.402 C 221.469 95.402,221.021 95.677,220.650 96.012 C 218.767 97.717,209.821 101.835,206.130 102.696 C 192.864 105.792,191.924 105.226,192.508 94.489 C 192.691 91.126,193.024 88.771,193.517 87.370 C 193.922 86.218,194.253 84.922,194.253 84.490 C 194.253 84.058,194.598 83.062,195.019 82.275 C 195.441 81.489,195.785 80.630,195.784 80.365 C 195.783 79.844,199.209 72.940,200.395 71.073 C 200.797 70.441,201.413 69.406,201.764 68.774 C 202.115 68.142,202.638 67.487,202.925 67.318 C 203.213 67.150,203.448 66.819,203.448 66.584 C 203.448 66.349,203.702 65.883,204.012 65.549 C 204.321 65.216,205.588 63.736,206.827 62.261 C 208.065 60.785,209.924 58.829,210.957 57.912 C 211.990 56.996,213.204 55.919,213.656 55.518 C 214.107 55.117,214.658 54.789,214.882 54.789 C 215.105 54.789,215.425 54.571,215.594 54.304 C 215.897 53.823,216.364 53.467,219.349 51.443 C 220.834 50.435,221.345 50.131,223.372 49.051 C 223.898 48.770,224.588 48.393,224.904 48.214 C 225.220 48.034,225.910 47.695,226.437 47.460 C 226.964 47.225,228.022 46.709,228.788 46.313 C 229.554 45.918,230.416 45.588,230.704 45.581 C 230.991 45.574,231.916 45.235,232.759 44.828 C 233.602 44.420,234.643 44.081,235.072 44.074 C 235.502 44.067,236.795 43.723,237.946 43.309 C 240.494 42.393,245.081 42.261,246.191 43.073 M252.478 106.304 C 253.630 106.630,255.219 106.897,256.008 106.897 C 256.797 106.897,258.318 107.241,259.387 107.663 C 260.456 108.084,261.715 108.429,262.185 108.429 C 262.654 108.429,263.682 108.774,264.468 109.195 C 265.254 109.617,266.166 109.962,266.494 109.962 C 266.821 109.962,267.727 110.286,268.506 110.681 C 269.286 111.077,270.784 111.810,271.837 112.310 C 273.737 113.212,274.078 113.411,277.395 115.553 C 279.359 116.822,279.096 116.630,282.333 119.163 C 286.962 122.787,292.877 129.304,293.510 131.479 C 293.904 132.833,293.800 132.994,291.573 134.483 C 289.500 135.869,284.298 140.190,282.739 141.821 C 280.482 144.183,278.054 147.031,277.620 147.827 C 277.428 148.179,277.040 148.605,276.758 148.774 C 276.476 148.942,276.245 149.304,276.245 149.577 C 276.245 149.849,275.900 150.385,275.479 150.766 C 275.057 151.148,274.713 151.665,274.713 151.916 C 274.713 152.166,274.368 152.684,273.946 153.065 C 273.525 153.447,273.180 154.006,273.180 154.309 C 273.180 154.612,272.835 155.298,272.414 155.834 C 271.992 156.370,271.648 157.107,271.648 157.471 C 271.648 157.836,271.303 158.573,270.881 159.108 C 270.460 159.644,270.115 160.364,270.115 160.708 C 270.115 161.052,269.770 162.009,269.349 162.835 C 268.927 163.661,268.582 164.646,268.582 165.023 C 268.582 165.400,268.247 166.743,267.836 168.008 C 266.222 172.975,265.526 183.219,266.440 188.540 C 266.775 190.492,267.051 192.791,267.052 193.650 C 267.053 194.508,267.314 195.708,267.630 196.315 C 267.947 196.922,268.317 198.129,268.453 198.997 C 268.588 199.865,269.017 201.176,269.407 201.910 C 269.796 202.644,270.115 203.472,270.115 203.750 C 270.115 204.182,270.938 205.965,272.099 208.046 C 272.275 208.362,272.632 209.052,272.892 209.579 C 273.152 210.105,273.757 211.140,274.237 211.877 C 274.717 212.615,275.322 213.545,275.582 213.945 C 278.018 217.699,285.951 225.793,289.272 227.914 C 289.799 228.251,290.316 228.636,290.421 228.769 C 290.527 228.903,291.130 229.300,291.762 229.652 C 292.395 230.004,293.429 230.631,294.061 231.047 C 294.693 231.462,295.792 232.072,296.503 232.401 C 300.918 234.447,301.671 235.863,300.000 238.980 C 299.579 239.767,299.233 240.757,299.231 241.182 C 299.230 241.607,298.886 242.471,298.467 243.103 C 298.049 243.736,297.705 244.564,297.704 244.943 C 297.702 245.323,297.377 246.271,296.982 247.051 C 296.586 247.830,295.912 249.243,295.484 250.192 C 293.342 254.942,288.426 264.524,287.657 265.448 C 287.363 265.802,286.909 266.523,286.649 267.050 C 285.856 268.657,285.211 269.693,284.545 270.430 C 284.194 270.817,283.908 271.267,283.908 271.431 C 283.908 271.595,283.474 272.271,282.944 272.933 C 281.633 274.573,281.599 274.619,279.968 277.011 C 277.069 281.262,274.590 284.587,272.540 286.973 C 267.356 293.010,262.633 297.701,261.739 297.701 C 261.520 297.701,261.203 297.917,261.034 298.181 C 260.866 298.445,259.952 299.162,259.004 299.774 C 258.056 300.386,256.813 301.204,256.242 301.593 C 255.671 301.981,254.981 302.300,254.709 302.301 C 254.437 302.303,253.697 302.646,253.065 303.065 C 252.433 303.484,251.565 303.828,251.136 303.829 C 250.707 303.830,249.328 304.195,248.071 304.639 C 245.188 305.657,235.714 305.542,233.250 304.458 C 232.466 304.113,231.343 303.831,230.754 303.831 C 230.164 303.831,229.039 303.487,228.252 303.065 C 227.466 302.644,226.555 302.299,226.227 302.299 C 225.899 302.299,224.993 301.977,224.214 301.583 C 221.103 300.011,219.325 299.232,218.850 299.233 C 218.576 299.233,217.713 298.909,216.934 298.512 C 209.528 294.740,194.375 293.904,185.824 296.795 C 184.875 297.115,183.496 297.514,182.759 297.681 C 182.021 297.848,180.900 298.264,180.268 298.607 C 179.636 298.949,178.903 299.230,178.638 299.231 C 178.374 299.233,177.515 299.579,176.728 300.000 C 175.942 300.421,175.038 300.767,174.718 300.769 C 174.399 300.770,173.621 301.114,172.989 301.533 C 172.356 301.951,171.537 302.295,171.167 302.296 C 170.798 302.298,169.852 302.644,169.066 303.065 C 168.279 303.487,167.369 303.831,167.042 303.831 C 166.716 303.831,165.467 304.176,164.268 304.598 C 161.075 305.720,150.427 305.715,147.947 304.589 C 147.028 304.172,146.053 303.831,145.779 303.831 C 145.164 303.831,141.372 301.912,140.681 301.251 C 140.403 300.984,140.027 300.766,139.847 300.766 C 139.666 300.766,139.291 300.540,139.012 300.263 C 138.734 299.985,138.217 299.598,137.865 299.400 C 134.909 297.747,129.197 291.846,123.232 284.282 C 117.850 277.458,117.625 277.151,117.625 276.664 C 117.625 276.433,117.469 276.245,117.279 276.245 C 116.974 276.245,116.096 275.034,114.690 272.673 C 114.445 272.263,114.100 271.821,113.922 271.692 C 113.436 271.337,111.494 268.398,111.494 268.017 C 111.494 267.834,111.208 267.368,110.858 266.982 C 110.203 266.258,109.669 265.412,108.605 263.410 C 108.268 262.778,107.586 261.571,107.089 260.728 C 105.778 258.506,102.296 251.589,102.297 251.210 C 102.298 251.032,101.954 250.449,101.533 249.913 C 101.111 249.377,100.766 248.601,100.766 248.189 C 100.766 247.776,100.421 247.000,100.000 246.465 C 99.579 245.929,99.233 245.126,99.231 244.680 C 99.230 244.234,98.886 243.352,98.467 242.720 C 98.049 242.088,97.705 241.269,97.704 240.899 C 97.702 240.529,97.356 239.584,96.935 238.797 C 96.513 238.011,96.169 237.063,96.169 236.690 C 96.169 236.317,95.824 235.369,95.402 234.583 C 94.981 233.796,94.636 232.756,94.636 232.270 C 94.636 231.784,94.291 230.711,93.870 229.885 C 93.448 229.059,93.098 227.902,93.090 227.314 C 93.083 226.726,92.744 225.556,92.337 224.713 C 91.930 223.870,91.591 222.626,91.584 221.949 C 91.577 221.272,91.226 219.843,90.805 218.774 C 90.383 217.705,90.038 216.141,90.038 215.299 C 90.038 214.457,89.772 213.131,89.446 212.351 C 89.120 211.572,88.690 209.210,88.489 207.103 C 88.288 204.996,87.908 202.665,87.644 201.923 C 86.815 199.590,86.975 171.334,87.835 168.406 C 88.204 167.150,88.506 165.465,88.506 164.661 C 88.506 163.857,88.851 162.218,89.272 161.019 C 89.693 159.820,90.038 158.438,90.038 157.948 C 90.038 157.458,90.383 156.382,90.805 155.556 C 91.226 154.729,91.571 153.701,91.571 153.271 C 91.571 152.840,91.916 151.844,92.337 151.058 C 92.759 150.272,93.103 149.401,93.103 149.124 C 93.103 148.846,93.436 147.982,93.842 147.202 C 94.248 146.423,95.120 144.665,95.781 143.295 C 96.441 141.925,97.393 140.115,97.897 139.272 C 98.402 138.429,98.943 137.481,99.100 137.165 C 99.258 136.849,99.875 135.900,100.472 135.057 C 101.069 134.215,101.850 133.094,102.207 132.567 C 102.564 132.040,102.965 131.523,103.097 131.418 C 103.230 131.312,104.250 130.105,105.363 128.736 C 108.363 125.043,113.719 120.111,117.361 117.688 C 118.205 117.126,119.285 116.408,119.759 116.092 C 121.136 115.175,124.548 113.297,126.628 112.310 C 127.682 111.810,129.182 111.077,129.961 110.681 C 130.740 110.286,131.689 109.956,132.068 109.949 C 132.448 109.942,133.448 109.603,134.291 109.195 C 135.134 108.788,136.303 108.449,136.890 108.442 C 137.476 108.435,138.597 108.157,139.380 107.824 C 143.569 106.045,160.627 106.046,164.834 107.826 C 165.618 108.158,166.652 108.435,167.133 108.442 C 167.614 108.449,168.697 108.788,169.540 109.195 C 170.383 109.603,171.375 109.942,171.745 109.949 C 172.114 109.956,173.060 110.307,173.846 110.728 C 174.633 111.149,175.518 111.494,175.814 111.494 C 176.111 111.494,177.061 111.816,177.927 112.209 C 182.198 114.147,183.199 114.560,183.631 114.562 C 183.889 114.563,184.613 114.832,185.241 115.159 C 185.869 115.487,187.248 115.937,188.306 116.160 C 189.364 116.382,190.461 116.751,190.743 116.978 C 191.791 117.823,197.698 117.773,200.178 116.898 C 201.435 116.455,202.819 116.092,203.254 116.092 C 203.689 116.092,204.389 115.850,204.811 115.555 C 205.233 115.259,206.344 114.811,207.280 114.559 C 208.216 114.307,209.327 113.859,209.748 113.564 C 210.170 113.269,210.865 113.026,211.292 113.024 C 211.719 113.023,212.586 112.679,213.218 112.261 C 213.851 111.842,214.670 111.498,215.040 111.497 C 215.409 111.495,216.355 111.149,217.141 110.728 C 217.928 110.307,218.882 109.962,219.262 109.962 C 219.643 109.962,220.630 109.617,221.456 109.195 C 222.282 108.774,223.439 108.423,224.027 108.416 C 224.615 108.409,225.785 108.070,226.628 107.663 C 227.471 107.256,228.764 106.913,229.502 106.900 C 230.239 106.888,231.533 106.695,232.375 106.471 C 235.929 105.528,237.299 105.418,243.678 105.561 C 248.154 105.661,251.079 105.908,252.478 106.304 " stroke="none" fill="#fbfbfb" fill-rule="evenodd"></path><path id="path2" d="M192.852 97.893 C 192.853 99.579,192.920 100.221,193.001 99.319 C 193.082 98.418,193.081 97.039,192.999 96.254 C 192.916 95.470,192.850 96.207,192.852 97.893 M196.073 103.342 C 196.758 103.427,197.878 103.427,198.563 103.342 C 199.248 103.257,198.688 103.188,197.318 103.188 C 195.948 103.188,195.388 103.257,196.073 103.342 M246.073 106.394 C 246.442 106.491,247.045 106.491,247.414 106.394 C 247.783 106.298,247.481 106.219,246.743 106.219 C 246.006 106.219,245.704 106.298,246.073 106.394 M150.096 107.180 C 151.413 107.255,153.568 107.255,154.885 107.180 C 156.202 107.105,155.125 107.044,152.490 107.044 C 149.856 107.044,148.779 107.105,150.096 107.180 M194.737 118.283 C 195.319 118.371,196.182 118.368,196.653 118.277 C 197.124 118.186,196.648 118.114,195.594 118.117 C 194.540 118.120,194.155 118.195,194.737 118.283 M286.590 123.946 C 287.305 124.684,287.976 125.287,288.081 125.287 C 288.187 125.287,287.688 124.684,286.973 123.946 C 286.258 123.209,285.587 122.605,285.482 122.605 C 285.377 122.605,285.875 123.209,286.590 123.946 M106.876 127.874 L 105.556 129.310 106.992 127.990 C 107.783 127.264,108.429 126.617,108.429 126.553 C 108.429 126.261,108.105 126.536,106.876 127.874 M292.675 132.100 C 292.549 132.862,292.605 133.219,292.817 133.006 C 293.010 132.813,293.104 132.248,293.026 131.749 C 292.905 130.982,292.851 131.036,292.675 132.100 M87.461 176.628 C 87.461 177.577,87.535 177.965,87.627 177.490 C 87.718 177.016,87.718 176.240,87.627 175.766 C 87.535 175.292,87.461 175.680,87.461 176.628 M265.284 182.375 C 265.284 185.220,265.344 186.384,265.418 184.962 C 265.492 183.539,265.492 181.212,265.418 179.789 C 265.344 178.367,265.284 179.531,265.284 182.375 M87.466 193.678 C 87.469 194.732,87.543 195.117,87.631 194.535 C 87.719 193.953,87.717 193.090,87.626 192.619 C 87.535 192.148,87.463 192.625,87.466 193.678 M281.418 222.222 C 282.881 223.697,284.165 224.904,284.271 224.904 C 284.376 224.904,283.265 223.697,281.801 222.222 C 280.337 220.747,279.053 219.540,278.948 219.540 C 278.842 219.540,279.954 220.747,281.418 222.222 M128.352 289.775 C 128.352 289.841,128.913 290.401,129.598 291.020 L 130.843 292.146 129.718 290.900 C 128.669 289.740,128.352 289.479,128.352 289.775 M193.395 294.524 C 193.872 294.615,194.562 294.612,194.928 294.516 C 195.294 294.420,194.904 294.345,194.061 294.349 C 193.218 294.354,192.919 294.432,193.395 294.524 M202.974 294.524 C 203.450 294.615,204.140 294.612,204.506 294.516 C 204.873 294.420,204.483 294.345,203.640 294.349 C 202.797 294.354,202.497 294.432,202.974 294.524 M240.524 304.875 C 241.213 304.961,242.247 304.959,242.823 304.871 C 243.399 304.784,242.835 304.714,241.571 304.716 C 240.307 304.719,239.835 304.790,240.524 304.875 " stroke="none" fill="#7c7c7c" fill-rule="evenodd"></path><path id="path3" d="M241.762 43.301 C 236.619 44.455,235.159 44.833,232.950 45.584 C 210.809 53.110,193.917 74.798,193.205 96.612 C 192.978 103.557,192.717 103.282,199.215 102.945 C 211.381 102.316,224.520 94.587,234.140 82.401 C 235.532 80.637,240.230 73.047,240.230 72.561 C 240.230 72.417,240.650 71.419,241.163 70.345 C 246.440 59.301,248.075 42.752,243.870 42.962 C 243.448 42.983,242.500 43.135,241.762 43.301 M245.337 45.402 C 245.812 48.140,244.929 58.303,244.012 60.646 C 243.618 61.655,243.295 62.772,243.295 63.129 C 243.295 64.993,239.079 74.109,236.255 78.352 C 235.694 79.195,235.023 80.213,234.763 80.614 C 231.846 85.124,223.504 93.161,220.160 94.685 C 219.608 94.937,219.157 95.250,219.157 95.381 C 219.157 95.512,217.476 96.450,215.421 97.466 C 209.650 100.320,208.658 100.768,208.132 100.767 C 207.864 100.767,206.712 101.094,205.574 101.494 C 203.031 102.388,196.048 102.924,194.540 102.342 L 193.487 101.935 193.496 97.615 C 193.501 95.239,193.689 92.605,193.914 91.762 C 194.139 90.920,194.555 89.109,194.838 87.739 C 195.121 86.370,195.812 84.042,196.373 82.567 C 196.934 81.092,197.597 79.345,197.846 78.684 C 198.096 78.024,198.489 77.248,198.720 76.960 C 198.951 76.672,199.271 76.006,199.431 75.479 C 199.591 74.952,200.043 74.110,200.436 73.607 C 200.828 73.105,201.149 72.558,201.149 72.392 C 201.149 72.226,201.935 70.920,202.894 69.489 C 209.066 60.285,217.297 53.238,227.395 48.513 C 228.659 47.921,230.151 47.195,230.710 46.899 C 231.270 46.602,232.046 46.354,232.435 46.347 C 232.824 46.340,233.831 46.001,234.674 45.594 C 235.517 45.187,236.724 44.836,237.356 44.815 C 237.989 44.794,239.626 44.457,240.996 44.068 C 244.639 43.033,244.942 43.126,245.337 45.402 M234.291 106.932 C 229.557 107.647,227.946 108.045,222.031 109.961 C 217.407 111.459,215.371 112.185,213.927 112.852 C 213.263 113.159,212.599 113.410,212.452 113.410 C 212.305 113.410,211.641 113.657,210.977 113.958 C 209.578 114.593,205.943 115.941,202.107 117.249 C 196.735 119.080,191.292 118.448,182.471 114.970 C 181.365 114.533,179.555 113.820,178.448 113.383 C 177.342 112.947,175.747 112.343,174.904 112.040 C 174.061 111.737,173.027 111.324,172.605 111.122 C 170.735 110.225,164.928 108.560,160.345 107.606 C 157.307 106.973,144.058 107.398,140.805 108.233 C 125.597 112.135,115.324 118.316,106.095 129.119 C 104.745 130.699,103.551 132.079,103.442 132.184 C 103.333 132.289,102.402 133.669,101.374 135.249 C 100.346 136.830,99.217 138.554,98.866 139.080 C 97.919 140.501,93.487 149.656,93.487 150.190 C 93.487 150.443,93.229 151.194,92.914 151.858 C 91.753 154.309,89.321 164.235,88.255 170.881 C 87.285 176.926,87.261 193.170,88.213 199.617 C 88.571 202.040,89.043 205.230,89.262 206.705 C 90.543 215.329,93.845 228.206,96.728 235.824 C 97.286 237.299,97.912 239.057,98.118 239.732 C 98.324 240.406,98.745 241.440,99.052 242.030 C 99.360 242.621,99.613 243.243,99.614 243.415 C 99.616 243.586,100.048 244.663,100.575 245.809 C 101.102 246.955,101.985 248.884,102.537 250.096 C 106.264 258.269,111.503 267.315,116.127 273.563 C 116.673 274.301,118.626 276.940,120.468 279.429 C 122.310 281.918,125.074 285.452,126.610 287.283 C 131.236 292.798,133.145 294.646,139.335 299.612 C 146.995 305.755,160.213 306.387,171.839 301.164 C 172.555 300.842,175.274 299.717,179.310 298.072 C 191.484 293.111,206.386 293.052,217.816 297.920 C 218.448 298.189,220.259 298.950,221.839 299.610 C 223.420 300.271,225.057 300.969,225.479 301.162 C 235.049 305.536,248.482 305.415,255.865 300.889 C 264.938 295.326,273.366 286.107,283.296 270.881 C 284.327 269.301,285.458 267.577,285.810 267.050 C 286.162 266.523,286.576 265.833,286.730 265.517 C 286.884 265.201,287.431 264.253,287.947 263.410 C 288.462 262.567,289.140 261.330,289.454 260.660 C 289.768 259.991,290.513 258.611,291.109 257.595 C 292.219 255.701,297.318 244.464,297.318 243.910 C 297.318 243.741,297.568 243.059,297.873 242.395 C 299.907 237.969,300.386 235.038,299.138 234.649 C 296.618 233.864,289.812 229.485,285.441 225.835 C 281.383 222.447,279.855 220.798,275.176 214.751 C 269.114 206.916,265.326 194.393,265.326 182.184 C 265.326 162.708,274.868 144.840,291.092 133.940 C 293.261 132.482,293.232 131.540,290.932 128.777 C 285.020 121.676,277.977 116.075,270.690 112.678 C 265.833 110.414,264.464 109.905,260.221 108.792 C 258.677 108.387,257.287 107.977,257.132 107.881 C 255.009 106.569,240.642 105.972,234.291 106.932 M248.602 107.313 C 251.689 107.542,255.014 107.980,255.990 108.287 C 256.967 108.594,258.605 108.995,259.630 109.180 C 263.187 109.820,269.950 112.599,274.138 115.142 C 274.981 115.653,276.188 116.360,276.820 116.712 C 280.239 118.617,286.545 124.271,290.091 128.610 C 292.551 131.619,292.771 132.315,291.475 132.988 C 287.389 135.112,273.946 148.717,273.946 150.729 C 273.946 150.836,273.558 151.496,273.084 152.195 C 272.289 153.367,270.650 156.596,268.632 160.962 C 268.183 161.933,267.816 162.992,267.816 163.314 C 267.816 163.637,267.475 164.653,267.058 165.571 C 266.641 166.490,266.297 167.780,266.292 168.438 C 266.287 169.097,266.004 170.390,265.663 171.312 C 264.876 173.437,264.475 186.318,265.079 190.038 C 265.665 193.642,266.290 196.499,266.922 198.467 C 267.227 199.416,267.627 200.781,267.812 201.501 C 267.996 202.221,268.403 203.341,268.715 203.991 C 272.026 210.887,271.751 210.362,273.554 213.218 C 277.455 219.398,284.402 226.362,290.996 230.702 C 293.536 232.374,297.998 234.866,298.451 234.866 C 299.207 234.866,299.531 236.477,298.984 237.525 C 298.703 238.064,298.471 238.814,298.470 239.192 C 298.468 239.569,298.123 240.553,297.701 241.379 C 297.280 242.205,296.935 243.156,296.935 243.491 C 296.935 243.827,296.611 244.739,296.215 245.518 C 295.819 246.297,295.235 247.538,294.917 248.276 C 293.850 250.755,292.255 254.210,291.910 254.789 C 291.723 255.105,291.397 255.795,291.187 256.322 C 290.977 256.849,290.630 257.538,290.417 257.854 C 290.203 258.170,289.686 259.119,289.267 259.962 C 288.848 260.805,288.071 262.184,287.541 263.027 C 287.011 263.870,286.404 264.904,286.193 265.326 C 285.981 265.747,285.298 266.868,284.674 267.816 C 284.051 268.764,283.369 269.928,283.159 270.402 C 282.949 270.876,282.613 271.264,282.411 271.264 C 282.209 271.264,281.943 271.582,281.820 271.970 C 281.697 272.359,280.916 273.609,280.086 274.748 C 279.256 275.888,278.181 277.385,277.698 278.075 C 276.331 280.028,275.325 281.343,271.769 285.824 C 268.553 289.874,262.353 296.046,259.895 297.641 C 258.878 298.301,257.709 299.102,257.298 299.421 C 256.886 299.739,256.369 300.004,256.148 300.009 C 255.928 300.013,255.316 300.354,254.789 300.766 C 254.262 301.178,253.573 301.520,253.257 301.526 C 252.941 301.532,252.165 301.816,251.533 302.158 C 247.183 304.505,235.353 304.271,228.544 301.703 C 227.069 301.147,225.259 300.464,224.521 300.186 C 223.784 299.907,222.663 299.408,222.031 299.076 C 221.398 298.744,220.601 298.471,220.258 298.470 C 219.915 298.468,219.423 298.213,219.166 297.903 C 218.908 297.592,218.068 297.228,217.299 297.094 C 216.530 296.959,215.539 296.623,215.098 296.348 C 214.657 296.072,213.320 295.666,212.128 295.446 C 210.935 295.225,209.572 294.823,209.098 294.553 C 207.869 293.851,189.832 293.851,188.603 294.553 C 188.129 294.823,186.757 295.227,185.554 295.449 C 184.350 295.672,183.018 296.097,182.594 296.394 C 182.169 296.692,181.470 296.935,181.039 296.935 C 180.609 296.935,179.613 297.280,178.827 297.701 C 178.041 298.123,177.200 298.467,176.959 298.467 C 176.718 298.467,175.812 298.792,174.946 299.188 C 171.457 300.784,165.465 303.064,164.744 303.070 C 164.432 303.072,162.797 303.415,161.111 303.831 C 157.723 304.668,154.260 304.796,151.916 304.170 C 151.073 303.945,149.521 303.556,148.467 303.305 C 147.414 303.055,146.000 302.553,145.326 302.191 C 144.651 301.829,143.926 301.533,143.714 301.533 C 143.502 301.533,142.675 301.098,141.875 300.568 C 141.076 300.037,140.093 299.390,139.692 299.131 C 135.819 296.625,130.520 291.314,125.079 284.483 C 122.897 281.743,120.874 279.230,120.584 278.898 C 120.294 278.566,119.940 278.049,119.798 277.749 C 119.656 277.449,118.767 276.169,117.822 274.904 C 115.323 271.560,110.728 264.730,110.728 264.358 C 110.728 264.183,110.482 263.794,110.182 263.493 C 109.881 263.193,109.363 262.361,109.030 261.646 C 108.696 260.930,108.002 259.655,107.487 258.812 C 106.972 257.969,106.442 257.021,106.309 256.705 C 105.828 255.557,105.362 254.586,105.025 254.023 C 104.835 253.707,104.490 253.017,104.258 252.490 C 104.027 251.964,103.690 251.274,103.511 250.958 C 102.782 249.671,101.531 246.913,101.532 246.594 C 101.533 246.264,100.724 244.393,99.196 241.188 C 98.794 240.345,98.466 239.415,98.466 239.122 C 98.467 238.829,98.148 237.881,97.758 237.015 C 96.779 234.839,95.793 231.918,95.386 229.986 C 95.198 229.093,94.780 227.852,94.457 227.227 C 94.134 226.603,93.870 225.734,93.870 225.297 C 93.870 224.860,93.525 223.521,93.103 222.322 C 92.682 221.123,92.337 219.777,92.337 219.331 C 92.337 218.885,92.011 217.413,91.612 216.061 C 91.213 214.708,90.709 212.395,90.493 210.920 C 90.277 209.444,89.925 207.375,89.711 206.322 C 89.497 205.268,89.125 202.423,88.884 200.000 C 88.643 197.577,88.301 194.559,88.125 193.295 C 87.670 190.035,87.682 179.966,88.144 177.011 C 88.358 175.642,88.777 172.329,89.074 169.649 C 89.371 166.969,89.786 164.456,89.996 164.064 C 90.206 163.672,90.497 162.416,90.643 161.273 C 90.789 160.130,91.123 158.764,91.385 158.238 C 91.647 157.711,91.982 156.676,92.128 155.939 C 92.526 153.934,93.840 150.463,95.900 145.977 C 96.432 144.818,96.977 143.611,97.111 143.295 C 97.245 142.979,97.771 142.031,98.280 141.188 C 98.789 140.345,99.558 139.052,99.990 138.314 C 101.365 135.964,101.694 135.481,103.161 133.665 C 103.951 132.687,104.598 131.778,104.598 131.647 C 104.598 131.051,111.546 123.919,114.368 121.617 C 117.534 119.035,121.079 116.648,123.946 115.168 C 124.579 114.842,125.354 114.424,125.670 114.240 C 128.456 112.620,137.669 109.200,139.272 109.191 C 139.693 109.188,141.418 108.846,143.103 108.429 C 146.592 107.567,157.205 107.354,159.962 108.090 C 160.805 108.316,162.615 108.730,163.985 109.012 C 165.354 109.294,167.337 109.825,168.391 110.193 C 173.196 111.868,174.627 112.403,176.096 113.074 C 176.962 113.469,177.867 113.793,178.108 113.793 C 178.350 113.793,179.190 114.138,179.977 114.559 C 180.763 114.981,181.672 115.326,181.997 115.326 C 182.322 115.326,182.949 115.578,183.390 115.887 C 183.831 116.196,184.861 116.615,185.678 116.819 C 186.496 117.022,187.941 117.484,188.889 117.845 C 191.649 118.895,199.963 118.803,202.443 117.694 C 203.471 117.234,204.594 116.858,204.939 116.858 C 205.285 116.858,206.210 116.513,206.997 116.092 C 207.783 115.670,208.631 115.326,208.881 115.326 C 209.132 115.326,210.038 115.012,210.894 114.628 C 211.751 114.244,213.056 113.710,213.793 113.441 C 214.531 113.173,216.255 112.528,217.625 112.010 C 218.994 111.491,220.899 110.843,221.857 110.569 C 222.815 110.296,223.967 109.875,224.418 109.634 C 224.868 109.393,225.587 109.195,226.015 109.195 C 226.443 109.195,227.618 108.909,228.626 108.559 C 232.490 107.217,240.541 106.715,248.602 107.313 " stroke="none" fill="#747474" fill-rule="evenodd"></path><path id="path4" d="M237.946 43.309 C 236.795 43.723,235.502 44.067,235.072 44.074 C 234.643 44.081,233.602 44.420,232.759 44.828 C 231.916 45.235,230.991 45.574,230.704 45.581 C 230.416 45.588,229.554 45.918,228.788 46.313 C 228.022 46.709,226.964 47.225,226.437 47.460 C 225.910 47.695,225.220 48.034,224.904 48.214 C 224.588 48.393,223.898 48.770,223.372 49.051 C 221.345 50.131,220.834 50.435,219.349 51.443 C 216.364 53.467,215.897 53.823,215.594 54.304 C 215.425 54.571,215.105 54.789,214.882 54.789 C 214.658 54.789,214.107 55.117,213.656 55.518 C 213.204 55.919,211.990 56.996,210.957 57.912 C 209.924 58.829,208.065 60.785,206.827 62.261 C 205.588 63.736,204.321 65.216,204.012 65.549 C 203.702 65.883,203.448 66.349,203.448 66.584 C 203.448 66.819,203.213 67.150,202.925 67.318 C 202.638 67.487,202.115 68.142,201.764 68.774 C 201.413 69.406,200.797 70.441,200.395 71.073 C 199.209 72.940,195.783 79.844,195.784 80.365 C 195.785 80.630,195.441 81.489,195.019 82.275 C 194.598 83.062,194.253 84.058,194.253 84.490 C 194.253 84.922,193.922 86.218,193.517 87.370 C 192.686 89.733,192.058 98.339,192.501 101.292 C 192.833 103.500,193.978 104.213,197.203 104.218 C 199.614 104.221,205.670 103.018,208.812 101.910 C 212.330 100.671,219.389 97.154,220.650 96.012 C 221.021 95.677,221.469 95.402,221.646 95.402 C 221.822 95.402,222.239 95.147,222.573 94.834 C 222.907 94.521,224.301 93.360,225.670 92.253 C 229.507 89.154,234.866 83.440,234.866 82.449 C 234.866 82.219,235.082 81.893,235.346 81.724 C 235.772 81.452,236.304 80.697,238.664 77.011 C 239.198 76.179,241.507 71.541,243.149 68.008 C 243.923 66.340,244.881 62.898,246.241 56.897 C 247.266 52.368,247.236 43.837,246.191 43.073 C 245.081 42.261,240.494 42.393,237.946 43.309 M245.594 43.286 C 247.996 44.803,245.195 62.877,241.381 70.471 C 241.215 70.802,240.523 72.193,239.844 73.563 C 238.642 75.989,235.206 81.399,233.828 83.037 C 230.322 87.203,228.979 88.637,226.645 90.705 C 215.353 100.710,194.669 107.307,193.068 101.415 C 191.957 97.329,194.282 83.874,196.945 78.973 C 197.130 78.632,197.778 77.318,198.385 76.054 C 199.923 72.846,202.984 67.787,204.606 65.770 C 211.812 56.813,224.491 47.560,232.033 45.754 C 232.643 45.608,233.328 45.343,233.555 45.166 C 233.782 44.989,235.161 44.572,236.620 44.240 C 238.078 43.908,239.789 43.491,240.421 43.314 C 242.015 42.865,244.903 42.850,245.594 43.286 M235.441 105.738 C 234.598 105.917,233.218 106.248,232.375 106.471 C 231.533 106.695,230.239 106.888,229.502 106.900 C 228.764 106.913,227.471 107.256,226.628 107.663 C 225.785 108.070,224.615 108.409,224.027 108.416 C 223.439 108.423,222.282 108.774,221.456 109.195 C 220.630 109.617,219.643 109.962,219.262 109.962 C 218.882 109.962,217.928 110.307,217.141 110.728 C 216.355 111.149,215.409 111.495,215.040 111.497 C 214.670 111.498,213.851 111.842,213.218 112.261 C 212.586 112.679,211.719 113.023,211.292 113.024 C 210.865 113.026,210.170 113.269,209.748 113.564 C 209.327 113.859,208.216 114.307,207.280 114.559 C 206.344 114.811,205.233 115.259,204.811 115.555 C 204.389 115.850,203.689 116.092,203.254 116.092 C 202.819 116.092,201.435 116.455,200.178 116.898 C 197.698 117.773,191.791 117.823,190.743 116.978 C 190.461 116.751,189.364 116.382,188.306 116.160 C 187.248 115.937,185.869 115.487,185.241 115.159 C 184.613 114.832,183.889 114.563,183.631 114.562 C 183.199 114.560,182.198 114.147,177.927 112.209 C 177.061 111.816,176.111 111.494,175.814 111.494 C 175.518 111.494,174.633 111.149,173.846 110.728 C 173.060 110.307,172.114 109.956,171.745 109.949 C 171.375 109.942,170.383 109.603,169.540 109.195 C 168.697 108.788,167.614 108.449,167.133 108.442 C 166.652 108.435,165.618 108.158,164.834 107.826 C 160.627 106.046,143.569 106.045,139.380 107.824 C 138.597 108.157,137.476 108.435,136.890 108.442 C 136.303 108.449,135.134 108.788,134.291 109.195 C 133.448 109.603,132.448 109.942,132.068 109.949 C 131.689 109.956,130.740 110.286,129.961 110.681 C 129.182 111.077,127.682 111.810,126.628 112.310 C 124.548 113.297,121.136 115.175,119.759 116.092 C 119.285 116.408,118.205 117.126,117.361 117.688 C 113.719 120.111,108.363 125.043,105.363 128.736 C 104.250 130.105,103.230 131.312,103.097 131.418 C 102.965 131.523,102.564 132.040,102.207 132.567 C 101.850 133.094,101.069 134.215,100.472 135.057 C 99.875 135.900,99.258 136.849,99.100 137.165 C 98.943 137.481,98.402 138.429,97.897 139.272 C 97.393 140.115,96.441 141.925,95.781 143.295 C 95.120 144.665,94.248 146.423,93.842 147.202 C 93.436 147.982,93.103 148.846,93.103 149.124 C 93.103 149.401,92.759 150.272,92.337 151.058 C 91.916 151.844,91.571 152.840,91.571 153.271 C 91.571 153.701,91.226 154.729,90.805 155.556 C 90.383 156.382,90.038 157.458,90.038 157.948 C 90.038 158.438,89.693 159.820,89.272 161.019 C 88.851 162.218,88.506 163.857,88.506 164.661 C 88.506 165.465,88.204 167.150,87.835 168.406 C 86.975 171.334,86.815 199.590,87.644 201.923 C 87.908 202.665,88.288 204.996,88.489 207.103 C 88.690 209.210,89.120 211.572,89.446 212.351 C 89.772 213.131,90.038 214.457,90.038 215.299 C 90.038 216.141,90.383 217.705,90.805 218.774 C 91.226 219.843,91.577 221.272,91.584 221.949 C 91.591 222.626,91.930 223.870,92.337 224.713 C 92.744 225.556,93.083 226.726,93.090 227.314 C 93.098 227.902,93.448 229.059,93.870 229.885 C 94.291 230.711,94.636 231.784,94.636 232.270 C 94.636 232.756,94.981 233.796,95.402 234.583 C 95.824 235.369,96.169 236.317,96.169 236.690 C 96.169 237.063,96.513 238.011,96.935 238.797 C 97.356 239.584,97.702 240.529,97.704 240.899 C 97.705 241.269,98.049 242.088,98.467 242.720 C 98.886 243.352,99.230 244.234,99.231 244.680 C 99.233 245.126,99.579 245.929,100.000 246.465 C 100.421 247.000,100.766 247.776,100.766 248.189 C 100.766 248.601,101.111 249.377,101.533 249.913 C 101.954 250.449,102.298 251.032,102.297 251.210 C 102.296 251.589,105.778 258.506,107.089 260.728 C 107.586 261.571,108.268 262.778,108.605 263.410 C 109.669 265.412,110.203 266.258,110.858 266.982 C 111.208 267.368,111.494 267.834,111.494 268.017 C 111.494 268.398,113.436 271.337,113.922 271.692 C 114.100 271.821,114.445 272.263,114.690 272.673 C 116.096 275.034,116.974 276.245,117.279 276.245 C 117.469 276.245,117.625 276.433,117.625 276.664 C 117.625 277.151,117.850 277.458,123.232 284.282 C 129.197 291.846,134.909 297.747,137.865 299.400 C 138.217 299.598,138.734 299.985,139.012 300.263 C 139.291 300.540,139.666 300.766,139.847 300.766 C 140.027 300.766,140.403 300.984,140.681 301.251 C 141.372 301.912,145.164 303.831,145.779 303.831 C 146.053 303.831,147.028 304.172,147.947 304.589 C 150.427 305.715,161.075 305.720,164.268 304.598 C 165.467 304.176,166.716 303.831,167.042 303.831 C 167.369 303.831,168.279 303.487,169.066 303.065 C 169.852 302.644,170.798 302.298,171.167 302.296 C 171.537 302.295,172.356 301.951,172.989 301.533 C 173.621 301.114,174.399 300.770,174.718 300.769 C 175.038 300.767,175.942 300.421,176.728 300.000 C 177.515 299.579,178.374 299.233,178.638 299.231 C 178.903 299.230,179.636 298.949,180.268 298.607 C 180.900 298.264,182.021 297.848,182.759 297.681 C 183.496 297.514,184.875 297.115,185.824 296.795 C 194.375 293.904,209.528 294.740,216.934 298.512 C 217.713 298.909,218.576 299.233,218.850 299.233 C 219.325 299.232,221.103 300.011,224.214 301.583 C 224.993 301.977,225.899 302.299,226.227 302.299 C 226.555 302.299,227.466 302.644,228.252 303.065 C 229.039 303.487,230.164 303.831,230.754 303.831 C 231.343 303.831,232.466 304.113,233.250 304.458 C 235.714 305.542,245.188 305.657,248.071 304.639 C 249.328 304.195,250.707 303.830,251.136 303.829 C 251.565 303.828,252.433 303.484,253.065 303.065 C 253.697 302.646,254.437 302.303,254.709 302.301 C 254.981 302.300,255.671 301.981,256.242 301.593 C 256.813 301.204,258.056 300.386,259.004 299.774 C 259.952 299.162,260.866 298.445,261.034 298.181 C 261.203 297.917,261.520 297.701,261.739 297.701 C 262.633 297.701,267.356 293.010,272.540 286.973 C 274.590 284.587,277.069 281.262,279.968 277.011 C 281.599 274.619,281.633 274.573,282.944 272.933 C 283.474 272.271,283.908 271.595,283.908 271.431 C 283.908 271.267,284.194 270.817,284.545 270.430 C 285.211 269.693,285.856 268.657,286.649 267.050 C 286.909 266.523,287.363 265.802,287.657 265.448 C 288.426 264.524,293.342 254.942,295.484 250.192 C 295.912 249.243,296.586 247.830,296.982 247.051 C 297.377 246.271,297.702 245.323,297.704 244.943 C 297.705 244.564,298.049 243.736,298.467 243.103 C 298.886 242.471,299.230 241.607,299.231 241.182 C 299.233 240.757,299.579 239.767,300.000 238.980 C 301.671 235.863,300.918 234.447,296.503 232.401 C 295.792 232.072,294.693 231.462,294.061 231.047 C 293.429 230.631,292.395 230.004,291.762 229.652 C 291.130 229.300,290.527 228.903,290.421 228.769 C 290.316 228.636,289.799 228.251,289.272 227.914 C 285.951 225.793,278.018 217.699,275.582 213.945 C 275.322 213.545,274.717 212.615,274.237 211.877 C 273.757 211.140,273.152 210.105,272.892 209.579 C 272.632 209.052,272.275 208.362,272.099 208.046 C 270.938 205.965,270.115 204.182,270.115 203.750 C 270.115 203.472,269.796 202.644,269.407 201.910 C 269.017 201.176,268.588 199.865,268.453 198.997 C 268.317 198.129,267.947 196.922,267.630 196.315 C 267.314 195.708,267.053 194.508,267.052 193.650 C 267.051 192.791,266.775 190.492,266.440 188.540 C 265.526 183.219,266.222 172.975,267.836 168.008 C 268.247 166.743,268.582 165.400,268.582 165.023 C 268.582 164.646,268.927 163.661,269.349 162.835 C 269.770 162.009,270.115 161.052,270.115 160.708 C 270.115 160.364,270.460 159.644,270.881 159.108 C 271.303 158.573,271.648 157.836,271.648 157.471 C 271.648 157.107,271.992 156.370,272.414 155.834 C 272.835 155.298,273.180 154.612,273.180 154.309 C 273.180 154.006,273.525 153.447,273.946 153.065 C 274.368 152.684,274.713 152.166,274.713 151.916 C 274.713 151.665,275.057 151.148,275.479 150.766 C 275.900 150.385,276.245 149.849,276.245 149.577 C 276.245 149.304,276.476 148.942,276.758 148.774 C 277.040 148.605,277.428 148.179,277.620 147.827 C 278.054 147.031,280.482 144.183,282.739 141.821 C 284.298 140.190,289.500 135.869,291.573 134.483 C 293.800 132.994,293.904 132.833,293.510 131.479 C 292.877 129.304,286.962 122.787,282.333 119.163 C 279.096 116.630,279.359 116.822,277.395 115.553 C 274.078 113.411,273.737 113.212,271.837 112.310 C 270.784 111.810,269.286 111.077,268.506 110.681 C 267.727 110.286,266.821 109.962,266.494 109.962 C 266.166 109.962,265.254 109.617,264.468 109.195 C 263.682 108.774,262.654 108.429,262.185 108.429 C 261.715 108.429,260.456 108.084,259.387 107.663 C 258.318 107.241,256.797 106.897,256.008 106.897 C 255.219 106.897,253.630 106.630,252.478 106.304 C 250.052 105.617,237.897 105.213,235.441 105.738 M250.958 106.736 C 262.923 108.283,273.721 112.797,282.375 119.870 C 289.991 126.094,294.464 132.216,292.241 133.372 C 287.748 135.709,278.678 144.774,274.646 150.958 C 266.928 162.794,263.759 178.868,266.358 192.993 C 267.424 198.784,270.037 206.078,272.505 210.153 C 279.045 220.949,287.393 228.602,299.041 234.478 C 300.413 235.171,300.637 236.001,299.868 237.544 C 299.553 238.174,299.173 239.252,299.022 239.939 C 298.872 240.626,298.427 241.789,298.033 242.523 C 297.640 243.257,297.318 244.072,297.318 244.333 C 297.318 244.594,296.941 245.631,296.480 246.637 C 293.127 253.956,291.086 258.251,290.418 259.387 C 290.232 259.703,289.424 261.142,288.623 262.585 C 287.821 264.028,286.868 265.665,286.505 266.225 C 286.142 266.784,285.497 267.845,285.071 268.582 C 277.504 281.684,262.978 297.627,255.231 301.331 C 254.040 301.901,252.775 302.518,252.421 302.703 C 246.506 305.786,232.017 304.963,224.950 301.141 C 224.609 300.956,223.209 300.351,221.839 299.796 C 220.469 299.240,218.831 298.546,218.199 298.252 C 206.139 292.649,190.547 293.213,175.670 299.790 C 175.038 300.069,174.090 300.427,173.563 300.584 C 173.036 300.741,172.265 301.105,171.850 301.393 C 171.434 301.680,170.831 301.917,170.509 301.918 C 170.187 301.919,169.444 302.170,168.858 302.476 C 166.397 303.760,159.966 304.981,155.667 304.981 C 142.855 304.981,132.895 297.286,116.986 275.096 C 114.855 272.124,110.852 266.143,110.191 264.943 C 109.842 264.310,109.194 263.190,108.750 262.452 C 106.879 259.341,103.857 253.476,101.744 248.851 C 101.167 247.586,100.452 246.094,100.155 245.535 C 99.859 244.975,99.617 244.305,99.617 244.044 C 99.617 243.784,99.293 242.862,98.898 241.996 C 98.232 240.539,97.819 239.452,95.860 233.998 C 95.464 232.895,94.776 230.785,94.331 229.310 C 93.886 227.835,93.183 225.508,92.768 224.138 C 92.354 222.768,91.895 220.872,91.748 219.923 C 91.602 218.975,91.334 217.918,91.154 217.573 C 90.973 217.229,90.638 215.677,90.408 214.125 C 90.178 212.573,89.823 210.764,89.618 210.106 C 89.413 209.449,89.004 206.949,88.710 204.551 C 88.415 202.153,87.976 198.670,87.733 196.811 C 85.306 178.239,90.471 151.258,98.857 138.697 C 99.209 138.170,99.992 136.964,100.597 136.015 C 112.049 118.069,131.677 107.100,152.299 107.124 C 162.031 107.136,164.266 107.660,179.119 113.411 C 190.076 117.655,190.201 117.691,194.476 117.907 C 198.797 118.126,202.119 117.373,208.466 114.736 C 210.221 114.007,211.836 113.409,212.055 113.408 C 212.273 113.406,212.969 113.135,213.602 112.806 C 215.361 111.888,222.492 109.449,227.395 108.090 C 234.332 106.166,242.789 105.680,250.958 106.736 " stroke="none" fill="#a0a0a0" fill-rule="evenodd"></path></g></svg>