<?xml version="1.0" standalone="no"?>
<!DOCTYPE svg PUBLIC "-//W3C//DTD SVG 20010904//EN"
 "http://www.w3.org/TR/2001/REC-SVG-20010904/DTD/svg10.dtd">
<svg version="1.0" xmlns="http://www.w3.org/2000/svg"
 width="497.000000pt" height="462.000000pt" viewBox="0 0 497.000000 462.000000"
 preserveAspectRatio="xMidYMid meet">

<g transform="translate(0.000000,462.000000) scale(0.100000,-0.100000)"
fill="#000000" stroke="none">
<path d="M1515 4089 c-409 -58 -751 -394 -815 -800 -8 -54 -10 -349 -8 -1064
3 -972 4 -991 24 -1055 59 -184 134 -311 253 -431 129 -128 284 -217 457 -261
l89 -23 995 0 995 0 89 23 c376 96 667 410 726 783 8 53 10 350 8 1059 l-3
985 -28 89 c-53 170 -127 294 -247 416 -150 154 -341 250 -554 279 -94 13
-1889 13 -1981 0z m478 -207 c3 -4 3 -37 0 -74 l-6 -67 -171 -77 c-94 -42
-204 -91 -243 -110 l-73 -33 0 -303 0 -303 195 -180 c108 -99 218 -200 245
-225 l50 -45 0 -252 0 -251 -34 -20 c-39 -23 -79 -74 -95 -121 -41 -124 42
-259 177 -284 84 -16 190 40 232 124 27 51 27 137 0 188 -18 36 -94 111 -112
111 -4 0 -8 129 -9 288 l0 287 -245 225 -244 225 2 219 3 218 240 107 240 107
6 119 c4 66 7 123 8 128 0 4 65 6 144 5 l142 -3 5 -375 5 -375 194 -280 c107
-154 209 -301 227 -327 l33 -47 1 -308 c0 -169 1 -443 0 -609 l0 -301 -44 -31
c-150 -108 -103 -344 78 -393 153 -41 299 102 265 261 -13 57 -39 96 -95 139
l-44 33 0 627 0 627 -230 334 -230 335 0 347 0 348 343 -2 342 -3 5 -255 5
-255 178 -264 177 -264 0 -181 0 -182 -46 -38 c-140 -117 -99 -332 72 -382 49
-14 65 -15 113 -4 96 21 171 115 171 214 0 76 -57 170 -120 196 l-30 12 0 207
0 207 -180 267 -180 267 0 226 0 226 33 -7 c130 -27 264 -90 360 -170 104 -87
194 -225 239 -367 l23 -73 0 -990 0 -990 -28 -87 c-83 -251 -270 -432 -528
-509 -71 -22 -93 -23 -531 -27 l-458 -3 0 984 0 985 -151 213 c-115 164 -149
218 -144 234 4 11 9 47 12 80 6 69 -8 111 -53 164 -89 106 -272 90 -347 -30
-50 -81 -49 -163 3 -240 42 -64 98 -93 184 -95 80 -2 59 19 225 -218 l111
-159 0 -959 0 -958 -392 0 c-400 0 -471 5 -590 41 l-68 20 0 614 c0 389 4 615
10 615 20 0 84 66 101 105 43 95 7 221 -79 276 -93 59 -193 48 -273 -30 -102
-99 -88 -251 30 -336 l51 -37 0 -549 c0 -302 -3 -549 -6 -549 -16 0 -80 60
-125 116 -61 77 -111 170 -141 266 l-23 73 0 990 0 990 29 88 c16 48 45 114
65 147 42 70 120 170 132 170 5 0 9 -188 9 -419 l0 -419 235 -227 235 -227 0
-425 0 -425 46 -136 c25 -75 50 -145 56 -155 7 -14 3 -28 -19 -60 -25 -38 -28
-51 -28 -123 0 -73 3 -85 29 -123 16 -23 50 -54 75 -69 83 -48 202 -31 268 40
33 35 63 108 63 154 0 99 -102 214 -191 214 -47 0 -52 8 -103 165 l-36 111 0
447 0 448 -235 231 -235 230 0 448 0 447 58 26 c51 22 151 50 222 60 48 8 409
7 413 -1z m138 -648 c44 -40 26 -122 -31 -142 -68 -24 -132 40 -109 108 20 56
96 74 140 34z m1674 -899 c55 -54 19 -145 -58 -145 -81 1 -114 99 -50 150 35
27 78 26 108 -5z m-2475 -125 c61 -61 10 -162 -75 -146 -65 13 -90 93 -45 141
30 32 91 34 120 5z m800 -395 c50 -54 15 -145 -56 -145 -49 0 -88 38 -88 85 0
75 93 114 144 60z m-195 -700 c53 -52 16 -145 -57 -145 -38 0 -48 6 -71 40
-25 36 -21 68 12 101 38 37 82 39 116 4z m1119 -1 c55 -55 18 -144 -59 -144
-77 0 -114 89 -59 144 36 35 82 35 118 0z"/>
<path d="M2908 3536 c-52 -19 -83 -40 -111 -78 -111 -150 -8 -352 178 -351
l61 0 84 -116 85 -116 5 -634 5 -635 80 -48 c44 -26 114 -69 155 -95 75 -48
75 -48 81 -100 20 -159 192 -242 333 -159 67 39 101 102 101 187 0 56 -5 73
-30 114 -60 98 -184 132 -287 80 -57 -29 -52 -31 -193 60 l-85 55 0 603 c0
459 -3 607 -13 624 -6 12 -43 66 -82 118 -120 166 -118 161 -100 195 17 33 20
126 5 164 -19 51 -89 115 -143 131 -61 18 -81 18 -129 1z m126 -157 c34 -40
33 -74 -3 -110 -57 -57 -143 -23 -143 56 0 80 95 116 146 54z m755 -1914 c52
-27 60 -97 15 -136 -47 -41 -110 -26 -134 31 -11 27 -11 37 3 66 25 51 67 65
116 39z"/>
</g>
</svg>
