<svg id="svg" version="1.1" xmlns="http://www.w3.org/2000/svg" xmlns:xlink="http://www.w3.org/1999/xlink" width="400" height="449.6666666666667" viewBox="0, 0, 400,449.6666666666667"><g id="svgg"><path id="path0" d="M191.674 0.691 C 187.677 1.554,185.032 2.608,180.833 5.010 C 175.487 8.068,160.258 16.849,151.333 22.019 C 147.758 24.090,142.958 26.859,140.667 28.173 C 136.714 30.438,133.635 32.217,118.833 40.785 C 115.350 42.801,110.625 45.526,108.333 46.839 C 104.381 49.105,101.302 50.884,86.500 59.451 C 83.017 61.468,78.292 64.193,76.000 65.507 C 73.708 66.821,69.808 69.071,67.333 70.505 C 59.647 74.961,50.488 80.250,43.753 84.120 C 41.414 85.464,37.475 87.737,35.000 89.172 C 32.525 90.607,29.150 92.560,27.500 93.512 C 25.850 94.464,22.400 96.455,19.833 97.937 C 10.192 103.504,4.448 110.636,1.110 121.185 L 0.167 124.167 0.066 223.500 C -0.010 297.789,0.063 323.462,0.352 325.328 C 0.795 328.177,2.258 332.537,3.794 335.586 L 4.844 337.671 41.839 316.303 C 62.186 304.551,80.033 294.256,81.500 293.424 C 82.967 292.593,84.201 291.886,84.242 291.853 C 84.284 291.820,82.845 288.877,81.046 285.313 C 38.081 200.206,95.094 99.494,190.500 91.967 C 238.965 88.144,288.187 113.404,313.648 155.164 L 315.558 158.297 354.863 135.617 C 376.480 123.144,394.347 112.764,394.566 112.552 C 395.206 111.936,391.715 107.110,388.195 103.746 C 384.815 100.514,385.966 101.226,358.667 85.496 C 356.375 84.176,352.550 81.970,350.167 80.594 C 347.783 79.217,342.758 76.323,339.000 74.161 C 335.242 71.999,331.607 69.878,330.923 69.448 C 330.239 69.018,329.612 68.667,329.529 68.667 C 329.447 68.667,327.381 67.495,324.939 66.064 C 322.498 64.632,318.400 62.248,315.833 60.766 C 313.267 59.284,308.242 56.382,304.667 54.317 C 301.092 52.253,297.492 50.187,296.667 49.727 C 295.842 49.267,293.592 47.967,291.667 46.837 C 289.742 45.708,286.067 43.573,283.500 42.092 C 280.933 40.612,275.908 37.713,272.333 35.649 C 268.758 33.585,265.158 31.521,264.333 31.061 C 263.508 30.600,261.258 29.300,259.333 28.170 C 257.408 27.041,253.733 24.906,251.167 23.426 C 248.600 21.946,243.575 19.046,240.000 16.983 C 212.894 1.336,215.052 2.484,210.167 1.106 C 205.850 -0.111,196.373 -0.324,191.674 0.691 M190.500 159.170 C 144.704 166.443,119.429 216.406,141.319 256.388 L 142.352 258.276 146.259 256.020 C 148.408 254.779,156.092 250.343,163.333 246.161 C 170.575 241.980,177.850 237.780,179.500 236.829 C 181.150 235.877,198.700 225.748,218.500 214.320 C 238.300 202.892,255.137 193.182,255.917 192.742 C 257.712 191.729,257.705 191.660,255.464 188.301 C 245.626 173.559,230.758 163.585,213.000 159.814 C 207.769 158.703,195.629 158.355,190.500 159.170 M307.250 202.916 C 309.313 202.974,312.688 202.974,314.750 202.916 C 316.813 202.857,315.125 202.809,311.000 202.809 C 306.875 202.809,305.188 202.857,307.250 202.916 M362.917 202.916 C 364.979 202.974,368.354 202.974,370.417 202.916 C 372.479 202.857,370.792 202.809,366.667 202.809 C 362.542 202.809,360.854 202.857,362.917 202.916 M292.583 232.582 C 294.646 232.641,298.021 232.641,300.083 232.582 C 302.146 232.524,300.458 232.476,296.333 232.476 C 292.208 232.476,290.521 232.524,292.583 232.582 M322.250 232.582 C 324.313 232.641,327.688 232.641,329.750 232.582 C 331.813 232.524,330.125 232.476,326.000 232.476 C 321.875 232.476,320.188 232.524,322.250 232.582 M348.065 232.582 C 350.026 232.641,353.326 232.641,355.398 232.582 C 357.471 232.524,355.867 232.476,351.833 232.475 C 347.800 232.475,346.104 232.523,348.065 232.582 M377.732 232.582 C 379.692 232.641,382.992 232.641,385.065 232.582 C 387.138 232.524,385.533 232.476,381.500 232.475 C 377.467 232.475,375.771 232.523,377.732 232.582 " stroke="none" fill="#649cd3" fill-rule="evenodd"></path><path id="path1" d="M192.128 92.016 C 96.737 97.451,37.787 200.261,81.235 285.413 C 125.081 371.345,243.432 383.613,303.845 308.487 C 308.781 302.348,315.620 292.114,315.089 291.659 C 314.718 291.341,258.743 259.008,258.208 258.803 C 257.929 258.696,257.337 259.300,256.644 260.399 C 233.719 296.731,183.107 302.476,152.815 272.185 C 122.460 241.829,128.585 190.523,165.229 168.214 C 196.190 149.364,236.905 158.708,256.144 189.079 C 257.627 191.421,257.824 191.606,258.466 191.266 C 260.076 190.412,314.535 158.882,314.910 158.586 C 315.438 158.170,315.377 158.055,311.181 151.667 C 285.254 112.183,239.604 89.311,192.128 92.016 M303.667 210.333 L 303.667 217.667 296.333 217.667 L 289.000 217.667 289.000 225.000 L 289.000 232.333 296.327 232.333 L 303.654 232.333 303.744 239.750 L 303.833 247.167 311.083 247.257 L 318.333 247.346 318.333 239.840 L 318.333 232.333 325.833 232.333 L 333.333 232.333 333.333 225.000 L 333.333 217.667 325.833 217.667 L 318.333 217.667 318.333 210.333 L 318.333 203.000 311.000 203.000 L 303.667 203.000 303.667 210.333 M359.333 210.333 L 359.333 217.667 352.000 217.667 L 344.667 217.667 344.667 225.000 L 344.667 232.333 352.000 232.333 L 359.333 232.333 359.333 239.833 L 359.333 247.333 366.667 247.333 L 374.000 247.333 374.000 239.833 L 374.000 232.333 381.333 232.333 L 388.667 232.333 388.667 225.000 L 388.667 217.667 381.333 217.667 L 374.000 217.667 374.000 210.333 L 374.000 203.000 366.667 203.000 L 359.333 203.000 359.333 210.333 " stroke="none" fill="#fbfbfb" fill-rule="evenodd"></path><path id="path2" d="M356.000 135.104 C 274.585 182.141,258.044 191.692,231.667 206.898 C 216.725 215.512,190.523 230.623,173.439 240.478 L 142.378 258.396 143.436 260.115 C 168.654 301.102,228.651 302.048,255.394 261.880 C 256.509 260.204,257.529 258.714,257.660 258.568 C 257.791 258.422,270.889 265.818,286.767 275.004 L 315.636 291.705 314.277 293.936 C 277.662 354.031,201.307 375.725,139.134 343.697 C 117.289 332.443,98.291 314.744,85.858 294.062 C 84.974 292.591,84.443 292.015,84.095 292.148 C 83.462 292.391,5.588 337.319,5.244 337.640 C 4.534 338.303,10.323 345.543,13.721 348.240 C 15.612 349.741,178.721 444.198,184.000 446.848 C 188.857 449.287,190.154 449.500,200.167 449.500 L 209.167 449.500 212.299 448.407 C 214.234 447.731,217.738 445.988,221.466 443.846 C 301.440 397.890,384.736 349.497,386.747 347.820 C 392.242 343.237,396.805 335.933,399.234 327.833 C 399.804 325.930,399.837 321.008,399.919 225.803 L 400.005 125.773 399.178 122.512 C 398.337 119.195,395.773 112.973,395.167 112.777 C 394.983 112.717,377.358 122.765,356.000 135.104 M318.667 210.167 L 318.667 217.667 326.000 217.667 L 333.333 217.667 333.333 225.167 L 333.333 232.667 326.000 232.667 L 318.667 232.667 318.667 240.000 L 318.667 247.333 311.167 247.333 L 303.667 247.333 303.667 240.000 L 303.667 232.667 296.167 232.667 L 288.667 232.667 288.667 225.167 L 288.667 217.667 296.167 217.667 L 303.667 217.667 303.667 210.167 L 303.667 202.667 311.167 202.667 L 318.667 202.667 318.667 210.167 M374.256 210.250 L 374.346 217.667 381.673 217.667 L 389.000 217.667 389.000 225.167 L 389.000 232.667 381.667 232.667 L 374.333 232.667 374.333 240.000 L 374.333 247.333 366.667 247.333 L 359.000 247.333 359.000 240.000 L 359.000 232.667 351.667 232.667 L 344.333 232.667 344.333 225.167 L 344.333 217.667 351.667 217.667 L 359.000 217.667 359.000 210.389 C 359.000 206.386,359.103 203.008,359.228 202.883 C 359.354 202.757,362.767 202.695,366.812 202.744 L 374.167 202.833 374.256 210.250 " stroke="none" fill="#044d8d" fill-rule="evenodd"></path><path id="path3" d="M193.250 91.908 C 193.846 91.982,194.821 91.982,195.417 91.908 C 196.012 91.834,195.525 91.773,194.333 91.773 C 193.142 91.773,192.654 91.834,193.250 91.908 M204.589 91.908 C 205.188 91.982,206.088 91.981,206.589 91.905 C 207.090 91.829,206.600 91.768,205.500 91.770 C 204.400 91.772,203.990 91.834,204.589 91.908 M210.417 92.230 C 210.737 92.314,211.262 92.314,211.583 92.230 C 211.904 92.146,211.642 92.077,211.000 92.077 C 210.358 92.077,210.096 92.146,210.417 92.230 M108.322 128.250 L 106.500 130.167 108.417 128.345 C 110.197 126.652,110.486 126.333,110.239 126.333 C 110.187 126.333,109.324 127.196,108.322 128.250 M290.667 127.500 C 291.289 128.142,291.872 128.667,291.964 128.667 C 292.056 128.667,291.622 128.142,291.000 127.500 C 290.378 126.858,289.794 126.333,289.703 126.333 C 289.611 126.333,290.045 126.858,290.667 127.500 M102.821 133.750 L 101.167 135.500 102.917 133.846 C 103.879 132.936,104.667 132.149,104.667 132.096 C 104.667 131.847,104.358 132.124,102.821 133.750 M298.000 134.833 C 298.622 135.475,299.206 136.000,299.297 136.000 C 299.389 136.000,298.955 135.475,298.333 134.833 C 297.711 134.192,297.128 133.667,297.036 133.667 C 296.944 133.667,297.378 134.192,298.000 134.833 M197.750 158.581 C 198.987 158.645,201.012 158.645,202.250 158.581 C 203.487 158.516,202.475 158.464,200.000 158.464 C 197.525 158.464,196.512 158.516,197.750 158.581 M243.667 174.771 C 243.667 174.828,244.154 175.316,244.750 175.854 L 245.833 176.833 244.854 175.750 C 243.942 174.740,243.667 174.513,243.667 174.771 M154.484 176.417 L 153.167 177.833 154.583 176.516 C 155.362 175.791,156.000 175.153,156.000 175.099 C 156.000 174.847,155.710 175.099,154.484 176.417 M150.982 179.917 L 149.833 181.167 151.083 180.018 C 152.247 178.949,152.487 178.667,152.232 178.667 C 152.176 178.667,151.614 179.229,150.982 179.917 M248.667 179.771 C 248.667 179.828,249.154 180.316,249.750 180.854 L 250.833 181.833 249.854 180.750 C 248.942 179.740,248.667 179.513,248.667 179.771 M318.476 210.333 C 318.476 214.458,318.524 216.146,318.582 214.083 C 318.641 212.021,318.641 208.646,318.582 206.583 C 318.524 204.521,318.476 206.208,318.476 210.333 M66.767 218.000 C 66.767 219.008,66.829 219.421,66.905 218.917 C 66.982 218.412,66.982 217.588,66.905 217.083 C 66.829 216.579,66.767 216.992,66.767 218.000 M344.476 225.000 C 344.476 229.125,344.524 230.813,344.582 228.750 C 344.641 226.688,344.641 223.313,344.582 221.250 C 344.524 219.188,344.476 220.875,344.476 225.000 M388.809 225.000 C 388.809 229.125,388.857 230.813,388.916 228.750 C 388.974 226.688,388.974 223.313,388.916 221.250 C 388.857 219.188,388.809 220.875,388.809 225.000 M133.429 221.500 C 133.431 222.417,133.496 222.752,133.573 222.245 C 133.649 221.739,133.647 220.989,133.568 220.579 C 133.489 220.169,133.426 220.583,133.429 221.500 M133.424 228.667 C 133.424 229.492,133.489 229.829,133.569 229.417 C 133.648 229.004,133.648 228.329,133.569 227.917 C 133.489 227.504,133.424 227.842,133.424 228.667 M66.762 232.167 C 66.765 233.083,66.829 233.419,66.906 232.912 C 66.982 232.405,66.980 231.655,66.901 231.245 C 66.822 230.835,66.760 231.250,66.762 232.167 M318.476 239.667 C 318.476 243.792,318.524 245.479,318.582 243.417 C 318.641 241.354,318.641 237.979,318.582 235.917 C 318.524 233.854,318.476 235.542,318.476 239.667 M246.990 272.250 L 244.833 274.500 247.083 272.343 C 248.321 271.157,249.333 270.144,249.333 270.093 C 249.333 269.848,248.994 270.160,246.990 272.250 M152.667 272.167 C 153.662 273.175,154.552 274.000,154.644 274.000 C 154.736 274.000,153.996 273.175,153.000 272.167 C 152.004 271.158,151.114 270.333,151.023 270.333 C 150.931 270.333,151.671 271.158,152.667 272.167 M192.921 358.236 C 193.335 358.315,193.935 358.312,194.254 358.229 C 194.573 358.146,194.233 358.080,193.500 358.084 C 192.767 358.088,192.506 358.156,192.921 358.236 M205.750 358.230 C 206.071 358.314,206.596 358.314,206.917 358.230 C 207.237 358.146,206.975 358.077,206.333 358.077 C 205.692 358.077,205.429 358.146,205.750 358.230 " stroke="none" fill="#9abcdf" fill-rule="evenodd"></path><path id="path4" d="M288.809 225.000 C 288.809 229.125,288.857 230.813,288.916 228.750 C 288.974 226.688,288.974 223.313,288.916 221.250 C 288.857 219.188,288.809 220.875,288.809 225.000 " stroke="none" fill="#4d8cc6" fill-rule="evenodd"></path><path id="path5" d="M359.143 210.333 C 359.143 214.458,359.190 216.146,359.249 214.083 C 359.307 212.021,359.307 208.646,359.249 206.583 C 359.190 204.521,359.143 206.208,359.143 210.333 M374.143 210.333 C 374.143 214.458,374.190 216.146,374.249 214.083 C 374.307 212.021,374.307 208.646,374.249 206.583 C 374.190 204.521,374.143 206.208,374.143 210.333 M359.143 240.000 C 359.143 244.125,359.190 245.813,359.249 243.750 C 359.307 241.688,359.307 238.313,359.249 236.250 C 359.190 234.188,359.143 235.875,359.143 240.000 M374.143 240.000 C 374.143 244.125,374.190 245.813,374.249 243.750 C 374.307 241.688,374.307 238.313,374.249 236.250 C 374.190 234.188,374.143 235.875,374.143 240.000 M294.333 319.167 C 293.524 319.992,292.936 320.667,293.028 320.667 C 293.120 320.667,293.857 319.992,294.667 319.167 C 295.476 318.342,296.064 317.667,295.972 317.667 C 295.880 317.667,295.143 318.342,294.333 319.167 " stroke="none" fill="#4480b1" fill-rule="evenodd"></path></g></svg>