<svg id="svg" version="1.1" xmlns="http://www.w3.org/2000/svg" xmlns:xlink="http://www.w3.org/1999/xlink" width="400" height="334.6375143843498" viewBox="0, 0, 400,334.6375143843498"><g id="svgg"><path id="path0" d="M191.297 75.180 C 169.575 76.266,159.226 77.591,142.762 81.391 C 68.713 98.482,27.933 147.749,49.847 193.640 C 79.550 255.844,201.237 281.403,287.699 243.599 C 368.852 208.116,373.098 134.708,296.192 96.741 C 293.178 95.253,290.444 93.886,290.118 93.704 C 287.024 91.980,272.918 86.772,265.105 84.469 C 243.137 77.994,212.397 74.125,191.297 75.180 M119.740 115.483 C 122.679 115.793,125.689 116.509,128.764 117.630 C 132.061 118.831,138.577 122.823,138.577 123.641 C 138.577 123.967,131.272 133.944,130.382 134.834 C 130.301 134.915,129.489 134.503,128.578 133.918 C 117.708 126.943,103.728 129.218,98.099 138.877 C 91.708 149.844,95.845 163.600,106.977 168.399 L 109.623 169.540 115.481 169.537 C 120.740 169.534,121.571 169.454,123.607 168.753 L 125.875 167.973 125.783 162.899 L 125.690 157.824 118.912 157.734 L 112.134 157.643 112.134 151.279 L 112.134 144.914 124.937 145.010 L 137.741 145.105 138.867 145.908 C 141.177 147.555,141.240 147.979,141.248 161.899 L 141.255 174.342 139.498 175.812 C 120.906 191.365,91.487 185.917,81.379 165.049 C 77.738 157.534,77.083 147.206,79.725 138.983 C 84.837 123.071,101.101 113.520,119.740 115.483 M283.040 117.023 C 285.728 118.299,285.669 117.881,285.858 136.971 L 286.025 153.942 287.340 152.034 C 291.255 146.354,298.264 135.825,298.728 134.927 L 299.264 133.891 308.126 133.891 L 316.987 133.891 316.987 134.949 C 316.987 135.727,316.468 136.681,315.030 138.548 C 311.469 143.168,310.274 144.738,307.874 147.950 C 306.567 149.699,304.646 152.184,303.604 153.473 C 301.008 156.685,301.072 156.471,302.189 158.255 C 302.732 159.123,304.036 161.368,305.085 163.244 C 308.936 170.126,311.890 171.921,316.485 170.173 C 317.222 169.892,318.050 169.590,318.326 169.501 C 318.923 169.308,323.813 178.652,323.626 179.626 C 323.386 180.870,319.375 183.147,315.750 184.097 C 310.666 185.428,304.639 184.740,300.707 182.379 C 297.009 180.159,294.733 177.045,288.504 165.690 L 286.025 161.172 285.937 172.201 C 285.870 180.513,285.746 183.295,285.435 183.493 C 284.725 183.943,270.318 183.825,269.858 183.364 C 269.420 182.926,269.243 117.144,269.679 116.709 C 270.194 116.193,281.871 116.468,283.040 117.023 M182.026 129.873 C 189.169 131.381,195.805 136.214,199.410 142.535 C 202.463 147.887,204.293 158.939,202.452 160.899 L 201.724 161.674 182.395 161.674 L 163.067 161.674 163.412 162.929 C 165.588 170.843,177.607 174.340,186.167 169.550 L 187.732 168.674 192.611 172.755 C 198.294 177.509,198.035 176.939,195.406 178.915 C 180.806 189.890,158.656 185.740,151.226 170.637 C 140.242 148.309,158.002 124.802,182.026 129.873 M241.604 129.721 C 254.455 132.291,262.358 142.089,263.311 156.631 C 263.523 159.866,263.498 160.053,262.754 160.845 L 261.975 161.674 242.584 161.674 C 227.211 161.674,223.224 161.760,223.346 162.092 C 223.431 162.322,223.753 163.278,224.061 164.215 C 226.306 171.045,238.526 173.966,246.406 169.556 L 247.959 168.687 252.682 172.616 C 258.102 177.123,258.078 177.063,255.305 179.117 C 239.293 190.976,216.122 184.796,209.819 166.984 C 202.337 145.842,219.807 125.361,241.604 129.721 M172.088 142.898 C 168.079 144.081,165.195 146.727,163.739 150.558 L 163.076 152.304 163.797 152.480 C 164.194 152.576,169.866 152.613,176.402 152.562 L 188.285 152.469 188.186 151.464 C 187.573 145.217,179.247 140.787,172.088 142.898 M232.421 142.949 C 229.986 143.721,227.532 145.309,226.201 146.977 C 225.164 148.274,223.540 151.936,223.809 152.371 C 224.033 152.734,248.618 152.709,248.843 152.345 C 248.942 152.185,248.714 151.139,248.337 150.022 C 246.310 144.019,239.121 140.825,232.421 142.949 M135.476 198.353 C 138.108 198.897,141.255 200.255,141.255 200.848 C 141.255 201.031,140.698 202.021,140.018 203.046 C 138.625 205.144,139.084 205.081,134.347 203.819 C 129.583 202.550,126.039 203.556,126.258 206.114 C 126.410 207.886,127.417 208.423,132.050 209.206 C 140.966 210.712,143.051 212.534,142.272 218.137 C 141.829 221.320,140.888 222.892,138.857 223.841 C 134.126 226.051,125.280 225.687,120.117 223.071 C 118.180 222.089,118.175 222.055,119.661 219.733 C 121.007 217.629,121.016 217.627,123.289 218.768 C 126.509 220.386,134.008 220.678,135.725 219.253 C 138.084 217.295,136.098 214.849,131.683 214.273 C 122.275 213.045,120.001 211.407,120.000 205.858 C 120.000 199.187,125.828 196.360,135.476 198.353 M170.859 198.833 C 173.264 199.753,175.785 202.132,176.756 204.397 C 178.699 208.931,178.169 217.731,175.769 220.783 C 175.164 221.551,175.118 221.791,175.475 222.305 C 175.709 222.640,176.647 223.994,177.560 225.315 L 179.220 227.716 177.727 229.013 C 175.059 231.330,174.635 231.210,171.861 227.349 L 170.243 225.099 164.536 225.102 C 154.123 225.107,150.789 221.858,150.801 211.715 C 150.809 204.813,151.872 202.353,156.041 199.589 C 158.809 197.754,166.954 197.338,170.859 198.833 M211.130 199.006 C 211.451 199.111,211.547 201.227,211.543 208.107 C 211.536 220.678,211.096 222.126,206.616 224.331 L 204.366 225.439 199.170 225.439 C 188.293 225.439,186.963 223.581,186.952 208.368 L 186.946 198.996 189.958 198.996 L 192.971 198.996 193.145 207.699 C 193.379 219.441,193.615 219.916,199.202 219.916 C 204.798 219.916,205.171 219.154,205.181 207.682 C 205.185 202.642,205.320 199.166,205.518 198.968 C 205.821 198.664,210.169 198.694,211.130 199.006 M235.850 198.883 C 236.523 199.972,246.307 224.752,246.159 224.992 C 245.882 225.439,241.200 225.323,240.582 224.854 C 240.280 224.623,239.757 223.682,239.420 222.762 L 238.807 221.088 232.843 221.088 L 226.878 221.088 226.151 222.898 C 225.297 225.020,224.923 225.217,221.674 225.248 C 219.641 225.268,219.247 225.183,219.247 224.724 C 219.247 224.249,226.484 205.838,227.801 202.962 C 228.067 202.382,228.285 201.836,228.285 201.749 C 228.285 201.662,228.593 200.894,228.970 200.043 L 229.655 198.494 232.632 198.494 C 234.535 198.494,235.696 198.634,235.850 198.883 M271.391 199.421 C 276.754 201.162,278.326 203.949,278.326 211.715 C 278.326 219.979,276.303 223.144,270.178 224.460 C 266.988 225.145,255.254 225.513,254.574 224.949 C 253.754 224.268,253.801 199.803,254.624 198.980 C 255.502 198.102,268.372 198.441,271.391 199.421 M285.188 199.140 C 285.188 199.311,284.849 199.499,284.435 199.558 C 283.743 199.657,283.674 199.864,283.583 202.115 C 283.450 205.411,282.717 205.253,282.579 201.898 C 282.485 199.599,282.446 199.498,281.659 199.498 C 281.207 199.498,280.837 199.347,280.837 199.163 C 280.837 198.974,281.785 198.828,283.013 198.828 C 284.209 198.828,285.188 198.969,285.188 199.140 M288.578 200.664 C 289.562 202.938,289.623 202.937,290.551 200.652 C 291.167 199.134,291.435 198.812,292.012 198.895 C 292.786 199.005,293.243 203.141,292.592 204.143 C 292.046 204.984,291.548 204.169,291.548 202.435 C 291.548 200.474,291.268 200.564,290.522 202.765 C 289.893 204.619,289.425 204.867,288.925 203.611 C 287.640 200.385,287.747 200.472,287.546 202.484 C 287.236 205.575,286.527 205.030,286.527 201.702 C 286.527 198.058,287.284 197.675,288.578 200.664 M260.831 211.597 L 260.921 219.414 264.786 219.374 C 270.460 219.315,271.420 218.656,272.408 214.141 C 274.085 206.475,272.351 204.127,264.847 203.903 L 260.741 203.780 260.831 211.597 M161.148 204.498 C 156.930 205.508,155.100 211.276,157.403 216.306 C 159.753 221.441,169.067 221.230,170.849 216.003 C 173.486 208.263,168.773 202.674,161.148 204.498 M231.130 210.462 C 230.209 212.808,229.407 214.916,229.348 215.146 C 229.266 215.462,230.146 215.565,232.946 215.565 C 234.985 215.565,236.654 215.452,236.656 215.314 C 236.662 214.876,233.159 206.192,232.977 206.195 C 232.882 206.196,232.050 208.116,231.130 210.462 " stroke="none" fill="#050404" fill-rule="evenodd"></path><path id="path1" d="M0.000 167.364 L 0.000 334.728 200.000 334.728 L 400.000 334.728 400.000 167.364 L 400.000 0.000 200.000 0.000 L 0.000 0.000 0.000 167.364 M217.071 70.813 C 229.447 71.719,240.696 73.363,253.649 76.158 C 288.398 83.659,321.705 101.792,339.095 122.678 C 382.553 174.872,344.147 238.431,256.402 259.529 C 252.208 260.537,249.026 261.198,240.837 262.762 C 219.153 266.902,187.111 267.372,162.510 263.909 C 82.669 252.670,29.846 205.981,40.175 155.779 C 51.201 102.193,129.829 64.426,217.071 70.813 M109.121 116.020 C 103.865 116.660,97.843 118.937,93.123 122.070 C 73.809 134.887,73.511 163.839,92.552 177.568 C 105.942 187.222,125.371 186.397,139.144 175.590 L 140.883 174.226 140.894 162.008 C 140.911 144.093,142.365 145.607,125.143 145.607 L 112.469 145.607 112.469 151.464 L 112.469 157.322 119.339 157.322 L 126.209 157.322 126.117 162.895 L 126.025 168.468 124.184 169.087 C 108.494 174.360,94.122 164.509,94.825 148.963 C 95.581 132.249,112.772 123.904,127.817 132.948 C 130.482 134.550,129.932 134.794,133.054 130.627 C 136.011 126.680,136.563 125.967,137.102 125.395 C 138.047 124.392,138.235 123.610,137.646 123.122 C 134.875 120.826,129.385 118.123,124.854 116.823 C 122.382 116.115,112.493 115.610,109.121 116.020 M270.377 117.010 C 270.238 117.151,270.126 132.078,270.126 150.181 L 270.126 183.096 277.657 183.096 L 285.188 183.096 285.188 171.735 C 285.188 158.257,285.139 158.399,287.954 163.695 C 288.790 165.266,289.912 167.300,290.447 168.213 C 290.983 169.127,291.520 170.138,291.641 170.459 C 291.762 170.781,292.393 171.876,293.044 172.893 C 293.694 173.909,294.226 174.834,294.226 174.949 C 294.226 175.567,298.260 180.010,299.953 181.256 C 305.981 185.693,316.380 185.257,322.487 180.310 L 323.467 179.515 321.148 174.862 C 319.872 172.303,318.787 170.143,318.737 170.062 C 318.687 169.981,317.859 170.200,316.896 170.549 C 311.472 172.512,308.990 170.922,303.972 162.270 C 300.486 156.260,300.557 156.533,302.036 154.788 C 303.088 153.547,307.020 148.402,313.707 139.516 C 317.976 133.844,318.379 134.226,308.129 134.226 C 299.628 134.226,299.604 134.228,299.215 134.979 C 298.808 135.763,289.510 149.694,287.149 153.055 C 286.406 154.115,285.660 154.896,285.493 154.793 C 285.316 154.684,285.188 147.413,285.188 137.520 C 285.188 115.371,285.901 117.065,276.504 116.874 C 273.272 116.808,270.515 116.869,270.377 117.010 M172.385 129.749 C 143.241 133.413,139.402 174.484,167.364 183.462 C 172.690 185.172,183.325 184.543,188.787 182.195 C 192.120 180.762,196.961 177.642,196.754 177.060 C 196.387 176.025,187.585 169.109,187.118 169.489 C 183.531 172.405,174.221 172.847,169.054 170.348 C 165.750 168.749,161.849 163.286,162.852 161.662 C 162.977 161.461,170.258 161.335,182.195 161.328 C 197.583 161.320,201.454 161.230,201.925 160.873 C 203.126 159.961,202.399 150.248,200.869 146.778 C 195.492 134.584,184.794 128.188,172.385 129.749 M232.636 129.749 C 212.685 132.257,202.199 154.008,212.427 171.668 C 220.361 185.369,240.908 188.831,254.997 178.842 C 257.582 177.010,257.802 177.505,252.385 172.977 L 247.866 169.200 246.160 170.117 C 237.337 174.859,223.914 170.510,223.203 162.678 L 223.096 161.506 242.176 161.426 C 264.849 161.331,262.762 161.769,262.762 157.111 C 262.762 140.167,249.022 127.688,232.636 129.749 M179.190 142.244 C 183.930 143.063,188.072 147.091,188.671 151.463 L 188.878 152.971 175.965 152.971 C 161.768 152.971,162.391 153.081,163.179 150.718 C 164.933 145.458,171.721 140.932,176.569 141.789 C 176.937 141.854,178.117 142.059,179.190 142.244 M239.833 142.285 C 244.708 143.224,248.866 147.336,249.122 151.471 L 249.205 152.803 236.196 152.891 L 223.188 152.979 223.420 151.738 C 224.445 146.275,231.881 140.886,237.155 141.784 C 237.523 141.847,238.728 142.072,239.833 142.285 " stroke="none" fill="#fbfbfb" fill-rule="evenodd"></path><path id="path2" d="M181.590 70.981 C 176.594 71.293,170.073 71.907,167.029 72.352 C 165.649 72.554,163.013 72.918,161.172 73.161 C 152.834 74.263,140.537 76.782,132.720 78.990 C 128.680 80.130,126.623 80.746,126.025 80.994 C 125.657 81.146,123.925 81.733,122.176 82.298 C 117.927 83.670,116.192 84.285,114.928 84.869 C 114.348 85.136,113.727 85.356,113.548 85.356 C 113.228 85.356,110.916 86.276,108.954 87.184 C 108.402 87.440,107.423 87.872,106.778 88.143 C 101.146 90.518,91.250 95.519,87.866 97.701 C 85.872 98.986,85.535 99.195,84.453 99.811 C 67.814 109.297,50.501 128.203,44.353 143.598 C 43.876 144.795,43.351 146.075,43.188 146.444 C 43.025 146.812,42.720 147.715,42.510 148.452 C 42.301 149.188,41.999 150.092,41.839 150.460 C 41.438 151.388,40.491 156.011,40.126 158.828 C 39.959 160.117,39.674 162.009,39.493 163.033 C 39.070 165.420,39.069 170.971,39.491 173.369 C 39.671 174.393,39.968 176.360,40.150 177.741 C 40.605 181.181,41.455 185.058,42.031 186.327 C 42.295 186.907,42.510 187.631,42.510 187.935 C 42.510 188.240,42.790 189.121,43.131 189.893 C 43.473 190.665,44.112 192.201,44.552 193.305 C 45.419 195.480,48.733 202.038,49.205 202.510 C 49.297 202.602,50.420 204.259,51.701 206.192 C 52.982 208.126,54.114 209.782,54.217 209.874 C 54.321 209.967,55.443 211.322,56.712 212.887 C 62.624 220.178,71.767 228.228,81.172 234.424 C 83.565 236.001,85.674 237.412,85.858 237.560 C 86.042 237.708,86.569 238.015,87.029 238.243 C 87.490 238.470,88.092 238.801,88.368 238.978 C 91.056 240.698,100.622 245.635,105.105 247.614 C 105.933 247.980,107.161 248.525,107.833 248.826 C 108.505 249.126,109.154 249.372,109.274 249.372 C 109.474 249.372,110.946 249.994,113.691 251.238 C 114.271 251.500,114.926 251.715,115.146 251.715 C 115.367 251.715,116.022 251.932,116.602 252.197 C 117.182 252.461,118.862 253.071,120.335 253.550 C 121.808 254.030,123.238 254.543,123.515 254.691 C 123.791 254.839,124.845 255.153,125.858 255.390 C 126.870 255.626,127.849 255.926,128.033 256.055 C 128.218 256.185,129.264 256.484,130.360 256.720 C 131.455 256.956,132.585 257.276,132.870 257.431 C 133.156 257.587,134.067 257.865,134.895 258.050 C 135.724 258.236,137.682 258.704,139.247 259.091 C 142.567 259.911,147.405 260.939,150.962 261.579 C 152.343 261.827,153.774 262.126,154.142 262.242 C 155.906 262.797,171.348 264.637,178.075 265.093 C 191.365 265.994,193.647 266.111,197.992 266.111 C 200.569 266.111,205.013 265.954,207.866 265.763 C 210.720 265.571,215.088 265.281,217.573 265.118 C 223.851 264.706,232.571 263.817,233.975 263.446 C 234.619 263.276,236.728 262.908,238.661 262.630 C 243.594 261.918,252.963 260.114,254.059 259.665 C 254.335 259.551,255.615 259.238,256.904 258.968 C 258.192 258.698,260.075 258.244,261.088 257.959 C 262.100 257.674,263.983 257.158,265.272 256.812 C 266.561 256.466,267.992 256.026,268.452 255.833 C 268.912 255.640,269.816 255.371,270.460 255.234 C 271.105 255.097,271.782 254.870,271.967 254.728 C 272.151 254.586,272.828 254.361,273.473 254.226 C 274.117 254.091,274.795 253.871,274.979 253.737 C 275.163 253.603,276.067 253.296,276.987 253.054 C 277.908 252.813,278.812 252.507,278.996 252.374 C 279.180 252.241,279.707 252.022,280.167 251.887 C 280.628 251.752,281.456 251.454,282.008 251.226 C 282.561 250.998,283.916 250.466,285.021 250.043 C 286.126 249.621,287.858 248.906,288.870 248.454 C 289.883 248.003,291.238 247.405,291.883 247.126 C 294.446 246.015,305.585 240.364,305.941 239.993 C 306.033 239.897,306.485 239.635,306.946 239.410 C 307.406 239.185,308.074 238.811,308.430 238.580 C 308.786 238.348,310.521 237.255,312.284 236.151 C 318.220 232.433,324.930 227.322,329.953 222.691 C 331.708 221.073,333.242 219.674,333.361 219.582 C 333.768 219.268,339.244 213.054,340.251 211.763 C 340.803 211.055,341.481 210.222,341.757 209.913 C 342.033 209.603,342.711 208.677,343.264 207.855 C 343.816 207.033,344.383 206.209,344.524 206.025 C 345.159 205.193,346.444 203.130,346.444 202.940 C 346.444 202.825,346.656 202.493,346.915 202.202 C 347.880 201.119,352.218 192.115,352.658 190.281 C 352.789 189.735,353.012 189.138,353.153 188.954 C 353.541 188.451,354.666 184.258,355.894 178.745 C 356.453 176.236,356.453 160.166,355.894 157.657 C 354.523 151.499,353.748 148.810,352.227 144.937 C 350.861 141.459,347.749 135.217,346.743 133.938 C 346.394 133.494,346.109 132.938,346.109 132.702 C 346.109 132.466,345.993 132.223,345.851 132.162 C 345.709 132.100,345.005 131.156,344.285 130.062 C 340.871 124.876,332.115 115.237,327.029 111.066 C 323.181 107.910,318.817 104.553,316.775 103.177 C 306.709 96.394,295.350 90.378,285.021 86.359 C 282.996 85.571,280.887 84.737,280.335 84.507 C 279.782 84.276,277.372 83.451,274.979 82.673 C 272.586 81.895,270.326 81.137,269.958 80.988 C 269.590 80.839,268.234 80.413,266.946 80.042 C 265.657 79.671,264.000 79.194,263.264 78.981 C 261.908 78.589,258.366 77.710,254.393 76.778 C 248.438 75.381,240.961 73.992,234.812 73.139 C 232.971 72.884,231.049 72.588,230.541 72.481 C 229.245 72.209,219.234 71.275,214.226 70.959 C 209.213 70.642,186.779 70.658,181.590 70.981 M210.879 75.152 C 214.285 75.253,218.351 75.481,219.916 75.660 C 221.481 75.840,224.720 76.210,227.113 76.484 C 236.517 77.560,243.058 78.691,254.069 81.145 C 260.986 82.687,274.967 87.072,281.841 89.855 C 355.083 119.508,373.746 177.309,324.327 221.443 C 321.574 223.902,316.472 227.742,312.134 230.621 C 309.556 232.331,307.036 234.014,306.532 234.361 C 306.028 234.708,305.275 235.143,304.858 235.329 C 304.442 235.514,303.197 236.195,302.092 236.841 C 295.945 240.441,283.390 246.132,275.816 248.750 C 266.391 252.009,258.564 254.206,248.033 256.549 C 243.179 257.629,233.282 259.267,228.631 259.761 C 226.704 259.966,225.030 260.194,224.909 260.268 C 222.328 261.863,185.667 261.951,172.218 260.394 C 160.957 259.090,152.133 257.712,146.778 256.420 C 146.042 256.242,143.707 255.703,141.590 255.222 C 132.962 253.262,118.166 248.556,111.632 245.694 C 110.895 245.371,109.314 244.693,108.117 244.188 C 75.037 230.204,51.185 206.526,45.228 181.757 C 39.240 156.865,50.428 130.882,75.482 111.492 C 76.218 110.922,77.257 110.118,77.791 109.705 C 84.493 104.522,98.174 96.600,106.778 92.922 C 107.975 92.410,109.406 91.791,109.958 91.545 C 125.520 84.625,150.713 78.264,170.209 76.332 C 172.234 76.131,175.096 75.810,176.569 75.618 C 179.920 75.182,194.923 74.704,200.502 74.856 C 202.803 74.919,207.473 75.052,210.879 75.152 M110.879 115.712 C 111.201 115.796,111.728 115.796,112.050 115.712 C 112.372 115.628,112.109 115.559,111.464 115.559 C 110.820 115.559,110.556 115.628,110.879 115.712 M272.720 116.734 C 274.238 116.796,276.724 116.796,278.243 116.734 C 279.762 116.672,278.519 116.622,275.481 116.622 C 272.444 116.622,271.201 116.672,272.720 116.734 M87.845 125.941 L 86.862 127.029 87.950 126.046 C 88.964 125.130,89.192 124.854,88.933 124.854 C 88.875 124.854,88.386 125.343,87.845 125.941 M299.469 134.137 C 299.382 134.278,303.201 134.351,307.957 134.299 C 316.435 134.206,316.606 134.218,316.756 134.890 C 316.888 135.479,316.903 135.469,316.865 134.817 L 316.820 134.059 308.224 133.969 C 303.496 133.920,299.557 133.995,299.469 134.137 M155.800 137.322 L 154.477 138.745 155.900 137.422 C 157.223 136.191,157.476 135.900,157.223 135.900 C 157.168 135.900,156.528 136.540,155.800 137.322 M175.314 142.161 C 175.728 142.241,176.406 142.241,176.820 142.161 C 177.234 142.081,176.895 142.016,176.067 142.016 C 175.238 142.016,174.900 142.081,175.314 142.161 M235.900 142.161 C 236.314 142.241,236.992 142.241,237.406 142.161 C 237.820 142.081,237.481 142.016,236.653 142.016 C 235.824 142.016,235.485 142.081,235.900 142.161 M141.072 162.008 C 141.072 168.728,141.116 171.477,141.171 168.117 C 141.226 164.757,141.226 159.259,141.171 155.900 C 141.116 152.540,141.072 155.289,141.072 162.008 M223.350 152.301 C 223.468 152.736,225.203 152.804,236.346 152.810 L 249.205 152.816 236.503 152.722 C 226.878 152.651,223.729 152.527,223.506 152.213 C 223.291 151.910,223.249 151.934,223.350 152.301 M175.732 152.636 L 162.845 152.815 175.629 152.893 C 183.875 152.943,188.486 152.852,188.619 152.636 C 188.733 152.452,188.780 152.336,188.723 152.379 C 188.666 152.422,182.820 152.537,175.732 152.636 M262.878 157.657 C 262.878 159.222,262.936 159.862,263.007 159.079 C 263.077 158.297,263.077 157.017,263.007 156.234 C 262.936 155.452,262.878 156.092,262.878 157.657 M115.750 157.572 C 117.647 157.632,120.659 157.632,122.445 157.572 C 124.230 157.511,122.678 157.463,118.996 157.463 C 115.314 157.463,113.853 157.512,115.750 157.572 M172.660 161.590 C 178.058 161.642,186.794 161.641,192.074 161.590 C 197.354 161.538,192.937 161.496,182.259 161.496 C 171.582 161.496,167.262 161.538,172.660 161.590 M232.911 161.590 C 238.309 161.642,247.045 161.641,252.325 161.590 C 257.605 161.538,253.188 161.496,242.510 161.496 C 231.833 161.496,227.513 161.538,232.911 161.590 M99.414 163.452 C 99.414 163.510,99.904 163.999,100.502 164.540 L 101.590 165.523 100.607 164.435 C 99.690 163.421,99.414 163.193,99.414 163.452 M224.937 166.799 C 224.937 166.857,225.427 167.346,226.025 167.887 L 227.113 168.870 226.130 167.782 C 225.213 166.768,224.937 166.541,224.937 166.799 M176.490 171.956 C 176.999 172.033,177.752 172.031,178.164 171.951 C 178.575 171.872,178.159 171.809,177.238 171.811 C 176.318 171.814,175.981 171.879,176.490 171.956 M236.402 171.955 C 236.908 172.032,237.736 172.032,238.243 171.955 C 238.749 171.879,238.335 171.816,237.322 171.816 C 236.310 171.816,235.895 171.879,236.402 171.955 M87.029 173.159 C 87.029 173.217,87.519 173.706,88.117 174.247 L 89.205 175.230 88.222 174.142 C 87.305 173.128,87.029 172.901,87.029 173.159 M273.910 183.346 C 276.084 183.405,279.548 183.405,281.609 183.346 C 283.670 183.287,281.891 183.240,277.657 183.240 C 273.423 183.240,271.737 183.288,273.910 183.346 " stroke="none" fill="#a5aaaa" fill-rule="evenodd"></path><path id="path3" d="M126.527 198.472 C 122.528 199.067,120.167 201.813,120.167 205.871 C 120.167 210.869,123.084 213.000,130.939 213.743 C 136.350 214.255,138.542 216.656,135.957 219.241 C 134.131 221.067,127.482 221.074,123.594 219.255 C 121.135 218.104,121.216 218.085,119.850 220.109 C 118.539 222.052,118.539 222.054,120.418 222.855 C 129.324 226.654,140.237 225.221,141.533 220.084 C 143.328 212.973,141.348 210.997,130.798 209.372 C 126.297 208.678,124.715 207.136,126.089 204.783 C 127.442 202.466,131.322 202.324,137.799 204.356 C 138.769 204.660,141.381 201.001,140.566 200.479 C 137.727 198.662,131.369 197.753,126.527 198.472 M160.837 198.471 C 154.152 199.356,150.962 203.579,150.962 211.548 C 150.962 221.285,154.559 224.770,164.609 224.770 L 170.390 224.770 172.556 227.699 C 175.089 231.124,174.693 230.981,176.856 229.250 C 178.947 227.576,179.062 228.002,174.939 222.137 C 174.750 221.869,175.013 221.199,175.685 220.234 C 177.483 217.650,178.099 212.686,177.235 207.730 C 175.947 200.349,170.386 197.209,160.837 198.471 M205.693 199.442 C 205.600 199.687,205.523 203.561,205.523 208.052 C 205.523 219.320,205.055 220.251,199.384 220.251 C 195.818 220.251,195.070 219.967,193.904 218.172 L 192.971 216.736 192.803 208.033 L 192.636 199.331 190.042 199.233 L 187.448 199.135 187.448 208.814 C 187.448 219.171,187.621 220.495,189.196 222.172 C 192.812 226.021,203.642 226.424,208.366 222.884 C 210.914 220.975,211.213 219.449,211.213 208.358 L 211.213 199.214 208.538 199.105 C 206.540 199.023,205.820 199.109,205.693 199.442 M229.735 199.247 C 229.465 199.677,219.582 224.254,219.582 224.495 C 219.582 224.569,220.823 224.586,222.341 224.532 L 225.101 224.435 225.833 222.594 L 226.566 220.753 232.727 220.662 L 238.888 220.571 239.424 221.834 C 239.720 222.528,240.055 223.435,240.171 223.849 C 240.365 224.550,240.567 224.603,243.035 224.603 C 245.974 224.603,245.996 224.579,245.061 222.492 C 244.715 221.720,243.577 218.904,242.533 216.234 C 241.489 213.565,240.134 210.176,239.523 208.703 C 238.911 207.230,237.764 204.406,236.973 202.427 L 235.535 198.828 232.766 198.828 C 230.915 198.828,229.911 198.967,229.735 199.247 M254.951 199.052 C 254.828 199.174,254.728 204.988,254.728 211.970 L 254.728 224.666 262.343 224.533 C 274.136 224.326,276.703 222.800,278.011 215.220 C 279.609 205.961,276.388 200.369,268.841 199.300 C 265.533 198.831,255.354 198.649,254.951 199.052 M282.823 201.589 C 282.973 204.105,283.085 203.929,283.251 200.920 C 283.306 199.908,283.205 199.163,283.013 199.162 C 282.807 199.162,282.734 200.097,282.823 201.589 M286.901 201.757 C 286.944 204.636,287.093 204.440,287.282 201.255 C 287.351 200.105,287.284 199.163,287.134 199.163 C 286.985 199.163,286.879 200.331,286.901 201.757 M291.797 201.255 C 291.987 204.440,292.136 204.636,292.179 201.757 C 292.200 200.331,292.095 199.163,291.945 199.163 C 291.795 199.163,291.729 200.105,291.797 201.255 M270.606 204.373 C 273.241 205.755,273.942 208.725,272.809 213.701 C 271.595 219.029,269.873 220.119,263.095 219.849 L 260.586 219.749 260.496 211.599 L 260.406 203.449 264.848 203.565 C 268.537 203.662,269.512 203.799,270.606 204.373 M168.636 204.874 C 172.970 207.256,172.886 216.899,168.510 219.323 C 162.137 222.853,155.482 218.275,156.095 210.783 C 156.586 204.786,162.987 201.770,168.636 204.874 M233.795 206.763 C 233.921 207.265,234.295 208.283,234.625 209.026 C 235.804 211.672,236.987 214.851,236.987 215.371 C 236.987 215.823,236.408 215.900,232.971 215.900 C 228.213 215.900,228.428 216.370,230.628 210.777 C 231.548 208.437,232.301 206.386,232.301 206.218 C 232.301 205.879,233.019 205.547,233.352 205.732 C 233.470 205.798,233.669 206.262,233.795 206.763 " stroke="none" fill="#f48324" fill-rule="evenodd"></path><path id="path4" d="M126.379 198.115 C 125.838 198.231,127.721 198.330,130.563 198.334 C 133.641 198.339,135.190 198.245,134.393 198.103 C 132.777 197.813,127.748 197.821,126.379 198.115 M160.837 198.129 C 160.100 198.245,161.748 198.336,164.499 198.333 C 167.250 198.329,169.057 198.231,168.516 198.115 C 167.263 197.846,162.588 197.855,160.837 198.129 M122.884 199.508 C 121.443 200.552,120.161 202.294,120.182 203.180 C 120.189 203.456,120.464 203.143,120.794 202.483 C 121.553 200.965,122.475 200.043,124.084 199.194 C 124.783 198.825,125.115 198.517,124.820 198.509 C 124.526 198.500,123.654 198.950,122.884 199.508 M137.741 199.278 C 141.554 200.788,141.335 200.398,139.719 202.797 C 138.714 204.289,138.399 204.544,137.794 204.354 C 131.329 202.325,127.442 202.467,126.089 204.783 C 124.715 207.136,126.297 208.678,130.798 209.372 C 141.348 210.997,143.328 212.973,141.533 220.084 C 140.237 225.221,129.324 226.654,120.418 222.855 C 118.539 222.054,118.539 222.052,119.850 220.109 C 121.216 218.085,121.135 218.104,123.594 219.255 C 127.482 221.074,134.131 221.067,135.957 219.241 C 137.602 217.596,137.202 215.742,134.948 214.575 C 134.200 214.188,127.192 213.115,126.955 213.352 C 126.807 213.500,130.178 214.129,132.680 214.420 C 136.077 214.815,137.792 217.537,135.725 219.253 C 134.008 220.678,126.509 220.386,123.289 218.768 C 121.016 217.627,121.007 217.629,119.661 219.733 C 118.175 222.055,118.180 222.089,120.117 223.071 C 125.280 225.687,134.126 226.051,138.857 223.841 C 140.888 222.892,141.829 221.320,142.272 218.137 C 143.051 212.534,140.966 210.712,132.050 209.206 C 127.417 208.423,126.410 207.886,126.258 206.114 C 126.039 203.556,129.583 202.550,134.347 203.819 C 139.084 205.081,138.625 205.144,140.018 203.046 C 140.698 202.021,141.255 201.031,141.255 200.848 C 141.255 200.395,138.355 198.962,136.904 198.697 C 136.081 198.546,136.330 198.719,137.741 199.278 M157.020 199.014 C 155.277 199.771,155.969 199.903,157.844 199.171 C 158.754 198.816,159.197 198.524,158.828 198.522 C 158.460 198.521,157.647 198.742,157.020 199.014 M171.258 199.310 C 173.074 200.166,175.145 202.063,175.942 203.598 C 176.424 204.530,176.736 204.771,176.736 204.214 C 176.736 202.872,172.508 199.206,170.377 198.699 C 169.916 198.590,170.313 198.865,171.258 199.310 M205.518 198.968 C 205.320 199.166,205.185 202.642,205.181 207.682 C 205.171 219.154,204.798 219.916,199.202 219.916 C 193.615 219.916,193.379 219.441,193.145 207.699 L 192.971 198.996 189.958 198.996 L 186.946 198.996 186.860 206.862 C 186.813 211.188,186.907 215.632,187.070 216.736 C 187.285 218.193,187.377 216.051,187.407 208.940 L 187.448 199.135 190.042 199.233 L 192.636 199.331 192.803 208.033 L 192.971 216.736 193.904 218.172 C 195.070 219.967,195.818 220.251,199.384 220.251 C 205.055 220.251,205.523 219.320,205.523 208.052 C 205.523 198.112,205.234 198.970,208.533 199.105 L 211.203 199.214 211.297 208.477 L 211.392 217.741 211.470 208.441 C 211.530 201.242,211.454 199.111,211.130 199.006 C 210.169 198.694,205.821 198.664,205.518 198.968 M229.512 198.717 C 229.389 198.840,229.289 199.096,229.289 199.286 C 229.289 199.493,229.450 199.471,229.690 199.230 C 229.937 198.984,231.143 198.828,232.813 198.828 L 235.535 198.828 236.976 202.427 C 239.538 208.821,240.430 210.895,240.563 210.762 C 240.686 210.639,236.610 200.352,235.936 199.079 C 235.618 198.481,230.062 198.167,229.512 198.717 M254.624 198.980 C 253.801 199.803,253.754 224.268,254.574 224.949 C 255.254 225.513,266.988 225.145,270.178 224.460 C 275.063 223.410,278.052 219.991,278.359 215.101 L 278.488 213.054 277.987 215.675 C 276.629 222.785,273.899 224.330,262.339 224.533 L 254.720 224.666 254.808 211.831 L 254.895 198.996 260.753 198.996 C 263.975 198.996,267.665 199.104,268.954 199.236 C 270.801 199.426,271.084 199.401,270.293 199.119 C 268.384 198.440,255.281 198.323,254.624 198.980 M280.837 199.163 C 280.837 199.347,281.207 199.498,281.659 199.498 C 282.446 199.498,282.485 199.599,282.579 201.898 C 282.717 205.253,283.450 205.411,283.583 202.115 C 283.674 199.864,283.743 199.657,284.435 199.558 C 286.050 199.329,285.075 198.828,283.013 198.828 C 281.785 198.828,280.837 198.974,280.837 199.163 M286.527 201.702 C 286.527 204.935,287.232 205.602,287.531 202.652 C 287.635 201.632,287.874 200.967,288.158 200.907 C 288.454 200.844,288.546 200.997,288.416 201.335 C 288.158 202.007,289.176 204.584,289.638 204.430 C 290.165 204.255,290.941 201.770,290.581 201.410 C 290.397 201.225,290.187 201.383,290.053 201.807 C 289.714 202.875,289.445 202.667,288.578 200.664 C 287.284 197.675,286.527 198.058,286.527 201.702 M290.935 199.675 C 290.521 200.584,290.692 201.327,291.237 200.990 C 291.413 200.881,291.548 201.523,291.548 202.471 C 291.548 204.174,292.050 204.978,292.592 204.143 C 293.234 203.155,292.787 199.005,292.027 198.897 C 291.551 198.829,291.210 199.071,290.935 199.675 M283.251 200.920 C 283.085 203.929,282.973 204.105,282.823 201.589 C 282.734 200.097,282.807 199.162,283.013 199.162 C 283.205 199.163,283.306 199.908,283.251 200.920 M287.282 201.255 C 287.093 204.440,286.944 204.636,286.901 201.757 C 286.879 200.331,286.985 199.163,287.134 199.163 C 287.284 199.163,287.351 200.105,287.282 201.255 M292.179 201.757 C 292.136 204.636,291.987 204.440,291.797 201.255 C 291.729 200.105,291.795 199.163,291.945 199.163 C 292.095 199.163,292.200 200.331,292.179 201.757 M153.868 201.402 C 149.467 205.803,149.416 217.020,153.775 221.845 C 156.240 224.573,157.997 225.105,164.536 225.102 L 170.243 225.099 171.861 227.349 C 172.750 228.587,173.781 229.869,174.152 230.197 C 174.523 230.526,173.828 229.439,172.608 227.782 L 170.390 224.770 164.609 224.770 C 158.319 224.770,157.026 224.435,154.600 222.180 C 149.604 217.534,149.636 205.270,154.655 201.046 C 155.248 200.548,155.665 200.072,155.582 199.989 C 155.499 199.906,154.728 200.542,153.868 201.402 M228.480 201.199 C 228.173 201.966,227.985 202.657,228.061 202.733 C 228.138 202.810,228.452 202.245,228.759 201.478 C 229.066 200.711,229.254 200.021,229.177 199.944 C 229.101 199.868,228.787 200.432,228.480 201.199 M272.469 199.944 C 272.469 200.005,273.222 200.543,274.142 201.139 C 276.160 202.446,277.309 204.299,277.794 207.029 C 277.990 208.134,278.220 209.414,278.305 209.874 C 278.389 210.335,278.395 209.680,278.318 208.419 C 278.122 205.214,277.023 202.951,274.816 201.207 C 273.303 200.010,272.469 199.562,272.469 199.944 M227.406 203.718 C 227.282 204.066,225.395 208.812,223.214 214.264 C 218.453 226.161,218.577 225.278,221.674 225.248 C 224.923 225.217,225.297 225.020,226.151 222.898 L 226.878 221.088 232.843 221.088 L 238.807 221.088 239.420 222.762 C 239.757 223.682,240.280 224.623,240.582 224.854 C 241.201 225.324,245.882 225.439,246.160 224.990 C 246.346 224.688,240.980 211.125,240.761 211.345 C 240.634 211.472,243.797 219.672,245.061 222.492 C 245.996 224.579,245.974 224.603,243.035 224.603 C 240.567 224.603,240.365 224.550,240.171 223.849 C 240.055 223.435,239.720 222.528,239.424 221.834 L 238.888 220.571 232.727 220.662 L 226.566 220.753 225.833 222.594 L 225.101 224.435 222.341 224.532 C 220.823 224.586,219.582 224.563,219.582 224.482 C 219.582 224.400,221.471 219.631,223.780 213.883 C 226.089 208.134,227.900 203.353,227.804 203.258 C 227.709 203.162,227.529 203.369,227.406 203.718 M260.496 211.599 L 260.586 219.749 263.146 219.846 C 264.554 219.900,266.437 219.812,267.330 219.652 C 268.641 219.416,268.180 219.365,264.937 219.387 L 260.921 219.414 260.831 211.632 L 260.741 203.849 264.201 203.849 C 271.769 203.849,274.145 206.359,272.638 212.759 C 272.323 214.097,272.127 215.376,272.202 215.603 C 272.615 216.841,273.568 210.004,273.216 208.328 C 272.410 204.481,271.119 203.748,264.848 203.573 L 260.406 203.449 260.496 211.599 M119.940 205.858 C 119.940 207.054,120.001 207.544,120.075 206.946 C 120.149 206.347,120.149 205.368,120.075 204.770 C 120.001 204.172,119.940 204.661,119.940 205.858 M159.665 204.744 C 154.505 207.396,154.835 217.157,160.167 219.618 C 163.792 221.291,169.349 219.966,170.853 217.071 C 172.817 213.290,171.276 204.854,168.621 204.854 C 168.421 204.854,168.795 205.343,169.452 205.941 C 173.309 209.451,171.673 218.323,166.930 219.612 C 160.702 221.304,156.539 218.103,156.586 211.659 C 156.631 205.632,160.791 202.874,167.197 204.626 C 168.003 204.847,168.119 204.818,167.785 204.478 C 166.854 203.532,161.695 203.701,159.665 204.744 M176.876 205.523 C 177.850 209.924,177.857 212.572,176.905 217.867 C 176.818 218.350,176.956 218.121,177.212 217.359 C 178.242 214.289,178.142 206.942,177.047 205.240 C 176.756 204.788,176.724 204.840,176.876 205.523 M232.720 205.760 C 232.490 205.844,232.301 206.051,232.301 206.218 C 232.301 206.386,231.548 208.437,230.628 210.777 C 228.428 216.370,228.213 215.900,232.971 215.900 C 237.595 215.900,237.460 216.032,236.168 212.777 C 235.717 211.641,235.185 210.276,234.987 209.744 C 234.788 209.213,234.550 208.853,234.457 208.946 C 234.364 209.039,234.820 210.434,235.471 212.047 C 236.121 213.660,236.653 215.111,236.653 215.272 C 236.653 215.433,234.985 215.565,232.946 215.565 C 230.146 215.565,229.266 215.462,229.348 215.146 C 229.629 214.058,232.825 206.196,232.987 206.195 C 233.088 206.193,233.366 206.731,233.604 207.389 C 234.151 208.903,234.444 208.704,233.931 207.167 C 233.472 205.795,233.269 205.559,232.720 205.760 M120.337 209.038 C 120.662 210.834,125.444 214.082,126.382 213.144 C 126.476 213.050,125.856 212.797,125.003 212.583 C 122.950 212.066,121.560 211.007,120.788 209.372 C 120.228 208.186,120.177 208.148,120.337 209.038 M271.525 217.072 C 271.315 217.533,270.651 218.210,270.049 218.577 C 269.391 218.978,269.174 219.245,269.505 219.246 C 270.071 219.247,272.134 217.137,272.134 216.557 C 272.134 216.016,271.926 216.192,271.525 217.072 M210.507 219.744 C 210.210 220.749,210.093 221.494,210.247 221.399 C 210.578 221.195,211.298 218.661,211.149 218.222 C 211.093 218.053,210.803 218.738,210.507 219.744 M175.607 220.351 C 174.984 221.235,174.748 221.862,174.937 222.127 C 175.098 222.353,176.026 223.710,176.999 225.143 L 178.767 227.748 177.835 228.479 C 175.931 229.973,175.191 230.684,175.900 230.341 C 176.268 230.163,177.165 229.499,177.894 228.866 L 179.219 227.715 177.559 225.315 C 176.647 223.994,175.714 222.648,175.487 222.323 C 175.143 221.829,175.220 221.528,175.960 220.488 C 176.447 219.804,176.783 219.186,176.707 219.115 C 176.631 219.044,176.136 219.600,175.607 220.351 M187.471 219.174 C 187.133 225.321,202.218 228.066,208.790 223.052 C 209.411 222.579,209.848 222.121,209.762 222.035 C 209.676 221.949,208.909 222.410,208.058 223.060 C 202.453 227.339,189.960 225.478,187.980 220.069 C 187.713 219.341,187.484 218.938,187.471 219.174 " stroke="none" fill="#b25d1c" fill-rule="evenodd"></path><path id="path5" d="M196.904 74.884 C 197.410 74.961,198.238 74.961,198.745 74.884 C 199.251 74.807,198.837 74.745,197.824 74.745 C 196.812 74.745,196.397 74.807,196.904 74.884 M179.800 75.340 C 177.526 75.485,175.568 75.704,175.448 75.828 C 175.328 75.952,177.038 75.940,179.247 75.802 C 181.456 75.665,185.598 75.447,188.452 75.319 L 193.640 75.086 188.787 75.081 C 186.117 75.079,182.073 75.196,179.800 75.340 M207.699 75.294 C 220.470 75.920,221.085 75.939,219.414 75.659 C 218.494 75.505,214.276 75.301,210.042 75.206 C 203.616 75.060,203.229 75.075,207.699 75.294 M168.037 76.520 C 163.653 77.050,162.359 77.408,165.858 77.122 C 169.841 76.797,175.001 76.071,173.389 76.063 C 172.561 76.059,170.152 76.264,168.037 76.520 M224.268 76.478 C 229.091 77.096,232.490 77.400,232.285 77.194 C 232.035 76.944,223.725 75.979,222.259 76.030 C 221.615 76.052,222.519 76.254,224.268 76.478 M158.349 77.863 C 155.314 78.372,154.050 78.883,156.820 78.481 C 161.038 77.870,163.417 77.403,162.343 77.397 C 161.699 77.393,159.902 77.603,158.349 77.863 M235.314 77.836 C 236.879 78.102,239.866 78.635,241.953 79.020 C 244.040 79.405,245.835 79.632,245.942 79.525 C 246.049 79.418,246.046 79.331,245.936 79.331 C 245.825 79.331,243.729 78.963,241.278 78.514 C 238.826 78.064,235.841 77.619,234.644 77.524 C 232.590 77.361,232.628 77.379,235.314 77.836 M151.669 79.023 C 150.861 79.182,150.111 79.401,150.002 79.510 C 149.762 79.750,153.129 79.329,154.310 78.972 C 155.546 78.598,153.647 78.635,151.669 79.023 M147.782 79.830 C 147.598 79.891,145.941 80.274,144.100 80.681 C 137.330 82.179,126.330 85.270,126.646 85.586 C 126.741 85.681,127.770 85.452,128.933 85.076 C 132.104 84.050,137.861 82.520,142.929 81.357 C 149.639 79.816,149.934 79.736,148.954 79.726 C 148.494 79.722,147.967 79.768,147.782 79.830 M249.009 80.347 C 250.558 80.719,251.989 80.966,252.189 80.897 C 252.604 80.753,249.759 80.094,247.623 79.840 C 246.836 79.746,247.460 79.974,249.009 80.347 M252.720 81.084 C 252.988 81.353,261.447 83.434,261.611 83.271 C 261.692 83.189,260.290 82.732,258.494 82.255 C 255.011 81.328,252.446 80.808,252.720 81.084 M262.594 83.647 C 263.704 84.168,269.179 85.744,269.335 85.588 C 269.493 85.431,264.573 83.850,262.929 83.529 C 262.141 83.375,262.069 83.401,262.594 83.647 M123.347 86.515 C 122.795 86.768,122.569 86.980,122.845 86.987 C 123.121 86.994,123.799 86.792,124.351 86.539 C 124.904 86.286,125.130 86.074,124.854 86.067 C 124.577 86.061,123.900 86.262,123.347 86.515 M271.130 86.325 C 271.406 86.478,272.084 86.694,272.636 86.803 L 273.640 87.002 272.636 86.529 C 271.506 85.996,270.228 85.823,271.130 86.325 M120.502 87.397 C 120.042 87.575,118.640 88.110,117.387 88.584 C 116.133 89.058,115.169 89.506,115.243 89.581 C 115.377 89.715,121.864 87.452,122.142 87.174 C 122.396 86.921,121.370 87.060,120.502 87.397 M273.813 87.127 C 274.084 87.428,280.589 89.732,280.740 89.581 C 280.814 89.506,279.646 88.976,278.143 88.402 C 275.322 87.325,273.511 86.792,273.813 87.127 M112.636 90.429 C 111.715 90.805,110.603 91.253,110.163 91.424 C 109.723 91.595,109.437 91.808,109.527 91.898 C 109.671 92.042,114.413 90.182,114.784 89.837 C 115.104 89.539,114.203 89.787,112.636 90.429 M281.220 89.868 C 281.566 90.213,286.308 92.046,286.461 91.894 C 286.550 91.804,286.338 91.630,285.989 91.506 C 285.641 91.383,284.494 90.927,283.441 90.494 C 281.587 89.732,280.888 89.535,281.220 89.868 M108.117 92.299 C 106.645 92.872,101.423 95.409,101.423 95.551 C 101.423 95.778,102.411 95.367,106.109 93.601 C 108.796 92.318,109.893 91.607,108.117 92.299 M287.531 92.526 C 288.464 93.088,289.197 93.235,288.686 92.757 C 288.511 92.594,287.992 92.362,287.531 92.241 L 286.695 92.022 287.531 92.526 M289.934 93.560 C 290.333 93.960,296.339 96.744,296.485 96.597 C 296.574 96.508,295.189 95.750,293.408 94.913 C 290.364 93.481,289.530 93.156,289.934 93.560 M97.406 97.441 C 91.096 100.793,82.343 106.127,82.343 106.621 C 82.343 106.857,82.701 106.649,84.724 105.238 C 86.553 103.961,93.663 99.825,97.908 97.567 C 101.198 95.818,101.344 95.728,100.893 95.742 C 100.724 95.747,99.155 96.511,97.406 97.441 M296.904 96.910 C 296.904 96.994,297.958 97.594,299.247 98.243 C 301.994 99.626,302.367 99.576,299.833 98.164 C 297.941 97.110,296.904 96.666,296.904 96.910 M301.953 99.554 C 302.029 99.630,304.050 100.881,306.444 102.332 C 322.751 112.223,335.914 124.918,343.090 137.672 C 343.690 138.739,344.245 139.549,344.322 139.471 C 344.400 139.394,343.904 138.370,343.222 137.197 C 336.698 125.985,326.389 115.359,313.305 106.361 C 308.602 103.127,300.915 98.517,301.953 99.554 M79.586 108.368 C 78.349 109.243,77.333 110.073,77.329 110.213 C 77.325 110.353,78.377 109.701,79.665 108.763 C 81.698 107.285,82.274 106.778,81.922 106.778 C 81.875 106.778,80.824 107.494,79.586 108.368 M75.444 111.494 C 64.565 120.140,55.512 130.705,50.582 140.509 C 48.568 144.516,48.910 144.340,51.083 140.251 C 56.517 130.030,63.756 121.624,75.654 111.722 C 77.461 110.219,77.286 110.030,75.444 111.494 M113.567 115.393 C 114.447 115.462,115.802 115.461,116.579 115.391 C 117.356 115.321,116.636 115.264,114.979 115.265 C 113.322 115.266,112.687 115.324,113.567 115.393 M107.448 115.816 C 106.559 116.003,106.478 116.068,107.113 116.087 C 107.573 116.101,108.552 115.987,109.289 115.835 C 110.405 115.604,110.461 115.559,109.623 115.564 C 109.071 115.567,108.092 115.680,107.448 115.816 M119.916 115.712 C 120.238 115.796,120.766 115.796,121.088 115.712 C 121.410 115.628,121.146 115.559,120.502 115.559 C 119.858 115.559,119.594 115.628,119.916 115.712 M121.869 115.939 C 121.946 116.006,122.611 116.154,123.347 116.266 C 124.280 116.408,124.483 116.378,124.017 116.166 C 123.374 115.875,121.581 115.685,121.869 115.939 M269.679 116.709 C 269.243 117.144,269.420 182.926,269.858 183.364 C 270.282 183.788,284.272 183.968,285.328 183.563 C 285.796 183.383,285.858 182.078,285.858 172.329 C 285.858 165.146,285.973 161.371,286.189 161.504 C 286.378 161.621,286.434 161.487,286.320 161.189 C 285.702 159.579,285.523 161.781,285.444 171.967 L 285.356 183.264 277.657 183.264 L 269.958 183.264 269.958 149.874 C 269.958 131.510,269.946 116.485,269.930 116.485 C 269.915 116.485,269.802 116.586,269.679 116.709 M101.590 117.310 C 100.297 117.902,100.899 117.911,102.427 117.322 C 103.071 117.074,103.372 116.866,103.096 116.861 C 102.820 116.855,102.142 117.057,101.590 117.310 M99.163 118.169 C 98.042 118.620,98.252 118.849,99.414 118.444 C 99.967 118.251,100.418 118.033,100.418 117.959 C 100.418 117.760,100.011 117.829,99.163 118.169 M131.241 118.953 C 131.586 119.261,133.556 120.167,133.556 120.017 C 133.556 119.824,131.701 118.828,131.342 118.828 C 131.210 118.828,131.165 118.885,131.241 118.953 M95.146 120.177 C 94.180 120.732,93.389 121.264,93.389 121.360 C 93.389 121.543,96.335 119.928,96.887 119.443 C 97.473 118.927,96.917 119.162,95.146 120.177 M285.603 137.490 C 285.523 154.285,285.584 155.183,286.676 153.389 L 287.236 152.469 286.550 153.255 L 285.864 154.041 285.774 137.355 L 285.684 120.669 285.603 137.490 M85.837 127.950 L 84.854 129.038 85.941 128.055 C 86.955 127.138,87.183 126.862,86.925 126.862 C 86.867 126.862,86.377 127.351,85.837 127.950 M173.808 129.452 C 174.866 129.519,176.598 129.519,177.657 129.452 C 178.715 129.386,177.849 129.332,175.732 129.332 C 173.615 129.332,172.749 129.386,173.808 129.452 M234.059 129.452 C 235.117 129.519,236.849 129.519,237.908 129.452 C 238.967 129.386,238.100 129.332,235.983 129.332 C 233.866 129.332,233.000 129.386,234.059 129.452 M114.728 129.776 C 115.142 129.856,115.820 129.856,116.234 129.776 C 116.649 129.696,116.310 129.631,115.481 129.631 C 114.653 129.631,114.314 129.696,114.728 129.776 M109.791 130.209 C 109.128 130.421,109.093 130.477,109.623 130.477 C 109.992 130.477,110.669 130.357,111.130 130.209 C 111.792 129.997,111.827 129.941,111.297 129.941 C 110.929 129.941,110.251 130.062,109.791 130.209 M132.552 131.632 C 131.160 133.407,130.800 134.028,131.816 132.903 C 132.784 131.831,133.980 130.209,133.803 130.209 C 133.729 130.209,133.166 130.849,132.552 131.632 M166.527 130.544 C 166.105 130.725,166.043 130.832,166.360 130.832 C 166.636 130.832,167.163 130.702,167.531 130.544 C 167.953 130.363,168.015 130.256,167.699 130.256 C 167.423 130.256,166.895 130.386,166.527 130.544 M184.435 130.711 C 185.963 131.300,186.565 131.291,185.272 130.699 C 184.720 130.446,184.042 130.244,183.766 130.250 C 183.490 130.255,183.791 130.463,184.435 130.711 M226.778 130.544 C 226.356 130.725,226.294 130.832,226.611 130.832 C 226.887 130.832,227.414 130.702,227.782 130.544 C 228.204 130.363,228.266 130.256,227.950 130.256 C 227.674 130.256,227.146 130.386,226.778 130.544 M105.439 131.715 C 104.979 131.979,104.753 132.194,104.937 132.194 C 105.121 132.194,105.649 131.979,106.109 131.715 C 106.569 131.452,106.795 131.237,106.611 131.237 C 106.427 131.237,105.900 131.452,105.439 131.715 M186.471 131.338 C 186.816 131.646,188.787 132.552,188.787 132.402 C 188.787 132.209,186.931 131.213,186.572 131.213 C 186.440 131.213,186.395 131.270,186.471 131.338 M100.573 135.314 L 98.912 137.071 100.669 135.410 C 101.636 134.496,102.427 133.706,102.427 133.653 C 102.427 133.403,102.117 133.681,100.573 135.314 M218.650 134.812 C 217.850 135.594,217.836 135.633,218.561 135.068 C 219.990 133.955,220.058 133.891,219.821 133.891 C 219.695 133.891,219.168 134.305,218.650 134.812 M255.063 137.071 C 256.249 138.268,257.294 139.247,257.387 139.247 C 257.479 139.247,256.584 138.268,255.397 137.071 C 254.211 135.874,253.166 134.895,253.074 134.895 C 252.982 134.895,253.877 135.874,255.063 137.071 M315.903 136.941 C 315.398 137.657,315.052 138.243,315.133 138.243 C 315.372 138.243,317.093 135.893,316.950 135.760 C 316.879 135.693,316.407 136.225,315.903 136.941 M80.317 137.118 C 80.132 137.603,80.043 138.063,80.119 138.139 C 80.195 138.215,80.418 137.817,80.613 137.256 C 81.049 136.007,80.786 135.885,80.317 137.118 M155.460 137.322 L 154.477 138.410 155.565 137.427 C 156.579 136.511,156.807 136.234,156.548 136.234 C 156.490 136.234,156.001 136.724,155.460 137.322 M215.711 137.322 L 214.728 138.410 215.816 137.427 C 216.414 136.886,216.904 136.397,216.904 136.339 C 216.904 136.080,216.628 136.308,215.711 137.322 M195.146 137.343 C 195.146 137.401,195.636 137.890,196.234 138.431 L 197.322 139.414 196.339 138.326 C 195.423 137.312,195.146 137.085,195.146 137.343 M97.573 139.247 C 97.288 139.799,97.129 140.251,97.221 140.251 C 97.313 140.251,97.622 139.799,97.908 139.247 C 98.194 138.695,98.352 138.243,98.260 138.243 C 98.168 138.243,97.859 138.695,97.573 139.247 M258.230 140.837 C 258.746 141.619,259.232 142.259,259.310 142.259 C 259.552 142.259,258.270 140.222,257.767 139.807 C 257.506 139.591,257.714 140.054,258.230 140.837 M79.205 140.431 C 79.090 140.730,79.009 141.227,79.025 141.534 C 79.040 141.841,79.186 141.648,79.348 141.105 C 79.664 140.048,79.552 139.525,79.205 140.431 M344.820 140.921 C 345.135 141.824,345.774 142.610,345.774 142.095 C 345.774 141.790,344.774 139.916,344.611 139.916 C 344.534 139.916,344.628 140.368,344.820 140.921 M199.734 143.756 C 200.228 144.764,200.689 145.532,200.757 145.463 C 200.907 145.313,199.219 141.925,198.994 141.925 C 198.907 141.925,199.240 142.749,199.734 143.756 M171.762 142.643 C 171.144 142.821,170.697 143.026,170.770 143.099 C 170.842 143.172,171.650 143.026,172.564 142.775 C 173.478 142.524,173.925 142.319,173.556 142.320 C 173.188 142.320,172.381 142.465,171.762 142.643 M210.822 144.452 C 210.258 145.657,209.853 146.701,209.924 146.772 C 209.994 146.842,210.527 145.856,211.108 144.580 C 211.689 143.303,212.093 142.259,212.006 142.259 C 211.919 142.259,211.386 143.246,210.822 144.452 M346.282 143.832 C 346.807 145.089,347.113 145.573,347.113 145.150 C 347.113 144.725,346.147 142.594,345.954 142.594 C 345.850 142.594,345.998 143.151,346.282 143.832 M310.279 144.351 C 309.657 145.134,309.413 145.561,309.736 145.302 C 310.345 144.812,311.780 142.929,311.543 142.929 C 311.469 142.929,310.900 143.569,310.279 144.351 M181.785 143.365 C 181.862 143.421,182.377 143.731,182.929 144.054 L 183.933 144.642 183.143 143.953 C 182.708 143.574,182.194 143.264,181.999 143.264 C 181.805 143.264,181.709 143.309,181.785 143.365 M48.383 145.021 C 47.409 147.362,45.525 153.065,45.552 153.589 C 45.568 153.893,46.074 152.636,46.676 150.795 C 47.278 148.954,48.091 146.657,48.483 145.690 C 48.875 144.724,49.114 143.933,49.016 143.933 C 48.917 143.933,48.632 144.423,48.383 145.021 M167.245 145.120 C 166.390 145.773,165.690 146.388,165.690 146.487 C 165.690 146.639,167.805 145.115,168.854 144.208 C 169.746 143.436,168.598 144.087,167.245 145.120 M185.156 145.779 C 185.828 146.513,186.694 147.640,187.079 148.285 C 187.465 148.929,187.780 149.290,187.781 149.088 C 187.783 148.564,186.041 146.261,184.899 145.277 C 184.214 144.686,184.288 144.832,185.156 145.779 M245.690 145.774 C 246.315 146.418,246.901 146.946,246.993 146.946 C 247.085 146.946,246.650 146.418,246.025 145.774 C 245.401 145.130,244.814 144.603,244.722 144.603 C 244.630 144.603,245.066 145.130,245.690 145.774 M112.210 151.381 L 112.286 157.824 112.384 151.552 L 112.483 145.280 124.945 145.188 L 137.406 145.096 124.770 145.017 L 112.134 144.937 112.210 151.381 M226.757 146.025 L 225.774 147.113 226.862 146.130 C 227.460 145.589,227.950 145.100,227.950 145.042 C 227.950 144.783,227.674 145.011,226.757 146.025 M347.275 146.192 C 348.092 148.238,349.761 153.841,350.141 155.816 C 350.390 157.105,350.650 157.891,350.720 157.563 C 350.974 156.379,347.816 145.607,347.215 145.607 C 347.120 145.607,347.147 145.870,347.275 146.192 M95.147 147.113 C 95.151 147.849,95.219 148.111,95.300 147.695 C 95.380 147.278,95.377 146.676,95.293 146.356 C 95.209 146.036,95.143 146.377,95.147 147.113 M139.581 146.862 C 140.019 147.460,140.429 147.950,140.493 147.950 C 140.747 147.950,139.917 146.694,139.369 146.249 C 139.007 145.955,139.088 146.189,139.581 146.862 M308.285 146.946 C 307.891 147.498,307.645 147.950,307.737 147.950 C 307.829 147.950,308.226 147.498,308.619 146.946 C 309.013 146.393,309.259 145.941,309.167 145.941 C 309.075 145.941,308.678 146.393,308.285 146.946 M78.109 149.958 C 78.109 151.523,78.166 152.163,78.237 151.381 C 78.307 150.598,78.307 149.318,78.237 148.536 C 78.166 147.753,78.109 148.393,78.109 149.958 M289.540 148.787 C 288.970 149.615,288.579 150.293,288.671 150.293 C 288.763 150.293,289.304 149.615,289.874 148.787 C 290.444 147.958,290.836 147.280,290.743 147.280 C 290.651 147.280,290.110 147.958,289.540 148.787 M201.553 148.285 C 201.553 148.561,201.683 149.088,201.841 149.456 C 202.022 149.878,202.129 149.940,202.129 149.623 C 202.129 149.347,201.999 148.820,201.841 148.452 C 201.660 148.030,201.553 147.968,201.553 148.285 M209.038 149.289 C 208.911 149.867,208.876 150.411,208.962 150.496 C 209.047 150.581,209.213 150.170,209.331 149.582 C 209.610 148.186,209.339 147.916,209.038 149.289 M94.812 150.126 C 94.816 150.862,94.885 151.124,94.965 150.707 C 95.045 150.291,95.042 149.689,94.958 149.368 C 94.874 149.048,94.809 149.389,94.812 150.126 M248.086 149.121 C 248.085 149.305,248.287 149.983,248.536 150.628 C 248.784 151.272,248.991 151.573,248.997 151.297 C 249.003 151.021,248.801 150.343,248.548 149.791 C 248.295 149.238,248.087 148.937,248.086 149.121 M187.987 150.460 C 188.262 151.691,188.454 151.958,188.447 151.102 C 188.444 150.749,188.289 150.234,188.102 149.958 C 187.854 149.591,187.823 149.727,187.987 150.460 M95.147 152.803 C 95.151 153.540,95.219 153.802,95.300 153.385 C 95.380 152.969,95.377 152.366,95.293 152.046 C 95.209 151.726,95.143 152.067,95.147 152.803 M262.846 153.808 C 262.850 154.544,262.918 154.806,262.998 154.389 C 263.078 153.973,263.075 153.371,262.991 153.050 C 262.908 152.730,262.842 153.071,262.846 153.808 M148.070 156.987 C 148.070 158.736,148.127 159.452,148.196 158.577 C 148.265 157.703,148.265 156.272,148.196 155.397 C 148.127 154.523,148.070 155.238,148.070 156.987 M208.322 156.987 C 208.322 158.736,208.378 159.452,208.447 158.577 C 208.516 157.703,208.516 156.272,208.447 155.397 C 208.378 154.523,208.322 155.238,208.322 156.987 M44.906 156.065 C 43.668 161.664,43.190 169.576,43.851 173.556 C 44.037 174.678,44.071 173.906,43.954 171.213 C 43.767 166.917,44.216 161.203,45.062 157.111 C 45.348 155.726,45.518 154.528,45.439 154.449 C 45.360 154.370,45.121 155.097,44.906 156.065 M202.913 157.301 C 202.856 159.678,202.728 160.260,202.101 160.983 L 201.358 161.841 202.283 160.982 C 203.175 160.155,203.205 160.020,203.095 157.300 L 202.981 154.477 202.913 157.301 M263.162 157.803 C 263.109 159.661,262.948 160.296,262.353 160.983 L 261.609 161.841 262.537 160.980 C 263.407 160.172,263.457 159.976,263.346 157.800 L 263.227 155.481 263.162 157.803 M125.857 162.777 L 126.023 167.866 126.117 163.039 C 126.169 160.384,126.094 158.094,125.951 157.950 C 125.808 157.806,125.765 159.978,125.857 162.777 M302.284 158.828 C 302.698 159.565,303.180 160.318,303.355 160.502 C 303.857 161.027,302.710 158.907,302.089 158.159 C 301.783 157.791,301.871 158.092,302.284 158.828 M79.001 158.522 C 79.004 158.874,79.159 159.389,79.346 159.665 C 79.594 160.032,79.625 159.897,79.461 159.163 C 79.186 157.932,78.994 157.665,79.001 158.522 M351.072 161.004 C 351.357 164.605,351.361 171.367,351.082 175.063 C 350.901 177.455,350.925 177.695,351.231 176.569 C 351.720 174.777,351.712 161.251,351.222 159.498 C 350.904 158.360,350.881 158.586,351.072 161.004 M80.182 162.427 C 80.308 162.841,80.548 163.327,80.716 163.507 C 80.885 163.687,80.853 163.348,80.646 162.754 C 80.222 161.538,79.830 161.262,80.182 162.427 M223.304 162.678 C 223.298 162.954,223.501 163.632,223.754 164.184 C 224.346 165.477,224.354 164.876,223.766 163.347 C 223.518 162.703,223.310 162.402,223.304 162.678 M287.364 163.682 C 287.650 164.234,287.959 164.686,288.051 164.686 C 288.143 164.686,287.984 164.234,287.699 163.682 C 287.413 163.130,287.104 162.678,287.012 162.678 C 286.920 162.678,287.078 163.130,287.364 163.682 M163.374 163.615 C 163.344 164.099,164.273 166.025,164.536 166.025 C 164.628 166.025,164.494 165.611,164.239 165.105 C 163.983 164.598,163.690 163.958,163.587 163.682 C 163.461 163.345,163.391 163.323,163.374 163.615 M208.927 163.849 C 208.922 164.218,209.047 164.820,209.205 165.188 C 209.572 166.041,209.572 165.161,209.205 164.017 C 208.990 163.344,208.935 163.311,208.927 163.849 M101.255 164.993 C 101.906 165.741,103.766 167.195,103.766 166.956 C 103.766 166.890,103.050 166.248,102.176 165.530 C 101.301 164.811,100.887 164.569,101.255 164.993 M149.001 165.021 C 149.001 165.297,149.130 165.824,149.289 166.192 C 149.470 166.614,149.576 166.676,149.576 166.360 C 149.576 166.084,149.447 165.556,149.289 165.188 C 149.107 164.766,149.001 164.704,149.001 165.021 M165.858 167.699 C 166.577 168.435,167.240 169.038,167.333 169.038 C 167.425 169.038,166.912 168.435,166.192 167.699 C 165.473 166.962,164.810 166.360,164.718 166.360 C 164.626 166.360,165.139 166.962,165.858 167.699 M308.453 168.648 C 309.004 169.262,309.757 169.921,310.126 170.112 C 310.494 170.302,310.644 170.327,310.460 170.166 C 310.276 170.004,309.523 169.346,308.787 168.702 L 307.449 167.531 308.453 168.648 M210.233 168.201 C 210.233 168.385,210.448 168.912,210.711 169.372 C 210.974 169.833,211.190 170.059,211.190 169.874 C 211.190 169.690,210.974 169.163,210.711 168.703 C 210.448 168.243,210.233 168.017,210.233 168.201 M83.943 169.548 C 84.136 169.921,84.918 170.900,85.681 171.724 C 87.034 173.186,87.030 173.174,85.498 171.213 C 83.624 168.815,83.486 168.668,83.943 169.548 M167.699 169.188 C 167.699 169.280,168.151 169.589,168.703 169.874 C 169.255 170.160,169.707 170.318,169.707 170.226 C 169.707 170.134,169.255 169.825,168.703 169.540 C 168.151 169.254,167.699 169.096,167.699 169.188 M186.025 169.564 C 184.774 170.243,184.850 170.525,186.109 169.874 C 186.661 169.589,187.113 169.284,187.113 169.196 C 187.113 168.981,187.077 168.993,186.025 169.564 M246.276 169.564 C 245.025 170.243,245.101 170.525,246.360 169.874 C 246.912 169.589,247.364 169.284,247.364 169.196 C 247.364 168.981,247.328 168.993,246.276 169.564 M291.046 170.377 C 291.332 170.929,291.641 171.381,291.733 171.381 C 291.825 171.381,291.666 170.929,291.381 170.377 C 291.095 169.824,290.786 169.372,290.694 169.372 C 290.602 169.372,290.760 169.824,291.046 170.377 M317.322 169.874 C 316.229 170.499,316.611 170.506,318.037 169.888 C 318.656 169.619,318.937 169.398,318.661 169.397 C 318.385 169.397,317.782 169.611,317.322 169.874 M113.222 169.954 C 114.280 170.021,116.013 170.021,117.071 169.954 C 118.130 169.888,117.264 169.834,115.146 169.834 C 113.029 169.834,112.163 169.888,113.222 169.954 M182.092 171.046 C 181.419 171.261,181.387 171.316,181.925 171.324 C 182.293 171.329,182.895 171.204,183.264 171.046 C 184.117 170.679,183.237 170.679,182.092 171.046 M231.632 171.031 C 231.908 171.218,232.423 171.373,232.775 171.376 C 233.632 171.382,233.365 171.191,232.134 170.916 C 231.401 170.752,231.265 170.783,231.632 171.031 M242.343 171.046 C 241.654 171.267,241.624 171.319,242.176 171.342 C 242.544 171.358,243.071 171.224,243.347 171.046 C 243.934 170.667,243.527 170.667,242.343 171.046 M250.377 170.807 C 250.377 170.894,251.237 171.698,252.288 172.595 C 253.339 173.492,254.091 174.051,253.960 173.838 C 253.673 173.370,250.377 170.582,250.377 170.807 M313.054 170.942 C 313.377 171.026,313.904 171.026,314.226 170.942 C 314.548 170.858,314.285 170.789,313.640 170.789 C 312.996 170.789,312.732 170.858,313.054 170.942 M152.505 172.993 C 152.853 173.604,153.430 174.357,153.786 174.667 C 154.162 174.994,154.030 174.670,153.469 173.891 C 152.128 172.028,151.757 171.683,152.505 172.993 M191.494 172.134 C 191.572 172.180,192.162 172.669,192.805 173.222 L 193.975 174.226 192.992 173.138 C 192.451 172.540,191.861 172.050,191.681 172.050 C 191.500 172.050,191.416 172.088,191.494 172.134 M213.811 174.561 C 214.195 175.113,215.383 176.393,216.451 177.406 C 218.301 179.160,218.283 179.128,216.077 176.736 C 212.984 173.384,213.013 173.412,213.811 174.561 M140.063 175.146 L 139.079 176.234 140.167 175.251 C 141.181 174.335,141.409 174.059,141.150 174.059 C 141.093 174.059,140.603 174.548,140.063 175.146 M254.895 174.700 C 255.546 175.448,257.406 176.902,257.406 176.663 C 257.406 176.597,256.690 175.955,255.816 175.237 C 254.941 174.518,254.527 174.276,254.895 174.700 M89.540 175.704 C 90.191 176.452,92.050 177.906,92.050 177.667 C 92.050 177.601,91.335 176.960,90.460 176.241 C 89.586 175.522,89.172 175.281,89.540 175.704 M44.405 177.406 C 44.514 178.603,44.725 179.883,44.875 180.251 L 45.146 180.921 45.146 180.251 C 45.147 179.883,44.936 178.603,44.677 177.406 L 44.207 175.230 44.405 177.406 M155.816 177.071 C 156.723 177.992,157.540 178.745,157.632 178.745 C 157.724 178.745,157.057 177.992,156.151 177.071 C 155.244 176.151,154.427 175.397,154.335 175.397 C 154.243 175.397,154.909 176.151,155.816 177.071 M196.628 176.312 C 197.155 176.948,197.181 177.147,196.801 177.651 C 196.375 178.216,196.384 178.216,196.995 177.656 C 197.624 177.079,197.621 177.055,196.822 176.317 L 196.008 175.565 196.628 176.312 M295.225 177.107 C 295.805 177.956,296.979 179.311,297.835 180.120 L 299.390 181.590 297.895 179.916 C 297.074 178.996,295.899 177.640,295.286 176.904 L 294.170 175.565 295.225 177.107 M137.741 176.946 C 137.139 177.458,137.016 177.661,137.433 177.454 C 138.047 177.149,139.198 176.047,138.869 176.079 C 138.801 176.086,138.293 176.476,137.741 176.946 M350.014 180.910 C 349.698 182.349,349.500 183.587,349.575 183.662 C 349.786 183.872,350.878 179.160,350.725 178.701 C 350.650 178.477,350.330 179.471,350.014 180.910 M133.473 179.606 C 132.221 180.285,132.298 180.567,133.556 179.916 C 134.109 179.631,134.561 179.326,134.561 179.238 C 134.561 179.023,134.525 179.035,133.473 179.606 M322.510 180.628 C 321.909 181.140,321.786 181.343,322.203 181.136 C 322.817 180.831,323.968 179.729,323.639 179.761 C 323.571 179.768,323.063 180.158,322.510 180.628 M160.167 180.591 C 160.916 181.206,163.705 182.680,163.180 182.184 C 162.996 182.010,162.092 181.457,161.172 180.955 C 160.251 180.452,159.799 180.289,160.167 180.591 M252.636 180.610 C 251.385 181.289,251.461 181.571,252.720 180.921 C 253.272 180.635,253.724 180.330,253.724 180.242 C 253.724 180.027,253.688 180.039,252.636 180.610 M130.879 180.921 C 130.418 181.184,130.192 181.399,130.377 181.399 C 130.561 181.399,131.088 181.184,131.548 180.921 C 132.008 180.657,132.234 180.442,132.050 180.442 C 131.866 180.442,131.339 180.657,130.879 180.921 M128.703 181.936 C 127.862 182.342,127.835 182.387,128.536 182.218 C 128.996 182.108,129.515 181.883,129.690 181.720 C 130.124 181.314,129.886 181.367,128.703 181.936 M300.586 182.257 C 300.586 182.484,303.305 183.836,303.456 183.685 C 303.526 183.615,302.909 183.230,302.085 182.829 C 301.260 182.428,300.586 182.171,300.586 182.257 M45.677 183.364 C 45.863 184.567,47.560 189.539,47.728 189.371 C 47.785 189.314,47.308 187.691,46.669 185.764 C 46.030 183.836,45.584 182.757,45.677 183.364 M318.159 183.096 C 317.423 183.437,316.938 183.727,317.082 183.741 C 317.478 183.778,319.665 182.822,319.665 182.611 C 319.665 182.384,319.768 182.351,318.159 183.096 M102.762 183.081 C 103.038 183.268,103.552 183.423,103.905 183.426 C 104.762 183.433,104.494 183.241,103.264 182.966 C 102.530 182.802,102.395 182.833,102.762 183.081 M125.021 183.096 C 124.599 183.278,124.537 183.384,124.854 183.384 C 125.130 183.384,125.657 183.254,126.025 183.096 C 126.447 182.915,126.509 182.809,126.192 182.809 C 125.916 182.809,125.389 182.938,125.021 183.096 M186.444 183.264 C 185.799 183.512,185.498 183.719,185.774 183.725 C 186.050 183.731,186.728 183.529,187.280 183.276 C 188.573 182.684,187.972 182.675,186.444 183.264 M108.536 184.331 C 108.858 184.415,109.385 184.415,109.707 184.331 C 110.029 184.247,109.766 184.178,109.121 184.178 C 108.477 184.178,108.213 184.247,108.536 184.331 M119.582 184.331 C 119.904 184.415,120.431 184.415,120.753 184.331 C 121.075 184.247,120.812 184.178,120.167 184.178 C 119.523 184.178,119.259 184.247,119.582 184.331 M169.372 184.435 C 169.833 184.583,170.586 184.700,171.046 184.697 C 171.798 184.691,171.781 184.665,170.879 184.435 C 169.463 184.075,168.247 184.075,169.372 184.435 M310.293 184.435 L 306.778 184.639 310.126 184.665 C 311.967 184.679,313.925 184.576,314.477 184.435 C 315.674 184.131,315.547 184.131,310.293 184.435 M347.976 187.862 C 342.732 202.879,329.780 218.393,313.078 229.664 C 311.730 230.573,310.628 231.397,310.628 231.494 C 310.628 232.077,320.669 224.710,324.327 221.443 C 336.753 210.346,347.030 195.387,349.287 185.113 C 349.699 183.238,349.296 184.083,347.976 187.862 M112.566 184.684 C 113.817 184.748,115.775 184.748,116.918 184.683 C 118.061 184.617,117.038 184.565,114.644 184.565 C 112.251 184.566,111.316 184.619,112.566 184.684 M240.753 184.666 C 241.075 184.750,241.603 184.750,241.925 184.666 C 242.247 184.582,241.983 184.513,241.339 184.513 C 240.695 184.513,240.431 184.582,240.753 184.666 M174.310 185.017 C 175.276 185.084,176.858 185.084,177.824 185.017 C 178.791 184.949,178.000 184.894,176.067 184.894 C 174.134 184.894,173.343 184.949,174.310 185.017 M234.406 185.018 C 235.471 185.084,237.128 185.084,238.088 185.016 C 239.047 184.949,238.176 184.894,236.151 184.895 C 234.126 184.896,233.340 184.951,234.406 185.018 M48.058 190.460 C 50.032 197.862,60.974 212.603,70.795 221.090 C 74.212 224.042,75.200 224.711,72.323 222.124 C 61.643 212.518,54.809 203.875,49.801 193.640 C 48.720 191.431,47.936 190.000,48.058 190.460 M74.986 224.504 C 75.004 225.220,85.484 232.367,91.956 236.077 C 98.229 239.673,109.926 245.332,110.304 244.954 C 110.394 244.864,109.450 244.365,108.205 243.846 C 98.513 239.802,86.290 232.758,77.573 226.192 C 76.146 225.117,74.982 224.357,74.986 224.504 M307.359 233.365 C 305.837 234.308,304.660 235.148,304.743 235.231 C 304.898 235.386,308.412 233.271,309.732 232.229 C 311.021 231.211,310.194 231.608,307.359 233.365 M301.088 237.042 C 299.431 237.977,296.978 239.270,295.636 239.916 C 294.294 240.562,293.262 241.156,293.341 241.235 C 293.572 241.466,303.317 236.399,304.048 235.668 C 304.635 235.081,304.231 235.268,301.088 237.042 M288.230 243.362 C 285.760 244.466,281.866 246.076,279.577 246.941 C 277.288 247.806,275.561 248.562,275.739 248.621 C 276.335 248.820,291.909 242.418,292.703 241.648 C 293.215 241.151,292.946 241.254,288.230 243.362 M110.962 245.294 C 111.375 245.690,119.524 248.788,119.698 248.615 C 119.767 248.546,118.800 248.090,117.549 247.601 C 112.683 245.701,110.641 244.985,110.962 245.294 M120.167 248.831 C 120.167 249.062,127.575 251.449,127.750 251.274 C 127.825 251.199,126.489 250.680,124.780 250.122 C 120.543 248.737,120.167 248.632,120.167 248.831 M269.289 250.585 C 266.343 251.581,264.385 252.311,264.937 252.207 C 266.277 251.953,274.100 249.433,274.778 249.036 C 275.777 248.452,274.656 248.769,269.289 250.585 M128.261 251.552 C 128.737 252.029,144.398 256.094,145.559 256.043 C 145.861 256.029,143.247 255.294,139.749 254.409 C 136.251 253.524,132.357 252.480,131.094 252.090 C 128.828 251.389,127.927 251.218,128.261 251.552 M258.491 253.646 C 256.050 254.299,254.119 254.900,254.200 254.981 C 254.376 255.157,262.706 253.082,263.431 252.682 C 264.370 252.164,263.100 252.412,258.491 253.646 M250.879 255.582 L 249.205 256.038 250.839 255.858 C 252.654 255.658,254.460 255.096,253.222 255.116 C 252.854 255.122,251.799 255.332,250.879 255.582 M146.305 256.187 C 146.555 256.463,156.228 258.303,158.661 258.538 C 161.090 258.773,159.622 258.435,153.138 257.268 C 150.561 256.804,147.925 256.323,147.280 256.198 C 146.636 256.073,146.197 256.068,146.305 256.187 M245.896 256.588 C 244.628 256.840,243.423 257.120,243.218 257.211 C 242.476 257.540,246.561 256.961,247.866 256.552 C 249.625 256.002,248.768 256.017,245.896 256.588 M239.331 257.785 C 236.720 258.211,236.464 258.443,238.832 258.236 C 241.086 258.039,243.519 257.455,242.008 257.474 C 241.548 257.479,240.343 257.619,239.331 257.785 M231.297 259.096 C 227.920 259.632,227.756 259.686,229.958 259.534 C 232.517 259.359,237.505 258.492,235.983 258.487 C 235.523 258.486,233.414 258.760,231.297 259.096 M161.617 259.056 C 162.230 259.212,163.886 259.423,165.299 259.524 C 167.132 259.656,167.483 259.628,166.527 259.426 C 164.616 259.023,160.182 258.689,161.617 259.056 M169.707 260.067 C 171.041 260.401,179.615 261.108,181.609 261.048 C 182.795 261.013,177.008 260.422,170.879 259.953 C 169.162 259.821,168.849 259.852,169.707 260.067 M218.577 260.427 C 215.172 260.744,212.987 261.021,213.724 261.044 C 215.607 261.102,223.925 260.450,225.664 260.107 C 227.947 259.658,225.823 259.754,218.577 260.427 M187.113 261.465 C 191.666 261.737,204.078 261.738,208.368 261.467 C 210.209 261.351,205.389 261.255,197.657 261.255 C 189.925 261.255,185.180 261.350,187.113 261.465 " stroke="none" fill="#737474" fill-rule="evenodd"></path><path id="path6" d="M186.650 70.310 C 182.990 70.470,179.864 70.645,179.704 70.698 C 179.545 70.751,187.887 70.795,198.243 70.795 C 217.082 70.795,218.857 70.523,202.176 70.193 C 197.297 70.097,190.310 70.149,186.650 70.310 M173.724 71.188 C 165.339 72.040,156.443 73.374,161.168 73.071 C 162.822 72.965,164.608 72.754,165.136 72.603 C 165.665 72.451,168.302 72.158,170.998 71.951 C 176.398 71.536,179.618 71.016,176.569 71.051 C 175.649 71.061,174.368 71.123,173.724 71.188 M218.300 71.116 C 218.423 71.248,221.059 71.567,224.157 71.827 C 227.256 72.086,230.017 72.383,230.293 72.487 C 230.616 72.608,230.675 72.563,230.460 72.361 C 229.918 71.851,217.829 70.613,218.300 71.116 M231.464 72.611 C 231.833 72.758,233.414 72.962,234.979 73.065 L 237.824 73.251 235.314 72.797 C 232.418 72.274,230.371 72.174,231.464 72.611 M153.546 73.893 C 151.930 74.172,150.676 74.470,150.761 74.555 C 150.982 74.775,157.054 73.938,157.657 73.604 C 158.394 73.195,157.035 73.291,153.546 73.893 M238.074 73.495 C 238.340 73.766,243.736 74.648,244.854 74.603 C 245.721 74.568,242.048 73.765,239.665 73.469 C 238.653 73.344,237.937 73.355,238.074 73.495 M147.113 75.153 C 146.008 75.402,144.891 75.615,144.630 75.627 C 144.370 75.639,144.236 75.729,144.334 75.827 C 144.561 76.053,149.290 75.308,149.958 74.941 C 150.719 74.523,149.510 74.613,147.113 75.153 M246.025 74.911 C 246.610 75.267,251.400 76.076,251.620 75.856 C 251.769 75.707,249.377 75.178,246.862 74.805 C 245.989 74.675,245.698 74.712,246.025 74.911 M141.442 76.360 C 139.504 76.814,139.492 77.087,141.423 76.810 C 143.212 76.553,144.673 75.984,143.431 76.027 C 143.063 76.040,142.168 76.190,141.442 76.360 M252.143 76.188 C 252.256 76.300,253.298 76.595,254.458 76.843 C 255.619 77.091,257.606 77.531,258.873 77.821 C 262.883 78.740,261.626 78.125,257.259 77.032 C 253.181 76.011,251.726 75.771,252.143 76.188 M136.626 77.548 C 133.993 78.172,134.131 78.531,136.794 77.985 C 138.777 77.578,140.291 76.987,139.247 77.027 C 138.971 77.038,137.791 77.272,136.626 77.548 M131.548 79.010 C 130.536 79.363,130.159 79.572,130.711 79.473 C 132.327 79.184,134.226 78.648,134.226 78.481 C 134.226 78.199,133.409 78.360,131.548 79.010 M261.757 78.481 C 261.757 78.566,262.397 78.799,263.180 79.000 C 265.406 79.570,269.220 80.689,269.958 80.988 C 270.326 81.137,272.586 81.895,274.979 82.673 C 277.372 83.451,279.782 84.276,280.335 84.507 C 284.995 86.454,290.024 88.289,289.158 87.728 C 286.258 85.847,261.757 77.579,261.757 78.481 M128.368 79.834 C 128.184 79.898,125.849 80.654,123.180 81.515 C 89.621 92.330,62.337 111.526,48.970 133.724 C 46.520 137.792,45.082 140.591,45.321 140.830 C 45.418 140.927,45.685 140.573,45.914 140.043 C 51.488 127.136,69.492 108.341,84.453 99.811 C 85.535 99.195,85.872 98.986,87.866 97.701 C 91.250 95.519,101.146 90.518,106.778 88.143 C 107.423 87.872,108.402 87.440,108.954 87.184 C 110.916 86.276,113.228 85.356,113.548 85.356 C 113.727 85.356,114.348 85.136,114.928 84.869 C 116.192 84.285,117.927 83.670,122.176 82.298 C 123.925 81.733,125.657 81.142,126.025 80.984 C 126.393 80.826,127.335 80.535,128.117 80.336 C 128.900 80.137,129.540 79.905,129.540 79.820 C 129.540 79.648,128.883 79.656,128.368 79.834 M289.874 88.213 C 289.874 88.311,290.590 88.697,291.464 89.071 C 298.497 92.073,308.905 97.874,316.775 103.177 C 318.817 104.553,323.181 107.910,327.029 111.066 C 332.141 115.257,340.953 124.967,344.271 130.062 C 345.880 132.534,345.742 132.362,345.951 132.153 C 346.048 132.055,345.117 130.562,343.881 128.833 C 333.395 114.158,318.560 102.168,298.273 91.972 C 290.797 88.214,289.874 87.802,289.874 88.213 M113.724 115.726 C 114.506 115.797,115.787 115.797,116.569 115.726 C 117.351 115.656,116.711 115.598,115.146 115.598 C 113.582 115.598,112.941 115.656,113.724 115.726 M269.870 150.042 C 269.914 168.314,269.989 177.916,270.037 171.381 C 270.267 140.187,270.269 116.820,270.042 116.820 C 269.904 116.820,269.826 131.770,269.870 150.042 M285.269 137.637 C 285.190 154.224,285.271 155.623,286.238 154.390 C 286.651 153.864,286.638 153.851,286.112 154.264 C 285.560 154.697,285.524 153.821,285.439 137.695 L 285.349 120.669 285.269 137.637 M114.728 129.441 C 115.142 129.521,115.820 129.521,116.234 129.441 C 116.649 129.361,116.310 129.296,115.481 129.296 C 114.653 129.296,114.314 129.361,114.728 129.441 M346.116 132.758 C 346.112 132.964,346.394 133.494,346.743 133.938 C 348.427 136.078,353.779 147.877,353.823 149.543 C 353.842 150.278,354.748 152.293,354.785 151.683 C 354.799 151.434,354.254 149.552,353.573 147.498 C 351.883 142.403,346.150 131.071,346.116 132.758 M44.562 141.962 C 44.392 142.402,43.930 143.572,43.537 144.562 C 43.143 145.553,42.898 146.440,42.992 146.535 C 43.087 146.629,43.265 146.422,43.389 146.073 C 43.513 145.724,43.977 144.557,44.421 143.478 C 44.864 142.400,45.147 141.438,45.050 141.340 C 44.952 141.242,44.733 141.522,44.562 141.962 M245.858 145.607 C 246.577 146.343,247.240 146.946,247.333 146.946 C 247.425 146.946,246.912 146.343,246.192 145.607 C 245.473 144.870,244.810 144.268,244.718 144.268 C 244.626 144.268,245.139 144.870,245.858 145.607 M118.577 145.523 C 122.029 145.577,127.678 145.577,131.130 145.523 C 134.582 145.468,131.757 145.424,124.854 145.424 C 117.950 145.424,115.126 145.468,118.577 145.523 M42.032 148.643 C 41.589 150.136,41.536 151.623,41.975 150.257 C 42.696 148.014,42.886 147.210,42.734 147.058 C 42.636 146.960,42.320 147.673,42.032 148.643 M41.048 151.745 C 40.268 154.850,39.513 159.240,39.363 161.535 C 39.159 164.648,39.566 163.231,40.140 158.828 C 40.332 157.356,40.724 155.113,41.010 153.844 C 41.507 151.640,41.541 149.780,41.048 151.745 M354.822 152.649 C 354.816 152.933,355.040 154.042,355.319 155.114 C 356.539 159.796,356.853 174.599,355.828 179.079 C 354.507 184.851,353.528 188.468,353.153 188.954 C 353.012 189.138,352.789 189.735,352.658 190.281 C 352.218 192.115,347.880 201.119,346.915 202.202 C 346.656 202.493,346.444 202.825,346.444 202.940 C 346.444 203.130,345.159 205.193,344.524 206.025 C 344.383 206.209,343.816 207.033,343.264 207.855 C 342.711 208.677,342.033 209.603,341.757 209.913 C 341.481 210.222,340.803 211.055,340.251 211.763 C 339.244 213.054,333.768 219.268,333.361 219.582 C 333.242 219.674,331.708 221.073,329.953 222.691 C 324.930 227.322,318.220 232.433,312.284 236.151 C 310.521 237.255,308.786 238.348,308.430 238.580 C 308.074 238.811,307.406 239.185,306.946 239.410 C 306.485 239.635,306.033 239.897,305.941 239.993 C 305.678 240.267,303.831 241.234,298.243 244.026 C 292.947 246.671,291.705 247.256,289.405 248.184 C 288.686 248.474,288.180 248.793,288.279 248.893 C 288.537 249.151,295.198 246.104,301.088 243.034 C 341.250 222.099,362.107 189.647,356.174 157.322 C 355.458 153.422,354.848 151.314,354.822 152.649 M202.618 157.992 C 202.618 159.188,202.678 159.678,202.753 159.079 C 202.827 158.481,202.827 157.502,202.753 156.904 C 202.678 156.305,202.618 156.795,202.618 157.992 M285.341 160.421 C 285.252 160.652,285.221 165.887,285.272 172.053 L 285.365 183.264 285.444 171.758 C 285.519 160.855,285.554 160.277,286.109 160.712 C 286.640 161.129,286.652 161.117,286.235 160.586 C 285.688 159.889,285.554 159.864,285.341 160.421 M38.943 168.201 C 38.944 169.674,39.003 170.235,39.074 169.447 C 39.145 168.660,39.144 167.455,39.072 166.769 C 39.000 166.084,38.942 166.728,38.943 168.201 M113.716 170.283 C 114.311 170.357,115.365 170.359,116.059 170.286 C 116.754 170.214,116.268 170.153,114.979 170.152 C 113.690 170.150,113.122 170.209,113.716 170.283 M39.277 174.776 C 39.494 177.466,40.988 185.045,41.371 185.399 C 41.636 185.644,41.327 183.726,40.651 180.921 C 40.385 179.816,40.023 177.501,39.849 175.776 C 39.465 171.997,38.984 171.155,39.277 174.776 M174.477 184.681 C 175.351 184.750,176.782 184.750,177.657 184.681 C 178.531 184.612,177.816 184.556,176.067 184.556 C 174.318 184.556,173.603 184.612,174.477 184.681 M234.572 184.682 C 235.545 184.750,237.051 184.749,237.919 184.681 C 238.787 184.612,237.992 184.557,236.151 184.557 C 234.310 184.558,233.599 184.614,234.572 184.682 M41.506 185.814 C 41.506 186.262,42.571 189.507,42.682 189.396 C 42.887 189.191,42.165 186.304,41.822 185.958 C 41.648 185.783,41.506 185.718,41.506 185.814 M42.845 189.890 C 42.845 190.006,43.162 190.897,43.549 191.870 C 43.936 192.844,44.392 194.000,44.562 194.440 C 44.733 194.879,44.948 195.164,45.040 195.072 C 45.132 194.980,44.775 193.827,44.246 192.511 C 43.368 190.325,42.845 189.348,42.845 189.890 M45.348 195.983 C 45.714 197.122,48.588 202.235,48.764 202.059 C 48.855 201.968,48.314 200.838,47.561 199.549 C 46.808 198.260,46.192 197.072,46.192 196.909 C 46.192 196.747,45.954 196.321,45.663 195.964 C 45.141 195.323,45.137 195.323,45.348 195.983 M49.613 203.859 C 53.461 210.658,62.496 220.541,71.493 227.792 C 76.614 231.919,85.651 238.154,85.985 237.791 C 86.099 237.667,86.035 237.508,85.842 237.439 C 85.070 237.159,76.643 231.420,73.976 229.356 C 67.775 224.559,60.736 217.846,56.709 212.887 C 55.438 211.322,54.247 209.875,54.061 209.671 C 53.876 209.468,52.745 207.783,51.548 205.929 C 49.399 202.598,48.134 201.245,49.613 203.859 M86.360 238.131 C 86.360 239.178,112.681 251.950,113.386 251.245 C 113.486 251.144,113.283 250.961,112.935 250.837 C 112.586 250.714,111.669 250.334,110.897 249.993 C 110.125 249.651,109.394 249.372,109.274 249.372 C 109.154 249.372,108.505 249.126,107.833 248.826 C 107.161 248.525,105.933 247.980,105.105 247.614 C 101.795 246.153,95.060 242.763,92.152 241.096 C 90.458 240.125,88.976 239.331,88.857 239.331 C 88.738 239.331,88.258 239.029,87.790 238.661 C 87.000 238.040,86.360 237.802,86.360 238.131 M285.188 249.940 C 283.992 250.418,282.561 251.001,282.008 251.236 C 281.456 251.471,280.589 251.767,280.081 251.894 C 279.336 252.080,278.430 252.720,278.912 252.720 C 279.231 252.720,284.556 250.682,286.192 249.934 C 288.606 248.831,287.959 248.835,285.188 249.940 M114.644 251.876 C 115.602 252.335,121.415 254.397,123.180 254.905 C 125.260 255.504,123.207 254.512,120.583 253.651 C 118.974 253.123,117.205 252.490,116.653 252.245 C 116.100 252.000,115.197 251.708,114.644 251.597 L 113.640 251.396 114.644 251.876 M276.485 253.173 C 275.841 253.384,275.163 253.652,274.979 253.768 C 274.795 253.885,274.117 254.090,273.473 254.225 C 272.828 254.360,272.151 254.584,271.967 254.723 C 271.782 254.862,270.841 255.161,269.873 255.387 C 268.426 255.727,267.150 256.402,267.956 256.402 C 268.385 256.402,278.494 253.012,278.494 252.868 C 278.494 252.641,277.779 252.750,276.485 253.173 M125.690 255.732 C 127.528 256.410,128.523 256.573,128.017 256.112 C 127.705 255.829,124.821 255.037,124.287 255.089 C 124.138 255.103,124.770 255.393,125.690 255.732 M129.552 256.885 C 130.203 257.125,131.257 257.431,131.895 257.566 C 133.652 257.937,132.684 257.234,130.814 256.782 C 128.746 256.281,128.064 256.337,129.552 256.885 M264.603 256.959 C 263.682 257.232,262.123 257.661,261.138 257.911 C 259.357 258.363,258.566 258.745,259.411 258.745 C 259.898 258.745,267.196 256.722,267.420 256.525 C 267.730 256.252,266.176 256.491,264.603 256.959 M133.229 257.849 C 133.452 258.086,141.260 260.081,141.925 260.071 C 142.946 260.055,141.474 259.518,139.247 259.093 C 138.050 258.865,136.845 258.560,136.569 258.416 C 135.956 258.095,132.985 257.591,133.229 257.849 M256.067 259.151 C 255.054 259.330,254.075 259.625,253.891 259.806 C 253.500 260.192,255.511 259.877,257.573 259.231 C 259.166 258.732,258.601 258.702,256.067 259.151 M142.639 260.240 C 142.850 260.451,152.600 262.427,153.430 262.427 C 154.809 262.427,153.531 261.960,151.045 261.556 C 149.619 261.324,147.322 260.898,145.941 260.610 C 143.383 260.074,142.359 259.960,142.639 260.240 M249.792 260.561 C 248.643 260.788,247.588 261.091,247.449 261.236 C 247.160 261.537,249.028 261.261,251.715 260.606 C 254.029 260.043,252.595 260.009,249.792 260.561 M243.772 261.737 C 242.993 261.864,242.240 262.088,242.098 262.235 C 241.813 262.532,244.881 262.179,246.295 261.752 L 247.197 261.480 246.192 261.493 C 245.640 261.500,244.551 261.610,243.772 261.737 M156.318 262.914 C 159.244 263.536,162.654 263.880,162.008 263.489 C 161.732 263.321,160.452 263.083,159.163 262.959 C 157.874 262.835,156.218 262.670,155.481 262.593 C 154.745 262.515,155.121 262.659,156.318 262.914 M236.910 262.914 C 234.369 263.255,232.609 263.770,234.003 263.764 C 234.899 263.760,241.116 262.761,241.283 262.594 C 241.511 262.367,240.370 262.450,236.910 262.914 M162.845 263.944 C 163.313 264.119,172.155 265.105,173.262 265.105 C 175.425 265.105,173.446 264.697,169.159 264.259 C 164.716 263.806,162.132 263.677,162.845 263.944 M226.356 264.264 C 224.099 264.485,222.141 264.782,222.005 264.925 C 221.707 265.238,226.324 264.889,230.477 264.286 C 234.318 263.728,231.969 263.715,226.356 264.264 M176.402 265.436 C 177.598 265.591,181.439 265.797,184.937 265.893 C 189.388 266.015,190.393 265.985,188.285 265.794 C 183.858 265.392,173.698 265.086,176.402 265.436 M211.548 265.477 C 208.879 265.628,206.243 265.819,205.690 265.903 C 203.934 266.168,217.653 265.733,219.749 265.457 L 221.757 265.192 219.079 265.198 C 217.607 265.201,214.218 265.326,211.548 265.477 M196.080 266.357 C 197.238 266.423,199.045 266.422,200.097 266.356 C 201.148 266.290,200.201 266.236,197.992 266.237 C 195.782 266.237,194.922 266.291,196.080 266.357 " stroke="none" fill="#bcbcbc" fill-rule="evenodd"></path></g></svg>