<?xml version="1.0" standalone="no"?>
<!DOCTYPE svg PUBLIC "-//W3C//DTD SVG 20010904//EN"
 "http://www.w3.org/TR/2001/REC-SVG-20010904/DTD/svg10.dtd">
<svg version="1.0" xmlns="http://www.w3.org/2000/svg"
 width="400.000000pt" height="226.000000pt" viewBox="0 0 400.000000 226.000000"
 preserveAspectRatio="xMidYMid meet">
<metadata>
Created by potrace 1.16, written by Peter Selinger 2001-2019
</metadata>
<g transform="translate(0.000000,226.000000) scale(0.100000,-0.100000)"
fill="#000000" stroke="none">
<path d="M1790 1690 c-16 -30 -4 -40 46 -40 35 0 44 -3 44 -17 0 -27 -170
-616 -182 -630 -15 -18 -94 -17 -101 1 -3 8 12 77 34 153 21 76 39 144 39 150
0 9 -22 13 -75 13 l-74 0 -9 -32 c-41 -148 -77 -265 -85 -276 -6 -7 -22 -12
-36 -10 -37 4 -38 36 -2 157 38 126 29 161 -39 161 -33 0 -170 -69 -170 -86 0
-12 6 -14 29 -9 16 3 32 2 35 -3 3 -5 -4 -42 -15 -82 -14 -48 -19 -86 -15
-112 l6 -38 -75 0 c-57 0 -77 4 -81 15 -3 8 8 61 25 118 35 117 38 158 15 181
-23 23 -54 20 -126 -14 -34 -16 -68 -30 -74 -30 -5 0 -20 14 -32 30 -14 18
-32 30 -46 30 -13 0 -53 -13 -89 -30 -73 -33 -97 -37 -97 -17 0 21 -34 47 -59
47 -27 0 -201 -79 -201 -92 0 -15 31 -21 43 -9 17 17 47 13 47 -6 0 -26 -51
-196 -62 -210 -6 -7 -22 -13 -37 -13 -29 0 -51 -16 -51 -37 0 -11 25 -13 117
-11 l117 3 36 125 c34 120 37 126 72 145 24 13 41 16 47 10 6 -6 -5 -58 -29
-140 -21 -71 -35 -134 -31 -138 4 -4 39 -7 77 -5 l69 3 36 125 c34 119 38 126
72 145 59 32 61 16 18 -133 -21 -73 -35 -134 -33 -137 3 -3 212 -5 464 -5 532
0 507 -4 533 87 9 32 28 95 41 141 l25 82 79 0 c98 0 101 -6 65 -125 -30 -97
-27 -134 12 -165 25 -20 37 -20 802 -18 768 3 776 3 776 23 0 15 -8 21 -35 25
-22 3 -36 11 -38 22 -2 9 15 79 37 155 23 76 41 142 41 146 0 4 -74 7 -163 7
-152 0 -167 -2 -208 -23 -24 -13 -57 -43 -74 -66 -27 -38 -30 -51 -30 -116 0
-46 5 -79 13 -87 28 -28 13 -38 -53 -38 -52 0 -69 4 -85 20 -11 11 -20 26 -20
33 0 6 17 73 38 147 l39 135 51 3 c44 3 52 6 52 23 0 15 -7 19 -35 19 -22 0
-38 6 -41 14 -3 8 3 46 14 85 11 38 17 72 14 75 -3 3 -36 6 -73 6 -78 0 -76 2
-104 -103 -19 -71 -21 -73 -90 -79 -19 -2 -31 -9 -33 -20 -3 -15 4 -18 37 -18
51 0 51 -6 12 -144 -35 -120 -37 -134 -27 -165 5 -14 4 -26 -2 -30 -19 -11
-150 0 -155 13 -3 7 12 76 34 152 21 77 39 145 39 152 0 20 -311 17 -353 -4
-101 -51 -144 -146 -112 -249 8 -27 15 -53 15 -57 0 -5 -32 -8 -70 -8 -51 0
-72 4 -76 14 -3 7 6 53 20 102 32 110 32 127 0 158 l-27 24 36 17 c58 27 113
94 126 153 24 112 -26 206 -128 240 -22 8 -114 12 -252 12 -209 0 -219 -1
-229 -20z m401 -50 c87 -47 48 -229 -62 -285 -39 -21 -134 -31 -144 -15 -4 6
12 79 35 161 l43 149 54 0 c30 0 63 -5 74 -10z m475 -374 c6 -16 -53 -234 -68
-253 -15 -18 -77 -16 -84 2 -10 26 47 217 72 242 26 26 72 31 80 9z m848 5 c8
-12 -56 -235 -73 -255 -16 -19 -64 -21 -80 -3 -17 21 43 215 75 245 25 22 68
30 78 13z"/>
</g>
</svg>
