<?xml version="1.0" encoding="UTF-8" standalone="no"?>
<svg
   width="183.99561"
   height="63.48893"
   version="1.1"
   id="svg17"
   sodipodi:docname="murata-electronics.svg"
   inkscape:version="1.1.1 (c3084ef, 2021-09-22)"
   xmlns:inkscape="http://www.inkscape.org/namespaces/inkscape"
   xmlns:sodipodi="http://sodipodi.sourceforge.net/DTD/sodipodi-0.dtd"
   xmlns="http://www.w3.org/2000/svg"
   xmlns:svg="http://www.w3.org/2000/svg">
  <defs
     id="defs21" />
  <sodipodi:namedview
     id="namedview19"
     pagecolor="#ffffff"
     bordercolor="#666666"
     borderopacity="1.0"
     inkscape:pageshadow="2"
     inkscape:pageopacity="1"
     inkscape:pagecheckerboard="0"
     showgrid="false"
     fit-margin-top="0"
     fit-margin-left="0"
     fit-margin-right="0"
     fit-margin-bottom="0"
     inkscape:zoom="1.3283014"
     inkscape:cx="82.059686"
     inkscape:cy="77.542639"
     inkscape:window-width="1440"
     inkscape:window-height="762"
     inkscape:window-x="0"
     inkscape:window-y="25"
     inkscape:window-maximized="0"
     inkscape:current-layer="svg17" />
  <rect
     id="backgroundrect"
     width="100%"
     height="100%"
     x="-0.00040541199"
     y="-0.00300018"
     fill="none"
     stroke="none"
     data-darkreader-inline-stroke="" />
  <path
     d="m 183.85959,22.270997 a 0.827,0.827 0 0 0 0.066,-0.332 0.846,0.846 0 0 0 -0.848,-0.841 l -0.707,0.005 -13.491,-0.024 a 11.414,11.414 0 0 0 -11.413,11.413 11.147,11.147 0 0 0 1.506,5.671 0.868,0.868 0 0 1 0.126,0.438 0.845,0.845 0 0 1 -0.847,0.847 h -4.741 a 3.591,3.591 0 0 1 -3.272,-3.577 3.93,3.93 0 0 1 0.051,-0.606 4120.67,4120.67 0 0 1 3.509,-12.332 l 0.335,-1.2 a 0.694,0.694 0 0 1 0.711,-0.615 l 4.138,-0.009 a 0.854,0.854 0 0 0 0.783,-0.512 c 0,0 0.4,-1.355 0.4,-1.453 a 0.845,0.845 0 0 0 -0.847,-0.841 l -3.072,0.011 a 0.843,0.843 0 0 1 -0.847,-0.847 c 0,-0.11 1.9,-6.731 1.9,-6.731 0,0 0.237,-0.793 0.237,-0.908 a 0.84,0.84 0 0 0 -0.843,-0.84 l -7.065,0.016 a 0.856,0.856 0 0 0 -0.8,0.56 h 0.005 l -2.34,8.115 a 0.84,0.84 0 0 1 -0.821,0.636 l -3.948,-0.011 a 0.842,0.842 0 0 0 -0.808,0.6 c 0,0 -0.371,1.322 -0.371,1.357 a 0.842,0.842 0 0 0 0.847,0.847 l 3.026,-0.005 a 0.834,0.834 0 0 1 0.837,0.836 c 0,0.054 -2.3,8.109 -3.593,12.64 a 11.411,11.411 0 0 0 -0.239,1.342 3.5,3.5 0 0 0 0.665,2.228 0.825,0.825 0 0 1 0.157,0.486 0.835,0.835 0 0 1 -0.746,0.826 h -6.39 a 1.764,1.764 0 0 1 -1.774,-1.688 1.481,1.481 0 0 1 0.094,-0.41 l 2.276,-7.958 1.885,-6.592 c 0,0 0.2,-0.75 0.2,-0.856 a 0.844,0.844 0 0 0 -0.841,-0.841 l -1.2,0.005 -12.99,-0.026 a 11.422,11.422 0 0 0 -9.891,17.118 2.189,2.189 0 0 1 0.079,0.39 0.782,0.782 0 0 1 -0.789,0.829 l -5.59,0.013 a 1.7,1.7 0 0 1 -1.692,-1.693 1.57,1.57 0 0 1 0.059,-0.427 l 0.074,-0.3 h 0.023 l 2.418,-8.336 a 5.086,5.086 0 0 0 0.254,-1.415 c 0,-3.133 -2.115,-2.88 -2.741,-3.721 0,0 -0.43,-0.376 0.495,-0.7 a 12.576,12.576 0 0 0 7.528,-7.063 12.125,12.125 0 0 0 1,-4.815 A 10.958,10.958 0 0 0 103.97459,0.062 11.246,11.246 0 0 0 102.80459,0 H 99.319595 V 0.015 L 83.706595,0 h -2.645 a 0.851,0.851 0 0 0 -0.833,0.691997 l -0.5,1.872 a 0.845,0.845 0 0 0 0.848,0.841 l 3.89,-0.013 a 0.843,0.843 0 0 1 0.845,0.835 c 0,0.044 -2.411,8.472 -4.806,16.833 h 0.007 l -4.737,16.519 a 2.531,2.531 0 0 1 -2.442,1.848 l -2.032,0.013 a 1.657,1.657 0 0 1 -1.691,-1.693 c 0.048,-0.77 4.444,-15.747 4.444,-15.81 a 0.846,0.846 0 0 0 -0.847,-0.841 h -7.048 a 0.841,0.841 0 0 0 -0.832,0.7 l -4.5,15.6 a 2.119,2.119 0 0 1 -1.9,1.406 l -0.927,-0.005 a 1.554,1.554 0 0 1 -1.387,-1.7 2.4,2.4 0 0 1 0.042,-0.449 l 0.091,-0.386 0.982,-3.236 2.176,-7.573 a 3.515,3.515 0 0 0 0.081,-0.75 3.592,3.592 0 0 0 -5.146,-3.24 l -7.729,3.566 a 0.674,0.674 0 0 0 -0.468,0.751 4.709,4.709 0 0 0 0.306,0.925 c 0.153,0.211 0.419,0.438 0.687,0.355 0.441,-0.148 1.782,-0.778 2.125,-0.818 a 0.821,0.821 0 0 1 0.847,0.849 c 0,0.09 -0.331,1.3 -0.331,1.3 l -1.884,6.592 a 6.2,6.2 0 0 0 -0.118,0.907 3.508,3.508 0 0 0 0.667,2.229 0.823,0.823 0 0 1 0.156,0.485 0.843,0.843 0 0 1 -0.844,0.847 h -5.953 a 1.692,1.692 0 0 1 -1.629,-2.141 l 3.31,-11.464 a 4.125,4.125 0 0 0 0.184,-1.13 3.593,3.593 0 0 0 -3.593,-3.595 3.512,3.512 0 0 0 -1.541,0.349 l -5.772,2.699 -1.082,0.509 a 1.061,1.061 0 0 1 -0.409,0.1 0.869,0.869 0 0 1 -0.837,-0.7 3.662,3.662 0 0 0 -3.544,-2.967 3.55,3.55 0 0 0 -1.548,0.349 l -6.149,2.887 -0.687,0.324 a 1.08,1.08 0 0 1 -0.41,0.1 0.848,0.848 0 0 1 -0.835,-0.677 3.663,3.663 0 0 0 -3.546,-2.987 3.479,3.479 0 0 0 -1.551,0.355 l -0.04,0.011 -8.8220006,4.089 a 0.81,0.81 0 0 0 -0.5,0.769 2.744,2.744 0 0 0 0.285,0.771 0.849,0.849 0 0 0 0.765,0.485 0.883,0.883 0 0 0 0.364,-0.083 l 2.492,-1.188 a 0.828,0.828 0 0 1 0.371,-0.086 0.851,0.851 0 0 1 0.844,0.849 c 0,0.271 -2.987,10.5 -2.987,10.5 a 2.535,2.535 0 0 1 -2.443,1.861 l -1.826,-0.015 a 0.843,0.843 0 0 0 -0.80799997,0.6 c 0,0 -0.312,1.062 -0.353,1.345 a 0.774,0.774 0 0 0 0.844,0.845 H 10.734595 l 0.005,-0.007 h 1.506 a 0.855,0.855 0 0 0 0.8,-0.562 h -0.005 l 3.819,-13.219 a 0.907,0.907 0 0 1 0.435,-0.622 l 2.013,-0.951 1.1,-0.517 a 0.89,0.89 0 0 1 0.357,-0.075 0.847,0.847 0 0 1 0.848,0.841 0.686,0.686 0 0 1 -0.031,0.2 c -1.107,4.1 -4.021,14.038 -4.021,14.089 a 0.847,0.847 0 0 0 0.848,0.841 h 7.043 a 0.841,0.841 0 0 0 0.832,-0.7 l 3.856,-13.378 a 0.9,0.9 0 0 1 0.34,-0.356 l 2.238,-1.058 0.868,-0.411 a 0.9,0.9 0 0 1 0.361,-0.075 c 0.462,0 0.925,0.386 0.841,0.841 -0.085,0.486 -3.741,13.386 -3.741,13.386 0,0 -0.237,0.793 -0.237,0.91 a 0.839,0.839 0 0 0 0.844,0.839 l 4.269,-0.009 h 44.453 a 4.951,4.951 0 0 0 4.818,-3.49 l 3.667,-12.842 a 0.846,0.846 0 0 1 0.814,-0.621 h 6.78 a 1.69,1.69 0 0 1 1.693,1.689 1.776,1.776 0 0 1 -0.034,0.323 l -2.454,8.438 a 5.124,5.124 0 0 0 -0.2,1.429 5.073,5.073 0 0 0 5.069995,5.073 h 4.12 -1.349 78.184 c 1.755,0 2.1,-0.292 2.176,-0.672 0,0 0.335,-1.216 0.335,-1.27 a 0.844,0.844 0 0 0 -0.844,-0.848 l -1.926,0.011 a 1.766,1.766 0 0 1 -1.766,-1.687 1.722,1.722 0 0 1 0.091,-0.413 l 2.74,-9.575 1.364,-4.765 z m -79.413,-13.755 v 1.512 a 10.621,10.621 0 0 1 -3.894,8.214 10.491,10.491 0 0 1 -6.451995,2.216 v -0.011 l -0.789,0.011 -1.816,0.005 a 0.847,0.847 0 0 1 -0.844,-0.847 l 4.42,-15.537 a 0.841,0.841 0 0 1 0.826,-0.671 h 3.419 v 0.027 h 0.009 a 5.092,5.092 0 0 1 5.119995,5.089 m 23.769,16.239 c -0.07,0.259 -1.117,3.959 -1.117,3.959 l -2.354,8.243 a 2.533,2.533 0 0 1 -2.442,1.846 l -1.109,-0.005 a 1.663,1.663 0 0 1 -1.653,-1.7 2.09,2.09 0 0 1 0.035,-0.374 l 2.885,-10.143 a 3.6,3.6 0 0 1 3.477,-2.674 h 1.437 c 0.468,0 0.97,0.392 0.845,0.84 m 46.093,0.011 c 0,0.081 -0.852,3.045 -0.852,3.045 l -2.633,9.2 a 2.531,2.531 0 0 1 -2.423,1.794 l -1.107,-0.005 a 1.664,1.664 0 0 1 -1.656,-1.7 2.04,2.04 0 0 1 0.042,-0.4 l 2.874,-10.106 a 3.591,3.591 0 0 1 3.473,-2.666 l 1.43,-0.009 a 0.847,0.847 0 0 1 0.847,0.847"
     fill="#f5002f"
     id="svg_1"
     data-darkreader-inline-fill=""
     class="" />
  <path
     d="m 6.2555944,55.770997 h -1.376 v 7.493 h 1.376 z m 9.6000006,7.493 v -7.493 h -1.366 v 4.173 c 0,0.331 0,0.763 0.023,1.093 h -0.023 a 10,10 0 0 0 -0.74,-1.047 l -3.263,-4.218 H 9.0865944 v 7.493 h 1.3760006 v -4.413 c 0,-0.353 -0.011,-0.75 -0.034,-1 h 0.023 c 0.2,0.318 0.421,0.6 0.739,1.024 l 3.388,4.389 z m 9.6,0 v -7.493 h -1.37 v 4.173 c 0,0.331 0,0.763 0.023,1.093 h -0.023 a 9.907,9.907 0 0 0 -0.738,-1.047 l -3.264,-4.218 h -1.4 v 7.493 h 1.376 v -4.413 c 0,-0.353 -0.012,-0.75 -0.035,-1 h 0.023 c 0.2,0.318 0.422,0.6 0.739,1.024 l 3.389,4.389 z m 10.131,-3.741 a 3.863,3.863 0 0 0 -0.943,-2.661 4.083,4.083 0 0 0 -5.629,-0.069 3.92,3.92 0 0 0 -1.079,2.8 3.757,3.757 0 0 0 1.173,2.865 3.852,3.852 0 0 0 6.469,-2.935 m -1.466,0.023 c 0,1.695 -0.978,2.707 -2.365,2.707 -1.387,0 -2.377,-1.012 -2.377,-2.707 a 2.391,2.391 0 1 1 4.742,0 m 10.233,-3.764 h -1.41 l -1.785,4.264 c -0.206,0.477 -0.353,0.9 -0.489,1.3 h -0.023 a 41.9,41.9 0 0 0 -0.477,-1.33 l -1.626,-4.23 h -1.5 l 3.036,7.528 h 0.989 z m 7.288,7.483 -3.008,-7.533 h -1 l -2.916,7.532 h 1.353 l 0.693,-1.876 h 2.673 l 0.739,1.876 z m -2.637,-3 h -1.82 l 0.648,-1.739 a 6.023,6.023 0 0 0 0.273,-0.911 h 0.012 a 7.648,7.648 0 0 0 0.285,0.933 z m 9.324,-4.491 h -5.931 v 1.148 h 2.172 v 6.346 h 1.387 v -6.35 h 2.048 z m 8.845,3.752 a 3.863,3.863 0 0 0 -0.943,-2.661 4.083,4.083 0 0 0 -5.629,-0.069 3.92,3.92 0 0 0 -1.079,2.8 3.757,3.757 0 0 0 1.183,2.866 3.852,3.852 0 0 0 6.469,-2.935 m -1.466,0.023 c 0,1.695 -0.978,2.707 -2.365,2.707 -1.387,0 -2.377,-1.012 -2.377,-2.707 a 2.391,2.391 0 1 1 4.742,0 m 9.494,3.718 a 18,18 0 0 0 -2.239,-3.4 v -0.011 a 2.149,2.149 0 0 0 1.387,-1.969 c 0,-1.148 -0.727,-2.114 -2.672,-2.114 h -2.021 v 7.493 h 1.376 v -2.96 h 0.637 c 0.285,0.091 0.808,1.024 1.967,2.956 z m -2.239,-5.22 a 1.21,1.21 0 0 1 -1.24,1.218 h -0.693 v -2.334 h 0.687 a 1.1,1.1 0 0 1 1.251,1.114 m 10.249,-2.275 h -1.38 v 7.493 h 1.38 z m 9.6,7.493 v -7.493 h -1.365 v 4.173 c 0,0.331 0,0.763 0.023,1.093 h -0.023 a 9.757,9.757 0 0 0 -0.739,-1.047 l -3.263,-4.218 h -1.4 v 7.493 h 1.367 v -4.413 c 0,-0.353 -0.011,-0.75 -0.034,-1 h 0.023 c 0.2,0.318 0.421,0.6 0.739,1.024 l 3.389,4.389 z m 11.473995,0 v -1.149 h -2.8 v -2.1 h 2.422 v -1.152 h -2.422 v -1.945 h 2.422 l 0.376,-1.148 h -4.174 v 7.493 z m 6.6,0 v -1.16 h -2.684 v -6.333 h -1.39 v 7.493 z m 6.334,0 v -1.149 h -2.8 v -2.1 h 2.422 v -1.152 h -2.43 v -1.945 h 2.422 l 0.376,-1.148 h -4.174 v 7.493 z m 8.391,-0.591 -0.375,-0.989 a 3.777,3.777 0 0 1 -1.842,0.5 2.681,2.681 0 0 1 0.1,-5.355 3.532,3.532 0 0 1 1.9,0.535 l 0.011,-1.252 a 4.154,4.154 0 0 0 -1.945,-0.409 3.84,3.84 0 0 0 -4.06,3.889 3.578,3.578 0 0 0 3.776,3.787 4.589,4.589 0 0 0 2.432,-0.706 m 7.711,-6.9 h -5.936 v 1.148 h 2.172 v 6.346 h 1.387 v -6.349 h 2.047 z m 7.641,7.493 a 17.974,17.974 0 0 0 -2.24,-3.4 v -0.011 a 2.149,2.149 0 0 0 1.387,-1.969 c 0,-1.148 -0.727,-2.114 -2.673,-2.114 h -2.024 v 7.493 h 1.377 v -2.958 h 0.637 c 0.284,0.091 0.806,1.024 1.966,2.956 z m -2.248,-5.222 a 1.21,1.21 0 0 1 -1.239,1.218 h -0.693 v -2.33 h 0.681 a 1.1,1.1 0 0 1 1.251,1.112 m 11.36,1.478 a 3.869,3.869 0 0 0 -0.943,-2.661 4.083,4.083 0 0 0 -5.629,-0.069 3.921,3.921 0 0 0 -1.08,2.8 3.761,3.761 0 0 0 1.183,2.866 3.852,3.852 0 0 0 6.471,-2.935 m -1.466,0.023 c 0,1.695 -0.978,2.707 -2.367,2.707 -1.389,0 -2.376,-1.012 -2.376,-2.707 a 2.391,2.391 0 1 1 4.742,0 m 10.705,3.718 v -7.493 h -1.365 v 4.173 c 0,0.331 0,0.763 0.023,1.093 h -0.023 a 9.75,9.75 0 0 0 -0.739,-1.047 l -3.263,-4.218 h -1.4 v 7.493 h 1.376 v -4.413 c 0,-0.353 -0.012,-0.75 -0.035,-1 h 0.023 c 0.206,0.318 0.422,0.6 0.74,1.024 l 3.388,4.389 z m 4.208,-7.493 h -1.376 v 7.493 h 1.376 z m 8.687,6.9 -0.375,-0.989 a 3.777,3.777 0 0 1 -1.842,0.5 2.681,2.681 0 0 1 0.1,-5.355 3.535,3.535 0 0 1 1.9,0.535 l 0.011,-1.252 a 4.161,4.161 0 0 0 -1.945,-0.409 3.84,3.84 0 0 0 -4.06,3.889 3.577,3.577 0 0 0 3.776,3.787 4.592,4.592 0 0 0 2.432,-0.706 m 6.937,-1.445 c 0,-2.332 -3.241,-2.251 -3.241,-3.638 0,-0.5 0.478,-0.762 1.082,-0.762 a 3.593,3.593 0 0 1 1.751,0.523 l 0.021,-1.228 a 3.845,3.845 0 0 0 -1.842,-0.421 2.161,2.161 0 0 0 -2.444,2.057 1.933,1.933 0 0 0 0.489,1.342 c 0.91,1.024 2.729,1.216 2.729,2.286 0,0.625 -0.66,0.864 -1.239,0.864 a 2.981,2.981 0 0 1 -1.695,-0.568 l -0.558,1.012 a 4,4 0 0 0 2.309,0.683 c 1.478,0 2.638,-0.83 2.638,-2.15"
     fill="#525b5c"
     id="svg_2"
     data-darkreader-inline-fill="" />
</svg>
