<svg xmlns="http://www.w3.org/2000/svg" width="184" height="63.381"><path d="M183.86 22.274a.827.827 0 00.066-.332.846.846 0 00-.848-.841l-.707.005-13.491-.024a11.414 11.414 0 00-11.413 11.413 11.147 11.147 0 001.506 5.671.868.868 0 01.126.438.845.845 0 01-.847.847h-4.741a3.591 3.591 0 01-3.272-3.577 3.93 3.93 0 01.051-.606 4120.67 4120.67 0 013.509-12.332l.335-1.2a.694.694 0 01.711-.615l4.138-.009a.854.854 0 00.783-.512s.4-1.355.4-1.453a.845.845 0 00-.847-.841l-3.072.011a.843.843 0 01-.847-.847c0-.11 1.9-6.731 1.9-6.731s.237-.793.237-.908a.84.84 0 00-.843-.84l-7.065.016a.856.856 0 00-.8.56h.005l-2.34 8.115a.84.84 0 01-.821.636l-3.948-.011a.842.842 0 00-.808.6s-.371 1.322-.371 1.357a.842.842 0 00.847.847l3.026-.005a.834.834 0 01.837.836c0 .054-2.3 8.109-3.593 12.64a11.411 11.411 0 00-.239 1.342 3.5 3.5 0 00.665 2.228.825.825 0 01.157.486.835.835 0 01-.746.826h-6.39a1.764 1.764 0 01-1.774-1.688 1.481 1.481 0 01.094-.41l2.276-7.958 1.885-6.592s.2-.75.2-.856a.844.844 0 00-.841-.841l-1.2.005-12.99-.026a11.422 11.422 0 00-9.891 17.118 2.189 2.189 0 01.079.39.782.782 0 01-.789.829l-5.59.013a1.7 1.7 0 01-1.692-1.693 1.57 1.57 0 01.059-.427l.074-.3h.023l2.418-8.336a5.086 5.086 0 00.254-1.415c0-3.133-2.115-2.88-2.741-3.721 0 0-.43-.376.495-.7a12.576 12.576 0 007.528-7.063 12.125 12.125 0 001-4.815A10.958 10.958 0 00103.975.065a11.246 11.246 0 00-1.17-.062H99.32v.015L83.707.003h-2.645a.851.851 0 00-.833.692l-.5 1.872a.845.845 0 00.848.841l3.89-.013a.843.843 0 01.845.835c0 .044-2.411 8.472-4.806 16.833h.007l-4.737 16.519a2.531 2.531 0 01-2.442 1.848l-2.032.013a1.657 1.657 0 01-1.691-1.693c.048-.77 4.444-15.747 4.444-15.81a.846.846 0 00-.847-.841H66.16a.841.841 0 00-.832.7l-4.5 15.6a2.119 2.119 0 01-1.9 1.406l-.927-.005a1.554 1.554 0 01-1.387-1.7 2.4 2.4 0 01.042-.449l.091-.386.982-3.236 2.176-7.573a3.515 3.515 0 00.081-.75 3.592 3.592 0 00-5.146-3.24l-7.729 3.566a.674.674 0 00-.468.751 4.709 4.709 0 00.306.925c.153.211.419.438.687.355.441-.148 1.782-.778 2.125-.818a.821.821 0 01.847.849c0 .09-.331 1.3-.331 1.3l-1.884 6.592a6.2 6.2 0 00-.118.907 3.508 3.508 0 00.667 2.229.823.823 0 01.156.485.843.843 0 01-.844.847h-5.953a1.692 1.692 0 01-1.629-2.141l3.31-11.464a4.125 4.125 0 00.184-1.13 3.593 3.593 0 00-3.593-3.595 3.512 3.512 0 00-1.541.349l-5.772 2.699-1.082.509a1.061 1.061 0 01-.409.1.869.869 0 01-.837-.7 3.662 3.662 0 00-3.544-2.967 3.55 3.55 0 00-1.548.349l-6.149 2.887-.687.324a1.08 1.08 0 01-.41.1.848.848 0 01-.835-.677 3.663 3.663 0 00-3.546-2.987 3.479 3.479 0 00-1.551.355l-.04.011L3.8 25.565a.81.81 0 00-.5.769 2.744 2.744 0 00.285.771.849.849 0 00.765.485.883.883 0 00.364-.083l2.492-1.188a.828.828 0 01.371-.086.851.851 0 01.844.849c0 .271-2.987 10.5-2.987 10.5a2.535 2.535 0 01-2.443 1.861l-1.826-.015a.843.843 0 00-.808.6S.045 41.09.004 41.373a.774.774 0 00.844.845h9.887l.005-.007h1.506a.855.855 0 00.8-.562h-.005L16.86 28.43a.907.907 0 01.435-.622l2.013-.951 1.1-.517a.89.89 0 01.357-.075.847.847 0 01.848.841.686.686 0 01-.031.2c-1.107 4.1-4.021 14.038-4.021 14.089a.847.847 0 00.848.841h7.043a.841.841 0 00.832-.7l3.856-13.378a.9.9 0 01.34-.356l2.238-1.058.868-.411a.9.9 0 01.361-.075c.462 0 .925.386.841.841-.085.486-3.741 13.386-3.741 13.386s-.237.793-.237.91a.839.839 0 00.844.839l4.269-.009h44.453a4.951 4.951 0 004.818-3.49l3.667-12.842a.846.846 0 01.814-.621h6.78a1.69 1.69 0 011.693 1.689 1.776 1.776 0 01-.034.323l-2.454 8.438a5.124 5.124 0 00-.2 1.429 5.073 5.073 0 005.07 5.073h4.12-1.349 78.184c1.755 0 2.1-.292 2.176-.672 0 0 .335-1.216.335-1.27a.844.844 0 00-.844-.848l-1.926.011a1.766 1.766 0 01-1.766-1.687 1.722 1.722 0 01.091-.413l2.74-9.575 1.364-4.765zM104.447 8.519v1.512a10.621 10.621 0 01-3.894 8.214 10.491 10.491 0 01-6.452 2.216v-.011l-.789.011-1.816.005a.847.847 0 01-.844-.847l4.42-15.537a.841.841 0 01.826-.671h3.419v.027h.009a5.092 5.092 0 015.12 5.089m23.769 16.239c-.07.259-1.117 3.959-1.117 3.959l-2.354 8.243a2.533 2.533 0 01-2.442 1.846l-1.109-.005a1.663 1.663 0 01-1.653-1.7 2.09 2.09 0 01.035-.374l2.885-10.143a3.6 3.6 0 013.477-2.674h1.437c.468 0 .97.392.845.84m46.093.011c0 .081-.852 3.045-.852 3.045l-2.633 9.2a2.531 2.531 0 01-2.423 1.794l-1.107-.005a1.664 1.664 0 01-1.656-1.7 2.04 2.04 0 01.042-.4l2.874-10.106a3.591 3.591 0 013.473-2.666l1.43-.009a.847.847 0 01.847.847" fill="#f5002f"/><path d="M6.256 55.774H4.88v7.493h1.376zm9.6 7.493v-7.493H14.49v4.173c0 .331 0 .763.023 1.093h-.023a10 10 0 00-.74-1.047l-3.263-4.218h-1.4v7.493h1.376v-4.413c0-.353-.011-.75-.034-1h.023c.2.318.421.6.739 1.024l3.388 4.389zm9.6 0v-7.493h-1.37v4.173c0 .331 0 .763.023 1.093h-.023a9.907 9.907 0 00-.738-1.047l-3.264-4.218h-1.4v7.493h1.376v-4.413c0-.353-.012-.75-.035-1h.023c.2.318.422.6.739 1.024l3.389 4.389zm10.131-3.741a3.863 3.863 0 00-.943-2.661 4.083 4.083 0 00-5.629-.069 3.92 3.92 0 00-1.079 2.8 3.757 3.757 0 001.173 2.865 3.852 3.852 0 006.469-2.935m-1.466.023c0 1.695-.978 2.707-2.365 2.707s-2.377-1.012-2.377-2.707a2.391 2.391 0 114.742 0m10.233-3.764h-1.41l-1.785 4.264c-.206.477-.353.9-.489 1.3h-.023a41.9 41.9 0 00-.477-1.33l-1.626-4.23h-1.5l3.036 7.528h.989zm7.288 7.483l-3.008-7.533h-1l-2.916 7.532h1.353l.693-1.876h2.673l.739 1.876zm-2.637-3h-1.82l.648-1.739a6.023 6.023 0 00.273-.911h.012a7.648 7.648 0 00.285.933zm9.324-4.491h-5.931v1.148h2.172v6.346h1.387v-6.35h2.048zm8.845 3.752a3.863 3.863 0 00-.943-2.661 4.083 4.083 0 00-5.629-.069 3.92 3.92 0 00-1.079 2.8 3.757 3.757 0 001.183 2.866 3.852 3.852 0 006.469-2.935m-1.466.023c0 1.695-.978 2.707-2.365 2.707s-2.377-1.012-2.377-2.707a2.391 2.391 0 114.742 0m9.494 3.718a18 18 0 00-2.239-3.4v-.011a2.149 2.149 0 001.387-1.969c0-1.148-.727-2.114-2.672-2.114h-2.021v7.493h1.376v-2.96h.637c.285.091.808 1.024 1.967 2.956zm-2.239-5.22a1.21 1.21 0 01-1.24 1.218h-.693v-2.334h.687a1.1 1.1 0 011.251 1.114m10.249-2.275h-1.38v7.493h1.38zm9.6 7.493v-7.493h-1.365v4.173c0 .331 0 .763.023 1.093h-.023a9.757 9.757 0 00-.739-1.047l-3.263-4.218h-1.4v7.493h1.367v-4.413c0-.353-.011-.75-.034-1h.023c.2.318.421.6.739 1.024l3.389 4.389zm11.474 0v-1.149h-2.8v-2.1h2.422v-1.152h-2.422v-1.945h2.422l.376-1.148h-4.174v7.493zm6.6 0v-1.16h-2.684v-6.333h-1.39v7.493zm6.334 0v-1.149h-2.8v-2.1h2.422v-1.152h-2.43v-1.945h2.422l.376-1.148h-4.174v7.493zm8.391-.591l-.375-.989a3.777 3.777 0 01-1.842.5 2.681 2.681 0 01.1-5.355 3.532 3.532 0 011.9.535l.011-1.252a4.154 4.154 0 00-1.945-.409 3.84 3.84 0 00-4.06 3.889 3.578 3.578 0 003.776 3.787 4.589 4.589 0 002.432-.706m7.711-6.9h-5.936v1.148h2.172v6.346h1.387v-6.349h2.047zm7.641 7.493a17.974 17.974 0 00-2.24-3.4v-.011a2.149 2.149 0 001.387-1.969c0-1.148-.727-2.114-2.673-2.114h-2.024v7.493h1.377V60.31h.637c.284.091.806 1.024 1.966 2.956zm-2.248-5.222a1.21 1.21 0 01-1.239 1.218h-.693v-2.33h.681a1.1 1.1 0 011.251 1.112m11.36 1.478a3.869 3.869 0 00-.943-2.661 4.083 4.083 0 00-5.629-.069 3.921 3.921 0 00-1.08 2.8 3.761 3.761 0 001.183 2.866 3.852 3.852 0 006.471-2.935m-1.466.023c0 1.695-.978 2.707-2.367 2.707s-2.376-1.012-2.376-2.707a2.391 2.391 0 114.742 0m10.705 3.718v-7.493h-1.365v4.173c0 .331 0 .763.023 1.093h-.023a9.75 9.75 0 00-.739-1.047l-3.263-4.218h-1.4v7.493h1.376v-4.413c0-.353-.012-.75-.035-1h.023c.206.318.422.6.74 1.024l3.388 4.389zm4.208-7.493h-1.376v7.493h1.376zm8.687 6.9l-.375-.989a3.777 3.777 0 01-1.842.5 2.681 2.681 0 01.1-5.355 3.535 3.535 0 011.9.535l.011-1.252a4.161 4.161 0 00-1.945-.409 3.84 3.84 0 00-4.06 3.889 3.577 3.577 0 003.776 3.787 4.592 4.592 0 002.432-.706m6.937-1.445c0-2.332-3.241-2.251-3.241-3.638 0-.5.478-.762 1.082-.762a3.593 3.593 0 011.751.523l.021-1.228a3.845 3.845 0 00-1.842-.421 2.161 2.161 0 00-2.444 2.057 1.933 1.933 0 00.489 1.342c.91 1.024 2.729 1.216 2.729 2.286 0 .625-.66.864-1.239.864a2.981 2.981 0 01-1.695-.568l-.558 1.012a4 4 0 002.309.683c1.478 0 2.638-.83 2.638-2.15" fill="#525b5c"/></svg>