<svg id="svg" version="1.1" xmlns="http://www.w3.org/2000/svg" xmlns:xlink="http://www.w3.org/1999/xlink" width="400" height="300.23094688221704" viewBox="0, 0, 400,300.23094688221704"><g id="svgg"><path id="path0" d="M116.216 36.842 C 100.083 38.585,86.393 52.788,83.635 70.642 C 82.940 75.140,82.954 226.796,83.649 231.159 C 84.419 235.984,84.956 237.892,86.532 241.387 C 87.002 242.431,87.387 243.341,87.387 243.409 C 87.387 243.783,90.082 247.872,91.434 249.550 C 97.146 256.638,104.146 261.044,112.763 262.975 C 116.512 263.815,283.298 263.811,286.787 262.971 C 302.120 259.277,312.949 247.343,316.267 230.480 C 316.770 227.923,317.010 75.429,316.518 70.871 C 314.703 54.061,303.439 41.679,286.006 37.331 C 284.086 36.852,120.483 36.380,116.216 36.842 M202.364 71.032 C 207.398 71.987,204.988 69.809,242.042 106.886 C 260.458 125.313,275.847 140.783,276.239 141.262 C 279.571 145.332,280.196 151.914,277.724 156.893 C 276.324 159.714,209.126 226.854,206.481 228.074 C 201.955 230.163,197.410 230.089,193.029 227.857 C 190.226 226.429,124.072 160.361,122.438 157.357 C 119.808 152.523,119.842 147.259,122.533 142.819 C 123.216 141.693,134.125 130.596,157.633 107.116 C 194.828 69.966,192.574 72.028,197.073 71.042 C 199.552 70.499,199.555 70.499,202.364 71.032 M195.278 75.397 C 193.621 76.200,136.291 132.858,127.153 142.721 C 124.012 146.113,123.189 150.848,125.053 154.805 C 126.388 157.639,192.287 223.588,195.195 224.999 C 198.071 226.396,201.711 226.397,204.543 225.002 C 207.273 223.658,273.143 157.894,274.620 155.037 C 276.251 151.885,276.016 147.254,274.077 144.294 C 273.227 142.998,207.601 77.303,206.119 76.266 C 203.134 74.176,198.552 73.809,195.278 75.397 M190.841 116.437 C 201.248 119.408,206.321 127.243,205.135 138.512 C 203.907 150.173,193.181 157.614,179.505 156.291 L 177.477 156.095 177.477 167.530 L 177.477 178.965 176.744 179.446 C 176.039 179.908,167.902 180.025,167.470 179.580 C 167.212 179.313,167.203 178.080,167.235 146.788 L 167.267 115.949 168.694 115.822 C 173.262 115.417,188.777 115.848,190.841 116.437 M177.477 135.886 L 177.477 146.847 180.893 146.847 C 190.327 146.847,194.895 143.173,194.895 135.585 C 194.895 128.386,190.535 124.925,181.468 124.925 L 177.477 124.925 177.477 135.886 M236.271 132.002 C 239.825 132.814,239.808 132.765,239.656 141.667 C 239.637 142.812,239.086 142.929,237.303 142.164 C 231.650 139.739,224.555 139.966,223.136 142.619 C 221.625 145.442,223.425 147.378,231.682 151.809 C 239.639 156.080,242.672 161.285,241.328 168.367 C 239.529 177.855,229.726 181.962,216.517 178.763 C 212.051 177.682,212.012 177.622,212.012 171.888 C 212.012 166.936,212.153 166.666,214.141 167.810 C 221.523 172.059,231.000 171.281,231.000 166.426 C 231.000 163.890,229.416 162.397,223.340 159.206 C 215.957 155.329,212.997 151.747,212.687 146.316 C 212.223 138.171,216.042 133.683,225.375 131.404 C 226.601 131.105,234.157 131.520,236.271 132.002 " stroke="none" fill="#041524" fill-rule="evenodd"></path><path id="path1" d="M111.535 26.129 C 110.364 26.254,107.938 26.724,106.145 27.173 C 101.422 28.356,98.737 29.500,93.431 32.593 C 90.327 34.401,85.716 38.413,83.311 41.397 C 82.332 42.611,81.320 43.836,81.061 44.119 C 76.619 48.985,73.110 59.786,72.662 69.970 C 72.183 80.850,72.305 229.485,72.797 234.084 C 74.194 247.168,80.324 258.038,90.740 265.903 C 92.171 266.984,93.404 267.868,93.481 267.868 C 93.558 267.868,94.392 268.332,95.334 268.899 C 99.186 271.219,105.388 273.286,110.811 274.057 C 115.323 274.699,284.165 274.662,288.438 274.019 C 309.207 270.890,324.601 255.140,327.175 234.384 C 327.731 229.904,327.863 71.875,327.315 67.117 C 326.951 63.959,326.183 59.809,325.841 59.149 C 325.709 58.896,325.500 58.220,325.375 57.648 C 322.353 43.796,307.713 30.625,290.922 26.652 L 288.138 25.993 200.901 25.948 C 152.920 25.923,112.706 26.004,111.535 26.129 M285.048 36.814 C 294.068 38.370,302.464 43.251,308.569 50.485 C 309.637 51.750,310.511 52.924,310.511 53.094 C 310.511 53.264,310.623 53.448,310.760 53.504 C 312.317 54.127,315.726 62.902,316.686 68.758 C 317.336 72.718,317.321 225.671,316.671 230.000 C 314.145 246.818,302.254 260.046,286.658 263.389 C 282.313 264.321,117.580 264.285,112.924 263.351 C 102.673 261.296,93.991 255.123,88.330 245.866 C 87.646 244.748,87.087 243.770,87.087 243.693 C 87.087 243.616,86.691 242.736,86.208 241.738 C 85.177 239.611,84.323 237.071,83.581 233.934 C 83.080 231.814,83.043 227.049,82.943 152.853 C 82.832 70.173,82.817 71.263,84.140 65.916 C 85.208 61.600,88.430 54.728,90.757 51.802 C 97.429 43.414,105.181 38.362,113.814 36.776 C 117.205 36.153,281.430 36.189,285.048 36.814 M171.321 116.136 C 168.945 116.211,168.240 116.335,167.943 116.731 C 167.357 117.512,167.398 178.464,167.984 178.951 C 168.266 179.185,169.750 179.270,172.564 179.213 L 176.727 179.129 176.805 167.643 L 176.884 156.156 179.981 156.156 C 198.973 156.156,209.485 143.377,203.501 127.564 C 199.878 117.991,192.753 115.461,171.321 116.136 M188.913 125.459 C 193.266 127.204,195.046 130.189,195.043 135.736 C 195.039 141.038,193.939 143.236,190.240 145.335 C 186.912 147.224,177.486 148.037,177.066 146.471 C 176.827 145.579,176.831 126.176,177.071 125.281 L 177.257 124.586 182.247 124.687 C 186.566 124.774,187.463 124.878,188.913 125.459 M222.670 132.522 C 219.212 133.673,214.421 137.353,214.413 138.865 C 214.412 139.043,214.205 139.583,213.954 140.065 C 213.223 141.468,212.876 144.767,213.211 147.132 C 213.930 152.200,216.614 155.092,224.651 159.459 C 231.055 162.939,232.966 165.885,230.747 168.855 C 228.448 171.929,218.953 171.595,213.972 168.264 C 212.684 167.402,212.613 167.617,212.613 172.365 L 212.613 176.861 213.438 177.288 C 216.908 179.081,225.879 179.897,230.137 178.807 C 237.022 177.044,240.757 172.819,241.075 166.432 C 241.400 159.907,238.694 155.991,231.055 151.929 C 225.419 148.932,224.565 148.387,223.423 147.057 C 221.631 144.970,222.258 141.965,224.774 140.585 C 226.499 139.638,231.970 139.914,235.683 141.135 C 238.296 141.994,238.827 142.086,239.057 141.723 C 239.487 141.044,239.408 134.141,238.964 133.541 C 237.781 131.942,226.527 131.238,222.670 132.522 " stroke="none" fill="#09c8f8" fill-rule="evenodd"></path><path id="path2" d="M0.000 150.150 L 0.000 300.300 200.000 300.300 L 400.000 300.300 400.000 150.150 L 400.000 0.000 200.000 0.000 L 0.000 0.000 0.000 150.150 M292.342 26.226 C 293.994 26.691,295.474 27.197,295.631 27.350 C 295.788 27.503,296.307 27.628,296.785 27.628 C 297.264 27.628,298.014 27.812,298.452 28.036 C 298.891 28.261,300.533 29.038,302.102 29.762 C 303.671 30.486,305.293 31.327,305.706 31.632 C 307.267 32.783,309.510 34.230,310.886 34.974 C 311.670 35.399,312.312 35.854,312.312 35.986 C 312.312 36.118,313.882 37.838,315.800 39.809 C 317.718 41.781,319.479 43.799,319.713 44.294 C 319.947 44.790,320.395 45.601,320.709 46.096 C 321.022 46.592,321.537 47.470,321.854 48.048 C 323.804 51.609,324.308 52.615,325.088 54.505 C 325.565 55.661,326.058 56.680,326.183 56.770 C 326.309 56.859,326.554 57.873,326.729 59.022 C 326.904 60.171,327.272 62.125,327.546 63.363 C 328.284 66.699,328.511 232.175,327.782 235.736 C 326.843 240.325,326.343 242.508,326.098 243.093 C 325.960 243.423,325.573 244.530,325.239 245.552 C 322.403 254.220,310.813 267.492,304.128 269.727 C 303.592 269.906,302.883 270.280,302.553 270.556 C 302.222 270.833,300.803 271.434,299.399 271.891 C 297.995 272.349,296.374 272.902,295.796 273.120 C 295.218 273.338,293.461 273.833,291.892 274.221 L 289.039 274.925 199.249 274.925 L 109.459 274.925 107.057 274.228 C 102.256 272.834,97.134 271.015,96.569 270.502 C 96.251 270.213,95.714 269.889,95.377 269.782 C 90.106 268.109,80.302 257.864,76.733 250.300 C 74.087 244.690,73.913 244.150,72.245 236.336 C 71.517 232.929,71.511 67.357,72.238 64.114 C 73.844 56.952,74.017 56.347,75.244 53.604 C 75.466 53.108,75.792 52.134,75.970 51.439 C 76.147 50.744,76.438 50.086,76.615 49.976 C 76.793 49.866,77.139 49.286,77.384 48.687 C 77.948 47.307,80.172 43.844,80.494 43.844 C 80.627 43.844,80.780 43.649,80.834 43.411 C 80.935 42.961,82.716 40.809,84.894 38.504 C 85.587 37.770,86.466 36.713,86.846 36.154 C 87.226 35.595,87.977 34.991,88.514 34.813 C 89.050 34.634,89.489 34.363,89.489 34.211 C 89.489 34.059,89.637 33.934,89.817 33.934 C 89.998 33.934,90.504 33.656,90.943 33.316 C 92.658 31.990,93.953 31.213,96.697 29.865 C 98.266 29.094,100.041 28.207,100.641 27.895 C 101.242 27.583,101.960 27.327,102.237 27.327 C 102.514 27.327,103.374 27.140,104.148 26.911 C 110.071 25.161,99.949 25.324,201.051 25.353 L 289.339 25.379 292.342 26.226 " stroke="none" fill="#fbfbfb" fill-rule="evenodd"></path><path id="path3" d="M113.814 36.776 C 105.181 38.362,97.429 43.414,90.757 51.802 C 88.430 54.728,85.208 61.600,84.140 65.916 C 82.817 71.263,82.832 70.173,82.943 152.853 C 83.043 227.049,83.080 231.814,83.581 233.934 C 84.323 237.071,85.177 239.611,86.208 241.738 C 86.691 242.736,87.087 243.616,87.087 243.693 C 87.087 243.770,87.646 244.748,88.330 245.866 C 93.991 255.123,102.673 261.296,112.924 263.351 C 117.580 264.285,282.313 264.321,286.658 263.389 C 302.254 260.046,314.145 246.818,316.671 230.000 C 317.321 225.671,317.336 72.718,316.686 68.758 C 315.726 62.902,312.317 54.127,310.760 53.504 C 310.623 53.448,310.511 53.264,310.511 53.094 C 310.511 52.924,309.637 51.750,308.569 50.485 C 302.464 43.251,294.068 38.370,285.048 36.814 C 281.430 36.189,117.205 36.153,113.814 36.776 M286.006 37.331 C 303.439 41.679,314.703 54.061,316.518 70.871 C 317.010 75.429,316.770 227.923,316.267 230.480 C 312.949 247.343,302.120 259.277,286.787 262.971 C 283.298 263.811,116.512 263.815,112.763 262.975 C 104.146 261.044,97.146 256.638,91.434 249.550 C 90.082 247.872,87.387 243.783,87.387 243.409 C 87.387 243.341,87.002 242.431,86.532 241.387 C 84.956 237.892,84.419 235.984,83.649 231.159 C 82.954 226.796,82.940 75.140,83.635 70.642 C 86.393 52.788,100.083 38.585,116.216 36.842 C 120.483 36.380,284.086 36.852,286.006 37.331 M198.048 70.871 C 197.438 71.026,198.018 71.100,199.850 71.101 C 202.042 71.102,202.325 71.055,201.351 70.854 C 199.928 70.559,199.259 70.563,198.048 70.871 M195.045 71.611 C 193.885 72.142,194.425 72.150,195.796 71.622 C 196.374 71.399,196.644 71.213,196.396 71.208 C 196.149 71.202,195.541 71.384,195.045 71.611 M206.006 72.156 C 206.289 72.458,209.369 74.474,209.548 74.474 C 209.830 74.474,207.753 72.977,206.757 72.462 C 206.261 72.205,205.923 72.068,206.006 72.156 M157.513 107.280 L 123.273 141.586 157.648 107.355 C 176.554 88.527,192.083 73.089,192.158 73.048 C 192.232 73.007,192.171 72.973,192.022 72.973 C 191.874 72.973,176.345 88.411,157.513 107.280 M198.732 74.394 C 199.438 74.458,200.519 74.457,201.134 74.392 C 201.749 74.328,201.171 74.276,199.850 74.277 C 198.529 74.278,198.025 74.331,198.732 74.394 M195.027 75.242 C 194.454 75.701,194.454 75.704,195.045 75.433 C 195.375 75.281,195.848 75.081,196.096 74.989 C 196.485 74.845,196.483 74.819,196.078 74.798 C 195.821 74.785,195.348 74.985,195.027 75.242 M210.736 75.903 C 212.531 77.702,213.215 78.055,211.573 76.336 C 210.753 75.477,209.976 74.775,209.846 74.775 C 209.717 74.775,210.117 75.282,210.736 75.903 M205.706 75.864 C 206.690 76.538,273.282 143.121,274.145 144.294 C 274.692 145.038,274.747 145.064,274.458 144.444 C 273.977 143.414,207.108 76.513,205.913 75.867 C 205.024 75.387,205.009 75.386,205.706 75.864 M193.185 76.448 L 192.342 77.221 193.318 76.542 C 193.855 76.169,194.294 75.821,194.294 75.769 C 194.294 75.532,193.962 75.736,193.185 76.448 M214.715 79.828 C 214.715 80.085,215.626 80.951,216.667 81.682 C 216.997 81.914,216.733 81.536,216.080 80.842 C 214.832 79.515,214.715 79.427,214.715 79.828 M217.896 82.947 C 219.053 84.290,223.735 88.889,223.946 88.889 C 224.066 88.889,222.682 87.402,220.871 85.586 C 217.779 82.484,216.590 81.429,217.896 82.947 M183.483 85.886 C 183.071 86.209,182.881 86.476,183.062 86.480 C 183.242 86.483,183.635 86.216,183.934 85.886 C 184.619 85.129,184.451 85.129,183.483 85.886 M180.981 88.363 C 180.678 88.680,180.488 88.996,180.557 89.066 C 180.627 89.136,180.930 88.921,181.231 88.589 C 181.936 87.809,181.708 87.604,180.981 88.363 M224.324 89.243 C 224.324 89.578,227.285 92.635,227.450 92.470 C 227.540 92.380,226.873 91.576,225.969 90.683 C 225.064 89.790,224.324 89.142,224.324 89.243 M229.048 94.144 C 229.797 95.237,230.931 96.297,230.931 95.903 C 230.931 95.746,230.368 95.083,229.681 94.430 C 228.599 93.402,228.514 93.364,229.048 94.144 M232.146 97.158 C 232.165 97.565,234.768 100.167,234.962 99.973 C 235.050 99.885,234.449 99.151,233.627 98.342 C 232.805 97.532,232.138 96.999,232.146 97.158 M169.102 100.318 C 168.707 100.647,168.447 100.980,168.525 101.057 C 168.603 101.135,168.983 100.862,169.370 100.449 C 170.213 99.552,170.092 99.493,169.102 100.318 M235.674 100.751 C 236.020 101.426,239.033 104.310,239.209 104.134 C 239.272 104.072,238.433 103.150,237.345 102.085 C 236.257 101.021,235.505 100.420,235.674 100.751 M240.991 106.269 C 241.486 106.744,241.949 107.081,242.018 107.018 C 242.212 106.844,240.780 105.405,240.413 105.406 C 240.235 105.406,240.495 105.794,240.991 106.269 M162.195 107.225 C 161.800 107.554,161.540 107.886,161.618 107.964 C 161.696 108.042,162.076 107.768,162.464 107.356 C 163.306 106.459,163.185 106.400,162.195 107.225 M243.243 108.211 C 243.243 108.552,245.286 110.670,245.452 110.502 C 245.529 110.424,245.063 109.823,244.417 109.167 C 243.772 108.511,243.243 108.081,243.243 108.211 M246.547 111.479 C 246.547 111.794,249.538 114.827,249.694 114.671 C 249.771 114.593,249.095 113.799,248.191 112.906 C 247.286 112.012,246.547 111.371,246.547 111.479 M156.056 113.263 C 155.753 113.594,155.561 113.920,155.629 113.988 C 155.698 114.056,156.070 113.774,156.458 113.362 C 156.845 112.950,157.037 112.624,156.884 112.638 C 156.732 112.651,156.359 112.933,156.056 113.263 M168.694 115.822 L 167.267 115.949 167.235 146.788 C 167.203 178.080,167.212 179.313,167.470 179.580 C 167.902 180.025,176.039 179.908,176.744 179.446 L 177.477 178.965 177.477 167.561 C 177.477 160.249,177.371 156.156,177.181 156.156 C 176.992 156.156,176.855 160.330,176.805 167.643 L 176.727 179.129 172.564 179.213 C 169.750 179.270,168.266 179.185,167.984 178.951 C 167.398 178.464,167.357 117.513,167.943 116.731 C 168.446 116.060,182.019 115.663,186.637 116.185 C 199.067 117.589,206.148 126.078,204.820 137.986 C 203.672 148.279,197.830 153.703,185.586 155.846 L 183.934 156.135 186.036 156.014 C 196.398 155.418,204.098 148.361,205.135 138.512 C 206.321 127.243,201.248 119.408,190.841 116.437 C 188.777 115.848,173.262 115.417,168.694 115.822 M251.652 116.712 C 251.652 116.877,251.989 117.330,252.402 117.718 C 252.815 118.106,253.153 118.288,253.153 118.123 C 253.153 117.958,252.815 117.505,252.402 117.117 C 251.989 116.729,251.652 116.547,251.652 116.712 M254.354 119.292 C 254.354 119.629,256.421 121.757,256.587 121.591 C 256.674 121.504,256.208 120.907,255.550 120.265 C 254.892 119.623,254.354 119.185,254.354 119.292 M146.697 122.682 C 146.201 123.088,145.941 123.421,146.119 123.422 C 146.296 123.423,146.759 123.086,147.147 122.673 C 148.037 121.726,147.859 121.729,146.697 122.682 M259.131 124.324 C 259.923 125.150,260.687 125.826,260.830 125.826 C 260.972 125.826,260.423 125.150,259.610 124.324 C 258.796 123.498,258.032 122.823,257.911 122.823 C 257.790 122.823,258.339 123.498,259.131 124.324 M144.919 124.559 L 144.343 125.375 145.144 124.647 C 145.987 123.882,146.091 123.718,145.721 123.733 C 145.597 123.738,145.236 124.110,144.919 124.559 M177.071 125.281 C 176.831 126.176,176.827 145.579,177.066 146.471 C 177.486 148.037,186.912 147.224,190.240 145.335 C 193.939 143.236,195.039 141.038,195.043 135.736 C 195.048 127.753,191.718 124.878,182.247 124.687 L 177.257 124.586 177.071 125.281 M187.249 125.388 C 192.027 126.623,194.895 130.447,194.895 135.585 C 194.895 143.173,190.327 146.847,180.893 146.847 L 177.477 146.847 177.477 135.886 L 177.477 124.925 181.468 124.925 C 184.088 124.925,186.075 125.084,187.249 125.388 M261.872 126.891 C 261.885 127.285,264.264 129.638,264.264 129.257 C 264.264 129.089,263.724 128.423,263.063 127.778 C 262.402 127.133,261.866 126.734,261.872 126.891 M139.541 129.914 C 138.908 130.502,138.444 131.036,138.509 131.102 C 138.574 131.167,139.153 130.682,139.795 130.025 C 141.242 128.543,141.088 128.476,139.541 129.914 M225.375 131.404 C 216.042 133.683,212.223 138.171,212.687 146.316 C 212.997 151.747,215.957 155.329,223.340 159.206 C 229.416 162.397,231.000 163.890,231.000 166.426 C 231.000 171.281,221.523 172.059,214.141 167.810 C 212.153 166.666,212.012 166.936,212.012 171.888 C 212.012 177.622,212.051 177.682,216.517 178.763 C 229.726 181.962,239.529 177.855,241.328 168.367 C 242.672 161.285,239.639 156.080,231.682 151.809 C 223.425 147.378,221.625 145.442,223.136 142.619 C 224.555 139.966,231.650 139.739,237.303 142.164 C 239.086 142.929,239.637 142.812,239.656 141.667 C 239.808 132.765,239.825 132.814,236.271 132.002 C 234.157 131.520,226.601 131.105,225.375 131.404 M266.366 131.433 C 266.366 131.816,267.519 132.881,267.718 132.682 C 267.799 132.601,267.528 132.218,267.116 131.831 C 266.704 131.443,266.366 131.264,266.366 131.433 M236.937 132.563 C 239.240 133.219,239.340 133.433,239.335 137.670 C 239.329 142.511,239.468 142.379,235.683 141.135 C 231.970 139.914,226.499 139.638,224.774 140.585 C 222.258 141.965,221.631 144.970,223.423 147.057 C 224.565 148.387,225.419 148.932,231.055 151.929 C 238.694 155.991,241.400 159.907,241.075 166.432 C 240.757 172.819,237.022 177.044,230.137 178.807 C 225.879 179.897,216.908 179.081,213.438 177.288 L 212.613 176.861 212.613 172.365 C 212.613 167.617,212.684 167.402,213.972 168.264 C 218.953 171.595,228.448 171.929,230.747 168.855 C 232.966 165.885,231.055 162.939,224.651 159.459 C 216.614 155.092,213.930 152.200,213.211 147.132 C 212.876 144.767,213.223 141.468,213.954 140.065 C 214.205 139.583,214.412 139.043,214.413 138.865 C 214.416 138.249,217.719 134.891,219.141 134.058 C 222.959 131.820,231.742 131.082,236.937 132.563 M135.510 133.920 C 134.643 134.737,133.934 135.510,133.934 135.636 C 133.934 135.762,134.677 135.131,135.586 134.234 C 137.108 132.730,137.369 132.432,137.161 132.432 C 137.119 132.432,136.376 133.102,135.510 133.920 M270.242 135.435 C 271.051 136.261,271.822 136.937,271.956 136.937 C 272.090 136.937,271.534 136.261,270.721 135.435 C 269.907 134.610,269.136 133.934,269.007 133.934 C 268.878 133.934,269.433 134.610,270.242 135.435 M272.372 137.350 C 272.372 137.477,273.271 138.483,274.368 139.586 C 275.677 140.901,276.048 141.178,275.446 140.390 C 274.383 139.000,272.372 137.011,272.372 137.350 M127.027 142.393 C 125.878 143.678,124.542 145.523,125.433 144.595 C 127.397 142.547,128.863 140.845,128.647 140.861 C 128.499 140.872,127.770 141.561,127.027 142.393 M121.724 144.314 C 121.304 145.233,121.012 146.037,121.076 146.101 C 121.140 146.165,121.548 145.413,121.982 144.430 C 122.417 143.447,122.709 142.643,122.631 142.643 C 122.553 142.643,122.145 143.395,121.724 144.314 M120.610 147.823 C 120.370 148.718,120.409 151.966,120.667 152.616 C 120.779 152.899,120.871 151.784,120.871 150.139 C 120.871 146.856,120.870 146.851,120.610 147.823 M123.863 149.086 C 123.750 149.987,123.774 151.215,123.916 151.815 C 124.123 152.690,124.177 152.365,124.188 150.177 C 124.204 147.018,124.145 146.822,123.863 149.086 M279.080 150.150 C 279.080 151.389,279.133 151.896,279.198 151.276 C 279.263 150.657,279.263 149.643,279.198 149.024 C 279.133 148.405,279.080 148.911,279.080 150.150 M275.774 150.300 C 275.776 151.456,275.830 151.893,275.895 151.270 C 275.960 150.647,275.959 149.701,275.892 149.167 C 275.826 148.634,275.773 149.144,275.774 150.300 M278.515 154.129 C 277.789 157.484,278.428 156.797,242.990 192.301 C 221.320 214.011,208.832 226.306,207.686 227.061 C 206.711 227.703,206.023 228.228,206.158 228.228 C 207.764 228.228,276.149 160.065,277.712 156.907 C 278.565 155.185,279.195 153.153,278.877 153.153 C 278.794 153.153,278.631 153.592,278.515 154.129 M124.488 154.129 C 124.600 154.501,124.816 154.937,124.967 155.098 C 125.118 155.260,125.090 154.956,124.904 154.423 C 124.523 153.332,124.172 153.084,124.488 154.129 M121.193 154.655 C 121.304 155.068,121.519 155.608,121.672 155.856 C 121.866 156.169,121.889 156.077,121.750 155.556 C 121.639 155.143,121.424 154.602,121.271 154.354 C 121.077 154.041,121.054 154.133,121.193 154.655 M180.405 156.373 C 180.942 156.440,181.821 156.440,182.357 156.373 C 182.894 156.307,182.455 156.252,181.381 156.252 C 180.308 156.252,179.869 156.307,180.405 156.373 M271.165 159.384 L 268.619 162.012 271.246 159.466 C 273.687 157.102,274.011 156.757,273.792 156.757 C 273.747 156.757,272.565 157.939,271.165 159.384 M159.459 190.541 C 177.875 208.956,193.009 224.024,193.091 224.024 C 193.352 224.024,126.589 157.158,126.277 157.106 C 126.112 157.079,141.044 172.125,159.459 190.541 M123.059 158.412 C 123.229 158.744,123.684 159.284,124.071 159.611 C 124.750 160.185,124.748 160.174,124.029 159.307 C 122.833 157.867,122.732 157.774,123.059 158.412 M130.781 166.667 C 134.246 170.135,137.189 172.973,137.321 172.973 C 137.452 172.973,134.712 170.135,131.231 166.667 C 127.751 163.198,124.808 160.360,124.691 160.360 C 124.575 160.360,127.315 163.198,130.781 166.667 M265.460 165.090 L 262.613 168.018 265.541 165.171 C 268.260 162.527,268.605 162.162,268.387 162.162 C 268.343 162.162,267.025 163.480,265.460 165.090 M259.454 171.096 L 256.607 174.024 259.535 171.177 C 262.254 168.533,262.599 168.168,262.381 168.168 C 262.337 168.168,261.019 169.486,259.454 171.096 M139.039 174.925 C 139.936 175.833,140.730 176.577,140.802 176.577 C 140.995 176.577,139.962 175.371,138.809 174.249 C 137.111 172.600,137.306 173.170,139.039 174.925 M253.448 177.102 L 250.601 180.030 253.529 177.183 C 256.248 174.539,256.593 174.174,256.375 174.174 C 256.331 174.174,255.013 175.492,253.448 177.102 M141.141 176.814 C 141.141 177.120,148.301 184.238,148.439 184.069 C 148.500 183.995,146.883 182.282,144.845 180.262 C 142.808 178.243,141.141 176.691,141.141 176.814 M248.638 181.907 L 246.997 183.634 248.724 181.992 C 250.328 180.467,250.588 180.180,250.365 180.180 C 250.318 180.180,249.541 180.957,248.638 181.907 M245.629 184.910 L 244.595 186.036 245.721 185.001 C 246.769 184.038,246.985 183.784,246.756 183.784 C 246.705 183.784,246.199 184.291,245.629 184.910 M150.133 185.963 C 151.031 186.904,151.815 187.625,151.873 187.566 C 152.001 187.438,150.297 185.671,149.248 184.845 C 148.836 184.520,149.234 185.023,150.133 185.963 M243.079 187.462 L 241.892 188.739 243.168 187.552 C 244.355 186.448,244.582 186.186,244.355 186.186 C 244.306 186.186,243.732 186.761,243.079 187.462 M152.252 187.908 C 152.252 188.216,159.407 195.360,159.535 195.180 C 159.588 195.106,157.971 193.385,155.942 191.356 C 153.913 189.328,152.252 187.776,152.252 187.908 M239.623 190.916 L 238.589 192.042 239.715 191.007 C 240.763 190.044,240.979 189.790,240.750 189.790 C 240.699 189.790,240.193 190.297,239.623 190.916 M236.637 193.844 C 236.249 194.257,236.056 194.590,236.209 194.585 C 236.466 194.576,237.703 193.093,237.454 193.093 C 237.392 193.093,237.025 193.431,236.637 193.844 M234.518 196.021 L 233.483 197.147 234.610 196.112 C 235.658 195.149,235.874 194.895,235.644 194.895 C 235.594 194.895,235.088 195.402,234.518 196.021 M161.244 197.074 C 162.142 198.015,162.921 198.740,162.974 198.687 C 163.093 198.568,161.355 196.760,160.349 195.956 C 159.942 195.631,160.345 196.134,161.244 197.074 M168.615 204.449 C 171.587 207.453,174.074 209.910,174.143 209.910 C 174.434 209.910,164.842 200.177,163.803 199.419 C 163.479 199.182,165.644 201.446,168.615 204.449 M228.972 201.559 C 227.654 202.912,227.117 203.554,227.778 202.985 C 229.018 201.919,231.712 199.099,231.492 199.099 C 231.423 199.099,230.289 200.206,228.972 201.559 M224.625 205.856 C 224.237 206.269,224.044 206.602,224.197 206.597 C 224.454 206.588,225.691 205.105,225.442 205.105 C 225.380 205.105,225.013 205.443,224.625 205.856 M222.061 208.483 L 220.571 210.060 222.147 208.570 C 223.612 207.185,223.861 206.907,223.637 206.907 C 223.590 206.907,222.880 207.616,222.061 208.483 M179.727 215.554 C 182.698 218.561,185.219 221.021,185.329 221.021 C 185.542 221.021,176.237 211.669,175.034 210.674 C 174.644 210.351,176.755 212.547,179.727 215.554 M216.055 214.474 C 214.693 215.901,214.670 215.946,215.794 215.000 C 216.856 214.104,217.907 212.913,217.634 212.913 C 217.585 212.913,216.874 213.615,216.055 214.474 M212.612 217.869 C 212.224 218.281,211.998 218.619,212.110 218.619 C 212.401 218.619,213.588 217.391,213.440 217.243 C 213.371 217.175,212.999 217.457,212.612 217.869 M210.049 220.480 C 208.687 221.907,208.664 221.952,209.788 221.006 C 210.850 220.110,211.901 218.919,211.628 218.919 C 211.579 218.919,210.868 219.621,210.049 220.480 M187.077 222.908 C 188.693 224.598,189.528 225.258,188.410 223.961 C 187.516 222.924,186.997 222.415,186.186 221.780 C 185.773 221.456,186.174 221.963,187.077 222.908 M207.053 223.430 C 206.949 223.598,206.164 224.138,205.309 224.628 C 204.453 225.119,203.896 225.521,204.070 225.523 C 204.479 225.526,207.073 223.884,207.339 223.453 C 207.451 223.271,207.475 223.123,207.393 223.123 C 207.310 223.123,207.157 223.261,207.053 223.430 M189.189 224.900 C 189.189 225.051,189.696 225.569,190.315 226.050 C 191.823 227.223,192.619 227.615,191.294 226.532 C 190.718 226.061,190.008 225.439,189.718 225.150 C 189.427 224.861,189.189 224.748,189.189 224.900 M194.294 224.814 C 194.294 225.017,196.438 225.885,196.582 225.740 C 196.649 225.674,196.161 225.406,195.499 225.146 C 194.836 224.886,194.294 224.737,194.294 224.814 M201.802 225.873 C 201.059 226.027,199.640 226.088,198.649 226.008 C 196.989 225.874,196.941 225.886,198.048 226.164 C 199.339 226.487,202.590 226.271,203.313 225.814 C 203.830 225.486,203.618 225.495,201.802 225.873 M198.423 229.541 C 199.371 229.705,200.629 229.705,201.577 229.541 C 203.001 229.294,202.849 229.268,200.000 229.268 C 197.151 229.268,196.999 229.294,198.423 229.541 " stroke="none" fill="#1d7b9a" fill-rule="evenodd"></path><path id="path4" d="M156.081 25.751 C 179.906 25.793,218.893 25.793,242.718 25.751 C 266.543 25.708,247.050 25.674,199.399 25.674 C 151.749 25.674,132.256 25.708,156.081 25.751 M108.468 26.122 C 107.923 26.251,107.383 26.452,107.267 26.569 C 107.065 26.772,107.556 26.708,110.511 26.148 L 111.862 25.892 110.661 25.889 C 110.000 25.888,109.013 25.993,108.468 26.122 M289.189 26.305 C 290.428 26.533,291.577 26.674,291.742 26.618 C 292.209 26.461,288.976 25.822,287.898 25.858 C 287.326 25.878,287.849 26.058,289.189 26.305 M104.505 27.093 C 103.926 27.265,103.595 27.457,103.769 27.521 C 103.942 27.585,104.618 27.442,105.270 27.203 C 106.630 26.706,106.077 26.626,104.505 27.093 M295.045 27.618 C 296.532 28.112,297.883 28.470,298.048 28.414 C 298.213 28.359,297.402 28.032,296.246 27.687 C 292.875 26.684,292.099 26.639,295.045 27.618 M102.102 27.825 C 101.854 27.908,101.463 28.036,101.233 28.109 C 101.003 28.182,100.880 28.307,100.959 28.387 C 101.039 28.466,101.632 28.337,102.278 28.100 C 103.340 27.712,103.182 27.465,102.102 27.825 M96.945 30.037 C 95.347 30.849,93.937 31.681,93.811 31.884 C 93.686 32.088,94.238 31.870,95.039 31.401 C 95.840 30.932,97.453 30.098,98.623 29.549 C 99.793 29.000,100.548 28.552,100.300 28.555 C 100.053 28.557,98.543 29.224,96.945 30.037 M298.649 28.761 C 298.814 28.926,299.287 29.160,299.700 29.279 C 300.200 29.424,300.350 29.397,300.150 29.197 C 299.985 29.031,299.512 28.798,299.099 28.679 C 298.599 28.534,298.448 28.561,298.649 28.761 M300.626 29.550 C 301.007 29.918,305.413 32.087,305.252 31.827 C 305.061 31.518,301.103 29.429,300.708 29.429 C 300.594 29.429,300.557 29.484,300.626 29.550 M306.562 32.808 C 311.512 36.159,314.599 39.031,318.660 44.063 C 318.930 44.398,319.863 45.838,320.734 47.263 C 321.605 48.688,322.370 49.802,322.434 49.738 C 322.574 49.598,321.114 47.093,319.545 44.782 C 316.760 40.682,311.403 35.566,306.842 32.653 C 305.640 31.885,305.397 32.019,306.562 32.808 M90.188 34.227 C 87.801 35.908,85.250 38.328,83.052 40.994 C 82.199 42.029,82.804 41.497,84.477 39.742 C 86.077 38.064,88.433 35.914,89.714 34.965 C 92.285 33.057,92.685 32.733,92.461 32.733 C 92.377 32.733,91.354 33.405,90.188 34.227 M80.085 44.820 C 78.380 47.232,77.758 48.381,78.479 47.786 C 78.754 47.559,78.979 47.246,78.979 47.089 C 78.979 46.932,79.599 45.936,80.357 44.874 C 81.114 43.812,81.662 42.943,81.573 42.943 C 81.484 42.943,80.815 43.788,80.085 44.820 M77.200 49.573 C 76.842 50.260,76.606 50.880,76.676 50.950 C 76.746 51.020,77.096 50.514,77.454 49.827 C 77.813 49.139,78.049 48.519,77.979 48.449 C 77.909 48.380,77.559 48.885,77.200 49.573 M323.287 51.862 C 324.042 53.568,324.324 54.051,324.324 53.634 C 324.324 53.283,322.846 50.150,322.681 50.150 C 322.598 50.150,322.871 50.920,323.287 51.862 M75.984 52.080 C 75.538 53.254,75.626 53.438,76.162 52.451 C 76.416 51.982,76.549 51.524,76.458 51.433 C 76.367 51.342,76.154 51.633,75.984 52.080 M75.108 54.388 C 74.923 54.918,74.825 55.405,74.889 55.469 C 74.953 55.534,75.157 55.152,75.342 54.621 C 75.527 54.091,75.626 53.604,75.562 53.540 C 75.497 53.475,75.293 53.857,75.108 54.388 M324.415 54.354 C 324.506 54.602,324.946 55.953,325.392 57.357 C 326.422 60.595,326.793 61.469,326.539 60.060 C 326.266 58.549,324.914 54.558,324.554 54.204 C 324.349 54.002,324.304 54.052,324.415 54.354 M74.390 56.361 C 74.310 56.496,74.162 57.080,74.060 57.658 L 73.876 58.709 74.326 57.534 C 74.728 56.488,74.769 55.719,74.390 56.361 M73.492 59.341 C 73.372 59.461,73.282 59.909,73.292 60.335 L 73.311 61.111 73.601 60.386 C 73.914 59.605,73.849 58.984,73.492 59.341 M326.921 62.913 C 327.192 65.281,327.650 66.925,327.452 64.820 C 327.364 63.888,327.170 62.739,327.020 62.268 C 326.814 61.616,326.790 61.771,326.921 62.913 M72.509 64.401 C 72.394 65.167,72.368 65.861,72.450 65.944 C 72.533 66.026,72.694 65.467,72.809 64.701 C 72.924 63.935,72.950 63.241,72.868 63.158 C 72.785 63.076,72.624 63.635,72.509 64.401 M72.220 150.000 C 72.220 195.751,72.255 214.422,72.297 191.492 C 72.340 168.562,72.340 131.130,72.297 108.309 C 72.255 85.488,72.220 104.249,72.220 150.000 M327.776 150.000 C 327.776 195.751,327.810 214.422,327.853 191.492 C 327.895 168.562,327.895 131.130,327.853 108.309 C 327.810 85.488,327.776 104.249,327.776 150.000 M197.519 71.379 C 197.228 71.455,197.066 71.640,197.159 71.791 C 197.252 71.942,197.109 71.981,196.840 71.878 C 196.281 71.663,193.994 72.341,193.994 72.721 C 193.994 72.859,193.880 72.939,193.741 72.898 C 193.434 72.807,190.774 74.500,189.940 75.318 C 189.610 75.642,187.013 78.253,184.170 81.122 C 181.327 83.990,174.732 90.593,169.515 95.796 C 164.298 100.998,159.306 105.998,158.423 106.907 C 157.539 107.815,155.080 110.276,152.958 112.375 C 150.835 114.473,147.512 117.784,145.573 119.732 C 143.634 121.680,141.877 123.427,141.669 123.614 C 137.026 127.804,123.114 142.472,122.483 143.844 C 121.006 147.051,120.401 153.297,121.531 153.673 C 121.727 153.739,121.820 153.972,121.736 154.190 C 121.189 155.615,128.966 165.373,130.093 164.676 C 130.283 164.558,130.338 164.609,130.223 164.795 C 129.962 165.218,139.288 174.542,139.711 174.280 C 139.888 174.171,139.946 174.221,139.841 174.392 C 139.583 174.809,157.308 192.558,157.725 192.300 C 157.908 192.187,157.965 192.238,157.855 192.416 C 157.627 192.785,190.096 225.388,191.988 226.689 C 195.158 228.871,199.949 229.679,203.557 228.641 C 205.599 228.053,207.508 227.125,207.508 226.721 C 207.508 226.559,207.625 226.460,207.768 226.502 C 208.244 226.639,210.531 224.601,210.318 224.230 C 210.206 224.034,210.230 223.979,210.371 224.108 C 210.702 224.409,215.045 220.111,214.804 219.721 C 214.704 219.559,214.756 219.509,214.919 219.610 C 215.082 219.711,215.792 219.207,216.495 218.490 C 217.199 217.773,217.661 217.125,217.521 217.051 C 217.381 216.976,217.416 216.949,217.598 216.990 C 218.027 217.086,225.377 209.727,225.034 209.545 C 224.892 209.470,224.923 209.441,225.104 209.482 C 225.533 209.578,240.094 195.012,239.751 194.831 C 239.607 194.755,239.638 194.726,239.819 194.767 C 240.299 194.874,262.229 172.844,261.949 172.536 C 261.818 172.393,261.865 172.364,262.053 172.471 C 262.476 172.713,263.140 171.968,262.835 171.594 C 262.713 171.444,262.741 171.427,262.898 171.556 C 263.324 171.908,268.752 166.392,268.564 165.798 C 268.457 165.458,268.491 165.424,268.679 165.684 C 268.871 165.949,269.565 165.431,271.142 163.843 C 272.349 162.628,273.222 161.572,273.080 161.496 C 272.939 161.421,272.984 161.398,273.180 161.444 C 273.592 161.542,276.464 158.369,276.351 157.942 C 276.310 157.785,276.397 157.658,276.544 157.658 C 276.889 157.658,278.085 155.116,278.221 154.092 C 278.278 153.658,278.472 152.923,278.652 152.458 C 279.118 151.252,279.056 148.468,278.541 147.471 C 278.299 147.004,278.170 146.555,278.253 146.472 C 278.774 145.950,275.328 140.349,274.718 140.726 C 274.533 140.840,274.463 140.802,274.563 140.640 C 274.663 140.479,273.350 138.972,271.647 137.291 C 269.944 135.610,268.581 134.234,268.619 134.234 C 268.657 134.234,267.411 132.984,265.851 131.456 C 264.243 129.882,262.797 128.707,262.513 128.745 C 262.193 128.787,262.156 128.749,262.410 128.637 C 262.773 128.479,258.701 124.162,252.301 117.922 C 251.255 116.901,249.228 114.884,247.797 113.440 C 246.366 111.995,245.026 110.813,244.820 110.812 C 244.613 110.811,244.478 110.680,244.520 110.520 C 244.658 109.983,240.809 106.340,240.281 106.507 C 239.962 106.609,239.912 106.574,240.138 106.409 C 240.388 106.226,240.281 105.915,239.763 105.313 C 239.365 104.850,239.039 104.525,239.039 104.590 C 239.039 104.712,237.734 103.414,231.460 97.057 C 229.522 95.093,227.900 93.499,227.857 93.515 C 227.813 93.531,226.147 91.888,224.153 89.865 C 222.159 87.842,220.553 86.186,220.584 86.186 C 220.615 86.186,219.370 84.936,217.818 83.408 C 216.196 81.812,214.795 80.671,214.525 80.726 C 214.238 80.784,214.136 80.688,214.263 80.482 C 214.500 80.098,210.000 75.375,209.485 75.467 C 209.306 75.499,209.190 75.366,209.227 75.171 C 209.303 74.779,206.973 73.018,205.556 72.395 C 203.331 71.416,199.319 70.909,197.519 71.379 M204.054 74.590 C 204.550 74.855,205.105 75.072,205.288 75.073 C 205.471 75.074,206.230 75.611,206.975 76.266 C 207.719 76.922,208.414 77.395,208.518 77.317 C 208.623 77.240,208.637 77.272,208.549 77.387 C 208.328 77.677,214.160 83.490,214.476 83.295 C 214.615 83.209,214.692 83.273,214.647 83.438 C 214.518 83.907,218.348 87.703,218.730 87.485 C 218.916 87.378,218.963 87.407,218.834 87.550 C 218.552 87.859,225.223 94.632,225.587 94.406 C 225.727 94.320,225.804 94.388,225.758 94.558 C 225.633 95.025,230.371 99.708,230.750 99.492 C 230.932 99.388,230.975 99.420,230.845 99.562 C 230.544 99.893,240.552 109.938,240.943 109.697 C 241.103 109.598,241.153 109.647,241.055 109.807 C 240.819 110.188,262.267 131.627,262.576 131.318 C 262.706 131.188,262.768 131.240,262.713 131.434 C 262.570 131.937,266.368 135.767,266.778 135.533 C 266.964 135.426,267.015 135.452,266.891 135.589 C 266.766 135.726,268.390 137.606,270.499 139.766 C 272.608 141.926,274.554 144.167,274.823 144.745 C 275.092 145.323,275.495 146.187,275.718 146.666 C 276.346 148.009,276.249 152.382,275.551 154.204 C 274.644 156.574,274.259 156.994,258.645 172.640 C 250.504 180.797,243.844 187.610,243.844 187.780 C 243.844 187.949,243.774 188.018,243.689 187.933 C 243.604 187.848,235.259 196.039,225.145 206.136 C 210.390 220.868,206.430 224.661,205.105 225.339 C 202.413 226.715,198.119 226.869,195.614 225.681 C 195.086 225.430,194.505 225.225,194.324 225.225 C 194.142 225.225,193.994 225.106,193.994 224.961 C 193.994 224.816,193.598 224.534,193.115 224.333 C 192.631 224.133,192.162 223.779,192.073 223.546 C 191.984 223.313,191.696 223.123,191.433 223.123 C 191.170 223.123,191.025 223.011,191.109 222.874 C 191.331 222.515,187.854 219.158,187.548 219.436 C 187.407 219.565,187.388 219.501,187.507 219.294 C 187.645 219.056,187.534 218.919,187.205 218.919 C 186.920 218.919,186.781 218.824,186.897 218.709 C 187.165 218.441,180.777 212.012,180.243 212.012 C 180.024 212.012,179.913 211.901,179.996 211.766 C 180.201 211.436,172.851 204.126,172.583 204.394 C 172.467 204.510,172.372 204.410,172.372 204.172 C 172.372 203.640,169.597 200.901,169.058 200.901 C 168.844 200.901,168.762 200.807,168.877 200.693 C 169.145 200.425,166.065 197.297,165.533 197.297 C 165.311 197.297,165.196 197.189,165.278 197.057 C 165.429 196.814,136.261 167.484,136.018 167.635 C 135.946 167.681,135.913 167.668,135.947 167.606 C 136.086 167.354,133.228 164.594,132.984 164.745 C 132.837 164.836,132.755 164.737,132.800 164.525 C 132.846 164.314,132.714 164.135,132.508 164.128 C 132.301 164.120,132.128 163.979,132.123 163.814 C 132.108 163.343,129.057 160.369,128.770 160.547 C 128.629 160.634,128.551 160.526,128.596 160.308 C 128.642 160.087,128.478 159.955,128.228 160.010 C 127.980 160.065,127.878 160.010,128.001 159.887 C 128.124 159.764,127.546 158.908,126.716 157.985 C 124.534 155.557,124.356 155.323,124.542 155.137 C 124.635 155.045,124.522 154.743,124.292 154.466 C 123.987 154.099,123.874 153.012,123.874 150.459 C 123.874 144.813,123.548 145.238,141.503 127.409 C 143.932 124.997,145.836 122.877,145.734 122.698 C 145.633 122.519,145.664 122.476,145.804 122.603 C 146.142 122.911,157.077 111.995,156.843 111.583 C 156.743 111.406,156.776 111.366,156.917 111.495 C 157.248 111.796,160.691 108.400,160.450 108.010 C 160.350 107.848,160.401 107.797,160.564 107.898 C 160.918 108.117,171.658 97.420,171.539 96.967 C 171.494 96.794,171.571 96.723,171.710 96.809 C 171.850 96.895,176.617 92.301,182.304 86.600 C 192.894 75.983,194.262 74.850,197.447 74.055 C 198.684 73.747,203.154 74.109,204.054 74.590 M72.437 234.985 C 72.434 235.646,72.540 236.524,72.673 236.937 L 72.913 237.688 72.926 236.937 C 72.933 236.524,72.827 235.646,72.690 234.985 L 72.441 233.784 72.437 234.985 M327.190 235.680 C 327.067 236.558,327.037 237.347,327.124 237.434 C 327.338 237.648,327.726 234.975,327.553 234.478 C 327.477 234.261,327.314 234.802,327.190 235.680 M73.149 239.189 C 73.328 240.670,73.861 242.151,73.851 241.141 C 73.849 240.893,73.649 240.015,73.408 239.189 L 72.968 237.688 73.149 239.189 M326.448 239.511 C 326.241 240.433,326.140 241.256,326.223 241.338 C 326.306 241.421,326.533 240.724,326.727 239.790 C 326.921 238.855,327.022 238.033,326.951 237.962 C 326.881 237.892,326.654 238.589,326.448 239.511 M73.874 242.535 C 73.874 242.861,74.072 243.391,74.315 243.711 C 74.718 244.245,74.732 244.208,74.474 243.278 C 74.134 242.050,73.874 241.728,73.874 242.535 M325.375 243.243 C 325.263 243.598,325.238 243.957,325.321 244.039 C 325.403 244.122,325.563 243.899,325.676 243.544 C 325.788 243.188,325.813 242.830,325.731 242.748 C 325.648 242.665,325.488 242.888,325.375 243.243 M324.658 245.379 C 324.221 246.632,324.430 246.841,324.925 245.646 C 325.135 245.140,325.236 244.655,325.150 244.570 C 325.064 244.484,324.843 244.848,324.658 245.379 M74.795 245.045 C 74.795 245.293,75.000 245.833,75.248 246.246 L 75.701 246.997 75.502 246.246 C 75.213 245.156,74.793 244.443,74.795 245.045 M322.964 249.185 C 321.472 252.112,321.491 252.068,321.819 251.866 C 322.172 251.647,324.429 247.152,324.267 246.990 C 324.200 246.923,323.614 247.911,322.964 249.185 M75.847 247.748 C 75.955 248.161,76.163 248.627,76.310 248.784 C 76.739 249.242,76.607 248.584,76.103 247.748 L 75.651 246.997 75.847 247.748 M76.577 249.474 C 76.577 249.618,76.773 249.997,77.012 250.318 C 77.432 250.880,77.442 250.877,77.276 250.221 C 77.105 249.543,76.577 248.979,76.577 249.474 M77.477 251.241 C 77.477 251.575,78.742 253.490,78.875 253.357 C 78.946 253.286,78.714 252.739,78.361 252.140 C 77.748 251.101,77.477 250.826,77.477 251.241 M320.384 253.814 C 316.642 259.660,310.294 265.603,304.395 268.785 C 301.816 270.176,301.375 270.581,303.529 269.579 C 307.824 267.582,313.643 262.918,317.203 258.619 C 319.368 256.005,321.745 252.576,321.537 252.368 C 321.461 252.292,320.942 252.943,320.384 253.814 M79.437 254.580 C 83.177 260.440,90.091 266.817,95.796 269.669 C 97.669 270.605,97.104 270.112,94.623 268.645 C 89.298 265.496,84.226 260.884,80.971 256.231 C 79.349 253.912,78.269 252.750,79.437 254.580 M299.850 271.028 C 299.024 271.417,298.500 271.743,298.686 271.753 C 299.087 271.775,301.802 270.602,301.802 270.406 C 301.802 270.170,301.395 270.300,299.850 271.028 M98.799 271.044 C 98.799 271.247,100.359 271.813,100.507 271.665 C 100.576 271.597,100.219 271.397,99.715 271.222 C 99.211 271.046,98.799 270.966,98.799 271.044 M100.901 271.882 C 100.901 272.070,104.298 273.211,105.405 273.395 C 105.983 273.492,105.240 273.168,103.754 272.677 C 100.773 271.692,100.901 271.728,100.901 271.882 M296.697 272.222 C 296.008 272.487,295.853 272.631,296.246 272.639 C 296.577 272.646,297.185 272.458,297.598 272.222 C 298.534 271.687,298.086 271.687,296.697 272.222 M293.694 273.143 L 292.342 273.553 293.694 273.382 C 294.437 273.288,295.173 273.090,295.330 272.942 C 295.703 272.591,295.379 272.630,293.694 273.143 M107.430 273.882 C 107.800 274.031,108.813 274.225,109.682 274.313 L 111.261 274.473 109.459 274.042 C 107.424 273.556,106.422 273.477,107.430 273.882 M289.339 274.052 L 287.538 274.453 289.313 274.286 C 291.101 274.118,293.065 273.588,291.742 273.631 C 291.411 273.642,290.330 273.831,289.339 274.052 M155.931 274.700 C 180.004 274.742,219.396 274.742,243.468 274.700 C 267.541 274.657,247.845 274.623,199.700 274.623 C 151.554 274.623,131.858 274.657,155.931 274.700 " stroke="none" fill="#b8eff9" fill-rule="evenodd"></path><path id="path5" d="M112.087 26.033 C 112.376 26.108,112.849 26.108,113.138 26.033 C 113.427 25.957,113.191 25.895,112.613 25.895 C 112.035 25.895,111.798 25.957,112.087 26.033 M285.661 26.033 C 285.950 26.108,286.423 26.108,286.712 26.033 C 287.001 25.957,286.764 25.895,286.186 25.895 C 285.608 25.895,285.372 25.957,285.661 26.033 M93.168 32.467 C 92.145 33.122,91.813 33.563,92.718 33.066 C 93.407 32.687,94.486 31.852,94.294 31.846 C 94.212 31.844,93.705 32.123,93.168 32.467 M88.572 35.844 C 87.508 36.730,86.299 37.837,85.886 38.305 C 85.473 38.772,86.081 38.327,87.237 37.316 C 88.393 36.304,89.677 35.201,90.090 34.865 C 90.503 34.529,90.766 34.250,90.674 34.244 C 90.582 34.239,89.636 34.959,88.572 35.844 M312.012 37.020 C 312.012 37.065,313.059 38.112,314.339 39.347 L 316.667 41.592 314.422 39.264 C 312.337 37.103,312.012 36.800,312.012 37.020 M82.374 42.117 C 81.788 42.764,80.473 44.756,80.838 44.444 C 81.126 44.199,83.188 41.441,83.083 41.441 C 83.031 41.441,82.712 41.745,82.374 42.117 M317.549 43.042 C 318.011 43.648,318.450 44.144,318.525 44.144 C 318.733 44.144,317.433 42.387,317.049 42.150 C 316.861 42.034,317.086 42.435,317.549 43.042 M326.309 61.111 C 326.556 62.215,326.728 62.455,326.722 61.687 C 326.720 61.370,326.580 60.908,326.413 60.661 C 326.190 60.332,326.162 60.453,326.309 61.111 M72.490 69.970 C 72.490 72.200,72.537 73.112,72.595 71.997 C 72.653 70.882,72.653 69.058,72.595 67.943 C 72.537 66.828,72.490 67.740,72.490 69.970 M327.409 67.568 C 327.409 68.311,327.468 68.615,327.539 68.243 C 327.611 67.872,327.611 67.264,327.539 66.892 C 327.468 66.520,327.409 66.824,327.409 67.568 M196.246 71.471 L 195.646 71.730 196.246 71.730 C 196.577 71.730,197.117 71.613,197.447 71.471 L 198.048 71.213 197.447 71.213 C 197.117 71.213,196.577 71.330,196.246 71.471 M202.402 71.471 C 202.815 71.604,203.423 71.716,203.754 71.721 L 204.354 71.730 203.754 71.471 C 203.423 71.330,202.815 71.217,202.402 71.222 L 201.652 71.231 202.402 71.471 M193.544 72.488 C 192.718 72.879,191.502 73.700,190.841 74.314 L 189.640 75.430 190.902 74.487 C 191.597 73.969,192.948 73.147,193.905 72.662 C 195.979 71.610,195.691 71.472,193.544 72.488 M205.105 72.199 C 205.942 72.703,206.600 72.835,206.141 72.406 C 205.984 72.260,205.518 72.051,205.105 71.943 L 204.354 71.747 205.105 72.199 M207.357 73.307 C 208.629 74.262,213.364 78.951,242.555 108.158 C 256.724 122.335,268.411 133.934,268.527 133.934 C 268.980 133.934,208.457 73.691,207.488 73.177 L 206.456 72.630 207.357 73.307 M200.300 74.160 C 201.704 74.293,203.123 74.506,203.453 74.633 C 203.929 74.815,203.981 74.784,203.702 74.482 C 203.480 74.242,202.318 74.067,200.549 74.009 L 197.748 73.917 200.300 74.160 M196.246 74.474 C 196.027 74.830,196.321 74.830,197.147 74.474 C 197.726 74.226,197.724 74.216,197.090 74.195 C 196.728 74.184,196.348 74.309,196.246 74.474 M193.694 75.653 C 192.310 76.541,125.526 143.190,125.526 143.683 C 125.526 143.833,140.676 128.786,159.194 110.245 C 177.711 91.705,193.488 76.141,194.254 75.661 C 195.019 75.180,195.511 74.786,195.345 74.786 C 195.180 74.786,194.437 75.176,193.694 75.653 M205.405 75.522 C 206.149 75.955,209.122 78.633,212.012 81.473 L 217.267 86.637 212.162 81.436 C 206.791 75.965,206.019 75.283,204.805 74.944 C 204.379 74.825,204.640 75.076,205.405 75.522 M183.934 81.081 C 180.964 84.054,178.613 86.486,178.708 86.486 C 178.803 86.486,181.234 84.114,184.110 81.214 C 190.246 75.027,189.620 75.676,189.461 75.676 C 189.391 75.676,186.903 78.108,183.934 81.081 M172.820 92.267 L 167.417 97.748 172.898 92.345 C 177.990 87.326,178.514 86.787,178.300 86.787 C 178.257 86.787,175.791 89.253,172.820 92.267 M222.673 92.192 C 225.642 95.165,228.139 97.598,228.222 97.598 C 228.305 97.598,225.943 95.165,222.973 92.192 C 220.003 89.219,217.506 86.787,217.424 86.787 C 217.341 86.787,219.703 89.219,222.673 92.192 M163.809 101.276 L 160.511 104.655 163.889 101.356 C 167.027 98.293,167.404 97.898,167.187 97.898 C 167.143 97.898,165.623 99.418,163.809 101.276 M246.697 116.216 C 256.771 126.291,265.081 134.535,265.163 134.535 C 265.246 134.535,257.071 126.291,246.997 116.216 C 236.923 106.141,228.613 97.898,228.530 97.898 C 228.448 97.898,236.623 106.141,246.697 116.216 M154.802 110.280 C 150.703 114.435,150.341 114.852,153.303 112.007 C 157.164 108.300,160.574 104.805,160.330 104.805 C 160.261 104.805,157.773 107.269,154.802 110.280 M145.345 119.670 C 143.286 121.734,141.673 123.423,141.761 123.423 C 141.849 123.423,142.860 122.491,144.008 121.352 C 147.356 118.031,149.390 115.916,149.234 115.916 C 149.155 115.916,147.405 117.605,145.345 119.670 M132.236 132.808 C 127.263 137.804,123.032 142.230,122.834 142.643 C 122.582 143.169,122.722 143.079,123.301 142.342 C 123.756 141.764,127.990 137.401,132.710 132.647 C 142.418 122.867,141.583 123.724,141.410 123.724 C 141.337 123.724,137.209 127.812,132.236 132.808 M272.571 138.213 C 275.546 141.243,276.708 142.658,277.443 144.144 C 277.974 145.218,278.319 145.758,278.209 145.345 C 277.734 143.553,276.316 141.630,272.834 138.054 C 270.789 135.953,269.015 134.234,268.891 134.234 C 268.767 134.234,270.423 136.025,272.571 138.213 M269.820 139.339 C 272.288 141.899,274.369 144.062,274.444 144.144 C 274.519 144.227,274.296 143.889,273.947 143.393 C 273.599 142.898,271.519 140.736,269.323 138.589 L 265.332 134.685 269.820 139.339 M121.971 144.307 C 121.468 145.411,121.564 145.647,122.108 144.643 C 122.362 144.174,122.513 143.735,122.445 143.666 C 122.376 143.597,122.163 143.886,121.971 144.307 M121.226 146.061 C 121.113 146.355,121.030 146.821,121.040 147.097 C 121.053 147.428,121.157 147.353,121.349 146.873 C 121.508 146.474,121.592 146.008,121.535 145.837 C 121.478 145.666,121.339 145.767,121.226 146.061 M124.215 146.180 C 124.122 146.330,123.971 147.049,123.880 147.776 L 123.713 149.099 124.142 147.598 C 124.552 146.166,124.581 145.588,124.215 146.180 M278.404 146.697 C 278.395 147.027,278.519 147.500,278.679 147.748 C 279.064 148.345,279.064 147.594,278.679 146.697 L 278.421 146.096 278.404 146.697 M275.556 147.347 C 275.832 148.498,275.976 148.607,275.976 147.665 C 275.976 147.235,275.835 146.795,275.664 146.689 C 275.459 146.563,275.422 146.789,275.556 147.347 M120.822 150.150 C 120.822 151.389,120.875 151.896,120.939 151.276 C 121.004 150.657,121.004 149.643,120.939 149.024 C 120.875 148.405,120.822 148.911,120.822 150.150 M276.069 150.300 C 276.071 151.291,276.127 151.660,276.194 151.121 C 276.260 150.581,276.259 149.770,276.191 149.319 C 276.122 148.868,276.067 149.309,276.069 150.300 M123.911 152.853 C 124.007 153.596,124.217 154.339,124.376 154.505 C 124.669 154.807,124.498 153.833,123.982 152.252 C 123.819 151.755,123.795 151.958,123.911 152.853 M278.529 152.853 C 278.415 153.372,278.389 153.864,278.471 153.947 C 278.554 154.029,278.715 153.672,278.829 153.153 C 278.943 152.634,278.969 152.142,278.886 152.059 C 278.803 151.977,278.643 152.334,278.529 152.853 M275.711 152.603 C 275.691 152.879,275.598 153.352,275.503 153.654 C 275.339 154.176,275.348 154.176,275.673 153.669 C 275.862 153.375,275.955 152.902,275.881 152.618 C 275.759 152.153,275.742 152.152,275.711 152.603 M121.047 153.303 C 121.038 153.634,121.161 154.107,121.321 154.354 C 121.707 154.951,121.707 154.201,121.321 153.303 L 121.063 152.703 121.047 153.303 M274.474 155.731 C 274.010 156.552,262.045 168.744,243.168 187.628 C 226.363 204.440,212.613 218.314,212.613 218.459 C 212.613 219.050,274.359 156.878,274.886 155.756 C 275.641 154.149,275.376 154.133,274.474 155.731 M278.015 154.813 C 277.922 155.139,277.754 155.676,277.643 156.006 C 277.531 156.336,277.659 156.227,277.928 155.763 C 278.197 155.299,278.364 154.762,278.300 154.569 C 278.236 154.377,278.107 154.486,278.015 154.813 M121.793 155.556 C 121.901 155.968,122.109 156.435,122.256 156.592 C 122.685 157.050,122.553 156.392,122.049 155.556 L 121.597 154.805 121.793 155.556 M124.625 155.098 C 124.625 155.857,130.239 161.621,159.227 190.626 C 177.605 209.016,192.845 224.179,193.093 224.323 C 193.341 224.466,178.433 209.492,159.965 191.046 C 141.497 172.600,126.045 156.933,125.627 156.231 C 124.935 155.067,124.625 154.717,124.625 155.098 M276.343 158.183 C 274.757 160.601,208.848 226.201,206.907 227.293 C 205.998 227.804,205.403 228.224,205.584 228.225 C 206.920 228.237,211.761 223.587,242.987 192.301 C 271.274 163.960,278.245 156.757,277.386 156.757 C 277.327 156.757,276.857 157.399,276.343 158.183 M127.193 162.721 C 127.845 163.359,128.441 163.825,128.518 163.758 C 128.674 163.621,126.501 161.562,126.201 161.562 C 126.095 161.562,126.542 162.083,127.193 162.721 M134.007 169.344 C 134.067 169.577,134.447 169.974,134.851 170.226 C 135.425 170.584,135.490 170.589,135.149 170.252 C 134.909 170.014,134.529 169.617,134.304 169.369 C 133.974 169.005,133.917 169.000,134.007 169.344 M139.612 175.075 C 140.403 175.901,141.152 176.577,141.275 176.577 C 141.399 176.577,140.852 175.901,140.061 175.075 C 139.269 174.249,138.521 173.574,138.397 173.574 C 138.273 173.574,138.820 174.249,139.612 175.075 M143.883 179.409 C 144.269 179.810,144.643 180.082,144.713 180.011 C 144.893 179.832,143.812 178.679,143.465 178.679 C 143.309 178.679,143.496 179.007,143.883 179.409 M148.649 184.004 C 148.649 184.153,149.122 184.693,149.700 185.204 C 150.278 185.716,150.751 186.041,150.751 185.926 C 150.751 185.812,150.278 185.272,149.700 184.726 C 149.122 184.181,148.649 183.856,148.649 184.004 M151.051 186.367 C 151.051 186.703,152.253 187.787,152.430 187.610 C 152.496 187.544,152.213 187.173,151.801 186.786 C 151.388 186.398,151.051 186.210,151.051 186.367 M159.760 195.117 C 159.760 195.464,160.913 196.544,161.092 196.365 C 161.163 196.295,160.892 195.921,160.490 195.535 C 160.088 195.148,159.760 194.960,159.760 195.117 M161.562 196.904 C 161.562 197.069,161.832 197.449,162.162 197.748 C 162.492 198.047,162.763 198.156,162.763 197.991 C 162.763 197.826,162.492 197.446,162.162 197.147 C 161.832 196.848,161.562 196.739,161.562 196.904 M163.063 198.420 C 163.063 198.767,164.217 199.848,164.396 199.668 C 164.466 199.598,164.195 199.224,163.793 198.838 C 163.392 198.451,163.063 198.264,163.063 198.420 M165.766 201.123 C 165.766 201.470,166.919 202.550,167.098 202.371 C 167.169 202.301,166.898 201.927,166.496 201.541 C 166.094 201.154,165.766 200.966,165.766 201.123 M168.357 203.854 C 168.996 204.488,169.583 204.954,169.661 204.889 C 169.826 204.753,167.707 202.703,167.401 202.703 C 167.288 202.703,167.718 203.221,168.357 203.854 M170.871 206.228 C 170.871 206.575,172.024 207.655,172.203 207.476 C 172.274 207.406,172.003 207.032,171.601 206.646 C 171.199 206.259,170.871 206.071,170.871 206.228 M174.319 209.904 C 174.961 210.562,175.547 211.040,175.621 210.965 C 175.788 210.798,173.724 208.709,173.393 208.709 C 173.260 208.709,173.677 209.247,174.319 209.904 M176.877 212.234 C 176.877 212.581,178.030 213.661,178.209 213.482 C 178.280 213.412,178.009 213.038,177.607 212.652 C 177.205 212.265,176.877 212.077,176.877 212.234 M179.580 214.932 C 179.580 215.078,180.053 215.656,180.631 216.216 C 181.209 216.777,181.682 217.103,181.682 216.942 C 181.682 216.781,181.209 216.203,180.631 215.657 C 180.053 215.112,179.580 214.786,179.580 214.932 M211.563 219.217 C 211.263 219.549,211.158 219.820,211.328 219.820 C 211.706 219.820,212.455 218.961,212.253 218.760 C 212.174 218.680,211.863 218.886,211.563 219.217 M208.849 221.958 C 207.864 222.969,206.456 224.185,205.722 224.661 C 204.988 225.136,204.538 225.526,204.723 225.526 C 204.908 225.526,205.711 225.032,206.509 224.428 C 208.365 223.023,211.356 220.123,210.952 220.122 C 210.781 220.121,209.835 220.947,208.849 221.958 M185.586 220.991 C 185.586 221.112,186.059 221.630,186.637 222.141 C 187.215 222.653,187.688 222.973,187.688 222.852 C 187.688 222.732,187.215 222.214,186.637 221.703 C 186.059 221.191,185.586 220.871,185.586 220.991 M187.988 223.329 C 187.988 223.664,189.141 224.793,189.282 224.598 C 189.332 224.530,189.060 224.149,188.680 223.751 C 188.299 223.353,187.988 223.164,187.988 223.329 M190.893 226.150 C 191.265 226.601,193.093 227.751,193.093 227.534 C 193.093 227.464,192.519 227.028,191.817 226.565 C 191.115 226.102,190.699 225.916,190.893 226.150 M195.646 228.677 C 196.659 229.155,197.806 229.310,196.997 228.860 C 196.749 228.722,196.141 228.529,195.646 228.431 L 194.745 228.253 195.646 228.677 M203.453 228.670 C 202.793 228.888,202.522 229.074,202.853 229.084 C 203.183 229.094,203.859 228.916,204.354 228.690 C 205.499 228.165,205.016 228.155,203.453 228.670 M199.324 229.341 C 199.696 229.413,200.304 229.413,200.676 229.341 C 201.047 229.269,200.743 229.211,200.000 229.211 C 199.257 229.211,198.953 229.269,199.324 229.341 M72.458 232.583 C 72.461 233.408,72.519 233.711,72.588 233.254 C 72.657 232.798,72.655 232.122,72.584 231.753 C 72.512 231.383,72.456 231.757,72.458 232.583 M327.409 233.033 C 327.409 233.776,327.468 234.080,327.539 233.709 C 327.611 233.337,327.611 232.729,327.539 232.357 C 327.468 231.986,327.409 232.290,327.409 233.033 M325.559 242.075 C 325.374 242.606,325.275 243.093,325.339 243.157 C 325.404 243.221,325.607 242.840,325.792 242.309 C 325.977 241.778,326.076 241.291,326.012 241.227 C 325.948 241.163,325.744 241.545,325.559 242.075 M86.474 262.538 C 87.718 263.863,87.988 264.102,87.988 263.876 C 87.988 263.828,87.346 263.186,86.562 262.450 L 85.135 261.111 86.474 262.538 M88.696 264.496 C 88.934 264.881,90.691 266.181,90.691 265.972 C 90.691 265.898,90.195 265.459,89.588 264.996 C 88.982 264.534,88.581 264.309,88.696 264.496 M111.486 274.381 C 111.776 274.457,112.248 274.457,112.538 274.381 C 112.827 274.306,112.590 274.244,112.012 274.244 C 111.434 274.244,111.197 274.306,111.486 274.381 " stroke="none" fill="#9cc4cc" fill-rule="evenodd"></path><path id="path6" d="M111.261 25.428 C 109.723 25.531,106.650 26.172,104.148 26.911 C 103.374 27.140,102.522 27.327,102.256 27.327 C 101.605 27.327,99.898 28.226,100.123 28.451 C 100.221 28.549,100.605 28.484,100.976 28.306 C 101.845 27.889,104.492 27.077,106.102 26.733 C 106.793 26.585,107.965 26.287,108.709 26.070 C 109.811 25.748,126.528 25.676,199.550 25.677 L 289.039 25.678 292.421 26.596 C 294.281 27.101,295.700 27.415,295.574 27.293 C 295.448 27.171,293.994 26.691,292.342 26.226 L 289.339 25.379 201.051 25.353 C 152.492 25.339,112.087 25.373,111.261 25.428 M297.557 28.090 C 298.830 28.643,299.115 28.635,298.366 28.069 C 298.045 27.826,297.505 27.633,297.165 27.639 C 296.709 27.648,296.812 27.766,297.557 28.090 M96.491 29.881 C 93.957 31.138,92.565 32.132,93.339 32.132 C 93.515 32.132,93.744 31.993,93.849 31.823 C 93.954 31.653,95.347 30.849,96.945 30.037 C 98.543 29.224,99.707 28.552,99.533 28.544 C 99.359 28.535,97.990 29.137,96.491 29.881 M301.990 30.002 C 303.663 30.810,305.124 31.619,305.236 31.801 C 305.349 31.983,305.597 32.132,305.788 32.132 C 306.008 32.132,305.974 31.971,305.695 31.692 C 305.179 31.176,299.823 28.527,299.304 28.531 C 299.109 28.532,300.318 29.194,301.990 30.002 M91.564 32.881 C 91.001 33.296,90.304 33.718,90.015 33.820 C 89.726 33.921,89.489 34.113,89.489 34.246 C 89.489 34.379,89.050 34.634,88.514 34.813 C 87.949 35.000,87.221 35.605,86.787 36.245 C 86.374 36.855,85.584 37.766,85.030 38.271 C 84.477 38.776,83.882 39.459,83.707 39.790 C 83.532 40.120,84.470 39.309,85.792 37.988 C 87.734 36.046,89.630 34.559,92.768 32.514 C 92.837 32.469,92.824 32.364,92.740 32.280 C 92.657 32.196,92.127 32.467,91.564 32.881 M307.808 33.156 C 307.808 33.235,308.585 33.857,309.535 34.536 C 310.484 35.216,312.173 36.648,313.288 37.718 C 314.403 38.788,315.315 39.573,315.315 39.461 C 315.315 39.350,314.640 38.594,313.814 37.781 C 312.988 36.968,312.312 36.178,312.312 36.024 C 312.312 35.871,311.646 35.408,310.832 34.996 C 310.018 34.583,309.267 34.109,309.164 33.941 C 308.951 33.597,307.808 32.935,307.808 33.156 M315.624 39.814 C 315.629 39.966,316.252 40.757,317.010 41.573 C 317.767 42.388,318.865 43.775,319.449 44.655 C 320.033 45.535,320.580 46.187,320.664 46.102 C 320.748 46.018,320.609 45.712,320.354 45.422 C 320.099 45.132,319.803 44.625,319.696 44.294 C 319.480 43.631,315.611 39.373,315.624 39.814 M81.971 41.787 C 80.665 43.353,80.413 44.061,81.668 42.643 C 82.561 41.633,83.309 40.541,83.108 40.541 C 83.055 40.541,82.544 41.102,81.971 41.787 M78.856 45.999 C 78.098 47.184,77.485 48.299,77.495 48.477 C 77.505 48.654,77.674 48.541,77.871 48.226 C 78.067 47.911,78.791 46.796,79.478 45.749 C 80.165 44.701,80.617 43.844,80.481 43.844 C 80.346 43.844,79.615 44.814,78.856 45.999 M76.615 50.005 C 76.231 50.565,75.972 51.189,76.039 51.391 C 76.106 51.592,76.454 51.166,76.811 50.445 C 77.611 48.826,77.537 48.659,76.615 50.005 M322.542 49.700 C 322.542 49.865,322.740 50.262,322.983 50.583 C 323.225 50.904,323.423 51.031,323.423 50.866 C 323.423 50.700,323.225 50.303,322.983 49.982 C 322.740 49.662,322.542 49.535,322.542 49.700 M323.423 51.446 C 323.423 51.563,323.554 51.894,323.713 52.181 C 324.317 53.267,325.193 55.480,325.824 57.508 C 326.719 60.388,326.752 60.434,326.587 58.581 C 326.507 57.685,326.332 56.874,326.196 56.779 C 326.061 56.684,325.505 55.526,324.960 54.204 C 324.063 52.029,323.423 50.880,323.423 51.446 M75.066 53.770 C 74.884 54.110,74.780 54.521,74.835 54.684 C 74.889 54.847,75.089 54.570,75.279 54.067 C 75.673 53.022,75.555 52.857,75.066 53.770 M74.252 56.029 C 74.066 56.512,73.838 57.211,73.744 57.583 C 73.650 57.954,73.492 58.545,73.391 58.896 C 73.283 59.276,73.328 59.461,73.502 59.354 C 73.663 59.254,73.886 58.602,73.998 57.904 C 74.109 57.207,74.343 56.465,74.516 56.256 C 74.690 56.047,74.777 55.713,74.711 55.514 C 74.644 55.315,74.438 55.547,74.252 56.029 M72.885 60.623 C 72.768 61.181,72.687 61.991,72.706 62.425 C 72.727 62.945,72.830 62.753,73.008 61.862 C 73.157 61.119,73.237 60.308,73.187 60.060 C 73.137 59.812,73.001 60.066,72.885 60.623 M326.787 60.811 C 326.787 61.141,326.895 61.749,327.027 62.162 C 327.217 62.757,327.267 62.788,327.267 62.312 C 327.267 61.982,327.159 61.374,327.027 60.961 C 326.837 60.366,326.787 60.335,326.787 60.811 M71.961 65.240 C 71.715 66.157,71.781 234.503,72.027 235.378 C 72.134 235.760,72.222 197.482,72.222 150.318 C 72.222 103.154,72.204 64.565,72.182 64.565 C 72.160 64.565,72.061 64.869,71.961 65.240 M327.778 150.491 C 327.778 197.440,327.863 235.454,327.967 234.968 C 328.219 233.795,328.225 66.716,327.973 65.823 C 327.866 65.442,327.778 103.542,327.778 150.491 M72.706 238.138 C 72.644 239.931,75.132 247.791,75.610 247.313 C 75.670 247.253,75.507 246.792,75.247 246.289 C 74.987 245.786,74.775 245.125,74.775 244.820 C 74.775 244.514,74.623 244.113,74.439 243.928 C 74.254 243.743,73.975 243.007,73.819 242.291 C 72.925 238.190,72.729 237.460,72.706 238.138 M327.064 237.988 C 327.039 238.318,326.949 238.926,326.864 239.339 L 326.710 240.090 327.031 239.353 C 327.208 238.948,327.298 238.340,327.231 238.002 C 327.112 237.403,327.108 237.403,327.064 237.988 M326.023 242.153 C 325.898 242.626,325.868 243.085,325.954 243.172 C 326.196 243.413,326.492 242.446,326.363 241.834 C 326.279 241.434,326.189 241.518,326.023 242.153 M325.379 244.197 C 322.896 252.803,314.761 262.972,306.221 268.142 C 304.535 269.163,299.170 271.770,298.730 271.782 C 298.344 271.793,296.697 272.642,297.024 272.662 C 297.525 272.692,302.158 270.917,302.618 270.518 C 302.912 270.263,303.592 269.908,304.128 269.728 C 307.679 268.538,316.940 260.191,320.186 255.255 C 323.034 250.925,326.251 244.169,325.718 243.636 C 325.642 243.560,325.490 243.813,325.379 244.197 M75.677 247.983 C 75.675 248.467,77.175 251.454,77.338 251.291 C 77.403 251.225,77.057 250.367,76.568 249.384 C 76.078 248.402,75.677 247.771,75.677 247.983 M77.477 251.830 C 77.477 254.914,90.878 268.354,95.377 269.782 C 95.714 269.889,96.251 270.212,96.569 270.499 C 97.154 271.027,102.038 272.837,102.266 272.609 C 102.333 272.542,101.690 272.235,100.835 271.927 C 92.844 269.054,84.771 262.589,79.845 255.118 C 78.543 253.143,77.477 251.663,77.477 251.830 M295.330 272.931 C 295.018 273.213,292.683 273.747,289.189 274.333 C 287.332 274.645,287.159 274.717,288.202 274.743 C 288.898 274.761,290.655 274.492,292.106 274.147 C 294.790 273.508,296.925 272.727,296.081 272.692 C 295.825 272.681,295.487 272.789,295.330 272.931 M106.607 274.041 C 108.065 274.455,109.867 274.751,110.811 274.731 L 112.462 274.696 110.511 274.459 C 109.437 274.329,107.753 274.009,106.769 273.748 C 105.784 273.487,104.771 273.283,104.516 273.295 C 104.262 273.306,105.203 273.642,106.607 274.041 M155.907 275.000 C 179.801 275.042,218.990 275.042,242.994 275.000 C 266.997 274.958,247.447 274.923,199.550 274.923 C 151.652 274.923,132.012 274.958,155.907 275.000 " stroke="none" fill="#cffbfc" fill-rule="evenodd"></path></g></svg>