<svg id="svg" version="1.1" xmlns="http://www.w3.org/2000/svg" xmlns:xlink="http://www.w3.org/1999/xlink" width="400" height="256.390977443609" viewBox="0, 0, 400,256.390977443609"><g id="svgg"><path id="path0" d="M0.000 128.205 L 0.000 256.410 200.000 256.410 L 400.000 256.410 400.000 128.205 L 400.000 0.000 200.000 0.000 L 0.000 0.000 0.000 128.205 M55.008 90.907 C 75.638 95.169,84.973 117.853,73.442 135.701 C 72.097 137.782,67.799 142.163,66.336 142.943 C 65.175 143.562,65.175 143.576,66.262 146.359 C 70.203 156.444,70.203 156.439,66.007 156.622 C 61.358 156.825,60.798 156.553,59.645 153.531 C 59.255 152.506,58.782 151.321,58.596 150.897 C 58.410 150.474,58.044 149.514,57.783 148.762 L 57.308 147.396 56.282 147.516 C 55.718 147.583,54.391 147.777,53.333 147.949 C 44.769 149.341,34.761 145.904,28.585 139.450 C 12.894 123.052,21.339 95.561,43.462 91.027 C 44.308 90.853,45.115 90.676,45.256 90.632 C 46.142 90.359,53.337 90.562,55.008 90.907 M180.571 92.143 C 181.300 93.046,181.305 93.259,181.228 120.043 L 181.154 145.856 180.532 146.518 C 179.595 147.515,174.182 147.539,173.193 146.550 L 172.564 145.921 172.564 119.405 C 172.564 88.068,172.084 91.599,176.358 91.477 C 179.662 91.383,180.002 91.437,180.571 92.143 M45.513 98.950 C 34.164 101.145,26.357 115.490,30.778 126.026 C 30.897 126.308,31.072 126.827,31.168 127.179 C 31.734 129.257,34.644 133.739,36.330 135.128 C 40.761 138.780,43.830 139.872,49.667 139.872 C 53.927 139.872,54.443 139.724,53.895 138.659 C 53.730 138.339,53.306 137.298,52.953 136.345 C 51.808 133.254,49.992 128.603,49.721 128.064 C 48.612 125.866,49.527 125.023,53.140 124.912 C 57.960 124.763,57.901 124.714,60.212 130.769 C 60.777 132.250,61.455 133.964,61.718 134.577 L 62.196 135.693 63.552 134.223 C 72.452 124.574,70.399 107.747,59.536 101.293 C 55.893 99.129,49.828 98.116,45.513 98.950 M148.087 108.592 C 150.269 109.144,153.051 110.609,154.685 112.065 L 156.092 113.319 156.211 111.872 C 156.402 109.569,156.967 109.231,160.620 109.231 C 163.411 109.231,163.545 109.256,164.196 109.907 L 164.872 110.583 164.872 128.288 L 164.872 145.993 164.314 146.586 C 163.792 147.142,163.565 147.179,160.677 147.179 C 156.764 147.179,156.410 146.951,156.410 144.421 L 156.410 142.777 154.855 144.185 C 145.801 152.378,128.967 146.929,125.885 134.808 C 125.751 134.279,125.504 133.356,125.337 132.756 C 124.865 131.062,124.955 124.493,125.470 123.077 C 125.701 122.442,125.896 121.750,125.902 121.538 C 125.909 121.327,126.138 120.692,126.410 120.128 C 126.683 119.564,126.910 119.007,126.914 118.891 C 126.960 117.786,130.993 113.060,133.168 111.564 C 137.421 108.638,143.492 107.429,148.087 108.592 M211.282 108.830 C 214.842 109.773,218.974 112.293,218.974 113.521 C 218.974 114.336,216.135 118.271,215.258 118.671 C 214.679 118.935,214.356 118.850,212.619 117.981 C 202.951 113.139,194.338 118.622,194.946 129.231 C 195.078 131.541,195.272 132.276,196.404 134.757 C 198.845 140.107,205.924 141.886,212.063 138.692 C 214.850 137.241,215.595 137.551,218.073 141.197 C 219.418 143.175,219.137 143.894,216.397 145.500 C 210.390 149.021,201.837 149.116,195.656 145.732 C 182.135 138.329,182.939 116.598,196.977 110.035 C 198.524 109.312,199.102 109.122,201.795 108.458 C 203.273 108.093,209.410 108.334,211.282 108.830 M244.744 108.689 C 248.183 109.859,249.071 110.237,250.711 111.227 C 263.678 119.058,262.985 139.520,249.537 145.884 C 248.593 146.331,247.636 146.796,247.410 146.917 C 244.525 148.461,235.811 148.465,232.847 146.923 C 232.621 146.805,231.801 146.397,231.026 146.017 C 226.408 143.750,222.143 138.817,221.055 134.485 C 220.914 133.922,220.679 133.000,220.533 132.436 C 220.388 131.872,220.269 129.968,220.269 128.205 C 220.269 126.442,220.388 124.538,220.533 123.974 C 220.679 123.410,220.905 122.529,221.035 122.016 C 221.448 120.390,223.265 117.111,224.732 115.346 C 227.633 111.857,231.663 109.555,236.795 108.454 C 238.093 108.176,243.723 108.343,244.744 108.689 M91.166 109.860 L 91.795 110.490 91.795 121.426 C 91.795 134.929,91.973 135.936,94.817 138.490 C 98.259 141.582,105.039 141.482,108.325 138.291 C 111.072 135.623,111.109 135.417,111.271 121.844 L 111.410 110.227 112.051 109.734 C 113.229 108.830,118.273 109.002,119.250 109.980 L 120.000 110.730 120.000 128.325 L 120.000 145.921 119.371 146.550 C 118.770 147.151,118.597 147.179,115.543 147.179 C 111.719 147.179,111.282 146.905,111.282 144.504 L 111.282 143.179 110.011 144.373 C 102.865 151.081,89.234 148.820,85.081 140.236 C 83.229 136.408,83.205 136.186,83.205 122.607 L 83.205 110.469 83.925 109.850 C 85.030 108.898,90.211 108.906,91.166 109.860 M281.370 109.516 C 282.044 109.823,282.244 110.147,283.087 112.308 C 283.390 113.083,283.754 114.006,283.895 114.359 C 284.037 114.712,285.195 117.769,286.469 121.154 C 287.743 124.538,288.987 127.827,289.233 128.462 C 289.479 129.096,290.030 130.538,290.457 131.667 C 290.884 132.795,291.370 134.064,291.537 134.487 C 291.825 135.218,292.012 134.796,295.280 126.026 C 297.172 120.949,298.824 116.564,298.950 116.282 C 299.076 116.000,299.620 114.558,300.159 113.077 C 301.561 109.221,301.548 109.229,305.999 109.236 C 309.029 109.241,309.709 109.314,310.192 109.686 C 310.691 110.070,312.548 114.200,312.573 114.980 C 312.578 115.132,312.804 115.718,313.077 116.282 C 313.349 116.846,313.576 117.439,313.581 117.599 C 313.586 117.759,313.762 118.221,313.973 118.625 C 314.183 119.028,314.357 119.554,314.357 119.793 C 314.358 120.031,314.465 120.292,314.596 120.372 C 314.726 120.453,314.914 120.892,315.014 121.348 C 315.115 121.804,315.349 122.524,315.535 122.948 C 316.093 124.219,317.610 128.236,318.101 129.744 C 318.354 130.519,318.711 131.442,318.894 131.795 C 319.078 132.147,319.228 132.619,319.229 132.842 C 319.230 133.065,319.317 133.333,319.423 133.437 C 319.529 133.541,319.738 133.985,319.888 134.422 C 320.143 135.165,320.464 134.402,324.724 122.929 C 330.272 107.989,329.402 109.231,334.328 109.231 C 338.916 109.231,338.741 109.098,340.502 113.901 C 341.242 115.916,341.948 117.795,342.073 118.077 C 342.541 119.134,344.664 124.778,344.918 125.641 C 345.063 126.135,345.266 126.654,345.369 126.795 C 345.472 126.936,345.993 128.263,346.526 129.744 C 347.059 131.224,347.655 132.799,347.850 133.244 C 348.045 133.688,348.205 134.236,348.205 134.462 C 348.205 135.620,348.935 134.588,349.638 132.436 C 349.868 131.731,350.434 130.173,350.894 128.974 C 351.355 127.776,352.678 124.199,353.834 121.026 C 354.991 117.853,356.275 114.381,356.687 113.312 C 357.099 112.242,357.436 111.241,357.436 111.088 C 357.436 110.934,357.791 110.454,358.225 110.020 L 359.014 109.231 362.648 109.236 C 365.702 109.241,366.370 109.313,366.834 109.685 C 367.358 110.106,368.462 112.225,368.462 112.810 C 368.462 112.961,368.575 113.284,368.714 113.529 C 368.852 113.774,369.378 115.071,369.883 116.410 C 370.387 117.750,370.959 119.250,371.153 119.744 C 371.346 120.237,371.854 121.564,372.281 122.692 C 374.236 127.856,374.940 129.673,375.277 130.423 C 375.477 130.868,375.641 131.393,375.641 131.590 C 375.641 131.787,375.746 132.058,375.874 132.192 C 376.002 132.326,376.223 132.840,376.365 133.333 C 376.507 133.827,377.218 135.731,377.944 137.564 C 378.670 139.397,379.376 141.267,379.512 141.718 C 379.649 142.169,379.929 142.861,380.135 143.256 C 380.341 143.651,380.510 144.169,380.511 144.408 C 380.512 144.646,380.628 144.913,380.769 145.000 C 381.165 145.245,381.073 146.190,380.601 146.711 C 380.230 147.121,379.742 147.179,376.672 147.179 C 372.415 147.179,372.538 147.266,371.013 143.197 C 369.927 140.298,368.946 137.722,368.332 136.154 C 368.139 135.660,367.614 134.218,367.166 132.949 C 366.717 131.679,366.197 130.295,366.009 129.872 C 365.821 129.449,365.382 128.295,365.033 127.308 C 364.684 126.321,364.150 124.878,363.846 124.103 C 363.541 123.327,363.182 122.321,363.047 121.868 C 362.623 120.446,362.409 120.694,361.163 124.045 C 360.496 125.839,359.745 127.827,359.496 128.462 C 359.246 129.096,357.999 132.385,356.725 135.769 C 355.451 139.154,354.293 142.212,354.152 142.564 C 354.010 142.917,353.640 143.840,353.330 144.615 C 352.329 147.119,352.213 147.179,348.431 147.179 C 344.629 147.179,344.259 146.998,343.464 144.744 C 343.215 144.038,342.856 143.115,342.664 142.692 C 342.291 141.867,339.892 135.546,338.673 132.179 C 338.265 131.051,337.762 129.765,337.555 129.320 C 337.349 128.876,337.179 128.384,337.179 128.227 C 337.179 128.070,337.063 127.741,336.921 127.497 C 336.780 127.252,336.152 125.683,335.526 124.011 C 334.417 121.045,334.195 120.571,334.015 120.791 C 333.967 120.849,333.318 122.571,332.574 124.615 C 331.829 126.660,331.074 128.679,330.896 129.103 C 330.717 129.526,329.907 131.660,329.095 133.846 C 327.098 139.220,327.026 139.413,326.402 141.026 C 326.102 141.801,325.747 142.805,325.612 143.256 C 325.478 143.707,325.199 144.400,324.993 144.795 C 324.787 145.190,324.618 145.649,324.617 145.815 C 324.612 146.804,323.343 147.179,320.000 147.179 C 316.194 147.179,315.715 146.964,314.993 144.933 C 314.755 144.265,314.461 143.487,314.339 143.205 C 314.217 142.923,313.955 142.231,313.757 141.667 C 313.560 141.103,313.029 139.660,312.578 138.462 C 312.127 137.263,311.647 135.913,311.512 135.462 C 311.376 135.011,311.097 134.318,310.891 133.923 C 310.685 133.528,310.515 133.026,310.514 132.808 C 310.514 132.589,310.410 132.301,310.284 132.167 C 310.159 132.033,309.762 131.058,309.403 130.000 C 309.044 128.942,308.505 127.442,308.204 126.667 C 307.904 125.891,307.324 124.344,306.917 123.229 C 306.019 120.771,305.791 120.498,305.435 121.455 C 305.287 121.853,304.941 122.756,304.667 123.462 C 304.393 124.167,303.467 126.590,302.610 128.846 C 299.184 137.866,298.702 139.122,298.476 139.615 C 298.230 140.154,297.332 142.467,296.419 144.913 C 295.637 147.010,295.264 147.181,291.483 147.174 C 287.874 147.167,287.578 147.037,286.812 145.128 C 286.557 144.494,286.250 143.744,286.130 143.462 C 286.010 143.179,285.752 142.487,285.557 141.923 C 285.362 141.359,283.959 137.609,282.440 133.590 C 280.920 129.571,279.347 125.359,278.945 124.231 C 278.542 123.103,278.104 121.949,277.971 121.667 C 277.838 121.385,277.677 120.981,277.613 120.769 C 277.474 120.307,277.834 119.411,273.750 130.385 C 271.966 135.179,270.393 139.303,270.253 139.548 C 270.114 139.793,270.000 140.116,270.000 140.267 C 270.000 140.418,269.771 141.044,269.491 141.659 C 269.211 142.273,268.778 143.440,268.529 144.252 C 267.712 146.918,267.236 147.179,263.191 147.179 C 258.268 147.179,258.161 146.837,261.059 140.335 C 261.323 139.743,261.538 139.086,261.538 138.875 C 261.538 138.664,261.641 138.428,261.766 138.351 C 261.892 138.273,262.069 137.911,262.161 137.546 C 262.253 137.180,262.853 135.535,263.496 133.890 C 264.138 132.244,264.995 130.032,265.399 128.974 C 265.804 127.917,266.554 125.955,267.067 124.615 C 267.580 123.276,268.394 121.141,268.876 119.872 C 269.358 118.603,269.866 117.364,270.004 117.119 C 270.143 116.874,270.256 116.550,270.256 116.400 C 270.256 116.249,270.471 115.642,270.734 115.050 C 270.997 114.458,271.526 113.138,271.910 112.117 C 272.947 109.357,273.185 109.231,277.330 109.231 C 279.287 109.231,281.012 109.352,281.370 109.516 M143.103 116.459 C 137.400 117.250,133.225 122.784,133.662 128.974 C 134.649 142.949,153.268 144.376,156.060 130.691 C 157.771 122.304,151.402 115.308,143.103 116.459 M236.923 116.741 C 225.846 119.884,226.230 137.219,237.436 139.901 C 245.500 141.831,252.519 135.026,251.307 126.453 C 250.298 119.318,243.652 114.831,236.923 116.741 " stroke="none" fill="#fbfbfc" fill-rule="evenodd"></path><path id="path1" d="M46.026 90.924 C 14.830 95.560,11.862 138.781,42.179 146.925 C 45.810 147.901,54.014 148.050,55.657 147.171 C 56.815 146.551,57.426 146.936,58.113 148.718 C 58.467 149.635,58.857 150.615,58.980 150.897 C 59.103 151.179,59.512 152.218,59.888 153.205 C 60.968 156.040,61.273 156.250,64.491 156.369 C 68.720 156.525,69.567 155.867,68.519 153.240 C 67.821 151.489,66.908 149.121,65.787 146.154 L 64.867 143.718 65.474 143.205 C 65.808 142.923,66.895 142.036,67.890 141.235 C 79.169 132.149,81.324 114.518,72.643 102.354 C 66.999 94.443,55.517 89.513,46.026 90.924 M173.437 92.335 C 172.963 92.858,172.949 93.675,172.949 119.409 L 172.949 145.943 173.554 146.433 C 174.480 147.183,179.125 147.153,180.094 146.392 L 180.769 145.860 180.769 119.397 C 180.769 95.862,180.725 92.872,180.370 92.365 C 179.775 91.515,174.201 91.490,173.437 92.335 M55.445 99.074 C 69.891 103.670,74.336 122.752,63.712 134.568 C 62.202 136.248,61.896 136.193,61.124 134.103 C 60.785 133.186,60.398 132.205,60.264 131.923 C 60.130 131.641,59.550 130.199,58.975 128.718 C 57.642 125.281,57.804 125.385,53.720 125.385 C 49.017 125.385,48.948 125.513,51.043 130.385 C 51.164 130.667,51.682 131.994,52.193 133.333 C 52.704 134.673,53.461 136.626,53.875 137.674 C 54.780 139.965,54.806 139.931,51.850 140.237 C 43.954 141.054,37.048 137.877,32.939 131.538 C 31.997 130.084,31.571 129.202,30.488 126.459 C 28.437 121.269,29.618 112.056,32.985 106.978 C 37.776 99.752,47.177 96.444,55.445 99.074 M141.276 108.695 C 136.949 109.304,132.496 111.858,129.612 115.385 C 123.262 123.147,124.150 136.490,131.442 142.881 C 131.967 143.341,132.521 143.837,132.673 143.983 C 137.979 149.085,149.408 148.941,154.814 143.704 C 156.627 141.949,156.667 141.955,156.667 143.986 C 156.667 146.583,157.127 146.923,160.641 146.923 C 163.182 146.923,163.397 146.883,163.986 146.294 L 164.615 145.664 164.615 128.245 C 164.615 107.524,165.094 109.762,160.652 109.720 C 156.901 109.683,156.667 109.845,156.667 112.464 C 156.667 114.460,156.651 114.461,154.723 112.628 C 151.335 109.409,146.419 107.971,141.276 108.695 M203.205 108.742 C 190.729 109.846,183.219 122.894,187.673 135.727 C 191.296 146.165,203.961 150.930,214.744 145.912 C 218.942 143.958,219.261 143.166,216.987 140.336 C 214.949 137.800,214.836 137.767,212.374 138.957 C 203.045 143.469,194.625 138.521,194.514 128.462 C 194.402 118.287,203.223 112.840,212.356 117.445 C 215.040 118.798,215.201 118.758,216.979 116.282 C 218.819 113.720,218.873 113.128,217.372 112.019 C 213.944 109.490,208.634 108.261,203.205 108.742 M235.128 109.215 C 229.258 110.805,225.163 114.268,222.073 120.256 C 219.918 124.433,220.117 132.249,222.502 137.051 C 229.710 151.569,251.045 151.337,257.899 136.667 C 261.561 128.830,259.449 118.485,253.153 113.424 C 252.477 112.881,251.770 112.290,251.582 112.112 C 248.749 109.434,240.006 107.895,235.128 109.215 M84.252 110.029 L 83.563 110.571 83.654 123.170 C 83.755 137.050,83.721 136.737,85.496 140.270 C 89.725 148.691,103.258 150.634,110.026 143.792 C 111.722 142.078,111.795 142.103,111.795 144.387 C 111.795 146.752,112.054 146.923,115.641 146.923 C 117.676 146.923,118.489 146.824,118.917 146.524 L 119.487 146.125 119.487 128.359 C 119.487 107.525,119.871 109.673,116.119 109.525 C 111.443 109.342,111.795 108.397,111.795 121.131 C 111.795 134.578,111.548 135.796,108.206 138.815 C 104.800 141.892,97.885 141.823,94.473 138.678 C 91.629 136.056,91.467 135.174,91.357 121.667 C 91.247 108.246,91.633 109.487,87.570 109.487 C 85.282 109.487,84.852 109.558,84.252 110.029 M273.472 110.064 C 273.109 110.381,272.596 111.218,272.332 111.923 C 271.704 113.600,269.685 118.871,267.765 123.846 C 258.723 147.277,259.097 146.183,259.983 146.658 C 260.881 147.138,266.266 146.994,266.911 146.472 C 267.365 146.104,272.158 133.906,275.902 123.590 C 276.030 123.237,276.362 122.314,276.639 121.538 C 277.449 119.275,277.540 119.402,280.117 126.410 C 280.454 127.327,280.955 128.654,281.231 129.359 C 281.507 130.064,282.853 133.641,284.222 137.308 C 288.166 147.870,287.473 147.022,292.047 146.882 C 295.189 146.786,295.559 146.592,296.130 144.744 C 296.260 144.321,296.959 142.474,297.681 140.641 C 298.885 137.587,299.914 134.908,303.196 126.282 C 303.839 124.590,304.472 122.974,304.601 122.692 C 304.730 122.410,304.968 121.748,305.129 121.222 C 305.409 120.305,305.799 119.816,306.049 120.066 C 306.113 120.130,308.305 125.940,310.919 132.976 C 314.548 142.741,315.830 145.911,316.336 146.366 C 317.300 147.235,323.104 147.136,323.830 146.238 C 324.204 145.775,329.049 133.236,331.838 125.513 C 334.121 119.191,334.179 119.120,335.042 121.606 C 335.348 122.485,335.823 123.782,336.098 124.487 C 336.373 125.192,337.249 127.500,338.044 129.615 C 338.839 131.731,339.601 133.692,339.737 133.974 C 339.873 134.256,340.900 136.927,342.020 139.910 C 344.875 147.513,344.336 146.923,348.430 146.923 C 352.597 146.923,351.214 149.388,359.689 126.859 C 362.050 120.583,362.533 119.670,362.943 120.705 C 363.298 121.601,368.810 136.333,369.494 138.215 C 369.880 139.278,370.498 140.902,370.867 141.825 C 371.237 142.747,371.538 143.586,371.538 143.688 C 371.538 144.221,372.639 146.177,373.134 146.524 C 373.807 146.996,379.190 147.100,380.017 146.658 C 380.781 146.249,379.776 142.332,377.947 138.590 C 377.809 138.308,376.825 135.769,375.760 132.949 C 370.213 118.257,369.241 115.696,368.902 114.872 C 368.698 114.378,368.217 113.135,367.831 112.109 C 366.872 109.559,366.578 109.423,362.259 109.531 C 358.162 109.635,358.567 109.234,356.300 115.436 C 355.357 118.017,354.419 120.561,354.216 121.090 C 354.013 121.619,353.680 122.484,353.477 123.013 C 353.275 123.542,352.151 126.599,350.980 129.808 C 349.808 133.016,348.728 135.641,348.579 135.641 C 348.429 135.641,347.159 132.574,345.756 128.825 C 344.353 125.077,342.998 121.471,342.746 120.813 C 342.493 120.154,342.134 119.212,341.948 118.718 C 338.127 108.576,338.900 109.487,334.120 109.487 C 330.584 109.487,330.075 109.726,329.337 111.734 C 329.091 112.402,328.517 113.929,328.061 115.128 C 327.605 116.327,326.813 118.462,326.301 119.872 C 325.789 121.282,325.266 122.667,325.139 122.949 C 324.933 123.406,323.405 127.522,321.237 133.461 C 320.825 134.589,320.398 135.602,320.286 135.714 C 320.019 135.981,319.479 134.627,314.731 121.795 C 312.514 115.801,310.654 110.776,310.598 110.627 C 310.290 109.807,309.007 109.487,306.026 109.487 C 301.633 109.487,302.064 109.019,299.079 117.034 C 297.711 120.710,296.443 124.064,296.263 124.487 C 296.083 124.910,295.448 126.583,294.853 128.205 C 292.372 134.960,292.141 135.513,291.796 135.513 C 291.538 135.513,290.692 133.421,287.080 123.846 C 286.894 123.353,285.730 120.237,284.493 116.923 C 281.598 109.163,281.905 109.487,277.446 109.487 C 274.375 109.487,274.083 109.530,273.472 110.064 M149.298 116.688 C 158.545 120.226,159.172 134.864,150.267 139.319 C 139.653 144.629,129.263 132.956,134.802 121.944 C 137.286 117.007,143.882 114.615,149.298 116.688 M242.251 116.163 C 251.420 117.651,255.079 130.030,248.429 137.062 C 243.196 142.595,233.572 141.343,230.061 134.673 C 225.025 125.106,232.009 114.501,242.251 116.163 " stroke="none" fill="#3655dc" fill-rule="evenodd"></path><path id="path2" d="M172.688 119.231 C 172.688 133.686,172.719 139.599,172.756 132.372 C 172.794 125.144,172.794 113.317,172.756 106.090 C 172.719 98.862,172.688 104.776,172.688 119.231 M29.090 98.782 L 28.077 99.872 29.167 98.858 C 29.766 98.301,30.256 97.810,30.256 97.768 C 30.256 97.574,30.033 97.769,29.090 98.782 M205.069 108.391 C 205.530 108.448,206.222 108.447,206.607 108.388 C 206.992 108.330,206.615 108.283,205.769 108.285 C 204.923 108.286,204.608 108.334,205.069 108.391 M91.656 121.538 C 91.656 127.391,91.689 129.785,91.730 126.859 C 91.772 123.933,91.772 119.144,91.730 116.218 C 91.689 113.292,91.656 115.686,91.656 121.538 M164.737 128.205 C 164.737 137.724,164.769 141.619,164.808 136.859 C 164.847 132.099,164.847 124.311,164.808 119.551 C 164.769 114.792,164.737 118.686,164.737 128.205 M191.525 114.038 L 190.641 115.000 191.603 114.116 C 192.498 113.294,192.682 113.077,192.486 113.077 C 192.443 113.077,192.011 113.510,191.525 114.038 M239.555 140.440 C 239.945 140.499,240.521 140.498,240.837 140.437 C 241.152 140.376,240.833 140.328,240.128 140.330 C 239.423 140.332,239.165 140.381,239.555 140.440 M130.000 141.875 C 130.000 141.919,130.375 142.294,130.833 142.708 L 131.667 143.462 130.914 142.628 C 130.212 141.851,130.000 141.677,130.000 141.875 M114.167 147.113 C 114.978 147.163,116.304 147.163,117.115 147.113 C 117.926 147.062,117.263 147.020,115.641 147.020 C 114.019 147.020,113.356 147.062,114.167 147.113 M159.432 147.112 C 160.177 147.164,161.331 147.164,161.996 147.111 C 162.661 147.059,162.051 147.016,160.641 147.017 C 159.231 147.017,158.687 147.060,159.432 147.112 M175.577 147.112 C 176.317 147.164,177.529 147.164,178.269 147.112 C 179.010 147.060,178.404 147.018,176.923 147.018 C 175.442 147.018,174.837 147.060,175.577 147.112 M261.868 147.113 C 262.684 147.164,263.954 147.163,264.689 147.112 C 265.424 147.060,264.756 147.018,263.205 147.019 C 261.654 147.020,261.052 147.062,261.868 147.113 M290.192 147.112 C 290.933 147.164,292.144 147.164,292.885 147.112 C 293.625 147.060,293.019 147.018,291.538 147.018 C 290.058 147.018,289.452 147.060,290.192 147.112 M318.526 147.113 C 319.337 147.163,320.663 147.163,321.474 147.113 C 322.285 147.062,321.622 147.020,320.000 147.020 C 318.378 147.020,317.715 147.062,318.526 147.113 M346.997 147.113 C 347.813 147.164,349.082 147.163,349.817 147.112 C 350.552 147.060,349.885 147.018,348.333 147.019 C 346.782 147.020,346.180 147.062,346.997 147.113 M375.192 147.113 C 376.003 147.163,377.330 147.163,378.141 147.113 C 378.952 147.062,378.288 147.020,376.667 147.020 C 375.045 147.020,374.381 147.062,375.192 147.113 M48.392 148.134 C 48.847 148.190,49.655 148.191,50.187 148.136 C 50.719 148.080,50.346 148.034,49.359 148.033 C 48.372 148.032,47.937 148.077,48.392 148.134 M143.397 148.132 C 143.785 148.191,144.420 148.191,144.808 148.132 C 145.196 148.074,144.878 148.026,144.103 148.026 C 143.327 148.026,143.010 148.074,143.397 148.132 M239.428 148.135 C 239.889 148.192,240.581 148.190,240.966 148.132 C 241.351 148.073,240.974 148.027,240.128 148.028 C 239.282 148.030,238.967 148.077,239.428 148.135 " stroke="none" fill="#a8b7ef" fill-rule="evenodd"></path><path id="path3" d="M48.526 90.700 C 49.054 90.755,49.920 90.755,50.449 90.700 C 50.978 90.644,50.545 90.599,49.487 90.599 C 48.429 90.599,47.997 90.644,48.526 90.700 M41.923 91.538 C 41.270 91.819,41.944 91.819,42.821 91.538 C 43.336 91.373,43.361 91.332,42.949 91.326 C 42.667 91.321,42.205 91.417,41.923 91.538 M56.154 91.538 C 57.031 91.819,57.705 91.819,57.051 91.538 C 56.769 91.417,56.308 91.321,56.026 91.326 C 55.613 91.332,55.639 91.373,56.154 91.538 M175.842 91.728 C 176.587 91.780,177.741 91.779,178.406 91.727 C 179.071 91.674,178.462 91.631,177.051 91.632 C 175.641 91.633,175.097 91.676,175.842 91.728 M173.219 92.293 C 172.971 92.567,172.828 92.942,172.902 93.126 C 173.006 93.384,173.041 93.378,173.057 93.097 C 173.068 92.897,173.268 92.522,173.501 92.264 C 173.735 92.006,173.868 91.795,173.797 91.795 C 173.727 91.795,173.466 92.019,173.219 92.293 M180.893 119.231 C 180.893 133.686,180.924 139.599,180.961 132.372 C 180.999 125.144,180.999 113.317,180.961 106.090 C 180.924 98.862,180.893 104.776,180.893 119.231 M61.816 93.429 C 62.080 93.665,63.590 94.359,63.590 94.244 C 63.590 94.096,62.168 93.333,61.893 93.333 C 61.792 93.333,61.757 93.376,61.816 93.429 M32.752 95.778 C 32.226 96.136,31.795 96.484,31.795 96.551 C 31.795 96.619,32.256 96.369,32.821 95.995 C 33.716 95.402,34.019 95.128,33.777 95.128 C 33.740 95.128,33.278 95.421,32.752 95.778 M67.436 96.747 C 67.436 96.791,67.811 97.166,68.269 97.580 L 69.103 98.333 68.349 97.500 C 67.647 96.723,67.436 96.549,67.436 96.747 M48.526 98.392 C 49.054 98.447,49.920 98.447,50.449 98.392 C 50.978 98.337,50.545 98.291,49.487 98.291 C 48.429 98.291,47.997 98.337,48.526 98.392 M44.615 98.718 C 44.108 98.881,44.081 98.923,44.487 98.923 C 44.769 98.923,45.288 98.831,45.641 98.718 C 46.149 98.555,46.175 98.513,45.769 98.513 C 45.487 98.513,44.968 98.605,44.615 98.718 M53.333 98.718 C 53.686 98.831,54.205 98.923,54.487 98.923 C 54.893 98.923,54.867 98.881,54.359 98.718 C 54.006 98.605,53.487 98.513,53.205 98.513 C 52.799 98.513,52.826 98.555,53.333 98.718 M26.631 101.731 C 25.893 102.621,25.581 103.077,25.707 103.077 C 25.778 103.077,26.145 102.673,26.521 102.179 C 27.220 101.264,27.304 100.918,26.631 101.731 M35.495 103.910 C 34.260 105.206,32.806 106.943,33.617 106.154 C 34.530 105.265,36.992 102.564,36.889 102.564 C 36.828 102.564,36.200 103.170,35.495 103.910 M63.341 103.974 C 64.112 104.821,65.068 105.917,65.465 106.410 C 66.091 107.188,66.080 107.150,65.386 106.130 C 64.946 105.482,63.990 104.385,63.262 103.694 L 61.939 102.436 63.341 103.974 M24.487 104.872 C 24.268 105.295,24.147 105.641,24.218 105.641 C 24.288 105.641,24.525 105.295,24.744 104.872 C 24.962 104.449,25.084 104.103,25.013 104.103 C 24.943 104.103,24.706 104.449,24.487 104.872 M32.039 108.486 C 31.744 109.064,31.547 109.581,31.600 109.635 C 31.654 109.688,31.949 109.216,32.256 108.584 C 32.955 107.146,32.766 107.061,32.039 108.486 M143.529 108.386 C 143.848 108.448,144.309 108.445,144.554 108.381 C 144.799 108.317,144.538 108.267,143.974 108.270 C 143.410 108.273,143.210 108.325,143.529 108.386 M141.346 108.638 C 141.593 108.703,141.997 108.703,142.244 108.638 C 142.490 108.574,142.288 108.521,141.795 108.521 C 141.301 108.521,141.099 108.574,141.346 108.638 M203.401 108.646 C 203.791 108.704,204.368 108.703,204.683 108.642 C 204.998 108.581,204.679 108.533,203.974 108.535 C 203.269 108.537,203.011 108.587,203.401 108.646 M206.731 108.645 C 207.119 108.704,207.753 108.704,208.141 108.645 C 208.529 108.586,208.212 108.538,207.436 108.538 C 206.660 108.538,206.343 108.586,206.731 108.645 M238.919 108.651 C 239.664 108.703,240.818 108.702,241.483 108.650 C 242.148 108.597,241.538 108.555,240.128 108.555 C 238.718 108.556,238.174 108.599,238.919 108.651 M66.941 108.846 C 66.941 108.987,67.106 109.391,67.308 109.744 C 67.509 110.096,67.674 110.269,67.674 110.128 C 67.674 109.987,67.509 109.583,67.308 109.231 C 67.106 108.878,66.941 108.705,66.941 108.846 M199.615 109.231 C 199.292 109.370,199.245 109.451,199.487 109.451 C 199.699 109.451,200.103 109.352,200.385 109.231 C 200.708 109.092,200.755 109.010,200.513 109.010 C 200.301 109.010,199.897 109.110,199.615 109.231 M211.154 109.231 C 211.436 109.352,211.840 109.451,212.051 109.451 C 212.294 109.451,212.246 109.370,211.923 109.231 C 211.641 109.110,211.237 109.010,211.026 109.010 C 210.783 109.010,210.831 109.092,211.154 109.231 M234.359 109.242 C 234.078 109.433,234.182 109.456,234.744 109.331 C 235.686 109.120,235.891 108.973,235.235 108.978 C 234.965 108.980,234.571 109.099,234.359 109.242 M159.944 109.677 C 160.690 109.728,161.843 109.728,162.509 109.675 C 163.174 109.623,162.564 109.580,161.154 109.581 C 159.744 109.581,159.199 109.625,159.944 109.677 M280.791 109.551 C 280.849 109.587,281.244 109.904,281.667 110.256 L 282.436 110.897 281.814 110.192 C 281.472 109.804,281.078 109.487,280.938 109.487 C 280.798 109.487,280.732 109.516,280.791 109.551 M329.895 110.276 C 329.529 110.710,329.231 111.200,329.232 111.366 C 329.232 111.531,329.455 111.302,329.727 110.856 C 329.999 110.410,330.431 109.923,330.688 109.774 C 330.944 109.625,331.020 109.499,330.856 109.495 C 330.692 109.491,330.260 109.842,329.895 110.276 M156.809 110.313 C 156.558 110.673,156.410 111.442,156.410 112.392 L 156.410 113.901 154.860 112.466 C 154.008 111.677,153.056 110.908,152.745 110.758 C 152.414 110.598,152.498 110.724,152.949 111.062 C 153.372 111.380,154.283 112.194,154.973 112.871 C 156.577 114.446,156.667 114.426,156.667 112.493 C 156.667 111.451,156.807 110.682,157.066 110.313 C 157.285 110.000,157.407 109.744,157.337 109.744 C 157.266 109.744,157.029 110.000,156.809 110.313 M338.798 110.748 C 339.103 111.304,339.391 111.720,339.438 111.673 C 339.563 111.549,338.767 110.061,338.483 109.885 C 338.352 109.804,338.494 110.193,338.798 110.748 M358.048 110.393 C 357.814 110.750,357.669 111.088,357.726 111.145 C 357.783 111.202,358.025 110.910,358.262 110.496 C 358.791 109.574,358.634 109.498,358.048 110.393 M111.656 110.577 C 111.588 110.753,111.563 115.686,111.600 121.539 L 111.667 132.179 111.795 121.218 C 111.865 115.189,111.891 110.256,111.851 110.256 C 111.811 110.256,111.723 110.401,111.656 110.577 M91.399 121.026 C 91.399 126.878,91.433 129.272,91.474 126.346 C 91.515 123.420,91.515 118.631,91.474 115.705 C 91.433 112.779,91.399 115.173,91.399 121.026 M194.719 111.499 C 193.886 112.042,192.974 112.749,192.692 113.071 C 192.410 113.393,192.940 113.094,193.869 112.405 C 194.799 111.717,195.780 111.016,196.049 110.848 C 196.318 110.680,196.470 110.536,196.386 110.528 C 196.302 110.520,195.552 110.957,194.719 111.499 M83.451 122.308 C 83.451 128.724,83.485 131.349,83.525 128.141 C 83.566 124.933,83.566 119.683,83.525 116.474 C 83.485 113.266,83.451 115.891,83.451 122.308 M119.608 128.333 C 119.608 138.064,119.640 142.008,119.679 137.097 C 119.718 132.186,119.718 124.224,119.679 119.404 C 119.640 114.585,119.608 118.603,119.608 128.333 M76.959 111.282 C 76.959 111.494,77.058 111.897,77.179 112.179 C 77.318 112.503,77.400 112.550,77.400 112.308 C 77.400 112.096,77.301 111.692,77.179 111.410 C 77.041 111.087,76.959 111.040,76.959 111.282 M227.304 113.042 C 226.460 113.728,225.378 114.795,224.900 115.414 C 224.201 116.319,224.326 116.235,225.541 114.983 C 226.372 114.128,227.513 113.065,228.077 112.620 C 228.641 112.176,229.043 111.808,228.971 111.803 C 228.898 111.799,228.148 112.356,227.304 113.042 M30.128 113.333 C 30.031 113.777,30.005 114.193,30.070 114.258 C 30.135 114.323,30.262 114.008,30.353 113.558 C 30.566 112.489,30.359 112.282,30.128 113.333 M328.490 113.362 C 328.332 113.815,328.248 114.231,328.303 114.285 C 328.357 114.340,328.531 114.014,328.689 113.561 C 328.847 113.108,328.932 112.692,328.877 112.638 C 328.822 112.583,328.648 112.909,328.490 113.362 M129.843 114.796 C 129.299 115.459,128.988 115.919,129.152 115.818 C 129.501 115.602,131.125 113.590,130.950 113.590 C 130.884 113.590,130.386 114.132,129.843 114.796 M253.590 113.670 C 253.590 113.714,253.965 114.089,254.423 114.503 L 255.256 115.256 254.503 114.423 C 253.801 113.646,253.590 113.472,253.590 113.670 M190.881 114.936 L 190.128 115.769 190.962 115.016 C 191.420 114.602,191.795 114.227,191.795 114.183 C 191.795 113.985,191.583 114.159,190.881 114.936 M77.752 115.128 C 77.752 115.622,77.805 115.824,77.869 115.577 C 77.934 115.330,77.934 114.926,77.869 114.679 C 77.805 114.433,77.752 114.635,77.752 115.128 M217.555 115.449 C 217.159 116.048,217.000 116.403,217.200 116.238 C 217.585 115.920,218.567 114.359,218.382 114.359 C 218.322 114.359,217.950 114.849,217.555 115.449 M327.721 115.413 C 327.563 115.866,327.478 116.282,327.533 116.337 C 327.588 116.392,327.762 116.066,327.920 115.613 C 328.078 115.159,328.163 114.744,328.108 114.689 C 328.053 114.634,327.879 114.960,327.721 115.413 M255.753 116.238 C 256.148 116.756,256.523 117.179,256.586 117.179 C 256.764 117.179,255.654 115.680,255.326 115.477 C 255.166 115.378,255.358 115.720,255.753 116.238 M205.325 115.827 C 205.786 115.884,206.478 115.883,206.864 115.824 C 207.249 115.766,206.872 115.719,206.026 115.720 C 205.179 115.722,204.864 115.770,205.325 115.827 M144.299 116.083 C 144.760 116.140,145.453 116.139,145.838 116.081 C 146.223 116.022,145.846 115.975,145.000 115.977 C 144.154 115.978,143.839 116.026,144.299 116.083 M239.555 116.081 C 239.945 116.140,240.521 116.139,240.837 116.078 C 241.152 116.017,240.833 115.969,240.128 115.971 C 239.423 115.973,239.165 116.022,239.555 116.081 M78.004 118.874 C 77.973 120.441,77.894 122.287,77.828 122.977 L 77.706 124.231 77.964 122.999 C 78.106 122.321,78.185 120.475,78.140 118.896 L 78.058 116.026 78.004 118.874 M69.308 117.692 C 69.308 118.468,69.356 118.785,69.414 118.397 C 69.473 118.010,69.473 117.375,69.414 116.987 C 69.356 116.599,69.308 116.917,69.308 117.692 M20.843 117.821 C 20.844 118.526,20.894 118.784,20.953 118.394 C 21.012 118.004,21.011 117.427,20.950 117.112 C 20.889 116.796,20.841 117.115,20.843 117.821 M29.583 119.359 C 29.584 120.910,29.626 121.512,29.677 120.696 C 29.728 119.880,29.728 118.610,29.676 117.875 C 29.624 117.140,29.583 117.808,29.583 119.359 M223.531 117.244 C 222.970 118.108,222.467 119.138,222.748 118.846 C 223.108 118.473,224.165 116.667,224.025 116.667 C 223.959 116.667,223.737 116.926,223.531 117.244 M188.846 117.692 C 188.627 118.115,188.506 118.462,188.577 118.462 C 188.647 118.462,188.884 118.115,189.103 117.692 C 189.321 117.269,189.443 116.923,189.372 116.923 C 189.302 116.923,189.065 117.269,188.846 117.692 M136.965 119.144 L 135.513 120.596 137.051 119.224 C 137.897 118.469,138.638 117.815,138.697 117.772 C 138.755 117.728,138.716 117.692,138.610 117.692 C 138.504 117.692,137.763 118.346,136.965 119.144 M198.067 119.038 L 196.795 120.385 198.141 119.112 C 199.392 117.930,199.605 117.692,199.413 117.692 C 199.373 117.692,198.767 118.298,198.067 119.038 M269.516 118.746 C 269.358 119.200,269.273 119.615,269.328 119.670 C 269.383 119.725,269.557 119.399,269.715 118.946 C 269.873 118.493,269.957 118.077,269.903 118.022 C 269.848 117.967,269.674 118.293,269.516 118.746 M152.308 118.542 C 152.308 118.586,152.683 118.961,153.141 119.375 L 153.974 120.128 153.221 119.295 C 152.519 118.518,152.308 118.344,152.308 118.542 M231.907 119.295 L 231.154 120.128 231.987 119.375 C 232.446 118.961,232.821 118.586,232.821 118.542 C 232.821 118.344,232.609 118.518,231.907 119.295 M313.993 119.744 C 314.087 120.096,314.272 120.558,314.402 120.769 C 314.567 121.037,314.588 120.958,314.468 120.513 C 314.374 120.160,314.190 119.699,314.059 119.487 C 313.894 119.220,313.874 119.298,313.993 119.744 M20.846 120.769 C 20.846 121.545,20.894 121.862,20.953 121.474 C 21.012 121.087,21.012 120.452,20.953 120.064 C 20.894 119.676,20.846 119.994,20.846 120.769 M69.308 120.769 C 69.308 121.545,69.356 121.862,69.414 121.474 C 69.473 121.087,69.473 120.452,69.414 120.064 C 69.356 119.676,69.308 119.994,69.308 120.769 M277.020 120.374 C 276.932 120.604,276.932 120.863,277.020 120.951 C 277.108 121.039,277.179 120.919,277.179 120.684 C 277.179 120.213,277.574 120.105,277.780 120.519 C 277.852 120.664,277.883 120.642,277.849 120.471 C 277.753 119.980,277.196 119.915,277.020 120.374 M305.228 120.925 C 305.016 121.434,304.895 121.903,304.959 121.968 C 305.024 122.033,305.210 121.682,305.373 121.188 C 305.536 120.694,305.808 120.233,305.976 120.165 C 306.195 120.076,306.187 120.035,305.948 120.020 C 305.765 120.009,305.441 120.416,305.228 120.925 M333.362 121.311 C 333.204 121.764,333.119 122.179,333.174 122.234 C 333.229 122.289,333.403 121.963,333.561 121.510 C 333.719 121.057,333.804 120.641,333.749 120.586 C 333.694 120.532,333.520 120.857,333.362 121.311 M361.567 121.823 C 361.409 122.277,361.325 122.692,361.379 122.747 C 361.434 122.802,361.608 122.476,361.766 122.023 C 361.924 121.570,362.009 121.154,361.954 121.099 C 361.899 121.044,361.725 121.370,361.567 121.823 M325.171 122.295 C 325.021 122.725,324.953 123.077,325.020 123.077 C 325.193 123.077,325.677 121.745,325.550 121.618 C 325.491 121.560,325.321 121.864,325.171 122.295 M371.942 122.821 C 372.036 123.173,372.220 123.635,372.351 123.846 C 372.516 124.113,372.536 124.035,372.417 123.590 C 372.323 123.237,372.139 122.776,372.008 122.564 C 371.843 122.297,371.823 122.375,371.942 122.821 M304.345 123.241 C 304.204 123.613,304.136 123.965,304.194 124.023 C 304.252 124.081,304.422 123.777,304.572 123.346 C 304.906 122.390,304.705 122.296,304.345 123.241 M332.593 123.362 C 332.435 123.815,332.350 124.231,332.405 124.285 C 332.460 124.340,332.634 124.014,332.792 123.561 C 332.950 123.108,333.034 122.692,332.980 122.638 C 332.925 122.583,332.751 122.909,332.593 123.362 M21.086 123.590 C 21.086 123.942,21.174 124.577,21.282 125.000 C 21.457 125.686,21.478 125.700,21.478 125.128 C 21.478 124.776,21.390 124.141,21.282 123.718 C 21.107 123.032,21.086 123.018,21.086 123.590 M68.860 123.989 C 68.764 124.503,68.736 124.975,68.799 125.038 C 68.862 125.101,68.992 124.731,69.088 124.217 C 69.185 123.702,69.213 123.230,69.150 123.167 C 69.087 123.104,68.957 123.474,68.860 123.989 M186.538 124.103 C 186.440 124.686,186.413 125.217,186.479 125.282 C 186.545 125.348,186.675 124.921,186.769 124.333 C 186.863 123.746,186.890 123.215,186.829 123.154 C 186.768 123.092,186.637 123.519,186.538 124.103 M360.798 123.875 C 360.640 124.328,360.555 124.743,360.610 124.798 C 360.665 124.853,360.839 124.527,360.997 124.074 C 361.155 123.621,361.239 123.205,361.185 123.150 C 361.130 123.096,360.956 123.421,360.798 123.875 M250.810 123.462 C 250.809 123.603,250.964 124.122,251.154 124.615 C 251.344 125.109,251.503 125.340,251.507 125.128 C 251.512 124.917,251.357 124.397,251.163 123.974 C 250.969 123.551,250.810 123.321,250.810 123.462 M296.197 124.089 C 296.047 124.520,295.979 124.872,296.045 124.872 C 296.218 124.872,296.702 123.540,296.575 123.413 C 296.517 123.355,296.347 123.659,296.197 124.089 M372.711 124.872 C 372.805 125.224,372.989 125.686,373.120 125.897 C 373.285 126.165,373.306 126.087,373.186 125.641 C 373.092 125.288,372.908 124.827,372.777 124.615 C 372.612 124.348,372.592 124.426,372.711 124.872 M52.126 125.319 C 53.084 125.368,54.584 125.368,55.459 125.318 C 56.335 125.268,55.551 125.227,53.718 125.228 C 51.885 125.228,51.168 125.269,52.126 125.319 M125.225 128.205 C 125.225 129.827,125.267 130.490,125.318 129.679 C 125.369 128.869,125.369 127.542,125.318 126.731 C 125.267 125.920,125.225 126.583,125.225 128.205 M133.398 126.538 C 133.401 127.103,133.453 127.303,133.515 126.984 C 133.576 126.665,133.574 126.204,133.510 125.959 C 133.445 125.713,133.395 125.974,133.398 126.538 M323.618 126.439 C 323.460 126.892,323.376 127.308,323.431 127.362 C 323.486 127.417,323.660 127.091,323.818 126.638 C 323.976 126.185,324.060 125.769,324.005 125.715 C 323.950 125.660,323.776 125.986,323.618 126.439 M228.509 128.205 C 228.503 129.545,228.582 130.855,228.685 131.117 C 228.788 131.379,228.831 130.456,228.781 129.066 C 228.658 125.653,228.524 125.226,228.509 128.205 M156.500 128.205 C 156.500 129.404,156.544 129.894,156.598 129.295 C 156.652 128.696,156.652 127.715,156.598 127.115 C 156.544 126.516,156.500 127.006,156.500 128.205 M186.245 128.333 C 186.244 129.603,186.287 130.154,186.341 129.559 C 186.395 128.964,186.396 127.925,186.343 127.251 C 186.290 126.577,186.246 127.064,186.245 128.333 M251.598 126.923 C 251.598 127.417,251.651 127.619,251.715 127.372 C 251.780 127.125,251.780 126.721,251.715 126.474 C 251.651 126.228,251.598 126.429,251.598 126.923 M220.343 128.205 C 220.343 129.263,220.388 129.696,220.443 129.167 C 220.499 128.638,220.499 127.772,220.443 127.244 C 220.388 126.715,220.343 127.147,220.343 128.205 M76.813 127.582 C 76.719 127.958,76.691 128.315,76.752 128.376 C 76.812 128.436,76.939 128.178,77.033 127.802 C 77.127 127.426,77.155 127.070,77.095 127.009 C 77.034 126.949,76.907 127.207,76.813 127.582 M194.436 128.205 C 194.436 128.981,194.484 129.298,194.543 128.910 C 194.601 128.522,194.601 127.888,194.543 127.500 C 194.484 127.112,194.436 127.429,194.436 128.205 M259.813 128.205 C 259.813 128.840,259.863 129.099,259.925 128.782 C 259.986 128.465,259.986 127.946,259.925 127.628 C 259.863 127.311,259.813 127.571,259.813 128.205 M76.182 129.516 C 76.024 129.969,75.940 130.384,75.995 130.439 C 76.050 130.494,76.224 130.168,76.382 129.715 C 76.540 129.262,76.624 128.846,76.569 128.791 C 76.514 128.737,76.340 129.063,76.182 129.516 M133.403 129.744 C 133.403 130.378,133.453 130.638,133.514 130.321 C 133.575 130.003,133.575 129.484,133.514 129.167 C 133.453 128.849,133.403 129.109,133.403 129.744 M251.603 129.615 C 251.606 130.179,251.658 130.380,251.720 130.061 C 251.781 129.742,251.779 129.281,251.715 129.035 C 251.650 128.790,251.600 129.051,251.603 129.615 M194.619 130.662 C 194.621 131.074,194.734 131.583,194.868 131.795 C 195.035 132.057,195.064 131.852,194.956 131.154 C 194.762 129.886,194.614 129.671,194.619 130.662 M51.069 131.039 C 51.219 131.469,51.389 131.773,51.447 131.715 C 51.574 131.588,51.090 130.256,50.917 130.256 C 50.850 130.256,50.919 130.608,51.069 131.039 M59.883 131.090 C 59.979 131.407,60.163 131.779,60.292 131.917 C 60.421 132.055,60.397 131.795,60.238 131.340 C 59.914 130.409,59.614 130.197,59.883 131.090 M375.275 131.538 C 375.369 131.891,375.554 132.353,375.684 132.564 C 375.849 132.831,375.870 132.753,375.750 132.308 C 375.656 131.955,375.472 131.494,375.341 131.282 C 375.176 131.015,375.156 131.093,375.275 131.538 M23.352 131.410 C 23.352 131.551,23.516 131.955,23.718 132.308 C 23.919 132.660,24.084 132.833,24.084 132.692 C 24.084 132.551,23.919 132.147,23.718 131.795 C 23.516 131.442,23.352 131.269,23.352 131.410 M74.923 132.442 C 74.617 133.073,74.419 133.590,74.485 133.590 C 74.659 133.590,75.695 131.507,75.579 131.391 C 75.525 131.337,75.230 131.810,74.923 132.442 M33.584 132.556 C 33.882 132.975,34.257 133.399,34.417 133.498 C 34.577 133.597,34.385 133.254,33.990 132.736 C 33.133 131.612,32.810 131.469,33.584 132.556 M272.080 133.618 C 271.922 134.071,271.837 134.487,271.892 134.542 C 271.947 134.597,272.121 134.271,272.279 133.818 C 272.437 133.365,272.522 132.949,272.467 132.894 C 272.412 132.839,272.238 133.165,272.080 133.618 M376.044 133.590 C 376.139 133.942,376.323 134.404,376.454 134.615 C 376.619 134.883,376.639 134.804,376.520 134.359 C 376.425 134.006,376.241 133.545,376.111 133.333 C 375.945 133.066,375.925 133.144,376.044 133.590 M63.333 134.744 C 62.423 135.683,61.926 135.859,61.708 135.321 C 61.607 135.069,61.575 135.071,61.559 135.329 C 61.509 136.134,62.391 135.934,63.417 134.908 C 64.002 134.324,64.417 133.846,64.341 133.846 C 64.265 133.846,63.812 134.250,63.333 134.744 M339.787 134.628 C 339.937 135.059,340.107 135.363,340.165 135.305 C 340.292 135.178,339.808 133.846,339.635 133.846 C 339.568 133.846,339.637 134.198,339.787 134.628 M230.429 135.320 C 230.677 135.779,231.457 136.702,232.162 137.372 L 233.444 138.590 232.168 137.179 C 231.467 136.404,230.687 135.481,230.435 135.128 C 229.994 134.510,229.994 134.517,230.429 135.320 M283.224 135.128 C 283.318 135.481,283.502 135.942,283.633 136.154 C 283.798 136.421,283.818 136.343,283.699 135.897 C 283.605 135.545,283.421 135.083,283.290 134.872 C 283.125 134.604,283.105 134.683,283.224 135.128 M348.058 134.957 C 348.139 135.215,348.205 135.475,348.205 135.534 C 348.205 135.593,348.378 135.641,348.590 135.641 C 348.801 135.641,348.974 135.519,348.974 135.369 C 348.974 135.220,348.866 135.165,348.734 135.247 C 348.601 135.328,348.362 135.191,348.202 134.941 C 347.927 134.513,347.918 134.514,348.058 134.957 M291.348 135.128 C 291.406 135.340,291.607 135.513,291.795 135.513 C 291.983 135.513,292.184 135.340,292.242 135.128 C 292.335 134.786,292.316 134.786,292.071 135.128 C 291.826 135.470,291.764 135.470,291.519 135.128 C 291.274 134.786,291.255 134.786,291.348 135.128 M376.814 135.641 C 376.908 135.994,377.092 136.455,377.223 136.667 C 377.388 136.934,377.408 136.856,377.289 136.410 C 377.195 136.058,377.011 135.596,376.880 135.385 C 376.715 135.117,376.694 135.196,376.814 135.641 M136.795 137.179 C 137.489 137.885,138.115 138.462,138.186 138.462 C 138.256 138.462,137.746 137.885,137.051 137.179 C 136.357 136.474,135.731 135.897,135.660 135.897 C 135.590 135.897,136.100 136.474,136.795 137.179 M248.067 137.244 L 246.795 138.590 248.141 137.317 C 249.392 136.135,249.605 135.897,249.413 135.897 C 249.373 135.897,248.767 136.503,248.067 137.244 M355.926 136.695 C 355.768 137.148,355.684 137.564,355.738 137.619 C 355.793 137.674,355.967 137.348,356.125 136.895 C 356.283 136.441,356.368 136.026,356.313 135.971 C 356.258 135.916,356.084 136.242,355.926 136.695 M83.882 136.410 C 83.882 136.622,83.981 137.026,84.103 137.308 C 84.241 137.631,84.323 137.678,84.323 137.436 C 84.323 137.224,84.224 136.821,84.103 136.538 C 83.964 136.215,83.882 136.168,83.882 136.410 M152.692 137.379 C 152.128 137.904,151.378 138.541,151.026 138.794 C 150.407 139.237,150.414 139.237,151.223 138.799 C 151.952 138.404,154.150 136.399,153.834 136.417 C 153.770 136.420,153.256 136.853,152.692 137.379 M93.022 137.054 C 93.167 137.338,93.556 137.798,93.887 138.078 C 94.466 138.568,94.465 138.559,93.850 137.819 C 92.829 136.589,92.743 136.510,93.022 137.054 M377.576 137.756 C 377.672 138.074,377.855 138.446,377.985 138.584 C 378.114 138.722,378.089 138.462,377.931 138.007 C 377.606 137.076,377.306 136.864,377.576 137.756 M341.173 138.205 C 341.267 138.558,341.451 139.019,341.582 139.231 C 341.747 139.498,341.767 139.420,341.648 138.974 C 341.554 138.622,341.369 138.160,341.239 137.949 C 341.074 137.681,341.053 137.760,341.173 138.205 M28.974 139.615 C 29.883 140.532,30.684 141.282,30.754 141.282 C 30.825 141.282,30.139 140.532,29.231 139.615 C 28.322 138.699,27.521 137.949,27.451 137.949 C 27.380 137.949,28.066 138.699,28.974 139.615 M213.190 138.347 C 212.700 138.740,212.701 138.742,213.205 138.510 C 213.487 138.381,213.891 138.210,214.103 138.132 C 214.435 138.009,214.433 137.986,214.087 137.969 C 213.868 137.958,213.464 138.128,213.190 138.347 M69.735 139.679 L 68.333 141.154 69.808 139.752 C 71.177 138.450,71.400 138.205,71.209 138.205 C 71.169 138.205,70.506 138.869,69.735 139.679 M312.967 138.974 C 313.062 139.327,313.246 139.788,313.377 140.000 C 313.542 140.267,313.562 140.189,313.443 139.744 C 313.348 139.391,313.164 138.929,313.034 138.718 C 312.869 138.451,312.848 138.529,312.967 138.974 M54.229 139.146 C 54.338 139.545,54.251 139.735,53.921 139.821 C 53.518 139.926,53.515 139.944,53.895 139.970 C 54.488 140.011,54.701 139.584,54.361 139.040 C 54.112 138.644,54.096 138.657,54.229 139.146 M84.634 138.846 C 84.634 138.987,84.798 139.391,85.000 139.744 C 85.202 140.096,85.366 140.269,85.366 140.128 C 85.366 139.987,85.202 139.583,85.000 139.231 C 84.798 138.878,84.634 138.705,84.634 138.846 M200.000 139.100 C 200.000 139.276,201.570 140.054,201.687 139.937 C 201.743 139.881,201.386 139.644,200.894 139.409 C 200.402 139.175,200.000 139.036,200.000 139.100 M128.408 139.615 C 128.554 139.897,129.097 140.590,129.614 141.154 L 130.555 142.179 129.585 140.897 C 128.366 139.286,128.071 138.965,128.408 139.615 M254.504 141.731 C 253.667 142.683,253.361 143.115,253.823 142.692 C 254.627 141.956,256.290 140.000,256.111 140.000 C 256.064 140.000,255.341 140.779,254.504 141.731 M354.387 140.798 C 354.229 141.251,354.145 141.666,354.200 141.721 C 354.255 141.776,354.429 141.450,354.587 140.997 C 354.745 140.544,354.829 140.128,354.774 140.074 C 354.720 140.019,354.545 140.345,354.387 140.798 M49.038 140.433 C 49.285 140.498,49.689 140.498,49.936 140.433 C 50.183 140.369,49.981 140.316,49.487 140.316 C 48.994 140.316,48.792 140.369,49.038 140.433 M144.427 140.697 C 144.816 140.756,145.393 140.754,145.709 140.693 C 146.024 140.632,145.705 140.584,145.000 140.586 C 144.295 140.588,144.037 140.638,144.427 140.697 M204.808 140.701 C 205.407 140.755,206.388 140.755,206.987 140.701 C 207.587 140.647,207.096 140.602,205.897 140.602 C 204.699 140.602,204.208 140.647,204.808 140.701 M226.026 142.308 C 226.576 142.872,227.085 143.333,227.155 143.333 C 227.226 143.333,226.833 142.872,226.282 142.308 C 225.731 141.744,225.223 141.282,225.152 141.282 C 225.082 141.282,225.475 141.744,226.026 142.308 M191.026 141.875 C 191.026 141.919,191.401 142.294,191.859 142.708 L 192.692 143.462 191.939 142.628 C 191.237 141.851,191.026 141.677,191.026 141.875 M110.879 142.879 L 110.385 143.462 110.962 142.973 L 111.538 142.485 111.588 144.255 L 111.637 146.026 111.729 144.385 C 111.835 142.492,111.584 142.046,110.879 142.879 M131.594 143.208 C 132.118 143.757,132.589 144.153,132.639 144.090 C 132.690 144.026,132.261 143.578,131.686 143.093 L 130.641 142.212 131.594 143.208 M156.090 142.478 C 156.294 142.560,156.410 143.143,156.410 144.089 C 156.410 145.525,157.046 146.923,157.699 146.923 C 157.824 146.923,157.642 146.640,157.296 146.294 C 156.756 145.754,156.667 145.426,156.667 143.986 C 156.667 142.551,156.602 142.311,156.218 142.328 C 155.950 142.340,155.898 142.400,156.090 142.478 M314.506 143.077 C 314.600 143.429,314.784 143.891,314.915 144.103 C 315.080 144.370,315.100 144.292,314.981 143.846 C 314.887 143.494,314.703 143.032,314.572 142.821 C 314.407 142.553,314.387 142.631,314.506 143.077 M34.615 143.964 C 34.615 144.034,35.077 144.328,35.641 144.615 C 36.205 144.903,36.667 145.081,36.667 145.010 C 36.667 144.940,36.205 144.647,35.641 144.359 C 35.077 144.071,34.615 143.893,34.615 143.964 M89.147 144.892 C 89.465 145.277,91.026 146.259,91.026 146.074 C 91.026 146.014,90.535 145.642,89.936 145.247 C 89.337 144.852,88.982 144.692,89.147 144.892 M37.436 145.513 C 37.788 145.714,38.192 145.879,38.333 145.879 C 38.474 145.879,38.301 145.714,37.949 145.513 C 37.596 145.311,37.192 145.146,37.051 145.146 C 36.910 145.146,37.083 145.311,37.436 145.513 M151.538 146.026 C 150.904 146.365,150.476 146.649,150.587 146.655 C 150.859 146.671,152.821 145.663,152.821 145.508 C 152.821 145.338,152.831 145.333,151.538 146.026 M163.919 146.333 C 163.607 146.658,163.445 146.923,163.559 146.923 C 163.809 146.923,164.742 145.926,164.592 145.819 C 164.535 145.777,164.232 146.009,163.919 146.333 M231.795 146.282 C 232.147 146.484,232.551 146.648,232.692 146.648 C 232.833 146.648,232.660 146.484,232.308 146.282 C 231.955 146.081,231.551 145.916,231.410 145.916 C 231.269 145.916,231.442 146.081,231.795 146.282 M247.949 146.282 C 247.596 146.484,247.423 146.648,247.564 146.648 C 247.705 146.648,248.109 146.484,248.462 146.282 C 248.814 146.081,248.987 145.916,248.846 145.916 C 248.705 145.916,248.301 146.081,247.949 146.282 M42.436 147.179 C 42.718 147.301,43.122 147.400,43.333 147.400 C 43.576 147.400,43.528 147.318,43.205 147.179 C 42.923 147.058,42.519 146.959,42.308 146.959 C 42.065 146.959,42.113 147.041,42.436 147.179 M55.641 147.191 C 55.360 147.381,55.464 147.405,56.026 147.279 C 56.968 147.069,57.173 146.922,56.517 146.927 C 56.247 146.929,55.853 147.048,55.641 147.191 M234.231 147.179 C 234.513 147.301,234.917 147.400,235.128 147.400 C 235.371 147.400,235.323 147.318,235.000 147.179 C 234.718 147.058,234.314 146.959,234.103 146.959 C 233.860 146.959,233.908 147.041,234.231 147.179 M245.256 147.179 C 244.933 147.318,244.886 147.400,245.128 147.400 C 245.340 147.400,245.744 147.301,246.026 147.179 C 246.349 147.041,246.396 146.959,246.154 146.959 C 245.942 146.959,245.538 147.058,245.256 147.179 M46.731 147.876 C 47.119 147.935,47.753 147.935,48.141 147.876 C 48.529 147.817,48.212 147.769,47.436 147.769 C 46.660 147.769,46.343 147.817,46.731 147.876 M50.710 147.878 C 51.171 147.935,51.863 147.934,52.248 147.876 C 52.633 147.817,52.256 147.770,51.410 147.772 C 50.564 147.773,50.249 147.821,50.710 147.878 M96.474 147.869 C 96.721 147.934,97.125 147.934,97.372 147.869 C 97.619 147.805,97.417 147.752,96.923 147.752 C 96.429 147.752,96.228 147.805,96.474 147.869 M101.090 147.869 C 101.337 147.934,101.740 147.934,101.987 147.869 C 102.234 147.805,102.032 147.752,101.538 147.752 C 101.045 147.752,100.843 147.805,101.090 147.869 M141.731 147.873 C 142.048 147.934,142.567 147.934,142.885 147.873 C 143.202 147.812,142.942 147.762,142.308 147.762 C 141.673 147.762,141.413 147.812,141.731 147.873 M145.064 147.873 C 145.381 147.934,145.901 147.934,146.218 147.873 C 146.535 147.812,146.276 147.762,145.641 147.762 C 145.006 147.762,144.747 147.812,145.064 147.873 M202.885 147.869 C 203.131 147.934,203.535 147.934,203.782 147.869 C 204.029 147.805,203.827 147.752,203.333 147.752 C 202.840 147.752,202.638 147.805,202.885 147.869 M207.756 147.869 C 208.003 147.934,208.407 147.934,208.654 147.869 C 208.901 147.805,208.699 147.752,208.205 147.752 C 207.712 147.752,207.510 147.805,207.756 147.869 M237.885 147.873 C 238.202 147.934,238.721 147.934,239.038 147.873 C 239.356 147.812,239.096 147.762,238.462 147.762 C 237.827 147.762,237.567 147.812,237.885 147.873 M241.218 147.873 C 241.535 147.934,242.054 147.934,242.372 147.873 C 242.689 147.812,242.429 147.762,241.795 147.762 C 241.160 147.762,240.901 147.812,241.218 147.873 M99.038 148.125 C 99.285 148.190,99.689 148.190,99.936 148.125 C 100.183 148.061,99.981 148.008,99.487 148.008 C 98.994 148.008,98.792 148.061,99.038 148.125 M205.067 148.130 C 205.386 148.191,205.848 148.189,206.093 148.125 C 206.338 148.061,206.077 148.011,205.513 148.013 C 204.949 148.016,204.748 148.069,205.067 148.130 M67.070 149.487 C 67.164 149.840,67.348 150.301,67.479 150.513 C 67.644 150.780,67.664 150.702,67.545 150.256 C 67.451 149.904,67.267 149.442,67.136 149.231 C 66.971 148.963,66.951 149.042,67.070 149.487 M68.894 155.082 C 68.812 155.489,68.490 155.930,68.157 156.090 C 67.831 156.247,67.708 156.383,67.885 156.393 C 68.373 156.419,69.231 155.450,69.231 154.872 C 69.231 154.135,69.062 154.240,68.894 155.082 " stroke="none" fill="#94a4ec" fill-rule="evenodd"></path><path id="path4" d="M181.149 119.359 C 181.149 133.744,181.180 139.591,181.218 132.352 C 181.256 125.114,181.256 113.345,181.218 106.198 C 181.180 99.052,181.149 104.974,181.149 119.359 M48.013 98.651 C 48.824 98.702,50.151 98.702,50.962 98.651 C 51.772 98.600,51.109 98.559,49.487 98.559 C 47.865 98.559,47.202 98.600,48.013 98.651 M35.501 104.167 L 34.487 105.256 35.577 104.243 C 36.590 103.300,36.784 103.077,36.590 103.077 C 36.549 103.077,36.058 103.567,35.501 104.167 M63.205 104.103 C 63.756 104.667,64.264 105.128,64.335 105.128 C 64.405 105.128,64.012 104.667,63.462 104.103 C 62.911 103.538,62.402 103.077,62.332 103.077 C 62.261 103.077,62.654 103.538,63.205 104.103 M203.016 108.386 C 203.335 108.448,203.796 108.445,204.041 108.381 C 204.287 108.317,204.026 108.267,203.462 108.270 C 202.897 108.273,202.697 108.325,203.016 108.386 M207.500 108.382 C 207.747 108.446,208.151 108.446,208.397 108.382 C 208.644 108.317,208.442 108.265,207.949 108.265 C 207.455 108.265,207.253 108.317,207.500 108.382 M238.919 108.394 C 239.664 108.446,240.818 108.446,241.483 108.393 C 242.148 108.341,241.538 108.298,240.128 108.299 C 238.718 108.299,238.174 108.343,238.919 108.394 M198.590 109.368 C 197.949 109.677,197.927 109.712,198.462 109.582 C 199.188 109.404,200.005 108.988,199.615 108.994 C 199.474 108.996,199.013 109.164,198.590 109.368 M86.100 109.421 C 86.987 109.471,88.371 109.471,89.177 109.420 C 89.982 109.369,89.256 109.328,87.564 109.329 C 85.872 109.329,85.213 109.371,86.100 109.421 M112.475 109.423 C 112.409 109.529,113.296 109.584,114.447 109.546 C 118.216 109.422,118.642 109.321,115.592 109.276 C 113.943 109.251,112.540 109.317,112.475 109.423 M158.590 109.399 C 161.048 109.587,163.789 109.600,163.679 109.423 C 163.613 109.317,162.211 109.251,160.562 109.276 C 158.913 109.300,158.026 109.356,158.590 109.399 M275.577 109.421 C 276.599 109.470,278.272 109.470,279.295 109.421 C 280.317 109.372,279.481 109.333,277.436 109.333 C 275.391 109.333,274.554 109.372,275.577 109.421 M302.219 109.423 C 302.154 109.529,303.867 109.615,306.026 109.615 C 308.185 109.615,309.898 109.529,309.832 109.423 C 309.767 109.317,308.054 109.231,306.026 109.231 C 303.997 109.231,302.284 109.317,302.219 109.423 M332.500 109.421 C 333.522 109.470,335.196 109.470,336.218 109.421 C 337.240 109.372,336.404 109.333,334.359 109.333 C 332.314 109.333,331.478 109.372,332.500 109.421 M358.886 109.423 C 358.820 109.529,360.533 109.615,362.692 109.615 C 364.851 109.615,366.564 109.529,366.499 109.423 C 366.433 109.317,364.721 109.231,362.692 109.231 C 360.664 109.231,358.951 109.317,358.886 109.423 M111.399 121.282 C 111.399 127.135,111.433 129.529,111.474 126.603 C 111.515 123.676,111.515 118.888,111.474 115.962 C 111.433 113.035,111.399 115.429,111.399 121.282 M119.865 128.333 C 119.865 138.064,119.897 142.008,119.936 137.097 C 119.975 132.186,119.975 124.224,119.936 119.404 C 119.897 114.585,119.865 118.603,119.865 128.333 M156.192 112.167 L 156.154 113.437 155.064 112.424 L 153.974 111.411 155.128 112.643 L 156.282 113.875 156.363 113.087 C 156.407 112.653,156.396 111.983,156.337 111.598 C 156.275 111.192,156.215 111.431,156.192 112.167 M21.442 111.677 C 21.354 111.906,21.292 112.286,21.304 112.521 C 21.316 112.756,21.428 112.608,21.552 112.192 C 21.794 111.383,21.708 110.983,21.442 111.677 M83.194 121.667 C 83.194 127.449,83.228 129.851,83.269 127.004 C 83.310 124.158,83.310 119.427,83.269 116.492 C 83.228 113.556,83.194 115.885,83.194 121.667 M218.590 113.590 C 218.590 113.986,218.676 114.257,218.782 114.191 C 218.888 114.126,218.974 113.855,218.974 113.590 C 218.974 113.324,218.888 113.054,218.782 112.988 C 218.676 112.923,218.590 113.194,218.590 113.590 M225.884 114.038 L 225.000 115.000 225.962 114.116 C 226.857 113.294,227.041 113.077,226.845 113.077 C 226.802 113.077,226.370 113.510,225.884 114.038 M143.272 116.335 C 143.591 116.397,144.053 116.394,144.298 116.330 C 144.543 116.266,144.282 116.216,143.718 116.219 C 143.154 116.221,142.953 116.274,143.272 116.335 M145.836 116.335 C 146.155 116.397,146.617 116.394,146.862 116.330 C 147.107 116.266,146.846 116.216,146.282 116.219 C 145.718 116.221,145.517 116.274,145.836 116.335 M208.590 116.410 C 208.872 116.531,209.276 116.631,209.487 116.631 C 209.730 116.631,209.682 116.549,209.359 116.410 C 209.077 116.289,208.673 116.190,208.462 116.190 C 208.219 116.190,208.267 116.271,208.590 116.410 M239.161 116.339 C 239.616 116.396,240.424 116.396,240.956 116.341 C 241.488 116.285,241.115 116.239,240.128 116.238 C 239.141 116.237,238.706 116.282,239.161 116.339 M69.054 117.821 C 69.055 118.667,69.103 118.982,69.160 118.521 C 69.217 118.060,69.216 117.368,69.158 116.983 C 69.099 116.597,69.052 116.974,69.054 117.821 M20.609 119.359 C 20.609 120.910,20.652 121.512,20.703 120.696 C 20.754 119.880,20.753 118.610,20.702 117.875 C 20.650 117.140,20.608 117.808,20.609 119.359 M78.295 119.231 C 78.295 120.429,78.339 120.920,78.393 120.321 C 78.447 119.721,78.447 118.740,78.393 118.141 C 78.339 117.542,78.295 118.032,78.295 119.231 M198.065 119.295 L 197.051 120.385 198.141 119.371 C 199.154 118.428,199.349 118.205,199.155 118.205 C 199.113 118.205,198.622 118.696,198.065 119.295 M136.909 119.423 L 136.026 120.385 136.987 119.501 C 137.882 118.679,138.067 118.462,137.871 118.462 C 137.828 118.462,137.395 118.894,136.909 119.423 M69.054 120.897 C 69.055 121.744,69.103 122.059,69.160 121.598 C 69.217 121.137,69.216 120.445,69.158 120.060 C 69.099 119.674,69.052 120.051,69.054 120.897 M305.657 120.385 C 305.657 120.526,305.827 120.865,306.034 121.139 C 306.241 121.413,306.410 121.521,306.410 121.380 C 306.410 121.239,306.241 120.900,306.034 120.626 C 305.827 120.352,305.657 120.244,305.657 120.385 M314.658 121.039 C 314.808 121.469,314.979 121.773,315.037 121.715 C 315.164 121.588,314.680 120.256,314.507 120.256 C 314.440 120.256,314.508 120.608,314.658 121.039 M258.865 121.538 C 258.959 121.891,259.143 122.353,259.274 122.564 C 259.439 122.831,259.459 122.753,259.340 122.308 C 259.246 121.955,259.062 121.494,258.931 121.282 C 258.766 121.015,258.746 121.093,258.865 121.538 M52.254 125.062 C 53.141 125.112,54.525 125.112,55.331 125.061 C 56.136 125.010,55.410 124.969,53.718 124.970 C 52.026 124.970,51.367 125.012,52.254 125.062 M124.961 128.205 C 124.961 129.404,125.006 129.894,125.060 129.295 C 125.114 128.696,125.114 127.715,125.060 127.115 C 125.006 126.516,124.961 127.006,124.961 128.205 M185.987 128.205 C 185.987 129.404,186.031 129.894,186.085 129.295 C 186.139 128.696,186.139 127.715,186.085 127.115 C 186.031 126.516,185.987 127.006,185.987 128.205 M260.073 128.077 C 260.075 128.782,260.125 129.040,260.184 128.650 C 260.243 128.261,260.241 127.684,260.180 127.368 C 260.120 127.053,260.071 127.372,260.073 128.077 M194.685 128.205 C 194.685 128.840,194.735 129.099,194.796 128.782 C 194.857 128.465,194.857 127.946,194.796 127.628 C 194.735 127.311,194.685 127.571,194.685 128.205 M348.657 134.607 C 348.420 134.884,348.319 135.169,348.434 135.239 C 348.549 135.310,348.773 135.084,348.931 134.736 C 349.280 133.971,349.224 133.944,348.657 134.607 M153.094 136.731 C 152.468 137.471,152.277 137.788,152.670 137.436 C 153.331 136.842,154.498 135.384,154.312 135.385 C 154.267 135.385,153.719 135.991,153.094 136.731 M248.065 136.987 L 247.051 138.077 248.141 137.063 C 249.154 136.121,249.349 135.897,249.155 135.897 C 249.113 135.897,248.622 136.388,248.065 136.987 M232.051 137.051 C 232.530 137.545,232.979 137.949,233.049 137.949 C 233.120 137.949,232.786 137.545,232.308 137.051 C 231.829 136.558,231.380 136.154,231.310 136.154 C 231.239 136.154,231.573 136.558,232.051 137.051 M94.359 138.333 C 94.837 138.827,95.286 139.231,95.357 139.231 C 95.428 139.231,95.094 138.827,94.615 138.333 C 94.137 137.840,93.688 137.436,93.617 137.436 C 93.547 137.436,93.881 137.840,94.359 138.333 M27.821 138.718 C 28.371 139.282,28.880 139.744,28.950 139.744 C 29.021 139.744,28.628 139.282,28.077 138.718 C 27.526 138.154,27.018 137.692,26.947 137.692 C 26.877 137.692,27.270 138.154,27.821 138.718 M69.991 139.679 L 68.590 141.154 70.064 139.752 C 71.434 138.450,71.656 138.205,71.466 138.205 C 71.426 138.205,70.762 138.869,69.991 139.679 M237.051 140.000 C 237.333 140.121,237.795 140.217,238.077 140.213 C 238.489 140.207,238.464 140.165,237.949 140.000 C 237.072 139.719,236.398 139.719,237.051 140.000 M242.308 140.000 C 241.792 140.165,241.767 140.207,242.179 140.213 C 242.462 140.217,242.923 140.121,243.205 140.000 C 243.859 139.719,243.184 139.719,242.308 140.000 M30.000 140.897 C 30.478 141.391,30.928 141.795,30.998 141.795 C 31.069 141.795,30.735 141.391,30.256 140.897 C 29.778 140.404,29.329 140.000,29.258 140.000 C 29.188 140.000,29.522 140.404,30.000 140.897 M48.533 140.189 C 49.208 140.242,50.246 140.241,50.841 140.187 C 51.436 140.134,50.885 140.090,49.615 140.091 C 48.346 140.092,47.859 140.136,48.533 140.189 M100.837 140.953 C 101.227 141.012,101.804 141.011,102.119 140.950 C 102.434 140.889,102.115 140.841,101.410 140.843 C 100.705 140.844,100.447 140.894,100.837 140.953 M225.641 142.179 C 226.407 142.955,227.091 143.590,227.162 143.590 C 227.232 143.590,226.663 142.955,225.897 142.179 C 225.131 141.404,224.447 140.769,224.376 140.769 C 224.306 140.769,224.875 141.404,225.641 142.179 M254.219 142.372 L 253.205 143.462 254.295 142.448 C 255.308 141.505,255.502 141.282,255.308 141.282 C 255.267 141.282,254.776 141.772,254.219 142.372 M191.410 142.564 C 191.961 143.128,192.469 143.590,192.540 143.590 C 192.610 143.590,192.217 143.128,191.667 142.564 C 191.116 142.000,190.607 141.538,190.537 141.538 C 190.466 141.538,190.859 142.000,191.410 142.564 M155.128 143.718 C 154.505 144.353,154.053 144.872,154.124 144.872 C 154.195 144.872,154.762 144.353,155.385 143.718 C 156.007 143.083,156.459 142.564,156.389 142.564 C 156.318 142.564,155.751 143.083,155.128 143.718 M111.229 144.038 C 111.354 145.987,111.477 146.155,111.509 144.423 C 111.525 143.542,111.451 142.821,111.344 142.821 C 111.238 142.821,111.185 143.369,111.229 144.038 M87.179 143.414 C 87.179 143.458,87.554 143.833,88.013 144.247 L 88.846 145.000 88.093 144.167 C 87.391 143.390,87.179 143.215,87.179 143.414 M110.112 144.167 L 109.359 145.000 110.192 144.247 C 110.969 143.545,111.144 143.333,110.945 143.333 C 110.901 143.333,110.526 143.708,110.112 144.167 M380.640 145.718 C 380.641 146.312,380.477 146.600,380.000 146.844 C 379.598 147.050,379.511 147.173,379.768 147.176 C 380.607 147.183,381.477 145.437,380.832 145.039 C 380.726 144.973,380.639 145.279,380.640 145.718 M51.346 148.125 C 51.593 148.190,51.997 148.190,52.244 148.125 C 52.490 148.061,52.288 148.008,51.795 148.008 C 51.301 148.008,51.099 148.061,51.346 148.125 M63.663 156.600 C 64.479 156.651,65.748 156.651,66.484 156.599 C 67.219 156.547,66.551 156.506,65.000 156.506 C 63.449 156.507,62.847 156.549,63.663 156.600 " stroke="none" fill="#c4ccf4" fill-rule="evenodd"></path></g></svg>