<svg id="svg" version="1.1" xmlns="http://www.w3.org/2000/svg" xmlns:xlink="http://www.w3.org/1999/xlink" width="400" height="400" viewBox="0, 0, 400,400"><g id="svgg"><path id="path0" d="M103.390 81.758 C 101.524 82.572,101.200 83.790,101.200 90.000 C 101.200 96.095,101.507 97.325,103.258 98.230 C 105.210 99.240,107.451 98.523,108.322 96.611 C 109.048 95.017,108.963 84.676,108.212 83.224 C 107.322 81.502,105.352 80.904,103.390 81.758 M253.354 81.774 C 251.223 82.701,251.200 82.971,251.200 107.006 L 251.200 129.093 248.443 129.290 C 243.633 129.634,243.077 130.054,229.186 143.862 C 222.249 150.758,216.444 156.400,216.286 156.400 C 215.757 156.400,215.994 155.533,216.849 154.331 C 227.474 139.410,217.380 116.400,200.211 116.400 C 182.649 116.400,172.411 139.249,183.191 154.387 C 184.453 156.160,184.255 156.295,180.100 156.492 C 175.321 156.718,173.192 157.570,170.381 160.381 C 166.830 163.932,166.653 164.645,166.410 176.363 L 166.200 186.526 163.613 187.456 C 149.781 192.431,144.290 211.887,153.191 224.387 C 154.453 226.160,154.255 226.295,150.100 226.492 C 141.080 226.919,136.877 231.487,136.432 241.346 L 136.200 246.492 133.651 247.413 C 130.345 248.609,127.203 250.796,124.687 253.654 L 122.672 255.943 121.419 254.987 C 116.449 251.196,107.874 250.298,102.213 252.976 C 89.352 259.061,84.819 276.363,92.820 288.831 C 94.378 291.258,94.330 291.453,92.100 291.753 C 85.008 292.707,81.546 298.061,81.273 308.494 C 81.079 315.925,81.344 317.240,83.236 318.219 C 84.935 319.097,315.065 319.097,316.764 318.219 C 320.657 316.205,319.443 300.571,315.013 295.667 C 313.271 293.739,309.233 291.600,307.336 291.600 C 305.795 291.600,305.620 290.993,306.747 289.554 C 314.027 280.252,311.957 263.739,302.525 255.885 C 295.853 250.329,285.213 249.929,278.585 254.985 L 277.328 255.943 275.313 253.654 C 272.797 250.796,269.655 248.609,266.349 247.413 L 263.800 246.492 263.582 241.346 C 263.164 231.484,258.961 226.921,249.900 226.492 C 245.779 226.296,245.556 226.153,246.749 224.462 C 255.673 211.818,250.419 192.702,236.622 187.613 L 233.800 186.573 233.685 182.419 L 233.571 178.266 247.560 164.233 C 263.592 148.152,263.360 148.470,263.371 142.600 C 263.379 138.559,262.287 135.591,259.979 133.380 L 258.800 132.250 258.800 125.525 L 258.800 118.800 277.220 118.800 C 297.127 118.800,297.228 118.790,298.369 116.658 C 299.510 114.526,298.808 113.425,291.902 106.506 L 285.420 100.011 291.879 93.506 C 299.520 85.810,300.412 83.668,296.764 81.781 C 295.157 80.950,255.261 80.944,253.354 81.774 M285.200 89.108 C 285.200 89.277,283.381 91.212,281.158 93.408 C 274.721 99.765,274.720 100.066,281.097 106.483 C 284.066 109.471,285.177 110.834,284.773 110.989 C 284.454 111.111,278.524 111.164,271.596 111.106 L 259.000 111.000 258.893 100.406 C 258.834 94.580,258.874 89.585,258.981 89.306 C 259.200 88.735,285.200 88.538,285.200 89.108 M83.155 101.800 C 80.768 103.097,80.804 106.961,83.213 108.207 C 84.676 108.963,95.009 109.052,96.611 108.322 C 97.686 107.833,98.800 106.141,98.800 105.000 C 98.800 103.859,97.686 102.167,96.611 101.678 C 95.052 100.967,84.511 101.063,83.155 101.800 M113.343 101.778 C 110.827 102.873,110.751 106.934,113.224 108.212 C 114.829 109.042,125.161 109.047,126.764 108.219 C 129.358 106.877,129.237 102.876,126.569 101.761 C 124.741 100.997,115.110 101.010,113.343 101.778 M103.354 111.774 C 100.281 113.111,100.174 126.635,103.224 128.212 C 105.211 129.240,107.444 128.539,108.322 126.611 C 108.940 125.254,108.958 115.374,108.346 113.617 C 107.648 111.614,105.523 110.830,103.354 111.774 M205.044 125.039 C 218.952 131.604,214.942 156.118,199.960 156.118 C 187.084 156.118,181.430 136.631,191.600 127.301 C 195.502 123.721,200.478 122.884,205.044 125.039 M253.101 137.438 C 257.373 139.942,257.114 144.387,252.427 148.990 L 249.994 151.381 245.599 146.999 L 241.204 142.618 243.702 140.066 C 247.525 136.161,249.824 135.518,253.101 137.438 M244.000 156.751 C 244.000 157.062,240.196 161.133,235.546 165.798 C 225.353 176.025,226.032 174.920,226.014 181.313 C 226.002 185.816,225.917 186.454,225.300 186.664 C 210.467 191.733,204.133 209.623,212.365 223.200 C 214.202 226.231,214.153 226.289,209.704 226.360 C 206.905 226.405,203.839 227.418,201.803 228.971 C 200.129 230.248,199.871 230.248,198.197 228.971 C 196.161 227.418,193.095 226.405,190.296 226.360 C 188.923 226.338,187.380 226.202,186.866 226.058 L 185.931 225.795 186.712 224.797 C 196.304 212.535,189.476 190.522,174.898 186.710 L 174.000 186.475 174.000 177.102 L 174.000 167.729 175.100 166.294 C 176.899 163.948,176.370 164.000,198.232 164.000 C 214.648 164.000,218.666 163.895,219.713 163.441 C 220.421 163.133,224.328 159.534,228.395 155.442 L 235.789 148.003 239.895 152.094 C 242.153 154.345,244.000 156.440,244.000 156.751 M118.908 161.491 C 114.533 162.286,115.553 173.600,120.000 173.600 C 122.784 173.600,123.600 172.233,123.600 167.568 C 123.600 162.502,122.338 160.868,118.908 161.491 M102.568 177.326 C 101.704 178.069,101.491 178.599,101.491 180.000 C 101.491 182.893,102.685 183.600,107.568 183.600 C 113.266 183.600,115.603 180.734,112.525 177.522 C 111.006 175.936,104.336 175.805,102.568 177.326 M127.475 177.522 C 124.417 180.714,126.802 183.600,132.500 183.600 C 137.285 183.600,138.582 182.833,138.582 180.000 C 138.582 176.357,130.350 174.521,127.475 177.522 M118.200 186.883 C 116.662 187.765,116.426 188.503,116.413 192.478 C 116.397 197.287,117.158 198.582,120.000 198.582 C 122.845 198.582,123.600 197.292,123.600 192.432 C 123.600 187.145,121.502 184.989,118.200 186.883 M292.522 187.366 L 291.400 188.332 291.400 195.001 L 291.400 201.670 292.522 202.635 C 294.006 203.911,295.994 203.911,297.478 202.635 L 298.600 201.669 298.600 195.000 L 298.600 188.331 297.478 187.365 C 295.993 186.089,294.006 186.089,292.522 187.366 M175.000 195.002 C 189.070 201.438,185.084 226.118,169.974 226.118 C 161.787 226.118,155.500 217.790,156.445 208.196 C 157.495 197.526,166.508 191.117,175.000 195.002 M233.407 194.220 C 244.259 196.789,247.274 215.855,237.991 223.207 C 226.376 232.406,211.738 218.081,217.532 203.185 C 220.248 196.203,226.608 192.611,233.407 194.220 M272.528 207.360 C 270.977 208.694,270.999 211.325,272.573 212.678 C 273.595 213.557,273.942 213.600,280.000 213.600 C 287.554 213.600,288.582 213.169,288.582 210.000 C 288.582 206.831,287.554 206.400,280.000 206.400 C 273.867 206.400,273.605 206.434,272.528 207.360 M302.531 207.358 C 301.642 208.123,301.418 208.653,301.418 210.000 C 301.418 213.169,302.446 213.600,310.000 213.600 C 317.554 213.600,318.582 213.169,318.582 210.000 C 318.582 206.831,317.554 206.400,310.000 206.400 C 303.873 206.400,303.605 206.434,302.531 207.358 M292.522 217.365 L 291.400 218.330 291.400 224.999 L 291.400 231.668 292.522 232.634 C 294.006 233.911,295.993 233.911,297.478 232.635 L 298.600 231.669 298.600 225.000 L 298.600 218.331 297.478 217.365 C 295.994 216.089,294.006 216.089,292.522 217.365 M251.286 233.989 C 252.418 234.000,254.894 235.880,255.658 237.308 C 256.748 239.344,256.453 246.800,255.283 246.800 C 254.924 246.800,253.145 247.535,251.331 248.434 C 238.874 254.605,234.862 272.398,243.177 284.600 C 244.301 286.250,244.386 286.192,240.700 286.265 C 237.030 286.338,233.588 287.389,231.636 289.031 C 230.210 290.231,230.028 290.230,227.637 289.019 C 225.185 287.776,219.975 286.400,217.725 286.400 C 215.784 286.400,215.652 286.151,216.809 284.679 C 226.205 272.735,219.862 251.322,205.700 247.172 L 204.000 246.673 204.000 242.138 L 204.000 237.602 205.431 236.019 C 207.506 233.722,210.901 233.571,251.286 233.989 M193.104 234.798 C 195.509 236.264,196.025 237.654,195.906 242.331 L 195.800 246.463 193.600 247.234 C 179.576 252.146,174.139 271.940,183.260 284.874 L 184.018 285.948 182.109 286.203 C 178.734 286.654,173.922 287.967,171.839 289.006 L 169.812 290.016 168.806 289.218 C 166.307 287.237,162.212 286.000,158.150 286.000 L 156.010 286.000 157.324 283.900 C 165.592 270.688,160.217 252.285,146.657 247.379 L 144.200 246.490 144.094 242.345 C 143.975 237.652,144.490 236.265,146.896 234.798 C 148.928 233.559,191.072 233.559,193.104 234.798 M145.042 255.035 C 156.673 260.543,156.520 279.640,144.800 285.128 C 136.043 289.228,126.381 281.329,126.408 270.091 C 126.437 258.459,135.983 250.745,145.042 255.035 M205.079 255.053 C 214.659 259.593,216.747 274.390,208.913 282.223 C 199.914 291.223,186.417 283.889,186.417 270.000 C 186.417 258.427,196.001 250.751,205.079 255.053 M265.104 255.069 C 272.630 258.623,275.904 269.254,272.074 277.700 C 268.175 286.301,258.019 288.875,251.724 282.858 C 239.391 271.072,250.432 248.139,265.104 255.069 M114.152 259.616 C 117.957 261.040,119.750 263.007,119.239 265.200 C 118.239 269.492,119.028 276.216,121.075 280.856 L 122.070 283.112 120.982 284.756 C 120.075 286.126,119.675 286.400,118.582 286.400 C 116.565 286.400,112.966 287.953,111.027 289.660 C 109.001 291.443,108.767 291.476,105.834 290.378 C 95.512 286.516,93.031 269.980,101.616 262.262 C 105.291 258.957,109.830 257.999,114.152 259.616 M294.265 259.659 C 295.629 260.169,297.343 261.250,298.489 262.322 C 306.911 270.199,304.448 286.531,294.265 290.341 C 291.223 291.479,291.009 291.452,288.973 289.660 C 287.101 288.012,283.452 286.400,281.593 286.400 C 279.197 286.400,277.614 283.526,278.766 281.267 C 280.829 277.223,281.779 269.571,280.761 265.200 C 279.743 260.829,288.161 257.375,294.265 259.659 M283.186 294.614 C 285.838 296.172,286.200 297.373,286.200 304.600 L 286.200 311.000 260.000 311.000 L 233.800 311.000 233.800 304.565 C 233.800 296.493,234.585 294.878,239.000 293.861 C 242.052 293.157,281.862 293.836,283.186 294.614 M164.429 295.885 L 166.000 297.569 166.054 302.885 C 166.084 305.808,166.125 308.830,166.144 309.600 L 166.179 311.000 140.064 311.103 L 113.948 311.206 114.074 304.228 L 114.200 297.250 115.400 295.984 C 117.268 294.012,116.940 294.036,140.529 294.120 L 162.858 294.200 164.429 295.885 M220.440 294.439 C 226.710 296.465,226.258 295.674,226.077 304.300 L 225.933 311.200 199.966 311.200 L 174.000 311.200 173.925 305.000 C 173.884 301.590,173.839 298.307,173.825 297.705 C 173.796 296.447,174.725 295.872,178.600 294.751 C 181.526 293.905,217.946 293.633,220.440 294.439 M106.000 305.047 L 106.000 310.800 97.800 310.800 C 93.290 310.800,89.472 310.799,89.315 310.797 C 88.763 310.792,89.250 303.433,89.892 302.070 C 90.995 299.731,91.909 299.422,98.380 299.200 C 106.868 298.908,106.000 298.242,106.000 305.047 M308.247 299.825 C 310.660 301.628,311.000 302.506,311.000 306.928 L 311.000 311.000 302.500 311.108 L 294.000 311.216 294.000 304.981 L 294.000 298.746 300.572 298.873 C 306.472 298.987,307.257 299.084,308.247 299.825 " stroke="none" fill="#212121" fill-rule="evenodd"></path><path id="path1" d="M0.000 200.000 L 0.000 400.000 200.000 400.000 L 400.000 400.000 400.000 200.000 L 400.000 0.000 200.000 0.000 L 0.000 0.000 0.000 200.000 M107.110 81.602 C 108.959 82.729,109.201 83.717,109.194 90.126 C 109.186 97.601,107.852 99.903,104.073 98.961 C 101.341 98.279,100.800 96.819,100.800 90.121 C 100.800 81.794,102.861 79.011,107.110 81.602 M297.110 81.602 C 297.830 82.041,298.595 82.862,298.810 83.426 C 299.742 85.878,299.522 86.223,292.515 93.273 L 285.831 100.000 292.515 106.727 C 300.220 114.480,300.537 115.143,297.840 117.840 L 296.480 119.200 277.840 119.200 L 259.200 119.200 259.200 125.780 C 259.200 131.006,259.315 132.426,259.761 132.680 C 262.398 134.184,264.449 140.736,263.669 145.164 C 262.921 149.412,261.711 150.900,247.404 165.171 L 234.000 178.542 234.000 182.471 C 234.000 185.946,234.081 186.400,234.700 186.400 C 236.511 186.401,241.352 189.238,244.200 191.967 C 252.407 199.833,253.982 213.499,247.837 223.530 L 246.447 225.800 250.168 226.026 C 259.094 226.568,263.639 231.605,263.928 241.277 L 264.079 246.354 265.285 246.619 C 268.439 247.311,273.582 250.792,276.210 254.013 L 277.383 255.449 279.160 254.250 C 298.553 241.162,320.402 267.287,307.802 288.497 L 306.438 290.794 307.519 291.053 C 312.097 292.148,315.789 295.086,317.756 299.200 L 319.000 301.800 319.000 309.332 L 319.000 316.865 317.694 318.032 L 316.387 319.200 200.420 319.200 C 126.052 319.200,84.084 319.060,83.426 318.810 C 81.111 317.930,80.755 316.521,80.891 308.800 C 81.083 297.886,84.263 293.019,92.485 291.052 L 93.570 290.792 92.210 288.471 C 83.657 273.877,90.456 255.311,105.784 251.407 C 110.567 250.189,116.280 251.246,120.698 254.165 L 122.796 255.552 123.898 254.089 C 126.441 250.713,131.272 247.375,134.706 246.621 L 135.921 246.354 136.060 241.277 C 136.326 231.616,140.991 226.492,149.900 226.077 C 151.935 225.982,153.600 225.852,153.600 225.787 C 153.600 225.723,152.972 224.717,152.205 223.552 C 143.769 210.742,150.904 189.604,164.670 186.624 L 165.940 186.350 166.070 176.275 C 166.219 164.737,166.367 164.112,169.822 160.418 C 172.661 157.382,175.306 156.256,180.043 156.066 L 183.912 155.910 182.396 153.745 C 174.374 142.294,179.220 123.537,191.670 117.842 C 211.568 108.741,229.565 133.425,217.799 153.678 C 216.461 155.981,217.458 155.084,229.267 143.369 C 243.448 129.300,244.120 128.800,248.836 128.800 L 250.800 128.800 250.800 106.580 C 250.800 82.313,250.765 82.696,253.105 81.426 C 255.057 80.367,295.349 80.528,297.110 81.602 M97.241 101.713 C 99.107 102.968,99.621 105.005,98.539 106.858 C 97.261 109.046,96.519 109.230,89.464 109.109 L 83.129 109.000 82.167 107.881 C 80.261 105.663,80.598 102.999,82.968 101.554 C 84.985 100.324,95.346 100.440,97.241 101.713 M127.110 101.602 C 129.470 103.041,129.784 106.135,127.763 108.036 C 126.529 109.197,115.168 109.722,113.222 108.708 C 110.421 107.249,110.170 103.453,112.759 101.713 C 114.704 100.406,125.018 100.326,127.110 101.602 M107.110 111.602 C 109.029 112.771,109.269 113.852,109.127 120.665 C 108.985 127.446,108.567 128.507,105.832 129.020 C 102.011 129.737,100.803 127.591,100.801 120.080 C 100.799 111.797,102.869 109.016,107.110 111.602 M122.004 161.466 C 124.457 162.915,125.019 170.643,122.831 172.831 C 119.479 176.182,116.000 173.645,116.000 167.850 C 116.000 161.770,118.328 159.295,122.004 161.466 M112.831 177.169 C 117.035 181.374,110.720 185.736,103.305 183.749 C 100.410 182.973,100.172 177.815,102.968 176.458 C 105.058 175.444,111.575 175.914,112.831 177.169 M138.025 177.200 C 141.033 181.068,138.966 183.747,132.828 183.935 L 128.409 184.071 127.205 182.866 C 125.237 180.898,125.743 177.397,128.143 176.379 C 130.142 175.531,137.181 176.116,138.025 177.200 M122.831 187.169 C 124.017 188.356,124.538 193.754,123.749 196.695 C 123.207 198.716,120.026 199.733,117.996 198.534 C 113.908 196.119,115.526 186.000,120.000 186.000 C 121.303 186.000,121.914 186.252,122.831 187.169 M296.915 186.434 C 299.360 187.548,300.419 198.933,298.385 202.224 C 296.917 204.599,293.088 204.608,291.624 202.239 C 290.412 200.278,290.387 189.635,291.590 187.810 C 292.752 186.047,294.866 185.501,296.915 186.434 M286.915 206.434 C 289.759 207.730,289.786 212.541,286.955 213.617 C 285.561 214.147,274.269 214.105,273.085 213.566 C 270.287 212.291,270.213 207.795,272.968 206.458 C 274.108 205.905,285.710 205.885,286.915 206.434 M316.915 206.434 C 319.778 207.739,319.778 212.261,316.915 213.566 C 316.366 213.816,313.435 214.000,310.000 214.000 C 303.539 214.000,302.502 213.757,301.466 212.004 C 300.312 210.051,301.031 207.398,302.968 206.458 C 304.108 205.905,315.710 205.885,316.915 206.434 M296.695 216.251 C 300.241 217.201,300.428 231.965,296.915 233.566 C 292.513 235.572,290.799 233.157,290.803 224.953 C 290.806 216.874,292.068 215.011,296.695 216.251 M237.408 294.915 C 234.536 296.541,234.014 298.074,234.007 304.900 L 234.000 310.800 260.000 310.800 L 286.000 310.800 286.000 304.693 C 286.000 293.552,287.088 293.998,259.916 294.007 L 239.000 294.013 237.408 294.915 " stroke="none" fill="#fbfbfb" fill-rule="evenodd"></path><path id="path2" d="M228.395 155.442 C 224.328 159.534,220.421 163.133,219.713 163.441 C 218.666 163.895,214.648 164.000,198.232 164.000 C 176.370 164.000,176.899 163.948,175.100 166.294 L 174.000 167.729 174.000 177.102 L 174.000 186.475 174.898 186.710 C 189.476 190.522,196.304 212.535,186.712 224.797 L 185.931 225.795 186.866 226.058 C 187.380 226.202,188.923 226.338,190.296 226.360 C 193.095 226.405,196.161 227.418,198.197 228.971 C 199.871 230.248,200.129 230.248,201.803 228.971 C 203.839 227.418,206.905 226.405,209.704 226.360 C 214.153 226.289,214.202 226.231,212.365 223.200 C 204.133 209.623,210.467 191.733,225.300 186.664 C 225.917 186.454,226.002 185.816,226.014 181.313 C 226.032 174.920,225.353 176.025,235.546 165.798 C 240.196 161.133,244.000 157.062,244.000 156.751 C 244.000 156.440,242.153 154.345,239.895 152.094 L 235.789 148.003 228.395 155.442 M146.896 234.798 C 144.490 236.265,143.975 237.652,144.094 242.345 L 144.200 246.490 146.657 247.379 C 160.217 252.285,165.592 270.688,157.324 283.900 L 156.010 286.000 158.150 286.000 C 162.212 286.000,166.307 287.237,168.806 289.218 L 169.812 290.016 171.839 289.006 C 173.922 287.967,178.734 286.654,182.109 286.203 L 184.018 285.948 183.260 284.874 C 174.139 271.940,179.576 252.146,193.600 247.234 L 195.800 246.463 195.906 242.331 C 196.025 237.654,195.509 236.264,193.104 234.798 C 191.072 233.559,148.928 233.559,146.896 234.798 " stroke="none" fill="#06adc3" fill-rule="evenodd"></path><path id="path3" d="M258.981 89.306 C 258.874 89.585,258.834 94.580,258.893 100.406 L 259.000 111.000 271.596 111.106 C 278.524 111.164,284.454 111.111,284.773 110.989 C 285.177 110.834,284.066 109.471,281.097 106.483 C 274.720 100.066,274.721 99.765,281.158 93.408 C 283.381 91.212,285.200 89.277,285.200 89.108 C 285.200 88.538,259.200 88.735,258.981 89.306 M256.093 240.800 C 256.093 241.570,256.175 241.885,256.276 241.500 C 256.376 241.115,256.376 240.485,256.276 240.100 C 256.175 239.715,256.093 240.030,256.093 240.800 M256.101 244.200 C 256.105 245.080,256.187 245.393,256.283 244.895 C 256.379 244.398,256.375 243.678,256.275 243.295 C 256.175 242.913,256.096 243.320,256.101 244.200 M213.800 252.000 C 214.659 252.880,215.452 253.600,215.562 253.600 C 215.672 253.600,215.059 252.880,214.200 252.000 C 213.341 251.120,212.548 250.400,212.438 250.400 C 212.328 250.400,212.941 251.120,213.800 252.000 M245.781 252.100 L 244.200 253.800 245.900 252.219 C 247.481 250.748,247.784 250.400,247.481 250.400 C 247.416 250.400,246.651 251.165,245.781 252.100 M221.328 270.000 C 221.328 271.430,221.401 272.015,221.489 271.300 C 221.578 270.585,221.578 269.415,221.489 268.700 C 221.401 267.985,221.328 268.570,221.328 270.000 M238.524 269.800 C 238.526 271.120,238.601 271.612,238.690 270.893 C 238.779 270.174,238.777 269.094,238.686 268.493 C 238.595 267.892,238.522 268.480,238.524 269.800 M216.500 286.276 C 216.885 286.376,217.515 286.376,217.900 286.276 C 218.285 286.175,217.970 286.093,217.200 286.093 C 216.430 286.093,216.115 286.175,216.500 286.276 M178.600 294.751 C 174.725 295.872,173.796 296.447,173.825 297.705 C 173.839 298.307,173.884 301.590,173.925 305.000 L 174.000 311.200 199.966 311.200 L 225.933 311.200 226.077 304.300 C 226.258 295.674,226.710 296.465,220.440 294.439 C 217.946 293.633,181.526 293.905,178.600 294.751 M295.000 299.053 C 297.587 299.321,307.535 299.384,306.888 299.128 C 306.509 298.979,303.410 298.872,300.000 298.892 C 296.590 298.912,294.340 298.984,295.000 299.053 M308.875 300.600 C 310.433 302.340,310.800 303.641,310.800 307.418 L 310.800 310.784 302.400 310.904 L 293.999 311.024 302.500 311.012 L 311.000 311.000 311.126 307.800 C 311.281 303.844,310.796 302.109,309.109 300.583 L 307.800 299.400 308.875 300.600 " stroke="none" fill="#f25b4f" fill-rule="evenodd"></path><path id="path4" d="M208.000 234.291 C 205.103 235.393,204.006 237.490,204.003 241.929 C 204.000 246.124,204.085 246.285,206.874 247.338 C 219.908 252.263,225.557 270.011,218.123 282.686 C 216.206 285.954,216.146 285.816,219.737 286.390 C 222.118 286.770,224.557 287.547,228.705 289.245 C 229.853 289.715,230.142 289.693,231.105 289.065 C 233.967 287.200,236.498 286.318,239.600 286.105 C 243.455 285.841,243.571 285.628,241.665 282.344 C 238.611 277.079,237.674 268.537,239.526 262.829 C 239.985 261.416,240.268 260.111,240.156 259.929 C 240.044 259.748,240.102 259.600,240.284 259.600 C 240.466 259.600,241.223 258.495,241.965 257.145 C 244.036 253.378,247.591 250.016,251.400 248.223 C 253.160 247.394,254.870 246.581,255.200 246.416 C 256.270 245.880,256.250 238.699,255.175 236.959 C 253.305 233.934,253.842 233.996,229.916 234.032 C 218.192 234.049,208.330 234.166,208.000 234.291 M294.000 304.966 L 294.000 310.800 302.400 310.800 L 310.800 310.800 310.800 307.387 C 310.800 300.297,309.746 299.444,300.769 299.266 L 294.000 299.133 294.000 304.966 " stroke="none" fill="#f8af46" fill-rule="evenodd"></path><path id="path5" d="M195.870 124.955 C 185.756 129.209,183.477 144.440,191.776 152.307 C 202.124 162.115,216.662 150.047,212.687 134.948 C 210.595 127.001,202.476 122.177,195.870 124.955 M247.400 137.372 C 246.740 137.670,245.166 138.972,243.902 140.266 L 241.604 142.619 245.799 146.799 L 249.993 150.979 252.190 148.810 C 254.806 146.227,256.179 143.596,255.829 141.843 C 255.063 138.016,250.887 135.800,247.400 137.372 M165.853 194.962 C 151.631 200.942,154.974 225.780,170.000 225.780 C 174.137 225.780,180.800 221.817,180.800 219.356 C 180.800 219.104,181.060 218.682,181.378 218.418 C 181.696 218.154,182.358 216.200,182.849 214.076 C 185.639 202.004,175.696 190.823,165.853 194.962 M225.833 194.982 C 211.643 200.878,215.013 225.780,230.000 225.780 C 234.063 225.780,240.800 221.824,240.800 219.438 C 240.800 219.232,241.055 218.779,241.366 218.431 C 243.052 216.552,243.682 209.371,242.555 204.879 C 240.553 196.897,232.580 192.178,225.833 194.982 M135.856 254.983 C 123.831 259.927,123.672 279.416,135.611 284.973 C 142.610 288.231,150.705 283.114,152.853 274.073 C 155.703 262.071,145.765 250.909,135.856 254.983 M195.865 254.979 C 183.779 259.948,183.678 279.673,195.711 284.981 C 205.257 289.191,215.386 278.483,213.006 266.700 C 211.113 257.328,203.242 251.946,195.865 254.979 M255.865 254.979 C 243.813 259.934,243.648 279.405,255.611 284.973 C 265.112 289.396,275.446 278.473,272.994 266.600 C 271.067 257.268,263.229 251.951,255.865 254.979 M106.353 259.728 C 94.024 264.341,93.357 284.254,105.344 289.835 C 108.183 291.157,108.891 291.061,111.400 289.017 C 113.555 287.262,116.649 286.000,118.799 286.000 C 120.281 286.000,121.977 283.095,121.211 281.869 C 119.116 278.515,117.908 270.706,118.725 265.800 C 119.489 261.212,112.091 257.581,106.353 259.728 M286.353 259.752 C 282.179 261.244,280.779 262.783,281.217 265.400 C 282.056 270.408,281.505 275.384,279.591 280.087 L 278.429 282.943 279.260 284.421 C 279.998 285.735,280.308 285.925,282.045 286.131 C 284.630 286.437,287.135 287.582,289.097 289.355 C 293.019 292.898,300.355 287.920,302.635 280.167 C 306.131 268.279,296.452 256.143,286.353 259.752 " stroke="none" fill="#fad2b2" fill-rule="evenodd"></path><path id="path6" d="M103.376 81.395 C 102.661 81.942,102.697 81.957,103.833 81.579 C 104.680 81.297,105.430 81.299,106.233 81.587 C 107.316 81.975,107.344 81.961,106.624 81.402 C 105.637 80.637,104.370 80.634,103.376 81.395 M253.376 81.402 C 252.652 81.964,252.676 81.978,253.726 81.602 C 255.678 80.905,295.388 81.070,296.764 81.781 C 300.412 83.668,299.520 85.810,291.879 93.506 L 285.420 100.011 291.902 106.506 C 298.808 113.425,299.510 114.526,298.369 116.658 C 297.228 118.790,297.127 118.800,277.220 118.800 L 258.800 118.800 258.816 125.500 L 258.833 132.200 260.474 134.000 C 261.376 134.990,261.925 135.440,261.694 135.000 C 261.463 134.560,260.807 133.764,260.237 133.230 C 259.203 132.263,259.200 132.241,259.200 125.730 L 259.200 119.200 277.420 119.200 C 297.017 119.200,297.121 119.190,298.576 117.113 C 300.200 114.794,299.727 113.983,292.516 106.727 L 285.831 100.000 292.285 93.500 C 300.012 85.717,300.763 83.829,297.032 81.554 C 295.327 80.514,254.703 80.373,253.376 81.402 M101.410 83.180 C 100.540 84.862,100.538 95.132,101.407 96.813 C 102.021 98.000,103.827 99.200,105.000 99.200 C 106.173 99.200,107.979 98.000,108.593 96.813 C 109.896 94.294,109.220 82.000,107.779 82.000 C 107.669 82.000,107.854 82.531,108.190 83.180 C 108.962 84.674,109.064 94.983,108.322 96.611 C 107.073 99.353,102.927 99.353,101.678 96.611 C 100.936 94.983,101.038 84.674,101.810 83.180 C 102.146 82.531,102.331 82.000,102.221 82.000 C 102.111 82.000,101.746 82.531,101.410 83.180 M251.214 83.574 C 250.943 84.080,250.800 92.017,250.800 106.574 L 250.800 128.800 248.900 128.828 C 247.855 128.844,246.640 129.027,246.200 129.236 C 245.503 129.568,245.528 129.590,246.400 129.414 C 246.950 129.302,248.255 129.208,249.300 129.205 L 251.200 129.200 251.200 107.026 C 251.200 93.587,251.354 84.448,251.590 83.826 C 252.048 82.621,251.810 82.461,251.214 83.574 M83.376 101.422 C 82.626 102.023,82.630 102.030,83.474 101.622 C 84.699 101.030,95.288 101.075,96.611 101.678 C 99.353 102.927,99.353 107.073,96.611 108.322 C 94.983 109.064,84.674 108.962,83.180 108.190 C 82.531 107.854,82.000 107.669,82.000 107.779 C 82.000 109.220,94.294 109.896,96.813 108.593 C 98.000 107.979,99.200 106.173,99.200 105.000 C 99.200 103.827,98.000 102.021,96.813 101.407 C 95.099 100.520,84.487 100.532,83.376 101.422 M113.376 101.402 C 112.652 101.964,112.676 101.978,113.726 101.602 C 114.345 101.381,117.169 101.200,120.000 101.200 C 122.831 101.200,125.655 101.381,126.274 101.602 C 127.324 101.978,127.348 101.964,126.624 101.402 C 126.013 100.929,124.597 100.800,120.000 100.800 C 115.403 100.800,113.987 100.929,113.376 101.402 M81.410 103.180 C 80.642 104.666,80.638 105.635,81.395 106.624 C 81.936 107.331,81.949 107.281,81.541 106.058 C 81.177 104.970,81.215 104.458,81.740 103.358 C 82.534 101.693,82.257 101.543,81.410 103.180 M128.265 103.485 C 129.812 107.528,127.834 108.800,120.000 108.800 C 112.480 108.800,110.262 107.470,111.590 103.758 C 111.975 102.682,111.962 102.655,111.402 103.376 C 110.230 104.888,111.134 107.532,113.187 108.593 C 115.065 109.565,125.377 109.455,127.032 108.446 C 129.189 107.130,129.715 104.559,128.227 102.600 C 127.711 101.921,127.717 102.055,128.265 103.485 M103.100 111.429 C 101.540 112.275,101.736 112.469,103.434 111.760 C 107.387 110.108,108.800 112.323,108.800 120.168 C 108.800 127.946,107.207 130.177,103.080 128.181 C 101.905 127.612,101.865 127.613,102.600 128.198 C 106.628 131.404,109.196 128.243,109.199 120.080 C 109.201 111.969,107.237 109.184,103.100 111.429 M101.214 113.574 C 100.524 114.862,100.681 125.693,101.402 126.624 C 101.964 127.348,101.978 127.324,101.602 126.274 C 101.086 124.830,101.077 115.176,101.590 113.826 C 102.048 112.621,101.810 112.461,101.214 113.574 M198.500 116.291 C 199.325 116.378,200.675 116.378,201.500 116.291 C 202.325 116.205,201.650 116.134,200.000 116.134 C 198.350 116.134,197.675 116.205,198.500 116.291 M189.493 119.014 C 188.672 119.572,188.000 120.125,188.000 120.242 C 188.000 120.359,188.495 120.110,189.100 119.688 C 189.705 119.267,190.560 118.720,191.000 118.473 C 191.440 118.226,191.617 118.019,191.393 118.012 C 191.169 118.005,190.314 118.456,189.493 119.014 M208.433 118.131 C 209.113 118.663,211.600 120.025,211.600 119.865 C 211.600 119.606,209.005 118.000,208.586 118.000 C 208.410 118.000,208.342 118.059,208.433 118.131 M185.600 122.200 C 184.628 123.190,183.923 124.000,184.033 124.000 C 184.143 124.000,185.028 123.190,186.000 122.200 C 186.972 121.210,187.677 120.400,187.567 120.400 C 187.457 120.400,186.572 121.210,185.600 122.200 M213.983 122.100 C 214.964 123.145,215.819 124.000,215.883 124.000 C 216.184 124.000,215.866 123.641,214.100 121.983 L 212.200 120.200 213.983 122.100 M195.300 124.789 C 194.365 125.214,193.600 125.650,193.600 125.758 C 193.600 125.866,194.365 125.626,195.300 125.224 C 196.235 124.822,197.270 124.397,197.600 124.278 C 198.133 124.087,198.133 124.061,197.600 124.040 C 197.270 124.028,196.235 124.365,195.300 124.789 M202.400 124.278 C 202.730 124.397,203.765 124.822,204.700 125.224 C 205.635 125.626,206.400 125.866,206.400 125.758 C 206.400 125.447,203.066 124.015,202.400 124.040 C 201.867 124.061,201.867 124.087,202.400 124.278 M182.879 125.500 C 181.962 126.803,180.396 129.834,180.409 130.284 C 180.414 130.458,181.029 129.467,181.775 128.081 C 182.522 126.696,183.350 125.301,183.615 124.981 C 183.881 124.662,183.998 124.400,183.876 124.400 C 183.754 124.400,183.306 124.895,182.879 125.500 M216.534 125.063 C 216.717 125.338,217.478 126.696,218.225 128.081 C 218.971 129.467,219.586 130.463,219.591 130.296 C 219.610 129.672,217.967 126.564,217.099 125.581 C 216.605 125.021,216.350 124.787,216.534 125.063 M191.800 127.131 C 191.140 127.740,190.353 128.545,190.051 128.919 C 189.033 130.182,189.822 129.612,191.600 127.800 C 193.554 125.809,193.676 125.399,191.800 127.131 M208.383 127.711 C 210.163 129.597,210.988 130.223,209.949 128.902 C 209.253 128.016,208.816 127.592,207.588 126.611 C 207.044 126.178,207.402 126.673,208.383 127.711 M188.555 131.012 C 188.190 131.569,187.970 132.104,188.067 132.200 C 188.163 132.297,188.558 131.841,188.944 131.188 C 189.798 129.742,189.481 129.599,188.555 131.012 M210.762 130.729 C 211.005 131.184,211.401 131.677,211.642 131.826 C 211.956 132.020,211.954 131.862,211.638 131.271 C 211.395 130.816,210.999 130.323,210.758 130.174 C 210.444 129.980,210.446 130.138,210.762 130.729 M241.989 131.057 C 240.933 131.758,216.029 156.400,216.377 156.400 C 216.490 156.400,222.167 150.853,228.992 144.073 C 235.816 137.293,241.850 131.453,242.400 131.094 C 242.950 130.735,243.305 130.433,243.189 130.421 C 243.073 130.409,242.533 130.695,241.989 131.057 M220.167 132.600 C 221.324 136.818,221.474 141.243,220.599 145.372 C 219.924 148.558,220.057 149.370,220.787 146.515 C 221.881 142.231,221.636 134.257,220.353 132.390 C 220.032 131.923,219.993 131.967,220.167 132.600 M179.076 134.010 C 178.930 134.555,178.827 135.450,178.846 136.000 C 178.871 136.718,178.984 136.557,179.249 135.427 C 179.655 133.695,179.500 132.425,179.076 134.010 M186.653 136.036 C 186.514 136.731,186.422 137.863,186.449 138.550 C 186.478 139.294,186.638 138.840,186.843 137.428 C 187.211 134.904,187.076 133.918,186.653 136.036 M213.059 136.600 C 213.193 137.700,213.369 138.675,213.451 138.767 C 213.764 139.117,213.526 136.161,213.180 135.400 C 212.935 134.861,212.895 135.254,213.059 136.600 M262.028 136.200 C 262.028 136.420,262.286 137.050,262.600 137.600 C 262.914 138.150,263.172 138.420,263.172 138.200 C 263.172 137.980,262.914 137.350,262.600 136.800 C 262.286 136.250,262.028 135.980,262.028 136.200 M247.700 136.812 C 246.259 137.392,246.659 137.526,248.423 137.056 C 249.723 136.709,250.399 136.750,251.823 137.262 C 253.924 138.017,254.207 137.813,252.213 136.980 C 250.661 136.331,249.046 136.271,247.700 136.812 M178.534 140.000 C 178.534 141.650,178.605 142.325,178.691 141.500 C 178.778 140.675,178.778 139.325,178.691 138.500 C 178.605 137.675,178.534 138.350,178.534 140.000 M243.690 140.109 L 241.204 142.618 245.599 146.999 L 249.994 151.381 252.389 149.010 C 254.533 146.889,256.338 144.204,255.908 143.775 C 255.820 143.686,255.451 144.286,255.089 145.107 C 254.726 145.928,253.431 147.585,252.211 148.790 L 249.993 150.979 245.799 146.799 L 241.604 142.618 244.090 140.109 C 245.458 138.729,246.487 137.600,246.377 137.600 C 246.267 137.600,245.058 138.729,243.690 140.109 M186.428 141.833 C 186.444 142.915,186.612 144.160,186.802 144.600 C 187.016 145.095,187.060 144.410,186.918 142.800 C 186.639 139.643,186.390 139.151,186.428 141.833 M213.264 141.850 C 213.229 142.317,213.105 143.308,212.989 144.050 C 212.796 145.286,212.815 145.317,213.208 144.414 C 213.445 143.872,213.568 142.882,213.483 142.214 C 213.391 141.497,213.302 141.348,213.264 141.850 M263.701 142.600 C 263.705 143.480,263.787 143.793,263.883 143.295 C 263.979 142.798,263.975 142.078,263.875 141.695 C 263.775 141.313,263.696 141.720,263.701 142.600 M178.875 144.200 C 178.865 144.860,179.011 145.760,179.200 146.200 L 179.544 147.000 179.525 146.200 C 179.514 145.760,179.368 144.860,179.200 144.200 L 178.895 143.000 178.875 144.200 M262.445 148.100 C 262.048 149.289,262.062 149.334,262.605 148.624 C 262.932 148.196,263.200 147.611,263.200 147.324 C 263.200 146.432,262.897 146.743,262.445 148.100 M188.006 147.856 C 188.003 148.106,188.370 148.736,188.823 149.256 C 189.469 149.998,189.558 150.029,189.236 149.400 C 188.542 148.043,188.013 147.378,188.006 147.856 M210.647 149.500 C 209.175 151.795,206.831 153.853,204.400 154.987 C 203.190 155.551,202.650 155.897,203.200 155.755 C 206.012 155.030,209.687 152.089,211.323 149.253 C 212.337 147.494,211.811 147.686,210.647 149.500 M180.634 150.400 C 180.949 151.537,183.458 155.600,183.844 155.600 C 183.984 155.600,183.881 155.338,183.615 155.019 C 183.350 154.699,182.508 153.304,181.744 151.919 C 180.981 150.533,180.481 149.850,180.634 150.400 M218.850 150.650 C 218.586 151.229,218.462 151.795,218.574 151.907 C 218.686 152.019,218.968 151.611,219.200 151.000 C 219.749 149.557,219.473 149.282,218.850 150.650 M247.812 163.859 C 240.118 171.637,233.939 178.000,234.080 178.000 C 234.475 178.000,261.169 151.206,261.626 150.351 C 261.847 149.938,261.977 149.627,261.914 149.659 C 261.851 149.692,255.505 156.082,247.812 163.859 M190.143 151.220 C 190.689 152.085,193.200 154.282,193.200 153.895 C 193.200 153.824,192.367 152.964,191.349 151.983 C 190.197 150.874,189.742 150.585,190.143 151.220 M216.985 154.100 C 216.351 155.061,216.166 155.552,216.558 155.229 C 217.218 154.687,218.596 152.400,218.263 152.400 C 218.177 152.400,217.602 153.165,216.985 154.100 M193.815 154.425 C 194.056 154.814,197.562 156.173,197.770 155.958 C 197.854 155.871,196.955 155.420,195.773 154.956 C 194.590 154.492,193.709 154.253,193.815 154.425 M179.100 156.293 C 180.035 156.377,181.565 156.377,182.500 156.293 C 183.435 156.209,182.670 156.140,180.800 156.140 C 178.930 156.140,178.165 156.209,179.100 156.293 M171.107 159.216 C 170.295 159.885,169.247 161.010,168.778 161.716 L 167.924 163.000 169.101 161.639 C 169.749 160.891,170.891 159.771,171.639 159.150 C 172.388 158.529,172.906 158.017,172.791 158.011 C 172.676 158.005,171.918 158.547,171.107 159.216 M118.865 161.152 C 118.522 161.369,118.931 161.491,120.000 161.491 C 121.069 161.491,121.478 161.369,121.135 161.152 C 120.841 160.965,120.330 160.812,120.000 160.812 C 119.670 160.812,119.159 160.965,118.865 161.152 M116.829 162.654 C 116.107 163.572,116.009 164.203,116.072 167.554 L 116.145 171.400 116.372 167.340 C 116.553 164.123,116.758 163.105,117.362 162.440 C 117.781 161.978,118.019 161.600,117.891 161.600 C 117.763 161.600,117.285 162.074,116.829 162.654 M122.800 162.520 C 123.201 163.028,123.476 164.628,123.628 167.340 L 123.855 171.400 123.928 167.522 C 123.993 163.993,123.919 163.560,123.100 162.703 C 122.605 162.185,122.470 162.103,122.800 162.520 M167.188 164.022 C 166.946 164.474,166.818 165.055,166.904 165.311 C 166.989 165.568,167.262 165.198,167.509 164.489 C 168.017 163.032,167.849 162.788,167.188 164.022 M166.000 176.937 L 166.000 186.273 164.300 186.793 C 163.365 187.079,162.793 187.381,163.028 187.466 C 163.264 187.550,164.119 187.342,164.928 187.004 L 166.400 186.389 166.400 176.995 C 166.400 171.828,166.310 167.600,166.200 167.600 C 166.090 167.600,166.000 171.802,166.000 176.937 M116.497 171.966 C 116.578 172.277,117.084 172.806,117.622 173.141 C 118.386 173.618,118.473 173.625,118.018 173.175 C 117.698 172.859,117.192 172.330,116.893 172.000 C 116.453 171.514,116.378 171.508,116.497 171.966 M122.452 172.627 C 121.937 173.162,121.687 173.600,121.896 173.600 C 122.358 173.600,123.797 172.064,123.558 171.825 C 123.465 171.731,122.967 172.093,122.452 172.627 M119.300 173.876 C 119.685 173.976,120.315 173.976,120.700 173.876 C 121.085 173.775,120.770 173.693,120.000 173.693 C 119.230 173.693,118.915 173.775,119.300 173.876 M102.703 176.900 C 102.185 177.395,102.103 177.530,102.520 177.200 C 103.028 176.799,104.628 176.524,107.340 176.372 L 111.400 176.145 107.522 176.072 C 103.993 176.007,103.560 176.081,102.703 176.900 M132.691 176.372 C 137.554 176.643,138.582 177.276,138.582 180.000 C 138.582 182.724,137.554 183.357,132.691 183.628 L 128.600 183.855 132.494 183.928 C 137.331 184.018,138.982 183.018,138.982 180.000 C 138.982 176.982,137.331 175.982,132.494 176.072 L 128.600 176.145 132.691 176.372 M112.370 177.345 C 112.903 177.925,113.420 178.400,113.519 178.400 C 113.913 178.400,112.493 176.632,111.966 176.467 C 111.655 176.370,111.836 176.765,112.370 177.345 M127.311 176.900 C 126.352 178.140,126.364 178.515,127.335 177.630 C 127.921 177.097,128.400 176.602,128.400 176.530 C 128.400 176.200,127.658 176.452,127.311 176.900 M100.972 179.371 C 100.837 179.905,100.900 180.649,101.109 181.024 C 101.400 181.543,101.491 181.311,101.491 180.053 C 101.491 178.176,101.326 177.959,100.972 179.371 M233.777 182.386 L 233.800 186.573 236.651 187.624 C 238.219 188.202,240.109 189.078,240.851 189.571 L 242.200 190.466 241.000 189.426 C 240.340 188.854,238.502 187.895,236.916 187.293 L 234.032 186.200 233.893 182.200 L 233.754 178.200 233.777 182.386 M113.693 180.000 C 113.693 180.770,113.775 181.085,113.876 180.700 C 113.976 180.315,113.976 179.685,113.876 179.300 C 113.775 178.915,113.693 179.230,113.693 180.000 M126.093 180.000 C 126.093 180.770,126.175 181.085,126.276 180.700 C 126.376 180.315,126.376 179.685,126.276 179.300 C 126.175 178.915,126.093 179.230,126.093 180.000 M112.452 182.627 C 111.937 183.162,111.687 183.600,111.896 183.600 C 112.358 183.600,113.797 182.064,113.558 181.825 C 113.465 181.731,112.967 182.093,112.452 182.627 M126.748 182.278 C 127.231 183.206,127.938 183.795,128.225 183.508 C 128.320 183.414,127.923 182.901,127.344 182.368 C 126.340 181.445,126.313 181.441,126.748 182.278 M102.703 183.100 C 103.560 183.919,103.993 183.993,107.522 183.928 L 111.400 183.855 107.340 183.628 C 104.628 183.476,103.028 183.201,102.520 182.800 C 102.103 182.470,102.185 182.605,102.703 183.100 M117.947 186.604 C 117.369 186.918,116.772 187.496,116.623 187.888 C 116.414 188.434,116.545 188.391,117.186 187.705 C 117.646 187.213,118.422 186.725,118.911 186.620 C 119.400 186.516,120.160 186.355,120.600 186.262 C 121.104 186.155,120.956 186.082,120.200 186.062 C 119.540 186.046,118.526 186.289,117.947 186.604 M292.522 187.039 L 291.400 188.078 292.554 187.239 C 294.110 186.107,296.074 186.158,297.478 187.365 L 298.600 188.331 298.600 194.954 C 298.600 202.465,298.390 203.020,295.331 203.612 C 293.811 203.906,293.810 203.908,295.094 203.954 C 296.001 203.986,296.778 203.651,297.694 202.833 L 299.000 201.666 299.000 195.000 L 299.000 188.334 297.694 187.167 C 295.987 185.642,294.082 185.595,292.522 187.039 M122.452 187.373 C 122.967 187.907,123.465 188.269,123.558 188.175 C 123.797 187.936,122.358 186.400,121.896 186.400 C 121.687 186.400,121.937 186.838,122.452 187.373 M158.544 189.746 C 157.255 190.706,155.660 192.097,155.000 192.837 C 154.254 193.672,154.586 193.468,155.876 192.297 C 157.018 191.261,158.808 189.870,159.854 189.206 C 160.901 188.543,161.561 188.000,161.322 188.000 C 161.083 188.000,159.833 188.786,158.544 189.746 M291.043 189.033 C 290.697 189.933,290.753 200.507,291.106 201.062 C 291.268 201.317,291.400 198.572,291.400 194.963 C 291.400 191.354,291.374 188.400,291.343 188.400 C 291.311 188.400,291.176 188.685,291.043 189.033 M116.072 192.494 C 115.982 197.331,116.982 198.982,120.000 198.982 C 123.018 198.982,124.018 197.331,123.928 192.494 L 123.855 188.600 123.628 192.691 C 123.357 197.554,122.724 198.582,120.000 198.582 C 117.276 198.582,116.643 197.554,116.372 192.691 L 116.145 188.600 116.072 192.494 M243.983 192.100 C 244.964 193.145,245.819 194.000,245.883 194.000 C 246.184 194.000,245.866 193.641,244.100 191.983 L 242.200 190.200 243.983 192.100 M165.300 194.789 C 164.365 195.214,163.600 195.650,163.600 195.758 C 163.600 195.866,164.365 195.626,165.300 195.224 C 166.235 194.822,167.270 194.397,167.600 194.278 C 168.133 194.087,168.133 194.061,167.600 194.040 C 167.270 194.028,166.235 194.365,165.300 194.789 M174.147 194.984 C 175.438 195.515,176.967 196.365,177.544 196.874 L 178.594 197.800 177.797 196.843 C 176.969 195.850,173.448 194.004,172.400 194.013 C 172.070 194.016,172.856 194.453,174.147 194.984 M225.300 194.789 C 224.365 195.214,223.600 195.650,223.600 195.758 C 223.600 195.866,224.365 195.626,225.300 195.224 C 226.235 194.822,227.270 194.397,227.600 194.278 C 228.133 194.087,228.133 194.061,227.600 194.040 C 227.270 194.028,226.235 194.365,225.300 194.789 M234.600 195.126 C 236.791 196.175,238.918 198.115,241.323 201.256 C 242.036 202.187,242.037 202.184,241.392 200.993 C 239.726 197.920,236.135 194.954,233.200 194.226 C 232.650 194.089,233.280 194.494,234.600 195.126 M152.251 196.500 C 151.514 197.655,150.786 199.050,150.634 199.600 C 150.481 200.150,150.981 199.467,151.744 198.081 C 152.508 196.696,153.350 195.301,153.615 194.981 C 153.881 194.662,153.984 194.400,153.844 194.400 C 153.704 194.400,152.987 195.345,152.251 196.500 M246.764 195.457 C 247.220 196.149,248.135 197.859,248.796 199.257 C 249.458 200.656,250.000 201.564,250.000 201.275 C 250.000 200.440,248.030 196.642,246.934 195.365 L 245.934 194.200 246.764 195.457 M221.300 197.554 C 219.830 198.897,219.286 199.600,219.717 199.600 C 219.781 199.600,220.628 198.790,221.600 197.800 C 223.770 195.589,223.601 195.451,221.300 197.554 M179.400 198.800 C 179.798 199.240,180.192 199.600,180.276 199.600 C 180.360 199.600,180.235 199.240,180.000 198.800 C 179.765 198.360,179.370 198.000,179.124 198.000 C 178.878 198.000,179.002 198.360,179.400 198.800 M158.555 201.012 C 158.190 201.569,157.970 202.104,158.067 202.200 C 158.163 202.297,158.558 201.841,158.944 201.188 C 159.798 199.742,159.481 199.599,158.555 201.012 M181.282 201.573 C 181.780 202.438,182.255 203.078,182.339 202.994 C 182.512 202.821,180.831 200.000,180.555 200.000 C 180.457 200.000,180.784 200.708,181.282 201.573 M218.396 201.300 C 217.751 202.357,217.239 203.794,217.731 203.167 C 218.326 202.406,219.615 200.000,219.427 200.000 C 219.296 200.000,218.832 200.585,218.396 201.300 M149.246 203.239 C 149.001 203.943,148.818 205.078,148.841 205.760 C 148.870 206.651,149.029 206.325,149.406 204.600 C 149.993 201.914,149.921 201.304,149.246 203.239 M250.185 202.800 C 250.300 203.350,250.571 204.610,250.787 205.600 C 251.353 208.190,251.276 212.174,250.599 215.372 C 249.924 218.558,250.057 219.370,250.787 216.515 C 251.875 212.254,251.639 204.308,250.367 202.390 C 250.076 201.951,250.029 202.056,250.185 202.800 M242.016 202.468 C 242.007 202.615,242.290 203.868,242.645 205.253 C 243.268 207.683,243.266 212.912,242.641 215.600 C 242.513 216.150,242.689 215.790,243.031 214.800 C 243.825 212.503,243.602 205.675,242.664 203.600 C 242.316 202.830,242.024 202.320,242.016 202.468 M157.226 203.936 C 156.075 206.716,156.285 217.448,157.468 216.265 C 157.573 216.161,157.466 215.383,157.231 214.538 C 156.619 212.333,156.701 207.256,157.385 204.982 C 158.046 202.787,157.954 202.180,157.226 203.936 M182.433 203.800 C 182.437 205.076,183.534 208.510,183.566 207.346 C 183.585 206.656,183.337 205.486,183.016 204.746 C 182.694 204.006,182.432 203.580,182.433 203.800 M216.851 205.362 C 216.240 207.788,216.334 213.038,217.024 215.000 C 217.333 215.880,217.483 216.150,217.357 215.600 C 216.809 213.216,216.721 207.510,217.206 205.779 C 217.483 204.788,217.619 203.885,217.507 203.773 C 217.394 203.661,217.100 204.376,216.851 205.362 M272.703 206.900 C 272.185 207.395,272.103 207.530,272.521 207.200 C 273.095 206.747,274.861 206.546,279.740 206.381 L 286.200 206.161 279.922 206.081 C 273.902 206.003,273.606 206.037,272.703 206.900 M302.522 207.039 L 301.400 208.078 302.554 207.239 C 303.610 206.471,304.243 206.400,310.032 206.400 C 317.551 206.400,318.582 206.834,318.582 210.000 C 318.582 213.166,317.551 213.600,310.032 213.600 C 304.243 213.600,303.610 213.529,302.554 212.761 L 301.400 211.922 302.522 212.961 C 303.633 213.989,303.711 214.000,310.016 214.000 L 316.387 214.000 317.685 212.841 C 318.758 211.882,318.982 211.392,318.982 210.000 C 318.982 208.608,318.758 208.118,317.685 207.159 L 316.387 206.000 310.016 206.000 C 303.711 206.000,303.633 206.011,302.522 207.039 M287.469 207.358 C 288.358 208.123,288.582 208.653,288.582 210.000 C 288.582 213.166,287.551 213.600,280.032 213.600 C 274.243 213.600,273.610 213.529,272.554 212.761 L 271.400 211.922 272.522 212.961 C 273.633 213.989,273.711 214.000,280.016 214.000 L 286.387 214.000 287.685 212.841 C 289.705 211.035,289.002 206.400,286.708 206.400 C 286.514 206.400,286.856 206.831,287.469 207.358 M148.608 211.200 C 148.676 213.290,148.930 215.450,149.173 216.000 C 149.553 216.860,149.576 216.776,149.341 215.400 C 149.190 214.520,148.936 212.360,148.776 210.600 L 148.485 207.400 148.608 211.200 M270.972 209.371 C 270.837 209.905,270.902 210.653,271.114 211.033 C 271.408 211.558,271.490 211.326,271.457 210.062 C 271.407 208.150,271.312 208.015,270.972 209.371 M300.972 209.371 C 300.837 209.905,300.883 210.620,301.073 210.959 C 301.312 211.386,301.418 211.088,301.418 209.988 C 301.418 208.155,301.313 208.010,300.972 209.371 M183.098 213.000 C 182.934 213.880,182.700 215.050,182.578 215.600 C 182.426 216.283,182.559 216.160,182.997 215.210 C 183.349 214.445,183.583 213.275,183.517 212.610 C 183.403 211.468,183.379 211.490,183.098 213.000 M295.331 216.388 C 298.390 216.980,298.600 217.535,298.600 225.046 L 298.600 231.669 297.478 232.635 C 296.074 233.842,294.110 233.893,292.554 232.761 L 291.400 231.922 292.522 232.961 C 294.082 234.405,295.987 234.358,297.694 232.833 L 299.000 231.666 299.000 225.000 L 299.000 218.334 297.694 217.167 C 296.778 216.349,296.001 216.014,295.094 216.046 C 293.810 216.092,293.811 216.094,295.331 216.388 M158.006 217.856 C 158.003 218.106,158.370 218.736,158.823 219.256 C 159.469 219.998,159.558 220.029,159.236 219.400 C 158.542 218.043,158.013 217.378,158.006 217.856 M291.043 219.033 C 290.697 219.933,290.753 230.507,291.106 231.061 C 291.268 231.314,291.400 228.569,291.400 224.961 C 291.400 221.352,291.374 218.400,291.343 218.400 C 291.311 218.400,291.176 218.685,291.043 219.033 M150.634 220.400 C 150.949 221.537,153.458 225.600,153.844 225.600 C 153.984 225.600,153.881 225.338,153.615 225.019 C 153.350 224.699,152.508 223.304,151.744 221.919 C 150.981 220.533,150.481 219.850,150.634 220.400 M249.031 220.303 C 248.898 220.723,248.161 222.131,247.395 223.433 C 246.479 224.988,246.327 225.406,246.953 224.653 C 248.095 223.277,249.764 220.031,249.477 219.744 C 249.365 219.632,249.164 219.883,249.031 220.303 M179.601 220.998 C 179.086 221.548,178.765 222.098,178.888 222.221 C 179.012 222.345,179.505 221.896,179.984 221.223 C 181.038 219.742,180.873 219.645,179.601 220.998 M239.601 220.998 C 239.086 221.548,238.765 222.098,238.888 222.221 C 239.012 222.345,239.505 221.896,239.984 221.223 C 241.038 219.742,240.873 219.645,239.601 220.998 M160.206 221.312 C 160.592 221.924,161.009 222.324,161.132 222.201 C 161.255 222.078,160.939 221.578,160.430 221.089 L 159.504 220.200 160.206 221.312 M219.944 221.078 C 220.454 222.050,221.200 222.649,221.200 222.086 C 221.200 221.887,220.814 221.381,220.342 220.962 C 219.490 220.205,219.487 220.206,219.944 221.078 M222.203 223.143 C 222.959 224.037,225.607 225.620,226.284 225.582 C 226.458 225.573,225.880 225.192,225.000 224.736 C 224.120 224.281,222.951 223.523,222.403 223.054 L 221.406 222.200 222.203 223.143 M177.251 223.338 C 177.006 223.634,176.082 224.202,175.198 224.601 C 174.315 224.999,173.666 225.400,173.757 225.490 C 174.011 225.745,176.987 224.138,177.576 223.429 C 177.863 223.083,178.008 222.800,177.898 222.800 C 177.788 222.800,177.497 223.042,177.251 223.338 M163.600 224.196 C 163.600 224.470,166.049 225.684,166.232 225.501 C 166.319 225.414,165.762 225.044,164.995 224.678 C 164.228 224.312,163.600 224.095,163.600 224.196 M234.800 224.800 C 234.030 225.222,233.544 225.574,233.720 225.583 C 234.144 225.605,236.400 224.432,236.400 224.190 C 236.400 223.928,236.377 223.937,234.800 224.800 M149.100 226.293 C 150.035 226.377,151.565 226.377,152.500 226.293 C 153.435 226.209,152.670 226.140,150.800 226.140 C 148.930 226.140,148.165 226.209,149.100 226.293 M247.500 226.293 C 248.435 226.377,249.965 226.377,250.900 226.293 C 251.835 226.209,251.070 226.140,249.200 226.140 C 247.330 226.140,246.565 226.209,247.500 226.293 M144.842 226.834 C 143.263 227.466,144.104 227.609,145.815 227.000 C 146.687 226.689,147.040 226.439,146.600 226.443 C 146.160 226.447,145.369 226.623,144.842 226.834 M254.185 227.000 C 255.056 227.310,255.846 227.487,255.940 227.393 C 256.177 227.157,254.098 226.396,253.274 226.418 C 252.903 226.427,253.313 226.689,254.185 227.000 M141.107 229.216 C 140.295 229.885,139.247 231.010,138.778 231.716 L 137.924 233.000 139.101 231.639 C 139.749 230.891,140.891 229.771,141.639 229.150 C 142.388 228.529,142.906 228.017,142.791 228.011 C 142.676 228.005,141.918 228.547,141.107 229.216 M258.584 229.270 C 259.253 229.858,260.315 230.938,260.944 231.670 C 261.573 232.401,261.903 232.640,261.677 232.200 C 261.257 231.384,259.095 229.263,257.984 228.579 C 257.646 228.371,257.916 228.681,258.584 229.270 M262.406 234.020 C 262.409 234.119,262.688 234.920,263.024 235.800 L 263.637 237.400 263.411 236.013 C 263.234 234.925,262.380 233.231,262.406 234.020 M136.084 241.867 C 136.025 244.999,135.851 246.394,135.500 246.535 C 135.108 246.693,135.111 246.744,135.513 246.768 C 136.320 246.818,136.439 246.033,136.299 241.573 L 136.169 237.400 136.084 241.867 M263.780 242.160 L 263.800 246.521 265.365 247.062 C 266.226 247.360,267.008 247.525,267.104 247.429 C 267.200 247.334,266.546 247.036,265.651 246.768 L 264.025 246.281 263.893 242.040 L 263.761 237.800 263.780 242.160 M270.146 249.206 C 271.192 249.870,272.982 251.261,274.124 252.297 C 275.414 253.468,275.746 253.672,275.000 252.837 C 273.617 251.287,269.320 248.000,268.678 248.000 C 268.439 248.000,269.099 248.543,270.146 249.206 M128.000 250.145 C 126.790 251.105,125.353 252.409,124.807 253.045 C 124.260 253.680,124.620 253.457,125.607 252.549 C 126.593 251.640,128.192 250.335,129.160 249.649 C 130.128 248.962,130.758 248.400,130.560 248.400 C 130.362 248.400,129.210 249.186,128.000 250.145 M107.200 251.169 C 106.359 251.328,107.476 251.436,110.000 251.440 C 113.007 251.444,113.746 251.361,112.600 251.146 C 110.730 250.795,109.147 250.802,107.200 251.169 M287.200 251.169 C 286.360 251.328,287.480 251.435,290.000 251.438 C 292.406 251.441,293.688 251.326,293.000 251.169 C 291.496 250.825,289.025 250.825,287.200 251.169 M101.376 252.987 C 100.949 253.310,100.780 253.575,101.000 253.575 C 101.220 253.575,101.749 253.310,102.176 252.987 C 102.604 252.664,102.773 252.400,102.553 252.400 C 102.333 252.400,101.804 252.664,101.376 252.987 M98.829 254.439 C 97.038 255.531,93.595 259.107,92.672 260.837 C 92.191 261.736,92.155 261.928,92.565 261.400 C 95.097 258.144,96.472 256.695,98.300 255.359 C 100.180 253.985,100.622 253.597,100.300 253.601 C 100.245 253.602,99.583 253.979,98.829 254.439 M120.400 254.111 C 120.400 254.187,120.920 254.634,121.556 255.104 L 122.713 255.959 123.456 255.080 L 124.200 254.200 123.340 254.926 C 122.782 255.397,122.387 255.503,122.217 255.228 C 121.956 254.805,120.400 253.848,120.400 254.111 M135.300 254.789 C 134.365 255.214,133.600 255.650,133.600 255.758 C 133.600 255.866,134.365 255.626,135.300 255.224 C 136.235 254.822,137.270 254.397,137.600 254.278 C 138.133 254.087,138.133 254.061,137.600 254.040 C 137.270 254.028,136.235 254.365,135.300 254.789 M142.400 254.278 C 142.730 254.397,143.765 254.822,144.700 255.224 C 145.635 255.626,146.400 255.866,146.400 255.758 C 146.400 255.447,143.066 254.015,142.400 254.040 C 141.867 254.061,141.867 254.087,142.400 254.278 M195.300 254.789 C 194.365 255.214,193.600 255.650,193.600 255.758 C 193.600 255.866,194.365 255.626,195.300 255.224 C 196.235 254.822,197.270 254.397,197.600 254.278 C 198.133 254.087,198.133 254.061,197.600 254.040 C 197.270 254.028,196.235 254.365,195.300 254.789 M202.400 254.278 C 202.730 254.397,203.765 254.822,204.700 255.224 C 205.635 255.626,206.400 255.866,206.400 255.758 C 206.400 255.447,203.066 254.015,202.400 254.040 C 201.867 254.061,201.867 254.087,202.400 254.278 M262.400 254.278 C 262.730 254.397,263.765 254.822,264.700 255.224 C 265.635 255.626,266.400 255.866,266.400 255.758 C 266.400 255.447,263.066 254.015,262.400 254.040 C 261.867 254.061,261.867 254.087,262.400 254.278 M278.344 254.768 C 277.458 255.488,277.351 255.495,276.600 254.868 C 275.810 254.208,275.809 254.211,276.544 255.080 L 277.287 255.959 278.444 255.104 C 279.080 254.634,279.600 254.193,279.600 254.125 C 279.600 253.853,279.247 254.034,278.344 254.768 M301.800 255.332 C 302.680 256.121,303.513 256.774,303.651 256.783 C 304.066 256.811,307.115 260.924,308.437 263.239 C 309.115 264.428,309.556 265.040,309.416 264.600 C 308.515 261.769,303.531 255.622,301.130 254.379 C 300.603 254.106,300.894 254.520,301.800 255.332 M254.976 255.022 C 254.212 255.634,254.213 255.638,255.000 255.276 C 255.440 255.074,256.070 254.808,256.400 254.686 C 256.918 254.493,256.915 254.459,256.376 254.432 C 256.034 254.414,255.404 254.680,254.976 255.022 M131.200 257.800 C 130.228 258.790,129.523 259.600,129.633 259.600 C 129.743 259.600,130.628 258.790,131.600 257.800 C 132.572 256.810,133.277 256.000,133.167 256.000 C 133.057 256.000,132.172 256.810,131.200 257.800 M148.642 258.152 C 149.719 259.335,150.925 260.730,151.323 261.252 C 152.021 262.166,152.021 262.153,151.323 260.877 C 150.618 259.586,147.377 256.000,146.915 256.000 C 146.788 256.000,147.565 256.968,148.642 258.152 M191.144 257.900 C 189.138 259.987,187.993 261.555,188.012 262.189 C 188.019 262.415,188.453 261.903,188.976 261.052 C 189.499 260.201,190.701 258.716,191.647 257.752 C 192.593 256.788,193.277 256.000,193.168 256.000 C 193.059 256.000,192.148 256.855,191.144 257.900 M208.336 257.654 C 209.291 258.672,210.501 260.201,211.024 261.052 C 211.547 261.903,211.981 262.402,211.988 262.160 C 212.006 261.500,209.905 258.786,208.150 257.202 C 206.684 255.879,206.694 255.904,208.336 257.654 M251.144 257.900 C 249.138 259.987,247.993 261.555,248.012 262.189 C 248.019 262.415,248.453 261.903,248.976 261.052 C 249.499 260.201,250.701 258.716,251.647 257.752 C 252.593 256.788,253.277 256.000,253.168 256.000 C 253.059 256.000,252.148 256.855,251.144 257.900 M268.477 257.900 C 269.493 258.945,270.700 260.430,271.161 261.200 C 271.621 261.970,271.998 262.402,271.999 262.160 C 272.001 261.554,269.866 258.661,268.341 257.204 C 266.342 255.293,266.443 255.807,268.477 257.900 M107.115 259.128 C 106.738 259.278,108.036 259.400,110.000 259.400 C 111.964 259.400,113.262 259.278,112.885 259.128 C 112.508 258.979,111.210 258.856,110.000 258.856 C 108.790 258.856,107.492 258.979,107.115 259.128 M287.115 259.128 C 286.738 259.278,288.036 259.400,290.000 259.400 C 291.964 259.400,293.262 259.278,292.885 259.128 C 292.508 258.979,291.210 258.856,290.000 258.856 C 288.790 258.856,287.492 258.979,287.115 259.128 M104.100 260.396 C 102.294 261.497,102.463 261.766,104.300 260.714 C 106.148 259.656,106.223 259.600,105.767 259.601 C 105.565 259.602,104.815 259.960,104.100 260.396 M115.600 260.635 C 118.604 262.345,119.137 263.025,118.965 264.930 L 118.814 266.600 119.214 265.039 C 119.546 263.738,119.495 263.344,118.906 262.678 C 118.065 261.726,114.821 259.598,114.222 259.605 C 113.990 259.607,114.610 260.071,115.600 260.635 M284.100 260.396 C 282.294 261.497,282.463 261.766,284.300 260.714 C 286.148 259.656,286.223 259.600,285.767 259.601 C 285.565 259.602,284.815 259.960,284.100 260.396 M294.033 259.728 C 294.669 260.215,297.200 261.536,297.200 261.381 C 297.200 261.113,294.682 259.603,294.233 259.601 C 294.032 259.601,293.942 259.657,294.033 259.728 M128.555 261.012 C 128.190 261.569,127.970 262.104,128.067 262.200 C 128.163 262.297,128.558 261.841,128.944 261.188 C 129.798 259.742,129.481 259.599,128.555 261.012 M100.975 262.900 L 99.800 264.200 101.100 263.025 C 102.312 261.930,102.584 261.600,102.275 261.600 C 102.206 261.600,101.621 262.185,100.975 262.900 M281.246 262.551 C 280.467 263.381,280.406 263.676,280.770 264.851 L 281.188 266.200 281.038 264.800 C 280.930 263.794,281.120 263.147,281.714 262.500 C 282.168 262.005,282.449 261.600,282.339 261.600 C 282.229 261.600,281.737 262.028,281.246 262.551 M297.600 261.725 C 297.600 261.794,298.185 262.379,298.900 263.025 L 300.200 264.200 299.025 262.900 C 297.930 261.688,297.600 261.416,297.600 261.725 M91.010 263.580 C 90.675 264.229,90.400 264.899,90.400 265.069 C 90.400 265.478,91.398 263.991,91.721 263.100 C 92.125 261.987,91.678 262.288,91.010 263.580 M127.027 264.833 C 126.682 265.995,126.422 267.588,126.449 268.373 C 126.488 269.509,126.564 269.350,126.823 267.595 C 127.001 266.382,127.344 264.872,127.585 264.240 C 127.826 263.607,127.940 263.006,127.838 262.905 C 127.737 262.804,127.372 263.672,127.027 264.833 M152.468 263.800 C 152.459 264.020,152.695 265.280,152.992 266.600 C 153.330 268.098,153.534 268.549,153.536 267.800 C 153.538 266.716,152.506 262.851,152.468 263.800 M272.468 263.800 C 272.459 264.020,272.695 265.280,272.992 266.600 C 273.330 268.098,273.534 268.549,273.536 267.800 C 273.538 266.716,272.506 262.851,272.468 263.800 M246.821 265.500 C 246.592 266.325,246.426 267.630,246.452 268.400 C 246.492 269.566,246.549 269.463,246.796 267.786 C 246.959 266.678,247.218 265.373,247.373 264.886 C 247.527 264.399,247.560 264.000,247.446 264.000 C 247.331 264.000,247.050 264.675,246.821 265.500 M186.656 266.084 C 186.521 266.588,186.432 267.720,186.458 268.600 C 186.497 269.920,186.559 269.780,186.813 267.800 C 187.137 265.278,187.070 264.541,186.656 266.084 M213.073 266.800 C 213.204 267.790,213.376 268.675,213.456 268.767 C 213.757 269.114,213.528 266.564,213.190 265.800 C 212.953 265.266,212.914 265.598,213.073 266.800 M89.155 268.689 C 88.473 271.037,88.468 279.748,89.149 281.200 C 89.611 282.187,89.614 282.184,89.410 281.000 C 88.777 277.331,88.754 272.845,89.354 270.027 C 90.081 266.613,89.972 265.877,89.155 268.689 M118.595 271.000 C 118.677 273.637,118.974 276.041,119.337 277.000 C 120.042 278.860,120.201 278.444,119.568 276.397 C 119.330 275.629,118.984 273.110,118.798 270.800 L 118.460 266.600 118.595 271.000 M281.342 270.200 C 281.341 272.180,281.408 273.040,281.492 272.112 C 281.576 271.184,281.577 269.564,281.495 268.512 C 281.412 267.460,281.343 268.220,281.342 270.200 M310.170 267.600 C 311.272 272.501,311.387 276.206,310.584 281.000 C 310.399 282.101,310.417 282.123,310.792 281.264 C 311.888 278.756,311.592 269.148,310.360 267.242 C 310.031 266.733,309.991 266.807,310.170 267.600 M302.619 269.536 C 302.761 270.050,303.033 271.310,303.225 272.336 L 303.573 274.200 303.405 272.098 C 303.313 270.941,303.040 269.681,302.799 269.298 C 302.428 268.706,302.401 268.742,302.619 269.536 M186.481 271.800 C 186.470 272.680,186.714 274.120,187.022 275.000 C 187.402 276.086,187.507 276.215,187.347 275.400 C 187.217 274.740,186.973 273.300,186.805 272.200 C 186.510 270.266,186.499 270.253,186.481 271.800 M126.595 272.702 C 126.687 273.859,126.960 275.119,127.201 275.502 C 127.572 276.094,127.599 276.058,127.381 275.264 C 127.239 274.750,126.967 273.490,126.775 272.464 L 126.427 270.600 126.595 272.702 M246.481 272.000 C 246.470 272.770,246.711 274.120,247.015 275.000 C 247.553 276.554,247.561 276.560,247.314 275.200 C 247.174 274.430,246.934 273.080,246.780 272.200 L 246.500 270.600 246.481 272.000 M213.104 272.800 C 212.943 273.790,212.715 275.050,212.597 275.600 C 212.480 276.150,212.665 275.880,213.008 275.000 C 213.351 274.120,213.579 272.860,213.514 272.200 C 213.414 271.174,213.354 271.261,213.104 272.800 M96.565 275.611 C 96.621 278.062,96.865 280.152,97.150 280.611 C 97.596 281.331,97.613 281.313,97.349 280.400 C 97.190 279.850,96.927 277.600,96.764 275.400 L 96.469 271.400 96.565 275.611 M152.895 273.840 C 152.629 275.108,152.479 276.212,152.561 276.294 C 152.790 276.523,153.694 272.483,153.526 271.979 C 153.445 271.735,153.161 272.573,152.895 273.840 M272.629 275.029 C 272.481 275.615,272.438 276.172,272.532 276.266 C 272.627 276.360,272.824 275.958,272.971 275.371 C 273.119 274.785,273.162 274.228,273.068 274.134 C 272.973 274.040,272.776 274.442,272.629 275.029 M280.540 276.012 C 280.291 277.216,280.146 278.263,280.217 278.340 C 280.449 278.590,281.251 275.161,281.120 274.482 C 281.051 274.121,280.790 274.809,280.540 276.012 M303.260 277.036 C 303.227 277.716,302.937 279.148,302.615 280.218 C 302.293 281.287,302.102 282.235,302.191 282.324 C 302.525 282.658,303.647 277.964,303.487 276.905 C 303.323 275.819,303.319 275.821,303.260 277.036 M128.015 277.800 C 127.994 278.641,131.564 283.073,132.849 283.803 C 133.152 283.975,132.619 283.301,131.664 282.306 C 130.709 281.310,129.499 279.799,128.976 278.948 C 128.453 278.097,128.021 277.580,128.015 277.800 M188.015 277.800 C 188.017 278.020,188.386 278.650,188.836 279.200 C 189.379 279.864,189.515 279.931,189.240 279.400 C 188.566 278.095,188.012 277.372,188.015 277.800 M211.407 278.379 C 211.260 278.841,210.128 280.340,208.891 281.710 C 206.790 284.035,206.768 284.081,208.545 282.400 C 210.509 280.543,212.250 278.117,211.882 277.749 C 211.767 277.634,211.553 277.918,211.407 278.379 M248.015 277.800 C 247.994 278.641,251.564 283.073,252.849 283.803 C 253.152 283.975,252.619 283.301,251.664 282.306 C 250.709 281.310,249.499 279.799,248.976 278.948 C 248.453 278.097,248.021 277.580,248.015 277.800 M150.661 279.500 C 149.423 281.457,146.545 284.083,144.887 284.766 C 144.165 285.064,143.653 285.386,143.748 285.482 C 144.494 286.227,149.753 281.882,151.323 279.223 C 152.357 277.473,151.795 277.708,150.661 279.500 M270.835 279.343 C 269.701 281.178,266.483 284.114,264.887 284.769 C 264.165 285.065,263.653 285.386,263.748 285.482 C 264.494 286.227,269.753 281.882,271.323 279.223 C 272.306 277.558,271.873 277.664,270.835 279.343 M278.668 281.425 C 278.052 282.718,278.255 284.400,279.028 284.400 C 279.138 284.400,279.036 284.042,278.802 283.604 C 278.480 283.002,278.533 282.504,279.017 281.566 C 279.370 280.884,279.588 280.255,279.501 280.168 C 279.414 280.081,279.040 280.647,278.668 281.425 M191.183 282.100 C 192.841 283.866,193.200 284.184,193.200 283.883 C 193.200 283.819,192.345 282.964,191.300 281.983 L 189.400 280.200 191.183 282.100 M97.600 281.749 C 97.600 282.285,99.189 285.146,99.642 285.426 C 99.892 285.580,99.593 284.828,98.977 283.753 C 97.676 281.483,97.600 281.372,97.600 281.749 M121.000 283.868 C 119.821 286.186,119.819 286.344,120.987 284.681 C 121.574 283.846,121.992 282.977,121.916 282.749 C 121.841 282.522,121.428 283.025,121.000 283.868 M300.641 284.567 C 300.071 285.538,298.749 287.090,297.703 288.016 C 296.656 288.941,296.364 289.319,297.053 288.855 C 298.582 287.827,300.570 285.605,301.403 283.995 C 302.347 282.170,301.809 282.573,300.641 284.567 M133.600 284.196 C 133.600 284.470,136.049 285.684,136.232 285.501 C 136.319 285.414,135.762 285.044,134.995 284.678 C 134.228 284.312,133.600 284.095,133.600 284.196 M193.600 284.257 C 193.600 284.527,197.235 286.098,197.424 285.909 C 197.511 285.822,196.686 285.373,195.591 284.910 C 194.496 284.447,193.600 284.153,193.600 284.257 M204.800 284.800 C 204.030 285.222,203.544 285.574,203.720 285.583 C 204.144 285.605,206.400 284.432,206.400 284.190 C 206.400 283.928,206.377 283.937,204.800 284.800 M253.600 284.196 C 253.600 284.470,256.049 285.684,256.232 285.501 C 256.319 285.414,255.762 285.044,254.995 284.678 C 254.228 284.312,253.600 284.095,253.600 284.196 M90.400 284.953 C 90.400 285.382,91.590 287.600,91.821 287.600 C 91.931 287.600,91.723 287.015,91.359 286.300 C 90.617 284.840,90.400 284.536,90.400 284.953 M308.678 286.205 C 308.312 286.972,308.095 287.600,308.196 287.600 C 308.470 287.600,309.684 285.151,309.501 284.968 C 309.414 284.881,309.044 285.438,308.678 286.205 M100.000 286.125 C 100.000 286.194,100.585 286.779,101.300 287.425 L 102.600 288.600 101.425 287.300 C 100.330 286.088,100.000 285.816,100.000 286.125 M117.700 286.276 C 118.085 286.376,118.715 286.376,119.100 286.276 C 119.485 286.175,119.170 286.093,118.400 286.093 C 117.630 286.093,117.315 286.175,117.700 286.276 M280.900 286.276 C 281.285 286.376,281.915 286.376,282.300 286.276 C 282.685 286.175,282.370 286.093,281.600 286.093 C 280.830 286.093,280.515 286.175,280.900 286.276 M113.300 287.596 C 111.494 288.697,111.663 288.966,113.500 287.914 C 115.348 286.856,115.423 286.800,114.967 286.801 C 114.765 286.802,114.015 287.160,113.300 287.596 M286.400 287.832 C 287.390 288.395,288.764 289.398,289.454 290.061 C 290.336 290.910,290.988 291.215,291.654 291.088 C 292.570 290.915,292.567 290.907,291.562 290.854 C 290.991 290.825,290.181 290.413,289.762 289.939 C 288.876 288.938,285.638 286.798,285.022 286.805 C 284.790 286.807,285.410 287.270,286.400 287.832 M92.584 289.096 C 92.932 289.809,93.258 290.512,93.308 290.660 C 93.359 290.807,92.680 291.155,91.800 291.432 L 90.200 291.936 92.000 291.712 C 94.428 291.411,94.544 290.971,92.769 288.800 L 91.952 287.800 92.584 289.096 M103.021 288.834 C 103.295 289.277,105.616 290.518,105.809 290.324 C 105.884 290.250,105.235 289.800,104.368 289.325 C 103.500 288.850,102.894 288.629,103.021 288.834 M110.420 289.778 C 109.915 290.316,109.029 290.829,108.451 290.918 L 107.400 291.080 108.425 291.140 C 109.094 291.179,109.849 290.783,110.600 290.000 C 111.232 289.340,111.657 288.800,111.545 288.800 C 111.432 288.800,110.926 289.240,110.420 289.778 M306.623 289.689 C 305.653 291.073,305.845 291.604,307.300 291.568 C 308.488 291.540,308.432 291.460,306.886 290.976 C 306.489 290.851,306.523 290.584,307.032 289.807 C 307.846 288.565,307.483 288.460,306.623 289.689 M88.100 292.796 C 86.294 293.897,86.463 294.166,88.300 293.114 C 90.148 292.056,90.223 292.000,89.767 292.001 C 89.565 292.002,88.815 292.360,88.100 292.796 M310.033 292.128 C 310.669 292.615,313.200 293.936,313.200 293.781 C 313.200 293.513,310.682 292.003,310.233 292.001 C 310.032 292.001,309.942 292.057,310.033 292.128 M249.700 293.900 C 255.365 293.962,264.635 293.962,270.300 293.900 C 275.965 293.837,271.330 293.786,260.000 293.786 C 248.670 293.786,244.035 293.837,249.700 293.900 M84.669 295.576 C 83.306 297.085,81.995 299.203,82.005 299.880 C 82.007 300.056,82.470 299.390,83.032 298.400 C 83.595 297.410,84.618 296.015,85.306 295.300 C 85.994 294.585,86.453 294.000,86.325 294.000 C 86.197 294.000,85.452 294.709,84.669 295.576 M117.400 294.379 C 116.960 294.565,116.060 295.287,115.400 295.984 L 114.200 297.250 114.074 304.228 L 113.948 311.206 140.064 311.103 L 166.179 311.000 166.144 309.600 C 166.125 308.830,166.084 305.808,166.054 302.885 L 166.000 297.569 164.429 295.885 L 162.858 294.200 140.529 294.120 C 128.248 294.076,117.840 294.193,117.400 294.379 M236.665 294.647 C 236.040 294.986,235.615 295.348,235.720 295.453 C 235.824 295.557,236.515 295.274,237.255 294.823 C 238.813 293.873,238.348 293.735,236.665 294.647 M282.870 294.871 C 283.679 295.340,284.661 296.318,285.053 297.046 C 285.444 297.773,285.831 298.302,285.912 298.221 C 286.594 297.539,283.124 293.985,281.800 294.011 C 281.580 294.015,282.062 294.402,282.870 294.871 M314.673 295.204 C 315.372 295.972,316.405 297.410,316.968 298.400 C 317.530 299.390,317.993 300.010,317.995 299.778 C 318.003 299.072,315.784 295.862,314.556 294.804 C 313.473 293.871,313.481 293.896,314.673 295.204 M234.555 297.012 C 234.190 297.569,233.964 298.098,234.053 298.187 C 234.142 298.276,234.518 297.820,234.889 297.174 C 235.714 295.736,235.469 295.617,234.555 297.012 M98.380 299.200 C 91.909 299.422,90.995 299.731,89.892 302.070 C 89.250 303.433,88.763 310.792,89.315 310.797 C 89.472 310.799,93.290 310.800,97.800 310.800 L 106.000 310.800 106.000 305.047 C 106.000 298.242,106.868 298.908,98.380 299.200 M233.783 305.000 L 233.800 311.000 260.000 311.000 L 286.200 311.000 286.217 305.000 L 286.234 299.000 286.106 304.900 L 285.979 310.800 260.000 310.800 L 234.021 310.800 233.894 304.900 L 233.766 299.000 233.783 305.000 M81.050 302.850 C 80.515 305.523,80.772 315.586,81.407 316.813 C 82.744 319.399,72.838 319.200,200.000 319.200 C 327.162 319.200,317.256 319.399,318.593 316.813 C 319.232 315.578,319.429 304.504,318.849 302.428 C 318.699 301.893,318.648 304.551,318.735 308.333 C 318.910 315.951,318.652 317.242,316.764 318.219 C 315.065 319.097,84.935 319.097,83.236 318.219 C 81.339 317.238,81.079 315.932,81.275 308.394 C 81.461 301.218,81.447 300.864,81.050 302.850 " stroke="none" fill="#abb2b2" fill-rule="evenodd"></path></g></svg>