<svg id="svg" version="1.1" xmlns="http://www.w3.org/2000/svg" xmlns:xlink="http://www.w3.org/1999/xlink" width="400" height="400" viewBox="0, 0, 400,400"><g id="svgg"><path id="path0" d="M103.244 81.758 C 101.272 82.851,100.170 93.302,101.678 96.611 C 102.927 99.353,107.073 99.353,108.322 96.611 C 109.048 95.017,108.963 84.676,108.212 83.224 C 107.318 81.494,104.970 80.801,103.244 81.758 M253.360 81.771 C 251.408 82.621,251.411 82.593,251.200 106.400 L 251.000 129.000 248.293 129.268 C 243.534 129.738,242.936 130.195,229.186 143.862 C 222.249 150.758,216.444 156.400,216.286 156.400 C 215.804 156.400,215.968 155.324,216.521 154.866 C 217.588 153.980,219.964 148.496,220.572 145.517 C 224.164 127.891,209.809 112.408,194.313 117.194 C 180.003 121.614,174.101 141.497,183.251 154.462 C 184.444 156.153,184.221 156.296,180.100 156.492 C 175.321 156.718,173.192 157.570,170.381 160.381 C 166.812 163.950,166.638 164.650,166.403 176.345 L 166.200 186.490 163.731 187.383 C 149.668 192.472,144.237 211.689,153.251 224.462 C 154.498 226.228,154.266 226.400,150.636 226.400 C 141.611 226.400,136.839 231.417,136.418 241.346 L 136.200 246.492 133.679 247.403 C 130.255 248.641,127.310 250.674,124.784 253.544 L 122.672 255.943 121.419 254.987 C 114.662 249.833,104.293 250.269,97.319 256.000 C 88.039 263.627,86.018 280.309,93.253 289.554 C 94.380 290.993,94.205 291.600,92.664 291.600 C 90.767 291.600,86.729 293.739,84.987 295.667 C 80.557 300.571,79.343 316.205,83.236 318.219 C 84.935 319.097,315.065 319.097,316.764 318.219 C 320.665 316.202,319.452 300.580,315.013 295.667 C 313.271 293.739,309.233 291.600,307.336 291.600 C 305.813 291.600,305.683 291.172,306.749 289.662 C 321.191 269.199,297.762 240.358,278.581 254.987 L 277.328 255.943 275.191 253.516 C 272.750 250.743,269.294 248.358,266.275 247.365 C 263.590 246.481,263.613 246.533,263.606 241.515 C 263.592 231.893,258.417 226.400,249.364 226.400 C 245.622 226.400,245.431 226.222,246.983 224.187 C 255.854 212.556,250.223 192.630,236.651 187.624 L 233.800 186.573 233.685 182.436 L 233.571 178.299 247.485 164.362 C 263.531 148.290,263.374 148.506,263.368 142.600 C 263.364 138.464,262.608 136.318,260.228 133.684 L 258.800 132.103 258.800 125.463 L 258.800 118.823 277.835 118.711 L 296.870 118.600 297.878 117.428 C 299.934 115.037,299.343 113.953,291.939 106.539 L 285.420 100.011 291.879 93.506 C 299.520 85.810,300.412 83.668,296.764 81.781 C 295.161 80.952,255.262 80.943,253.360 81.771 M285.200 89.108 C 285.200 89.277,283.381 91.212,281.158 93.408 C 274.721 99.765,274.720 100.066,281.097 106.483 C 284.066 109.471,285.177 110.834,284.773 110.989 C 284.454 111.111,278.524 111.164,271.596 111.106 L 259.000 111.000 258.893 100.406 C 258.834 94.580,258.874 89.585,258.981 89.306 C 259.200 88.735,285.200 88.538,285.200 89.108 M83.155 101.800 C 80.768 103.097,80.804 106.961,83.213 108.207 C 84.676 108.963,95.009 109.052,96.611 108.322 C 97.686 107.833,98.800 106.141,98.800 105.000 C 98.800 103.859,97.686 102.167,96.611 101.678 C 95.052 100.967,84.511 101.063,83.155 101.800 M113.343 101.778 C 110.762 102.901,110.695 106.905,113.236 108.219 C 114.677 108.964,125.028 109.044,126.611 108.322 C 127.686 107.833,128.800 106.141,128.800 105.000 C 128.800 103.859,127.686 102.167,126.611 101.678 C 125.102 100.990,114.979 101.067,113.343 101.778 M103.354 111.774 C 101.586 112.543,101.200 114.060,101.200 120.241 C 101.200 126.856,102.063 128.800,105.000 128.800 C 107.973 128.800,108.800 126.876,108.800 119.961 C 108.800 112.091,107.414 110.007,103.354 111.774 M205.000 125.023 C 218.941 131.633,214.973 156.118,199.960 156.118 C 187.095 156.118,181.439 136.623,191.600 127.301 C 195.489 123.733,200.487 122.883,205.000 125.023 M253.101 137.438 C 257.373 139.942,257.114 144.387,252.427 148.990 L 249.994 151.381 245.599 146.999 L 241.204 142.618 243.702 140.066 C 247.525 136.161,249.824 135.518,253.101 137.438 M244.000 156.751 C 244.000 157.062,240.196 161.133,235.546 165.798 C 225.353 176.025,226.032 174.920,226.014 181.313 C 226.002 185.816,225.917 186.454,225.300 186.664 C 210.467 191.733,204.133 209.623,212.365 223.200 C 214.202 226.231,214.153 226.289,209.704 226.360 C 206.905 226.405,203.839 227.418,201.803 228.971 C 200.129 230.248,199.871 230.248,198.197 228.971 C 196.161 227.418,193.095 226.405,190.296 226.360 C 188.923 226.338,187.380 226.202,186.866 226.058 L 185.931 225.795 186.712 224.797 C 196.298 212.543,189.467 190.520,174.898 186.710 L 174.000 186.475 174.000 177.102 L 174.000 167.729 175.100 166.294 C 176.899 163.948,176.370 164.000,198.232 164.000 C 214.648 164.000,218.666 163.895,219.713 163.441 C 220.421 163.133,224.328 159.534,228.395 155.442 L 235.789 148.003 239.895 152.094 C 242.153 154.345,244.000 156.440,244.000 156.751 M118.543 161.581 C 116.125 162.600,115.291 170.527,117.382 172.618 C 120.524 175.760,123.600 173.297,123.600 167.640 C 123.600 162.399,121.780 160.218,118.543 161.581 M102.531 177.358 C 101.642 178.123,101.418 178.653,101.418 180.000 C 101.418 182.858,102.701 183.600,107.640 183.600 C 113.314 183.600,115.645 180.724,112.619 177.458 C 111.185 175.911,104.293 175.842,102.531 177.358 M127.475 177.522 C 124.356 180.777,126.730 183.600,132.585 183.600 C 137.441 183.600,138.582 182.903,138.582 179.935 C 138.582 176.353,130.315 174.557,127.475 177.522 M117.381 187.458 C 114.591 190.469,116.454 198.582,119.935 198.582 C 122.902 198.582,123.600 197.441,123.600 192.589 C 123.600 187.642,122.877 186.400,120.000 186.400 C 118.742 186.400,118.134 186.646,117.381 187.458 M292.522 187.365 L 291.400 188.331 291.400 194.933 C 291.400 202.692,291.777 203.600,295.000 203.600 C 298.223 203.600,298.600 202.692,298.600 194.933 L 298.600 188.331 297.478 187.365 C 296.769 186.756,295.856 186.400,295.000 186.400 C 294.144 186.400,293.231 186.756,292.522 187.365 M175.000 195.002 C 189.070 201.438,185.084 226.118,169.974 226.118 C 161.787 226.118,155.500 217.790,156.445 208.196 C 157.495 197.526,166.508 191.117,175.000 195.002 M233.407 194.220 C 244.259 196.789,247.274 215.855,237.991 223.207 C 226.376 232.406,211.738 218.081,217.532 203.185 C 220.248 196.203,226.608 192.611,233.407 194.220 M272.531 207.358 C 271.042 208.639,270.971 211.079,272.379 212.577 C 273.333 213.593,273.385 213.600,279.847 213.600 C 287.572 213.600,288.582 213.184,288.582 210.000 C 288.582 206.831,287.554 206.400,280.000 206.400 C 273.873 206.400,273.605 206.434,272.531 207.358 M302.531 207.358 C 301.642 208.123,301.418 208.653,301.418 210.000 C 301.418 213.169,302.446 213.600,310.000 213.600 C 317.554 213.600,318.582 213.169,318.582 210.000 C 318.582 206.831,317.554 206.400,310.000 206.400 C 303.873 206.400,303.605 206.434,302.531 207.358 M292.522 217.365 L 291.400 218.331 291.400 225.000 L 291.400 231.669 292.522 232.635 C 293.231 233.244,294.144 233.600,295.000 233.600 C 295.856 233.600,296.769 233.244,297.478 232.635 L 298.600 231.669 298.600 225.000 L 298.600 218.331 297.478 217.365 C 296.769 216.756,295.856 216.400,295.000 216.400 C 294.144 216.400,293.231 216.756,292.522 217.365 M251.086 233.992 C 252.424 234.000,254.816 235.735,255.658 237.308 C 256.748 239.344,256.453 246.800,255.283 246.800 C 254.924 246.800,253.145 247.535,251.331 248.434 C 238.874 254.605,234.862 272.398,243.177 284.600 C 244.301 286.250,244.386 286.193,240.700 286.261 C 237.033 286.330,233.600 287.379,231.636 289.031 C 230.210 290.231,230.028 290.230,227.637 289.019 C 225.185 287.776,219.975 286.400,217.725 286.400 C 215.784 286.400,215.652 286.151,216.809 284.679 C 226.205 272.735,219.862 251.322,205.700 247.172 L 204.000 246.673 204.000 242.138 L 204.000 237.602 205.431 236.019 C 207.581 233.639,205.901 233.714,251.086 233.992 M193.104 234.798 C 195.509 236.264,196.025 237.654,195.906 242.331 L 195.800 246.463 193.600 247.234 C 179.576 252.146,174.139 271.940,183.260 284.874 L 184.018 285.948 182.109 286.203 C 178.734 286.654,173.922 287.967,171.839 289.006 L 169.812 290.016 168.806 289.218 C 166.307 287.237,162.212 286.000,158.150 286.000 L 156.010 286.000 157.324 283.900 C 165.592 270.688,160.217 252.285,146.657 247.379 L 144.200 246.490 144.094 242.345 C 143.975 237.652,144.490 236.265,146.896 234.798 C 148.928 233.559,191.072 233.559,193.104 234.798 M145.042 255.035 C 156.673 260.543,156.520 279.640,144.800 285.128 C 136.043 289.228,126.381 281.329,126.408 270.091 C 126.437 258.459,135.983 250.745,145.042 255.035 M205.079 255.053 C 214.659 259.593,216.747 274.390,208.913 282.223 C 199.914 291.223,186.417 283.889,186.417 270.000 C 186.417 258.427,196.001 250.751,205.079 255.053 M265.104 255.069 C 272.630 258.623,275.904 269.254,272.074 277.700 C 268.175 286.301,258.019 288.875,251.724 282.858 C 239.391 271.072,250.432 248.139,265.104 255.069 M114.152 259.616 C 117.957 261.040,119.750 263.007,119.239 265.200 C 118.239 269.492,119.028 276.216,121.075 280.856 L 122.070 283.112 120.982 284.756 C 120.075 286.126,119.675 286.400,118.582 286.400 C 116.565 286.400,112.966 287.953,111.027 289.660 C 109.001 291.443,108.767 291.476,105.834 290.378 C 95.512 286.516,93.031 269.980,101.616 262.262 C 105.291 258.957,109.830 257.999,114.152 259.616 M294.265 259.659 C 295.629 260.169,297.343 261.250,298.489 262.322 C 306.911 270.199,304.448 286.531,294.265 290.341 C 291.223 291.479,291.009 291.452,288.973 289.660 C 287.101 288.012,283.452 286.400,281.593 286.400 C 279.197 286.400,277.614 283.526,278.766 281.267 C 280.829 277.223,281.779 269.571,280.761 265.200 C 279.743 260.829,288.161 257.375,294.265 259.659 M283.498 294.929 C 285.914 296.604,286.200 297.647,286.200 304.800 L 286.200 311.000 260.000 311.000 L 233.800 311.000 233.676 306.400 C 233.489 299.428,233.780 297.805,235.561 295.896 C 237.647 293.659,237.551 293.667,261.035 293.738 L 281.869 293.800 283.498 294.929 M162.720 294.562 C 165.625 296.073,165.787 296.564,165.926 304.231 L 166.052 311.200 140.026 311.200 L 114.000 311.200 114.001 304.700 C 114.003 297.430,114.312 296.373,116.896 294.798 C 118.610 293.753,160.749 293.536,162.720 294.562 M220.440 294.439 C 226.710 296.465,226.258 295.674,226.077 304.300 L 225.933 311.200 199.966 311.200 L 174.000 311.200 173.925 305.000 C 173.884 301.590,173.839 298.307,173.825 297.705 C 173.796 296.447,174.725 295.872,178.600 294.751 C 181.526 293.905,217.946 293.633,220.440 294.439 M308.247 299.825 C 310.660 301.628,311.000 302.506,311.000 306.928 L 311.000 311.000 302.500 311.108 L 294.000 311.216 294.000 304.981 L 294.000 298.746 300.572 298.873 C 306.472 298.987,307.257 299.084,308.247 299.825 M106.000 305.000 L 106.000 310.800 97.564 310.800 L 89.127 310.800 89.264 306.625 C 89.483 299.925,90.417 299.263,99.700 299.225 L 106.000 299.200 106.000 305.000 " stroke="none" fill="#212121" fill-rule="evenodd"></path><path id="path1" d="M0.000 200.000 L 0.000 400.000 200.000 400.000 L 400.000 400.000 400.000 200.000 L 400.000 0.000 200.000 0.000 L 0.000 0.000 0.000 200.000 M297.246 81.722 C 298.052 82.124,298.800 83.720,298.800 85.039 C 298.800 86.774,297.809 88.047,291.827 93.995 C 288.622 97.182,286.000 99.896,286.000 100.026 C 286.000 100.155,288.787 103.038,292.193 106.431 C 299.810 114.020,300.441 115.318,297.730 117.830 L 296.692 118.792 277.908 118.896 L 259.124 119.000 259.180 125.597 C 259.234 131.906,259.277 132.238,260.165 133.197 C 263.826 137.150,264.791 144.047,262.363 148.907 C 261.820 149.994,256.593 155.542,247.759 164.408 L 234.000 178.215 234.000 182.254 L 234.000 186.293 236.412 187.172 C 250.540 192.324,255.959 211.360,247.040 224.503 L 246.095 225.896 249.782 226.089 C 258.893 226.565,263.606 231.670,263.931 241.414 L 264.094 246.310 266.822 247.381 C 270.297 248.744,272.434 250.242,275.236 253.276 L 277.472 255.698 279.178 254.462 C 292.534 244.787,311.371 256.804,311.371 275.000 C 311.371 280.356,308.931 288.065,306.633 289.973 C 305.743 290.711,305.846 291.195,306.900 291.231 C 314.572 291.495,318.800 297.898,318.800 309.252 C 318.800 316.416,318.554 317.619,316.937 318.356 C 315.547 318.989,84.453 318.989,83.063 318.356 C 79.971 316.947,80.408 301.639,83.677 296.888 C 85.573 294.133,90.490 291.200,93.215 291.200 C 94.221 291.200,94.203 291.017,93.046 289.473 C 84.645 278.265,88.845 259.436,101.112 253.307 C 107.386 250.172,115.548 250.642,120.790 254.439 L 122.465 255.652 125.132 252.889 C 127.999 249.921,130.278 248.405,133.665 247.214 L 135.800 246.464 136.047 241.443 C 136.529 231.628,141.211 226.560,150.232 226.088 C 153.669 225.908,153.973 225.829,153.479 225.245 C 143.676 213.652,149.353 192.362,163.636 187.155 L 165.939 186.315 166.070 176.457 L 166.200 166.600 167.368 164.222 C 169.906 159.052,173.965 156.481,180.174 156.111 C 183.648 155.903,183.964 155.820,183.470 155.241 C 174.306 144.492,178.600 124.436,191.400 118.204 C 211.536 108.399,230.274 135.002,217.004 154.555 C 214.868 157.704,217.321 155.513,228.717 144.095 C 243.079 129.706,244.317 128.800,249.636 128.800 L 251.200 128.800 251.200 106.222 L 251.200 83.645 252.106 82.591 C 252.605 82.011,253.602 81.416,254.322 81.269 C 256.131 80.898,296.446 81.323,297.246 81.722 M107.631 82.369 L 108.800 83.538 108.800 90.000 L 108.800 96.462 107.631 97.631 C 105.824 99.437,102.614 99.065,101.644 96.937 C 101.053 95.641,101.055 84.357,101.646 83.060 C 102.618 80.926,105.819 80.557,107.631 82.369 M125.531 101.186 C 126.900 101.207,128.800 103.278,128.800 104.750 C 128.800 108.279,127.635 108.800,119.750 108.800 L 113.538 108.800 112.369 107.631 C 110.187 105.449,111.280 101.892,114.324 101.269 C 115.045 101.121,117.652 101.039,120.118 101.086 C 122.583 101.133,125.019 101.178,125.531 101.186 M96.937 101.644 C 99.065 102.614,99.437 105.824,97.631 107.631 L 96.462 108.800 90.000 108.800 L 83.538 108.800 82.369 107.631 C 80.614 105.876,80.927 102.645,82.946 101.668 C 84.119 101.100,95.699 101.080,96.937 101.644 M107.631 112.369 L 108.800 113.538 108.800 119.750 C 108.800 126.395,108.533 127.629,106.937 128.356 C 105.211 129.143,103.630 128.892,102.369 127.631 L 101.200 126.462 101.200 120.000 L 101.200 113.538 102.369 112.369 C 103.235 111.504,103.918 111.200,105.000 111.200 C 106.082 111.200,106.765 111.504,107.631 112.369 M195.833 124.992 C 183.555 130.040,183.769 150.514,196.147 155.146 C 209.510 160.145,219.388 139.823,209.079 128.543 C 205.151 124.246,200.609 123.028,195.833 124.992 M247.800 137.223 C 247.140 137.415,245.476 138.708,244.102 140.095 L 241.604 142.618 245.799 146.799 L 249.995 150.980 252.408 148.592 C 258.391 142.672,255.295 135.034,247.800 137.223 M122.318 161.863 C 124.607 163.307,124.821 170.459,122.640 172.640 C 119.386 175.894,116.260 173.650,116.086 167.933 C 115.904 161.950,118.480 159.440,122.318 161.863 M112.833 177.506 C 114.463 179.332,114.394 180.886,112.602 182.678 L 111.205 184.075 107.164 183.938 C 101.753 183.753,99.592 181.226,101.872 177.746 C 103.400 175.414,110.819 175.251,112.833 177.506 M137.835 177.322 C 140.759 180.723,138.496 183.745,132.882 183.936 C 127.079 184.134,124.057 180.866,127.009 177.585 C 128.871 175.515,136.130 175.339,137.835 177.322 M122.900 187.605 C 125.220 190.152,124.322 197.150,121.497 198.533 C 118.053 200.219,115.914 197.692,116.086 192.141 C 116.267 186.324,119.669 184.059,122.900 187.605 M297.498 186.881 C 299.330 188.400,300.021 198.555,298.499 201.600 C 297.192 204.216,293.733 204.713,292.017 202.531 C 290.886 201.093,290.771 189.426,291.872 187.746 C 293.021 185.992,295.893 185.550,297.498 186.881 M167.600 194.261 C 163.587 195.872,159.600 198.847,159.600 200.230 C 159.600 200.490,159.331 200.926,159.001 201.199 C 158.010 202.022,156.800 206.650,156.800 209.622 C 156.800 230.235,181.004 231.579,183.501 211.106 C 184.586 202.207,174.479 191.500,167.600 194.261 M227.600 194.283 C 224.244 195.515,219.600 198.892,219.600 200.101 C 219.600 200.283,219.241 200.920,218.802 201.516 C 212.467 210.119,219.695 225.780,230.000 225.780 C 234.063 225.780,240.800 221.824,240.800 219.438 C 240.800 219.232,241.056 218.779,241.369 218.431 C 242.962 216.665,243.638 209.306,242.607 204.937 C 240.984 198.052,232.923 192.330,227.600 194.283 M234.400 197.200 C 234.400 197.420,234.130 197.600,233.800 197.600 C 233.470 197.600,233.200 197.420,233.200 197.200 C 233.200 196.980,233.470 196.800,233.800 196.800 C 234.130 196.800,234.400 196.980,234.400 197.200 M236.216 199.173 C 236.071 199.408,235.558 199.597,235.076 199.594 C 234.236 199.588,234.241 199.567,235.200 199.061 C 236.298 198.483,236.621 198.518,236.216 199.173 M236.292 206.691 C 236.205 207.521,236.133 206.940,236.131 205.400 C 236.129 203.860,236.200 203.181,236.289 203.891 C 236.377 204.601,236.379 205.861,236.292 206.691 M160.000 204.556 C 160.000 204.861,159.647 205.536,159.216 206.056 L 158.432 207.000 159.116 205.513 C 159.870 203.873,160.000 203.733,160.000 204.556 M180.079 206.624 C 180.170 207.408,180.100 208.138,179.923 208.248 C 179.745 208.358,179.600 207.717,179.600 206.824 C 179.600 204.819,179.856 204.713,180.079 206.624 M221.882 207.700 C 221.787 208.195,221.709 207.790,221.709 206.800 C 221.709 205.810,221.787 205.405,221.882 205.900 C 221.978 206.395,221.978 207.205,221.882 207.700 M238.694 211.500 C 238.612 212.545,238.544 211.690,238.544 209.600 C 238.544 207.510,238.612 206.655,238.694 207.700 C 238.776 208.745,238.776 210.455,238.694 211.500 M240.282 208.500 C 240.187 208.995,240.109 208.590,240.109 207.600 C 240.109 206.610,240.187 206.205,240.282 206.700 C 240.378 207.195,240.378 208.005,240.282 208.500 M286.764 206.506 C 288.621 207.458,289.415 209.736,288.503 211.500 C 287.287 213.853,286.618 214.031,279.461 213.909 L 273.122 213.800 272.163 212.600 C 270.514 210.537,271.077 207.742,273.400 206.464 C 274.543 205.836,285.523 205.870,286.764 206.506 M316.808 206.604 C 319.034 207.755,319.533 210.702,317.836 212.678 C 316.855 213.819,307.290 214.611,304.114 213.814 C 300.803 212.983,300.233 208.227,303.244 206.558 C 304.682 205.761,315.247 205.797,316.808 206.604 M166.287 209.095 C 166.195 209.703,166.117 209.300,166.114 208.200 C 166.111 207.100,166.187 206.603,166.282 207.095 C 166.377 207.586,166.379 208.486,166.287 209.095 M220.283 208.495 C 220.187 208.993,220.105 208.680,220.101 207.800 C 220.096 206.920,220.175 206.513,220.275 206.895 C 220.375 207.278,220.379 207.998,220.283 208.495 M167.882 209.300 C 167.787 209.795,167.709 209.390,167.709 208.400 C 167.709 207.410,167.787 207.005,167.882 207.500 C 167.978 207.995,167.978 208.805,167.882 209.300 M231.876 209.900 C 231.775 210.285,231.693 209.970,231.693 209.200 C 231.693 208.430,231.775 208.115,231.876 208.500 C 231.976 208.885,231.976 209.515,231.876 209.900 M175.889 212.900 C 175.801 213.615,175.728 213.030,175.728 211.600 C 175.728 210.170,175.801 209.585,175.889 210.300 C 175.978 211.015,175.978 212.185,175.889 212.900 M220.400 214.862 C 220.400 215.048,220.040 214.840,219.600 214.400 C 219.160 213.960,218.800 213.482,218.800 213.338 C 218.800 213.194,219.160 213.402,219.600 213.800 C 220.040 214.198,220.400 214.676,220.400 214.862 M297.498 216.881 C 299.330 218.400,300.021 228.555,298.499 231.600 C 297.158 234.285,293.658 234.729,292.017 232.423 C 291.023 231.027,290.788 219.838,291.714 218.008 C 292.684 216.090,295.810 215.481,297.498 216.881 M135.833 254.992 C 123.698 259.981,123.741 280.050,135.896 284.989 C 144.382 288.437,153.124 280.970,153.277 270.142 C 153.430 259.355,144.367 251.484,135.833 254.992 M195.955 254.942 C 183.714 259.978,183.705 280.019,195.943 285.052 C 203.891 288.322,211.678 282.219,213.388 271.379 C 214.978 261.300,204.505 251.425,195.955 254.942 M255.833 254.992 C 245.819 259.109,243.513 274.279,251.685 282.289 C 260.195 290.631,273.090 283.378,273.277 270.142 C 273.430 259.355,264.367 251.484,255.833 254.992 M106.353 259.728 C 93.967 264.362,93.339 284.225,105.400 289.858 C 108.066 291.103,109.164 291.053,110.513 289.624 C 112.002 288.046,115.398 286.434,117.842 286.144 C 120.513 285.828,122.080 283.560,121.083 281.454 C 119.507 278.128,119.091 276.753,118.685 273.543 C 118.376 271.094,118.370 269.091,118.663 266.736 C 119.148 262.837,118.958 262.466,115.506 260.588 C 113.054 259.253,108.713 258.845,106.353 259.728 M286.353 259.728 C 281.904 261.392,280.770 262.749,281.276 265.800 C 282.106 270.800,280.734 279.469,278.732 281.882 C 277.689 283.138,279.830 285.868,282.065 286.133 C 284.631 286.437,287.140 287.586,289.097 289.355 C 291.612 291.626,294.616 290.944,298.368 287.248 C 309.432 276.349,299.953 254.639,286.353 259.728 M117.400 294.916 C 114.617 296.460,114.000 298.304,114.000 305.085 L 114.000 310.800 140.028 310.800 L 166.055 310.800 165.928 304.500 C 165.783 297.345,165.414 296.338,162.370 294.785 C 159.802 293.474,119.788 293.591,117.400 294.916 M237.260 294.679 C 234.400 296.088,233.965 297.454,234.090 304.636 L 234.200 311.000 260.000 311.000 L 285.800 311.000 285.910 304.664 C 286.034 297.546,285.724 296.483,283.033 294.820 C 281.173 293.671,239.566 293.542,237.260 294.679 " stroke="none" fill="#fbfbfb" fill-rule="evenodd"></path><path id="path2" d="M228.395 155.442 C 224.328 159.534,220.421 163.133,219.713 163.441 C 218.666 163.895,214.648 164.000,198.232 164.000 C 176.370 164.000,176.899 163.948,175.100 166.294 L 174.000 167.729 174.000 177.102 L 174.000 186.475 174.898 186.710 C 189.467 190.520,196.298 212.543,186.712 224.797 L 185.931 225.795 186.866 226.058 C 187.380 226.202,188.923 226.338,190.296 226.360 C 193.095 226.405,196.161 227.418,198.197 228.971 C 199.871 230.248,200.129 230.248,201.803 228.971 C 203.839 227.418,206.905 226.405,209.704 226.360 C 214.153 226.289,214.202 226.231,212.365 223.200 C 204.133 209.623,210.467 191.733,225.300 186.664 C 225.917 186.454,226.002 185.816,226.014 181.313 C 226.032 174.920,225.353 176.025,235.546 165.798 C 240.196 161.133,244.000 157.062,244.000 156.751 C 244.000 156.440,242.153 154.345,239.895 152.094 L 235.789 148.003 228.395 155.442 M146.896 234.798 C 144.490 236.265,143.975 237.652,144.094 242.345 L 144.200 246.490 146.657 247.379 C 160.217 252.285,165.592 270.688,157.324 283.900 L 156.010 286.000 158.150 286.000 C 162.212 286.000,166.307 287.237,168.806 289.218 L 169.812 290.016 171.839 289.006 C 173.922 287.967,178.734 286.654,182.109 286.203 L 184.018 285.948 183.260 284.874 C 174.139 271.940,179.576 252.146,193.600 247.234 L 195.800 246.463 195.906 242.331 C 196.025 237.654,195.509 236.264,193.104 234.798 C 191.072 233.559,148.928 233.559,146.896 234.798 M92.996 299.607 C 92.858 299.830,92.573 299.907,92.362 299.777 C 92.152 299.647,92.013 299.689,92.054 299.870 C 92.217 300.606,91.467 301.600,90.747 301.600 C 89.705 301.600,89.312 302.843,89.242 306.359 C 89.152 310.909,88.930 310.800,98.262 310.800 L 106.000 310.800 106.000 305.800 C 106.000 299.013,106.203 299.200,98.824 299.200 C 95.478 299.200,93.147 299.363,92.996 299.607 " stroke="none" fill="#06adc3" fill-rule="evenodd"></path><path id="path3" d="M258.981 89.306 C 258.874 89.585,258.834 94.580,258.893 100.406 L 259.000 111.000 271.596 111.106 C 278.524 111.164,284.454 111.111,284.773 110.989 C 285.177 110.834,284.066 109.471,281.097 106.483 C 274.720 100.066,274.721 99.765,281.158 93.408 C 283.381 91.212,285.200 89.277,285.200 89.108 C 285.200 88.538,259.200 88.735,258.981 89.306 M199.300 116.276 C 199.685 116.376,200.315 116.376,200.700 116.276 C 201.085 116.175,200.770 116.093,200.000 116.093 C 199.230 116.093,198.915 116.175,199.300 116.276 M258.386 153.500 L 256.200 155.800 258.500 153.614 C 260.637 151.582,260.983 151.200,260.686 151.200 C 260.624 151.200,259.589 152.235,258.386 153.500 M179.891 156.289 C 180.601 156.377,181.861 156.379,182.691 156.292 C 183.521 156.205,182.940 156.133,181.400 156.131 C 179.860 156.129,179.181 156.200,179.891 156.289 M254.000 157.800 C 253.028 158.790,252.323 159.600,252.433 159.600 C 252.543 159.600,253.428 158.790,254.400 157.800 C 255.372 156.810,256.077 156.000,255.967 156.000 C 255.857 156.000,254.972 156.810,254.000 157.800 M250.000 161.800 C 249.028 162.790,248.323 163.600,248.433 163.600 C 248.543 163.600,249.428 162.790,250.400 161.800 C 251.372 160.810,252.077 160.000,251.967 160.000 C 251.857 160.000,250.972 160.810,250.000 161.800 M123.742 167.400 C 123.741 169.380,123.808 170.240,123.892 169.312 C 123.976 168.384,123.977 166.764,123.895 165.712 C 123.812 164.660,123.743 165.420,123.742 167.400 M246.000 165.800 C 245.028 166.790,244.323 167.600,244.433 167.600 C 244.543 167.600,245.428 166.790,246.400 165.800 C 247.372 164.810,248.077 164.000,247.967 164.000 C 247.857 164.000,246.972 164.810,246.000 165.800 M116.140 167.600 C 116.140 169.470,116.209 170.235,116.293 169.300 C 116.377 168.365,116.377 166.835,116.293 165.900 C 116.209 164.965,116.140 165.730,116.140 167.600 M242.000 169.800 C 241.028 170.790,240.323 171.600,240.433 171.600 C 240.543 171.600,241.428 170.790,242.400 169.800 C 243.372 168.810,244.077 168.000,243.967 168.000 C 243.857 168.000,242.972 168.810,242.000 169.800 M165.999 177.881 C 165.890 182.765,165.939 186.622,166.108 186.453 C 166.278 186.283,166.367 182.286,166.307 177.572 L 166.199 169.000 165.999 177.881 M238.000 173.800 C 237.028 174.790,236.323 175.600,236.433 175.600 C 236.543 175.600,237.428 174.790,238.400 173.800 C 239.372 172.810,240.077 172.000,239.967 172.000 C 239.857 172.000,238.972 172.810,238.000 173.800 M105.911 176.293 C 106.851 176.378,108.291 176.377,109.111 176.291 C 109.930 176.205,109.160 176.136,107.400 176.137 C 105.640 176.139,104.970 176.209,105.911 176.293 M131.111 176.293 C 132.051 176.378,133.491 176.377,134.311 176.291 C 135.130 176.205,134.360 176.136,132.600 176.137 C 130.840 176.139,130.170 176.209,131.111 176.293 M233.667 182.276 C 233.630 184.518,233.735 186.437,233.900 186.540 C 234.065 186.642,234.151 185.438,234.091 183.863 C 233.894 178.718,233.736 178.124,233.667 182.276 M105.712 183.895 C 106.764 183.977,108.384 183.976,109.312 183.892 C 110.240 183.808,109.380 183.741,107.400 183.742 C 105.420 183.743,104.660 183.812,105.712 183.895 M130.912 183.895 C 131.964 183.977,133.584 183.976,134.512 183.892 C 135.440 183.808,134.580 183.741,132.600 183.742 C 130.620 183.743,129.860 183.812,130.912 183.895 M116.140 192.400 C 116.140 194.270,116.209 195.035,116.293 194.100 C 116.377 193.165,116.377 191.635,116.293 190.700 C 116.209 189.765,116.140 190.530,116.140 192.400 M123.742 192.600 C 123.741 194.580,123.808 195.440,123.892 194.512 C 123.976 193.584,123.977 191.964,123.895 190.912 C 123.812 189.860,123.743 190.620,123.742 192.600 M277.282 206.296 C 278.758 206.373,281.278 206.373,282.882 206.297 C 284.487 206.221,283.280 206.158,280.200 206.158 C 277.120 206.157,275.807 206.219,277.282 206.296 M306.900 206.297 C 308.605 206.372,311.395 206.372,313.100 206.297 C 314.805 206.222,313.410 206.161,310.000 206.161 C 306.590 206.161,305.195 206.222,306.900 206.297 M276.918 213.898 C 278.633 213.973,281.333 213.972,282.918 213.897 C 284.503 213.821,283.100 213.759,279.800 213.760 C 276.500 213.761,275.203 213.822,276.918 213.898 M306.900 213.897 C 308.605 213.972,311.395 213.972,313.100 213.897 C 314.805 213.822,313.410 213.761,310.000 213.761 C 306.590 213.761,305.195 213.822,306.900 213.897 M149.891 226.289 C 150.601 226.377,151.861 226.379,152.691 226.292 C 153.521 226.205,152.940 226.133,151.400 226.131 C 149.860 226.129,149.181 226.200,149.891 226.289 M247.091 226.289 C 247.801 226.377,249.061 226.379,249.891 226.292 C 250.721 226.205,250.140 226.133,248.600 226.131 C 247.060 226.129,246.381 226.200,247.091 226.289 M135.997 242.682 C 135.889 244.927,135.942 246.621,136.116 246.446 C 136.290 246.271,136.378 244.434,136.313 242.364 L 136.195 238.600 135.997 242.682 M263.744 242.400 C 263.744 244.490,263.812 245.345,263.894 244.300 C 263.976 243.255,263.976 241.545,263.894 240.500 C 263.812 239.455,263.744 240.310,263.744 242.400 M256.093 240.800 C 256.093 241.570,256.175 241.885,256.276 241.500 C 256.376 241.115,256.376 240.485,256.276 240.100 C 256.175 239.715,256.093 240.030,256.093 240.800 M256.101 244.200 C 256.105 245.080,256.187 245.393,256.283 244.895 C 256.379 244.398,256.375 243.678,256.275 243.295 C 256.175 242.913,256.096 243.320,256.101 244.200 M213.800 252.000 C 214.659 252.880,215.452 253.600,215.562 253.600 C 215.672 253.600,215.059 252.880,214.200 252.000 C 213.341 251.120,212.548 250.400,212.438 250.400 C 212.328 250.400,212.941 251.120,213.800 252.000 M245.781 252.100 L 244.200 253.800 245.900 252.219 C 247.481 250.748,247.784 250.400,247.481 250.400 C 247.416 250.400,246.651 251.165,245.781 252.100 M100.981 262.900 L 99.400 264.600 101.100 263.019 C 102.681 261.548,102.984 261.200,102.681 261.200 C 102.616 261.200,101.851 261.965,100.981 262.900 M281.431 262.368 C 280.815 263.010,280.408 263.775,280.524 264.068 C 280.690 264.483,280.744 264.473,280.768 264.022 C 280.786 263.704,281.284 262.939,281.875 262.322 C 282.466 261.705,282.860 261.200,282.750 261.200 C 282.640 261.200,282.046 261.726,281.431 262.368 M221.328 270.000 C 221.328 271.430,221.401 272.015,221.489 271.300 C 221.578 270.585,221.578 269.415,221.489 268.700 C 221.401 267.985,221.328 268.570,221.328 270.000 M238.524 269.800 C 238.526 271.120,238.601 271.612,238.690 270.893 C 238.779 270.174,238.777 269.094,238.686 268.493 C 238.595 267.892,238.522 268.480,238.524 269.800 M281.309 270.000 C 281.309 270.990,281.387 271.395,281.482 270.900 C 281.578 270.405,281.578 269.595,281.482 269.100 C 281.387 268.605,281.309 269.010,281.309 270.000 M118.493 270.000 C 118.493 270.770,118.575 271.085,118.676 270.700 C 118.776 270.315,118.776 269.685,118.676 269.300 C 118.575 268.915,118.493 269.230,118.493 270.000 M139.300 286.276 C 139.685 286.376,140.315 286.376,140.700 286.276 C 141.085 286.175,140.770 286.093,140.000 286.093 C 139.230 286.093,138.915 286.175,139.300 286.276 M199.300 286.276 C 199.685 286.376,200.315 286.376,200.700 286.276 C 201.085 286.175,200.770 286.093,200.000 286.093 C 199.230 286.093,198.915 286.175,199.300 286.276 M216.500 286.276 C 216.885 286.376,217.515 286.376,217.900 286.276 C 218.285 286.175,217.970 286.093,217.200 286.093 C 216.430 286.093,216.115 286.175,216.500 286.276 M250.128 293.900 C 255.808 293.962,264.988 293.962,270.528 293.900 C 276.068 293.837,271.420 293.786,260.200 293.786 C 248.980 293.786,244.448 293.837,250.128 293.900 M178.600 294.751 C 174.725 295.872,173.796 296.447,173.825 297.705 C 173.839 298.307,173.884 301.590,173.925 305.000 L 174.000 311.200 199.966 311.200 L 225.933 311.200 226.077 304.300 C 226.258 295.674,226.710 296.465,220.440 294.439 C 217.946 293.633,181.526 293.905,178.600 294.751 M295.000 299.053 C 297.587 299.321,307.535 299.384,306.888 299.128 C 306.509 298.979,303.410 298.872,300.000 298.892 C 296.590 298.912,294.340 298.984,295.000 299.053 M104.747 299.559 C 105.048 299.750,105.450 300.152,105.641 300.453 C 105.896 300.856,105.989 300.763,105.994 300.100 C 105.998 299.430,105.770 299.202,105.100 299.206 C 104.437 299.211,104.344 299.304,104.747 299.559 M286.160 305.000 C 286.161 308.300,286.222 309.597,286.298 307.882 C 286.373 306.167,286.372 303.467,286.297 301.882 C 286.221 300.297,286.159 301.700,286.160 305.000 M91.322 300.587 C 90.588 301.233,90.408 301.575,90.800 301.575 C 91.130 301.575,91.723 301.131,92.119 300.587 C 93.033 299.331,92.750 299.331,91.322 300.587 M233.759 305.200 C 233.759 308.390,233.821 309.695,233.897 308.100 C 233.973 306.505,233.973 303.895,233.897 302.300 C 233.821 300.705,233.759 302.010,233.759 305.200 M308.875 300.600 C 310.433 302.340,310.800 303.641,310.800 307.418 L 310.800 310.784 302.400 310.904 L 293.999 311.024 302.500 311.012 L 311.000 311.000 311.126 307.800 C 311.281 303.844,310.796 302.109,309.109 300.583 L 307.800 299.400 308.875 300.600 M89.200 310.200 C 89.200 310.530,89.492 310.800,89.849 310.800 C 90.380 310.800,90.408 310.691,90.000 310.200 C 89.726 309.870,89.434 309.600,89.351 309.600 C 89.268 309.600,89.200 309.870,89.200 310.200 M127.700 311.100 C 134.465 311.161,145.535 311.161,152.300 311.100 C 159.065 311.038,153.530 310.988,140.000 310.988 C 126.470 310.988,120.935 311.038,127.700 311.100 " stroke="none" fill="#f25b4f" fill-rule="evenodd"></path><path id="path4" d="M291.603 93.797 L 285.416 99.994 286.393 100.897 L 287.370 101.800 286.607 100.883 L 285.844 99.965 292.017 93.783 C 295.413 90.382,298.100 87.600,297.990 87.600 C 297.880 87.600,295.006 90.389,291.603 93.797 M289.183 103.700 C 290.164 104.745,291.019 105.600,291.083 105.600 C 291.384 105.600,291.066 105.241,289.300 103.583 L 287.400 101.800 289.183 103.700 M293.183 107.700 C 294.164 108.745,295.019 109.600,295.083 109.600 C 295.384 109.600,295.066 109.241,293.300 107.583 L 291.400 105.800 293.183 107.700 M258.962 125.800 C 258.962 129.320,259.024 130.706,259.098 128.881 C 259.172 127.056,259.172 124.176,259.097 122.481 C 259.022 120.786,258.961 122.280,258.962 125.800 M191.381 127.700 L 189.800 129.400 191.500 127.819 C 193.081 126.348,193.384 126.000,193.081 126.000 C 193.016 126.000,192.251 126.765,191.381 127.700 M208.200 127.600 C 209.059 128.480,209.852 129.200,209.962 129.200 C 210.072 129.200,209.459 128.480,208.600 127.600 C 207.741 126.720,206.948 126.000,206.838 126.000 C 206.728 126.000,207.341 126.720,208.200 127.600 M186.493 138.400 C 186.493 139.170,186.575 139.485,186.676 139.100 C 186.776 138.715,186.776 138.085,186.676 137.700 C 186.575 137.315,186.493 137.630,186.493 138.400 M178.520 140.000 C 178.520 141.210,178.595 141.705,178.687 141.100 C 178.778 140.495,178.778 139.505,178.687 138.900 C 178.595 138.295,178.520 138.790,178.520 140.000 M221.320 140.000 C 221.320 141.210,221.395 141.705,221.487 141.100 C 221.578 140.495,221.578 139.505,221.487 138.900 C 221.395 138.295,221.320 138.790,221.320 140.000 M243.586 140.300 L 241.400 142.600 243.700 140.414 C 244.965 139.211,246.000 138.176,246.000 138.114 C 246.000 137.817,245.618 138.163,243.586 140.300 M254.655 139.400 C 255.580 140.979,255.600 141.003,255.600 140.511 C 255.600 140.279,255.229 139.664,254.776 139.144 L 253.953 138.200 254.655 139.400 M186.501 141.400 C 186.505 142.280,186.587 142.593,186.683 142.095 C 186.779 141.598,186.775 140.878,186.675 140.495 C 186.575 140.113,186.496 140.520,186.501 141.400 M245.593 146.900 C 249.487 150.894,250.000 151.382,250.000 151.093 C 250.000 151.034,248.065 149.099,245.700 146.793 L 241.400 142.600 245.593 146.900 M191.400 152.400 C 192.259 153.280,193.052 154.000,193.162 154.000 C 193.272 154.000,192.659 153.280,191.800 152.400 C 190.941 151.520,190.148 150.800,190.038 150.800 C 189.928 150.800,190.541 151.520,191.400 152.400 M208.181 152.500 L 206.600 154.200 208.300 152.619 C 209.881 151.148,210.184 150.800,209.881 150.800 C 209.816 150.800,209.051 151.565,208.181 152.500 M298.958 195.000 C 298.958 198.080,299.021 199.287,299.097 197.682 C 299.173 196.078,299.173 193.558,299.096 192.082 C 299.019 190.607,298.957 191.920,298.958 195.000 M155.775 192.100 L 154.600 193.400 155.900 192.225 C 157.112 191.130,157.384 190.800,157.075 190.800 C 157.006 190.800,156.421 191.385,155.775 192.100 M244.000 192.200 C 244.746 192.970,245.447 193.600,245.557 193.600 C 245.667 193.600,245.146 192.970,244.400 192.200 C 243.654 191.430,242.953 190.800,242.843 190.800 C 242.733 190.800,243.254 191.430,244.000 192.200 M221.381 197.700 L 219.800 199.400 221.500 197.819 C 223.081 196.348,223.384 196.000,223.081 196.000 C 223.016 196.000,222.251 196.765,221.381 197.700 M233.200 197.200 C 233.200 197.420,233.470 197.600,233.800 197.600 C 234.130 197.600,234.400 197.420,234.400 197.200 C 234.400 196.980,234.130 196.800,233.800 196.800 C 233.470 196.800,233.200 196.980,233.200 197.200 M237.600 196.925 C 237.600 196.994,238.185 197.579,238.900 198.225 L 240.200 199.400 239.025 198.100 C 237.930 196.888,237.600 196.616,237.600 196.925 M235.200 199.061 C 234.241 199.567,234.236 199.588,235.076 199.594 C 235.558 199.597,236.071 199.408,236.216 199.173 C 236.621 198.518,236.298 198.483,235.200 199.061 M236.131 205.400 C 236.133 206.940,236.205 207.521,236.292 206.691 C 236.379 205.861,236.377 204.601,236.289 203.891 C 236.200 203.181,236.129 203.860,236.131 205.400 M159.116 205.513 L 158.432 207.000 159.216 206.056 C 159.647 205.536,160.000 204.861,160.000 204.556 C 160.000 203.733,159.870 203.873,159.116 205.513 M179.600 206.824 C 179.600 207.717,179.745 208.358,179.923 208.248 C 180.232 208.056,180.077 205.200,179.756 205.200 C 179.670 205.200,179.600 205.931,179.600 206.824 M183.062 206.600 C 183.196 207.480,183.372 208.275,183.453 208.367 C 183.756 208.710,183.529 206.568,183.181 205.800 C 182.929 205.242,182.893 205.485,183.062 206.600 M221.709 206.800 C 221.709 207.790,221.787 208.195,221.882 207.700 C 221.978 207.205,221.978 206.395,221.882 205.900 C 221.787 205.405,221.709 205.810,221.709 206.800 M238.544 209.600 C 238.544 211.690,238.612 212.545,238.694 211.500 C 238.776 210.455,238.776 208.745,238.694 207.700 C 238.612 206.655,238.544 207.510,238.544 209.600 M240.109 207.600 C 240.109 208.590,240.187 208.995,240.282 208.500 C 240.378 208.005,240.378 207.195,240.282 206.700 C 240.187 206.205,240.109 206.610,240.109 207.600 M166.114 208.200 C 166.117 209.300,166.195 209.703,166.287 209.095 C 166.379 208.486,166.377 207.586,166.282 207.095 C 166.187 206.603,166.111 207.100,166.114 208.200 M220.101 207.800 C 220.105 208.680,220.187 208.993,220.283 208.495 C 220.379 207.998,220.375 207.278,220.275 206.895 C 220.175 206.513,220.096 206.920,220.101 207.800 M156.537 209.800 C 156.539 211.560,156.609 212.230,156.693 211.289 C 156.778 210.349,156.777 208.909,156.691 208.089 C 156.605 207.270,156.536 208.040,156.537 209.800 M167.709 208.400 C 167.709 209.390,167.787 209.795,167.882 209.300 C 167.978 208.805,167.978 207.995,167.882 207.500 C 167.787 207.005,167.709 207.410,167.709 208.400 M216.534 210.000 C 216.534 211.650,216.605 212.325,216.691 211.500 C 216.778 210.675,216.778 209.325,216.691 208.500 C 216.605 207.675,216.534 208.350,216.534 210.000 M243.334 210.000 C 243.334 211.650,243.405 212.325,243.491 211.500 C 243.578 210.675,243.578 209.325,243.491 208.500 C 243.405 207.675,243.334 208.350,243.334 210.000 M148.520 210.000 C 148.520 211.210,148.595 211.705,148.687 211.100 C 148.778 210.495,148.778 209.505,148.687 208.900 C 148.595 208.295,148.520 208.790,148.520 210.000 M231.693 209.200 C 231.693 209.970,231.775 210.285,231.876 209.900 C 231.976 209.515,231.976 208.885,231.876 208.500 C 231.775 208.115,231.693 208.430,231.693 209.200 M251.324 210.200 C 251.326 211.520,251.401 212.012,251.490 211.293 C 251.579 210.574,251.577 209.494,251.486 208.893 C 251.395 208.292,251.322 208.880,251.324 210.200 M175.728 211.600 C 175.728 213.030,175.801 213.615,175.889 212.900 C 175.978 212.185,175.978 211.015,175.889 210.300 C 175.801 209.585,175.728 210.170,175.728 211.600 M182.836 214.036 C 182.566 214.939,182.418 215.752,182.508 215.842 C 182.598 215.932,182.893 215.266,183.164 214.364 C 183.434 213.461,183.582 212.648,183.492 212.558 C 183.402 212.468,183.107 213.134,182.836 214.036 M218.800 213.338 C 218.800 213.482,219.160 213.960,219.600 214.400 C 220.040 214.840,220.400 215.048,220.400 214.862 C 220.400 214.676,220.040 214.198,219.600 213.800 C 219.160 213.402,218.800 213.194,218.800 213.338 M298.958 225.000 C 298.958 228.080,299.021 229.287,299.097 227.682 C 299.173 226.078,299.173 223.558,299.096 222.082 C 299.019 220.607,298.957 221.920,298.958 225.000 M258.800 229.325 C 258.800 229.394,259.385 229.979,260.100 230.625 L 261.400 231.800 260.225 230.500 C 259.130 229.288,258.800 229.016,258.800 229.325 M208.000 234.291 C 205.034 235.419,204.006 237.466,204.003 242.246 L 204.000 246.293 206.334 247.144 C 220.779 252.411,226.446 273.627,216.514 285.258 C 216.004 285.855,216.185 285.943,218.476 286.205 C 221.503 286.553,225.495 287.735,228.111 289.058 L 230.021 290.024 231.333 289.024 C 233.834 287.116,236.353 286.291,240.307 286.084 C 243.677 285.908,243.973 285.830,243.474 285.245 C 233.561 273.623,239.237 252.405,253.666 247.144 L 256.000 246.293 256.000 242.294 C 256.000 237.624,255.344 236.098,252.776 234.788 C 251.255 234.012,209.940 233.554,208.000 234.291 M125.578 252.300 L 124.200 253.800 125.700 252.422 C 127.096 251.138,127.384 250.800,127.078 250.800 C 127.012 250.800,126.337 251.475,125.578 252.300 M131.381 257.700 L 129.800 259.400 131.500 257.819 C 133.081 256.348,133.384 256.000,133.081 256.000 C 133.016 256.000,132.251 256.765,131.381 257.700 M251.381 257.700 L 249.800 259.400 251.500 257.819 C 253.081 256.348,253.384 256.000,253.081 256.000 C 253.016 256.000,252.251 256.765,251.381 257.700 M268.200 257.600 C 269.059 258.480,269.852 259.200,269.962 259.200 C 270.072 259.200,269.459 258.480,268.600 257.600 C 267.741 256.720,266.948 256.000,266.838 256.000 C 266.728 256.000,267.341 256.720,268.200 257.600 M148.400 257.800 C 149.146 258.570,149.847 259.200,149.957 259.200 C 150.067 259.200,149.546 258.570,148.800 257.800 C 148.054 257.030,147.353 256.400,147.243 256.400 C 147.133 256.400,147.654 257.030,148.400 257.800 M191.178 257.900 L 189.800 259.400 191.396 258.000 C 192.273 257.230,193.068 256.555,193.162 256.500 C 193.256 256.445,193.159 256.400,192.945 256.400 C 192.732 256.400,191.937 257.075,191.178 257.900 M206.838 256.500 C 206.932 256.555,207.727 257.230,208.604 258.000 L 210.200 259.400 208.822 257.900 C 208.063 257.075,207.268 256.400,207.055 256.400 C 206.841 256.400,206.744 256.445,206.838 256.500 M109.300 259.076 C 109.685 259.176,110.315 259.176,110.700 259.076 C 111.085 258.975,110.770 258.893,110.000 258.893 C 109.230 258.893,108.915 258.975,109.300 259.076 M289.300 259.076 C 289.685 259.176,290.315 259.176,290.700 259.076 C 291.085 258.975,290.770 258.893,290.000 258.893 C 289.230 258.893,288.915 258.975,289.300 259.076 M153.293 268.000 C 153.293 268.770,153.375 269.085,153.476 268.700 C 153.576 268.315,153.576 267.685,153.476 267.300 C 153.375 266.915,153.293 267.230,153.293 268.000 M273.293 268.000 C 273.293 268.770,273.375 269.085,273.476 268.700 C 273.576 268.315,273.576 267.685,273.476 267.300 C 273.375 266.915,273.293 267.230,273.293 268.000 M126.534 270.000 C 126.534 271.650,126.605 272.325,126.691 271.500 C 126.778 270.675,126.778 269.325,126.691 268.500 C 126.605 267.675,126.534 268.350,126.534 270.000 M186.534 270.000 C 186.534 271.650,186.605 272.325,186.691 271.500 C 186.778 270.675,186.778 269.325,186.691 268.500 C 186.605 267.675,186.534 268.350,186.534 270.000 M246.534 270.000 C 246.534 271.650,246.605 272.325,246.691 271.500 C 246.778 270.675,246.778 269.325,246.691 268.500 C 246.605 267.675,246.534 268.350,246.534 270.000 M153.309 271.600 C 153.309 272.590,153.387 272.995,153.482 272.500 C 153.578 272.005,153.578 271.195,153.482 270.700 C 153.387 270.205,153.309 270.610,153.309 271.600 M273.309 271.600 C 273.309 272.590,273.387 272.995,273.482 272.500 C 273.578 272.005,273.578 271.195,273.482 270.700 C 273.387 270.205,273.309 270.610,273.309 271.600 M96.537 275.000 C 96.539 276.760,96.609 277.430,96.693 276.489 C 96.778 275.549,96.777 274.109,96.691 273.289 C 96.605 272.470,96.536 273.240,96.537 275.000 M88.514 275.000 C 88.517 276.100,88.595 276.503,88.687 275.895 C 88.779 275.286,88.777 274.386,88.682 273.895 C 88.587 273.403,88.511 273.900,88.514 275.000 M119.044 276.000 C 119.180 276.770,119.454 277.670,119.651 278.000 C 120.077 278.710,119.668 276.637,119.139 275.400 C 118.908 274.860,118.877 275.056,119.044 276.000 M131.400 282.400 C 132.259 283.280,133.052 284.000,133.162 284.000 C 133.272 284.000,132.659 283.280,131.800 282.400 C 130.941 281.520,130.148 280.800,130.038 280.800 C 129.928 280.800,130.541 281.520,131.400 282.400 M148.181 282.500 L 146.600 284.200 148.300 282.619 C 149.881 281.148,150.184 280.800,149.881 280.800 C 149.816 280.800,149.051 281.565,148.181 282.500 M191.374 282.293 C 192.240 283.224,193.035 283.899,193.141 283.793 C 193.247 283.687,193.256 283.555,193.162 283.500 C 193.068 283.445,192.273 282.770,191.396 282.001 L 189.800 280.601 191.374 282.293 M208.268 282.246 C 207.425 283.029,206.807 283.740,206.894 283.827 C 206.981 283.914,207.752 283.269,208.607 282.393 C 210.534 280.419,210.329 280.330,208.268 282.246 M251.400 282.400 C 252.259 283.280,253.052 284.000,253.162 284.000 C 253.272 284.000,252.659 283.280,251.800 282.400 C 250.941 281.520,250.148 280.800,250.038 280.800 C 249.928 280.800,250.541 281.520,251.400 282.400 M268.181 282.500 L 266.600 284.200 268.300 282.619 C 269.881 281.148,270.184 280.800,269.881 280.800 C 269.816 280.800,269.051 281.565,268.181 282.500 M121.094 283.703 L 120.388 285.000 121.194 284.056 C 121.880 283.252,122.246 282.394,121.900 282.403 C 121.845 282.404,121.482 282.989,121.094 283.703 M294.000 304.966 L 294.000 310.800 302.400 310.800 L 310.800 310.800 310.800 307.387 C 310.800 300.297,309.746 299.444,300.769 299.266 L 294.000 299.133 294.000 304.966 " stroke="none" fill="#f8af46" fill-rule="evenodd"></path></g></svg>