<?xml version="1.0" encoding="UTF-8"?>
<svg xmlns="http://www.w3.org/2000/svg" xmlns:xlink="http://www.w3.org/1999/xlink" width="720px" height="px" viewBox="0 0 720 720" version="1.1">
<g id="surface1">
<path style=" stroke:none;fill-rule:evenodd;fill:rgb(12.941176%,12.941176%,12.941176%);fill-opacity:1;" d="M 185.839844 147.164062 C 182.289062 149.132812 180.304688 167.945312 183.019531 173.898438 C 185.269531 178.835938 192.730469 178.835938 194.980469 173.898438 C 196.285156 171.03125 196.132812 152.417969 194.78125 149.804688 C 193.171875 146.6875 188.945312 145.441406 185.839844 147.164062 M 456.046875 147.1875 C 452.535156 148.71875 452.539062 148.667969 452.160156 191.519531 L 451.800781 232.199219 L 446.925781 232.683594 C 438.359375 233.527344 437.285156 234.351562 412.535156 258.953125 C 400.046875 271.363281 389.597656 281.519531 389.316406 281.519531 C 388.445312 281.519531 388.742188 279.582031 389.738281 278.757812 C 391.660156 277.164062 395.933594 267.292969 397.03125 261.929688 C 403.496094 230.203125 377.65625 202.335938 349.761719 210.949219 C 324.003906 218.90625 313.382812 254.695312 329.851562 278.03125 C 332 281.074219 331.597656 281.332031 324.179688 281.6875 C 315.578125 282.09375 311.746094 283.625 306.6875 288.6875 C 300.261719 295.109375 299.949219 296.371094 299.527344 317.421875 L 299.160156 335.683594 L 294.714844 337.289062 C 269.402344 346.449219 259.625 381.039062 275.851562 404.03125 C 278.097656 407.210938 277.679688 407.519531 271.144531 407.519531 C 254.898438 407.519531 246.308594 416.550781 245.550781 434.421875 L 245.160156 443.6875 L 240.621094 445.324219 C 234.460938 447.554688 229.15625 451.214844 224.609375 456.378906 L 220.808594 460.699219 L 218.554688 458.976562 C 206.390625 449.699219 187.726562 450.484375 175.175781 460.800781 C 158.46875 474.527344 154.832031 504.554688 167.855469 521.195312 C 169.882812 523.789062 169.570312 524.878906 166.796875 524.878906 C 163.378906 524.878906 156.113281 528.730469 152.976562 532.199219 C 145.003906 541.027344 142.816406 569.167969 149.824219 572.792969 C 152.882812 574.375 567.117188 574.375 570.175781 572.792969 C 577.195312 569.164062 575.011719 541.042969 567.023438 532.199219 C 563.886719 528.730469 556.621094 524.878906 553.203125 524.878906 C 550.464844 524.878906 550.230469 524.109375 552.148438 521.390625 C 578.144531 484.558594 535.972656 432.644531 501.445312 458.976562 L 499.191406 460.699219 L 495.34375 456.328125 C 490.949219 451.335938 484.730469 447.042969 479.296875 445.257812 C 474.460938 443.664062 474.503906 443.757812 474.492188 434.726562 C 474.464844 417.40625 465.152344 407.519531 448.855469 407.519531 C 442.121094 407.519531 441.777344 407.199219 444.570312 403.535156 C 460.539062 382.601562 450.402344 346.734375 425.972656 337.722656 L 420.839844 335.832031 L 420.632812 328.386719 L 420.429688 320.9375 L 445.472656 295.851562 C 474.355469 266.921875 474.074219 267.3125 474.0625 256.679688 C 474.054688 249.234375 472.695312 245.371094 468.410156 240.632812 L 465.839844 237.785156 L 465.839844 213.882812 L 500.101562 213.679688 L 534.367188 213.480469 L 536.179688 211.371094 C 539.882812 207.066406 538.816406 205.117188 525.488281 191.769531 L 513.757812 180.019531 L 525.382812 168.3125 C 539.136719 154.457031 540.742188 150.601562 534.175781 147.207031 C 531.289062 145.714844 459.472656 145.699219 456.046875 147.1875 M 513.359375 160.394531 C 513.359375 160.699219 510.085938 164.179688 506.085938 168.132812 C 494.496094 179.578125 494.496094 180.117188 505.972656 191.667969 C 511.320312 197.046875 513.320312 199.5 512.589844 199.78125 C 512.015625 200 501.34375 200.09375 488.871094 199.992188 L 466.199219 199.800781 L 466.007812 180.730469 C 465.902344 170.242188 465.972656 161.253906 466.164062 160.75 C 466.558594 159.722656 513.359375 159.367188 513.359375 160.394531 M 149.679688 183.238281 C 145.382812 185.574219 145.445312 192.53125 149.785156 194.773438 C 152.417969 196.132812 171.015625 196.292969 173.898438 194.980469 C 175.835938 194.097656 177.839844 191.054688 177.839844 189 C 177.839844 186.945312 175.835938 183.902344 173.898438 183.019531 C 171.09375 181.742188 152.121094 181.914062 149.679688 183.238281 M 204.015625 183.199219 C 199.371094 185.222656 199.25 192.429688 203.824219 194.792969 C 206.417969 196.136719 225.050781 196.277344 227.898438 194.980469 C 229.835938 194.097656 231.839844 191.054688 231.839844 189 C 231.839844 186.945312 229.835938 183.902344 227.898438 183.019531 C 225.183594 181.78125 206.960938 181.921875 204.015625 183.199219 M 186.039062 201.191406 C 182.855469 202.578125 182.160156 205.308594 182.160156 216.433594 C 182.160156 228.339844 183.714844 231.839844 189 231.839844 C 194.351562 231.839844 195.839844 228.375 195.839844 215.929688 C 195.839844 201.765625 193.34375 198.011719 186.039062 201.191406 M 369 225.042969 C 394.09375 236.9375 386.953125 281.011719 359.929688 281.011719 C 336.769531 281.011719 326.589844 245.921875 344.878906 229.140625 C 351.878906 222.71875 360.875 221.1875 369 225.042969 M 455.582031 247.386719 C 463.269531 251.894531 462.804688 259.898438 454.367188 268.183594 L 449.988281 272.484375 L 434.167969 256.710938 L 438.664062 252.117188 C 445.546875 245.089844 449.683594 243.933594 455.582031 247.386719 M 439.199219 282.152344 C 439.199219 282.710938 432.351562 290.039062 423.984375 298.4375 C 405.636719 316.84375 406.859375 314.855469 406.824219 326.363281 C 406.804688 334.46875 406.652344 335.617188 405.539062 335.996094 C 378.839844 345.121094 367.4375 377.320312 382.257812 401.761719 C 385.5625 407.214844 385.476562 407.320312 377.46875 407.449219 C 372.429688 407.527344 366.910156 409.351562 363.246094 412.148438 C 360.230469 414.445312 359.769531 414.445312 356.753906 412.148438 C 353.089844 409.351562 347.570312 407.527344 342.53125 407.449219 C 340.0625 407.410156 337.285156 407.164062 336.359375 406.90625 L 334.675781 406.429688 L 336.082031 404.632812 C 353.335938 382.578125 341.039062 342.9375 314.816406 336.078125 L 313.199219 335.65625 L 313.199219 301.914062 L 315.179688 299.328125 C 318.417969 295.105469 317.464844 295.199219 356.816406 295.199219 C 386.367188 295.199219 393.597656 295.011719 395.484375 294.195312 C 396.757812 293.640625 403.789062 287.160156 411.109375 279.796875 L 424.421875 266.40625 L 431.8125 273.769531 C 435.875 277.820312 439.199219 281.59375 439.199219 282.152344 M 213.378906 290.847656 C 209.023438 292.679688 207.523438 306.949219 211.289062 310.710938 C 216.941406 316.367188 222.480469 311.933594 222.480469 301.753906 C 222.480469 292.316406 219.203125 288.390625 213.378906 290.847656 M 184.554688 319.246094 C 182.957031 320.621094 182.550781 321.574219 182.550781 324 C 182.550781 329.144531 184.863281 330.480469 193.753906 330.480469 C 203.964844 330.480469 208.160156 325.304688 202.714844 319.425781 C 200.132812 316.640625 187.726562 316.515625 184.554688 319.246094 M 229.453125 319.539062 C 223.839844 325.398438 228.113281 330.480469 238.652344 330.480469 C 247.394531 330.480469 249.449219 329.226562 249.449219 323.882812 C 249.449219 317.433594 234.566406 314.203125 229.453125 319.539062 M 211.285156 337.425781 C 206.265625 342.84375 209.617188 357.449219 215.882812 357.449219 C 221.222656 357.449219 222.480469 355.394531 222.480469 346.660156 C 222.480469 337.753906 221.179688 335.519531 216 335.519531 C 213.734375 335.519531 212.640625 335.960938 211.285156 337.425781 M 526.539062 337.257812 L 524.519531 338.996094 L 524.519531 350.878906 C 524.519531 364.84375 525.199219 366.480469 531 366.480469 C 536.800781 366.480469 537.480469 364.84375 537.480469 350.878906 L 537.480469 338.996094 L 535.460938 337.257812 C 534.183594 336.160156 532.539062 335.519531 531 335.519531 C 529.460938 335.519531 527.816406 336.160156 526.539062 337.257812 M 315 351.003906 C 340.324219 362.589844 333.152344 407.011719 305.953125 407.011719 C 291.214844 407.011719 279.898438 392.023438 281.601562 374.753906 C 283.492188 355.546875 299.714844 344.011719 315 351.003906 M 420.132812 349.597656 C 439.667969 354.21875 445.09375 388.539062 428.382812 401.773438 C 407.476562 418.332031 381.128906 392.546875 391.558594 365.734375 C 396.445312 353.164062 407.894531 346.699219 420.132812 349.597656 M 490.554688 373.246094 C 487.875 375.550781 487.746094 379.941406 490.28125 382.636719 C 492 384.46875 492.09375 384.480469 503.722656 384.480469 C 517.628906 384.480469 519.449219 383.730469 519.449219 378 C 519.449219 372.296875 517.597656 371.519531 504 371.519531 C 492.972656 371.519531 492.488281 371.582031 490.554688 373.246094 M 544.554688 373.246094 C 542.957031 374.621094 542.550781 375.574219 542.550781 378 C 542.550781 383.703125 544.402344 384.480469 558 384.480469 C 571.597656 384.480469 573.449219 383.703125 573.449219 378 C 573.449219 372.296875 571.597656 371.519531 558 371.519531 C 546.972656 371.519531 546.488281 371.582031 544.554688 373.246094 M 526.539062 391.257812 L 524.519531 392.996094 L 524.519531 417.003906 L 526.539062 418.742188 C 527.816406 419.839844 529.460938 420.480469 531 420.480469 C 532.539062 420.480469 534.183594 419.839844 535.460938 418.742188 L 537.480469 417.003906 L 537.480469 392.996094 L 535.460938 391.257812 C 534.183594 390.160156 532.539062 389.519531 531 389.519531 C 529.460938 389.519531 527.816406 390.160156 526.539062 391.257812 M 451.953125 421.1875 C 454.363281 421.199219 458.667969 424.324219 460.183594 427.15625 C 462.144531 430.820312 461.617188 444.238281 459.507812 444.238281 C 458.863281 444.238281 455.660156 445.5625 452.394531 447.179688 C 429.972656 458.289062 422.75 490.316406 437.71875 512.28125 C 439.742188 515.25 439.894531 515.148438 433.261719 515.269531 C 426.660156 515.394531 420.480469 517.28125 416.945312 520.253906 C 414.378906 522.414062 414.050781 522.414062 409.746094 520.234375 C 405.332031 517.996094 395.953125 515.519531 391.90625 515.519531 C 388.410156 515.519531 388.171875 515.070312 390.257812 512.421875 C 407.167969 490.921875 395.75 452.378906 370.261719 444.910156 L 367.199219 444.011719 L 367.199219 427.683594 L 369.777344 424.835938 C 373.644531 420.550781 370.621094 420.683594 451.953125 421.1875 M 347.585938 422.636719 C 351.917969 425.273438 352.84375 427.777344 352.628906 436.195312 L 352.441406 443.632812 L 348.480469 445.019531 C 323.238281 453.863281 313.449219 489.492188 329.867188 512.773438 L 331.230469 514.707031 L 327.796875 515.164062 C 321.722656 515.976562 313.058594 518.339844 309.308594 520.210938 L 305.660156 522.027344 L 303.851562 520.59375 C 299.351562 517.027344 291.980469 514.800781 284.671875 514.800781 L 280.816406 514.800781 L 283.183594 511.019531 C 298.066406 487.238281 288.390625 454.113281 263.984375 445.28125 L 259.558594 443.683594 L 259.371094 436.222656 C 259.15625 427.773438 260.082031 425.277344 264.414062 422.636719 C 268.070312 420.40625 343.929688 420.40625 347.585938 422.636719 M 261.074219 459.0625 C 282.011719 468.976562 281.734375 503.351562 260.640625 513.230469 C 244.878906 520.609375 227.484375 506.390625 227.535156 486.164062 C 227.585938 465.226562 244.769531 451.339844 261.074219 459.0625 M 369.140625 459.09375 C 386.386719 467.265625 390.144531 493.902344 376.042969 508 C 359.84375 524.203125 335.550781 511 335.550781 486 C 335.550781 465.167969 352.800781 451.351562 369.140625 459.09375 M 477.1875 459.125 C 490.734375 465.519531 496.628906 484.65625 489.734375 499.859375 C 482.714844 515.34375 464.433594 519.976562 453.101562 509.144531 C 430.902344 487.929688 450.777344 446.648438 477.1875 459.125 M 205.472656 467.308594 C 212.324219 469.871094 215.550781 473.414062 214.628906 477.359375 C 212.832031 485.085938 214.25 497.1875 217.933594 505.539062 L 219.726562 509.601562 L 217.769531 512.5625 C 216.136719 515.027344 215.414062 515.519531 213.449219 515.519531 C 209.816406 515.519531 203.339844 518.316406 199.847656 521.386719 C 196.203125 524.597656 195.78125 524.65625 190.5 522.679688 C 171.921875 515.730469 167.457031 485.964844 182.910156 472.070312 C 189.523438 466.121094 197.695312 464.398438 205.472656 467.308594 M 529.675781 467.386719 C 532.132812 468.304688 535.21875 470.25 537.28125 472.179688 C 552.441406 486.359375 548.007812 515.753906 529.675781 522.613281 C 524.203125 524.664062 523.816406 524.613281 520.152344 521.386719 C 516.78125 518.421875 510.214844 515.519531 506.867188 515.519531 C 502.554688 515.519531 499.707031 510.347656 501.777344 506.28125 C 505.492188 499 507.203125 485.226562 505.371094 477.359375 C 503.539062 469.492188 518.691406 463.273438 529.675781 467.386719 M 510.296875 530.871094 C 514.644531 533.886719 515.160156 535.765625 515.160156 548.640625 L 515.160156 559.800781 L 420.839844 559.800781 L 420.617188 551.519531 C 420.28125 538.96875 420.804688 536.050781 424.011719 532.613281 C 427.765625 528.585938 427.59375 528.601562 469.863281 528.726562 L 507.363281 528.839844 L 510.296875 530.871094 M 292.894531 530.210938 C 298.125 532.929688 298.417969 533.816406 298.667969 547.617188 L 298.894531 560.160156 L 205.199219 560.160156 L 205.203125 548.460938 C 205.207031 535.375 205.761719 533.472656 210.414062 530.636719 C 213.496094 528.753906 289.347656 528.363281 292.894531 530.210938 M 396.792969 529.988281 C 408.078125 533.636719 407.265625 532.214844 406.9375 547.738281 L 406.679688 560.160156 L 313.199219 560.160156 L 313.066406 549 C 312.992188 542.863281 312.910156 536.953125 312.886719 535.867188 C 312.832031 533.605469 314.503906 532.570312 321.480469 530.550781 C 326.746094 529.027344 392.304688 528.539062 396.792969 529.988281 M 554.84375 539.683594 C 559.1875 542.929688 559.800781 544.511719 559.800781 552.46875 L 559.800781 559.800781 L 544.5 559.996094 L 529.199219 560.1875 L 529.199219 537.742188 L 541.03125 537.972656 C 551.648438 538.175781 553.0625 538.351562 554.84375 539.683594 M 190.800781 549 L 190.800781 559.441406 L 160.429688 559.441406 L 160.675781 551.925781 C 161.070312 539.863281 162.75 538.671875 179.460938 538.605469 L 190.800781 538.558594 L 190.800781 549 "/>
<path style=" stroke:none;fill-rule:evenodd;fill:rgb(98.431373%,98.431373%,98.431373%);fill-opacity:1;" d="M 0 360 L 0 720 L 720 720 L 720 0 L 0 0 L 0 360 M 535.042969 147.097656 C 536.492188 147.824219 537.839844 150.695312 537.839844 153.070312 C 537.839844 156.191406 536.054688 158.484375 525.289062 169.191406 C 519.519531 174.925781 514.800781 179.8125 514.800781 180.046875 C 514.800781 180.277344 519.816406 185.46875 525.949219 191.574219 C 539.65625 205.234375 540.792969 207.574219 535.914062 212.09375 L 534.046875 213.824219 L 466.421875 214.199219 L 466.523438 226.074219 C 466.621094 237.429688 466.699219 238.027344 468.296875 239.753906 C 474.886719 246.871094 476.625 259.285156 472.253906 268.03125 C 471.277344 269.988281 461.867188 279.976562 445.964844 295.933594 L 421.199219 320.785156 L 421.199219 335.328125 L 425.542969 336.910156 C 450.972656 346.183594 460.726562 380.449219 444.671875 404.105469 L 442.972656 406.613281 L 449.609375 406.960938 C 466.007812 407.816406 474.492188 417.007812 475.074219 434.546875 L 475.371094 443.359375 L 480.28125 445.285156 C 486.535156 447.738281 490.382812 450.4375 495.425781 455.898438 L 499.449219 460.257812 L 502.519531 458.03125 C 526.5625 440.617188 560.46875 462.246094 560.46875 495 C 560.46875 504.640625 556.074219 518.515625 551.9375 521.953125 C 550.335938 523.28125 550.523438 524.152344 552.421875 524.214844 C 566.230469 524.691406 573.839844 536.214844 573.839844 556.652344 C 573.839844 569.546875 573.398438 571.714844 570.488281 573.039062 C 567.984375 574.179688 152.015625 574.179688 149.511719 573.039062 C 143.949219 570.503906 144.734375 542.949219 150.617188 534.398438 C 154.03125 529.4375 162.882812 524.160156 167.785156 524.160156 C 169.597656 524.160156 169.566406 523.832031 167.484375 521.050781 C 152.359375 500.878906 159.921875 466.984375 182 455.953125 C 193.292969 450.308594 207.988281 451.15625 217.421875 457.988281 L 220.4375 460.171875 L 225.238281 455.199219 C 230.398438 449.859375 234.5 447.128906 240.597656 444.984375 L 244.441406 443.636719 L 244.882812 434.597656 C 245.753906 416.929688 254.179688 407.808594 270.417969 406.957031 C 276.605469 406.632812 277.152344 406.492188 276.261719 405.441406 C 258.617188 384.574219 268.835938 346.25 294.542969 336.878906 L 298.691406 335.367188 L 298.925781 317.621094 L 299.160156 299.878906 L 301.261719 295.597656 C 305.832031 286.292969 313.136719 281.664062 324.3125 281 C 330.566406 280.625 331.136719 280.476562 330.246094 279.433594 C 313.75 260.085938 321.480469 223.984375 344.519531 212.765625 C 380.765625 195.117188 414.492188 243.003906 390.605469 278.199219 C 386.761719 283.867188 391.179688 279.921875 411.691406 259.371094 C 437.542969 233.472656 439.769531 231.839844 449.34375 231.839844 L 452.160156 231.839844 L 452.160156 150.5625 L 453.789062 148.664062 C 454.6875 147.621094 456.484375 146.546875 457.78125 146.285156 C 461.035156 145.617188 533.601562 146.382812 535.042969 147.097656 M 193.734375 148.265625 L 195.839844 150.367188 L 195.839844 173.632812 L 193.734375 175.734375 C 190.484375 178.988281 184.707031 178.316406 182.960938 174.488281 C 181.894531 172.152344 181.898438 151.84375 182.960938 149.507812 C 184.710938 145.667969 190.472656 145.003906 193.734375 148.265625 M 225.957031 182.136719 C 228.421875 182.171875 231.839844 185.902344 231.839844 188.550781 C 231.839844 194.902344 229.742188 195.839844 215.550781 195.839844 L 204.367188 195.839844 L 202.265625 193.734375 C 198.335938 189.808594 200.304688 183.40625 205.78125 182.285156 C 207.082031 182.019531 211.773438 181.871094 216.210938 181.953125 C 220.648438 182.039062 225.035156 182.121094 225.957031 182.136719 M 174.488281 182.960938 C 178.316406 184.707031 178.988281 190.484375 175.734375 193.734375 L 173.632812 195.839844 L 150.367188 195.839844 L 148.265625 193.734375 C 145.105469 190.578125 145.667969 184.761719 149.304688 183.003906 C 151.414062 181.980469 172.257812 181.945312 174.488281 182.960938 M 193.734375 202.265625 L 195.839844 204.367188 L 195.839844 215.550781 C 195.839844 227.511719 195.359375 229.730469 192.488281 231.039062 C 189.378906 232.457031 186.535156 232.003906 184.265625 229.734375 L 182.160156 227.632812 L 182.160156 204.367188 L 184.265625 202.265625 C 185.824219 200.707031 187.050781 200.160156 189 200.160156 C 190.949219 200.160156 192.175781 200.707031 193.734375 202.265625 M 352.5 224.984375 C 330.398438 234.070312 330.785156 270.925781 353.066406 279.261719 C 377.117188 288.261719 394.898438 251.679688 376.34375 231.378906 C 369.273438 223.644531 361.097656 221.449219 352.5 224.984375 M 446.039062 247 C 444.851562 247.347656 441.855469 249.675781 439.382812 252.171875 L 434.886719 256.710938 L 442.4375 264.238281 L 449.992188 271.765625 L 454.335938 267.464844 C 465.105469 256.808594 459.53125 243.0625 446.039062 247 M 220.171875 291.351562 C 224.292969 293.953125 224.679688 306.828125 220.753906 310.753906 C 214.894531 316.609375 209.269531 312.570312 208.953125 302.28125 C 208.628906 291.511719 213.265625 286.992188 220.171875 291.351562 M 203.097656 319.511719 C 206.035156 322.796875 205.910156 325.59375 202.683594 328.820312 L 200.167969 331.335938 L 192.894531 331.089844 C 183.15625 330.753906 179.265625 326.207031 183.371094 319.941406 C 186.121094 315.746094 199.472656 315.453125 203.097656 319.511719 M 248.101562 319.179688 C 253.367188 325.300781 249.292969 330.742188 239.1875 331.085938 C 228.742188 331.441406 223.300781 325.558594 228.617188 319.652344 C 231.96875 315.925781 245.035156 315.609375 248.101562 319.179688 M 221.21875 337.6875 C 225.394531 342.273438 223.78125 354.871094 218.695312 357.359375 C 212.496094 360.394531 208.644531 355.84375 208.953125 345.855469 C 209.28125 335.382812 215.402344 331.304688 221.21875 337.6875 M 535.496094 336.386719 C 538.792969 339.121094 540.039062 357.398438 537.296875 362.878906 C 534.945312 367.589844 528.71875 368.484375 525.628906 364.554688 C 523.59375 361.96875 523.386719 340.96875 525.371094 337.941406 C 527.4375 334.785156 532.605469 333.988281 535.496094 336.386719 M 301.679688 349.667969 C 294.457031 352.570312 287.28125 357.925781 287.28125 360.414062 C 287.28125 360.882812 286.796875 361.667969 286.203125 362.15625 C 284.417969 363.640625 282.238281 371.96875 282.238281 377.320312 C 282.238281 414.421875 325.808594 416.84375 330.300781 379.992188 C 332.253906 363.972656 314.0625 344.699219 301.679688 349.667969 M 409.679688 349.710938 C 403.640625 351.925781 395.28125 358.003906 395.28125 360.183594 C 395.28125 360.507812 394.632812 361.65625 393.84375 362.730469 C 382.441406 378.214844 395.449219 406.402344 414 406.402344 C 421.3125 406.402344 433.441406 399.28125 433.441406 394.988281 C 433.441406 394.617188 433.902344 393.800781 434.464844 393.175781 C 437.332031 389.996094 438.546875 376.75 436.691406 368.886719 C 433.769531 356.492188 419.261719 346.195312 409.679688 349.710938 M 421.921875 354.960938 C 421.921875 355.355469 421.433594 355.679688 420.839844 355.679688 C 420.246094 355.679688 419.761719 355.355469 419.761719 354.960938 C 419.761719 354.5625 420.246094 354.238281 420.839844 354.238281 C 421.433594 354.238281 421.921875 354.5625 421.921875 354.960938 M 425.1875 358.511719 C 424.929688 358.933594 424.003906 359.273438 423.136719 359.269531 C 421.625 359.257812 421.632812 359.21875 423.359375 358.308594 C 425.335938 357.269531 425.917969 357.332031 425.1875 358.511719 M 425.324219 372.042969 C 425.167969 373.539062 425.039062 372.492188 425.035156 369.71875 C 425.03125 366.949219 425.160156 365.726562 425.320312 367.003906 C 425.480469 368.28125 425.480469 370.550781 425.324219 372.042969 M 288 368.199219 C 288 368.75 287.363281 369.964844 286.589844 370.902344 L 285.175781 372.601562 L 286.410156 369.921875 C 287.765625 366.972656 288 366.71875 288 368.199219 M 324.140625 371.921875 C 324.304688 373.335938 324.179688 374.648438 323.863281 374.847656 C 323.539062 375.042969 323.28125 373.890625 323.28125 372.28125 C 323.28125 368.675781 323.742188 368.484375 324.140625 371.921875 M 399.386719 373.859375 C 399.214844 374.75 399.078125 374.023438 399.078125 372.238281 C 399.078125 370.457031 399.214844 369.730469 399.386719 370.621094 C 399.558594 371.511719 399.558594 372.96875 399.386719 373.859375 M 429.648438 380.699219 C 429.5 382.582031 429.378906 381.042969 429.378906 377.28125 C 429.378906 373.519531 429.5 371.980469 429.648438 373.859375 C 429.796875 375.742188 429.796875 378.820312 429.648438 380.699219 M 432.507812 375.300781 C 432.335938 376.191406 432.195312 375.460938 432.195312 373.679688 C 432.195312 371.898438 432.335938 371.167969 432.507812 372.058594 C 432.679688 372.949219 432.679688 374.410156 432.507812 375.300781 M 516.175781 371.710938 C 519.519531 373.425781 520.945312 377.523438 519.304688 380.699219 C 517.117188 384.933594 515.914062 385.253906 503.03125 385.035156 L 491.621094 384.839844 L 489.894531 382.679688 C 486.925781 378.964844 487.9375 373.9375 492.121094 371.636719 C 494.175781 370.503906 513.941406 370.566406 516.175781 371.710938 M 570.253906 371.886719 C 574.261719 373.960938 575.160156 379.261719 572.105469 382.820312 C 570.339844 384.875 553.121094 386.300781 547.40625 384.863281 C 541.445312 383.371094 540.417969 374.808594 545.839844 371.804688 C 548.425781 370.371094 567.445312 370.433594 570.253906 371.886719 M 299.316406 376.371094 C 299.152344 377.464844 299.011719 376.738281 299.003906 374.761719 C 299 372.78125 299.136719 371.886719 299.308594 372.769531 C 299.480469 373.65625 299.480469 375.273438 299.316406 376.371094 M 396.507812 375.289062 C 396.335938 376.1875 396.1875 375.625 396.183594 374.039062 C 396.171875 372.457031 396.316406 371.722656 396.496094 372.410156 C 396.675781 373.101562 396.683594 374.394531 396.507812 375.289062 M 302.1875 376.738281 C 302.015625 377.632812 301.875 376.902344 301.875 375.121094 C 301.875 373.339844 302.015625 372.609375 302.1875 373.5 C 302.359375 374.390625 302.359375 375.847656 302.1875 376.738281 M 417.375 377.820312 C 417.195312 378.511719 417.046875 377.945312 417.046875 376.558594 C 417.046875 375.175781 417.195312 374.605469 417.375 375.300781 C 417.558594 375.992188 417.558594 377.128906 417.375 377.820312 M 316.601562 383.21875 C 316.441406 384.507812 316.308594 383.453125 316.308594 380.878906 C 316.308594 378.304688 316.441406 377.253906 316.601562 378.539062 C 316.761719 379.828125 316.761719 381.933594 316.601562 383.21875 M 396.71875 386.75 C 396.71875 387.085938 396.070312 386.710938 395.28125 385.921875 C 394.488281 385.128906 393.839844 384.269531 393.839844 384.007812 C 393.839844 383.75 394.488281 384.125 395.28125 384.839844 C 396.070312 385.554688 396.71875 386.417969 396.71875 386.75 M 535.496094 390.386719 C 538.792969 393.121094 540.039062 411.398438 537.296875 416.878906 C 534.882812 421.714844 528.585938 422.511719 525.628906 418.363281 C 523.839844 415.847656 523.417969 395.707031 525.085938 392.414062 C 526.832031 388.960938 532.457031 387.867188 535.496094 390.386719 M 244.5 458.984375 C 222.65625 467.964844 222.734375 504.089844 244.613281 512.980469 C 259.886719 519.1875 275.625 505.746094 275.898438 486.253906 C 276.175781 466.839844 259.859375 452.671875 244.5 458.984375 M 352.71875 458.894531 C 330.683594 467.960938 330.667969 504.035156 352.699219 513.09375 C 367.003906 518.980469 381.019531 507.996094 384.097656 488.480469 C 386.960938 470.339844 368.109375 452.566406 352.71875 458.894531 M 460.5 458.984375 C 442.472656 466.394531 438.324219 493.703125 453.03125 508.121094 C 468.351562 523.136719 491.5625 510.082031 491.898438 486.253906 C 492.175781 466.839844 475.859375 452.671875 460.5 458.984375 M 191.433594 467.511719 C 169.140625 475.851562 168.011719 511.605469 189.71875 521.746094 C 194.519531 523.984375 196.496094 523.894531 198.921875 521.324219 C 201.605469 518.484375 207.714844 515.582031 212.117188 515.058594 C 216.921875 514.492188 219.742188 510.40625 217.949219 506.617188 C 215.113281 500.628906 214.363281 498.15625 213.632812 492.378906 C 213.078125 487.96875 213.066406 484.363281 213.59375 480.125 C 214.464844 473.105469 214.125 472.4375 207.910156 469.058594 C 203.496094 466.65625 195.683594 465.921875 191.433594 467.511719 M 515.433594 467.511719 C 507.425781 470.503906 505.386719 472.949219 506.296875 478.441406 C 507.789062 487.441406 505.320312 503.042969 501.71875 507.386719 C 499.839844 509.648438 503.695312 514.5625 507.71875 515.039062 C 512.335938 515.585938 516.851562 517.65625 520.375 520.839844 C 524.902344 524.925781 530.308594 523.699219 537.0625 517.046875 C 556.976562 497.429688 539.914062 458.351562 515.433594 467.511719 M 211.320312 530.847656 C 206.3125 533.628906 205.199219 536.945312 205.199219 549.152344 L 205.199219 559.441406 L 298.898438 559.441406 L 298.671875 548.101562 C 298.410156 535.222656 297.746094 533.410156 292.265625 530.613281 C 287.644531 528.253906 215.617188 528.464844 211.320312 530.847656 M 427.066406 530.421875 C 421.921875 532.957031 421.136719 535.417969 421.363281 548.34375 L 421.558594 559.800781 L 514.441406 559.800781 L 514.636719 548.394531 C 514.859375 535.582031 514.304688 533.667969 509.460938 530.675781 C 506.113281 528.609375 431.21875 528.375 427.066406 530.421875 "/>
<path style=" stroke:none;fill-rule:evenodd;fill:rgb(2.352941%,67.843137%,76.470588%);fill-opacity:1;" d="M 411.109375 279.796875 C 403.789062 287.160156 396.757812 293.640625 395.484375 294.195312 C 393.597656 295.011719 386.367188 295.199219 356.816406 295.199219 C 317.464844 295.199219 318.417969 295.105469 315.179688 299.328125 L 313.199219 301.914062 L 313.199219 335.65625 L 314.816406 336.078125 C 341.039062 342.9375 353.335938 382.578125 336.082031 404.632812 L 334.675781 406.429688 L 336.359375 406.90625 C 337.285156 407.164062 340.0625 407.410156 342.53125 407.449219 C 347.570312 407.527344 353.089844 409.351562 356.753906 412.148438 C 359.769531 414.445312 360.230469 414.445312 363.246094 412.148438 C 366.910156 409.351562 372.429688 407.527344 377.46875 407.449219 C 385.476562 407.320312 385.5625 407.214844 382.257812 401.761719 C 367.4375 377.320312 378.839844 345.121094 405.539062 335.996094 C 406.652344 335.617188 406.804688 334.46875 406.824219 326.363281 C 406.859375 314.855469 405.636719 316.84375 423.984375 298.4375 C 432.351562 290.039062 439.199219 282.710938 439.199219 282.152344 C 439.199219 281.59375 435.875 277.820312 431.8125 273.769531 L 424.421875 266.40625 L 411.109375 279.796875 M 264.414062 422.636719 C 260.082031 425.277344 259.15625 427.773438 259.371094 436.222656 L 259.558594 443.683594 L 263.984375 445.28125 C 288.390625 454.113281 298.066406 487.238281 283.183594 511.019531 L 280.816406 514.800781 L 284.671875 514.800781 C 291.980469 514.800781 299.351562 517.027344 303.851562 520.59375 L 305.660156 522.027344 L 309.308594 520.210938 C 313.058594 518.339844 321.722656 515.976562 327.796875 515.164062 L 331.230469 514.707031 L 329.867188 512.773438 C 313.449219 489.492188 323.238281 453.863281 348.480469 445.019531 L 352.441406 443.632812 L 352.628906 436.195312 C 352.84375 427.777344 351.917969 425.273438 347.585938 422.636719 C 343.929688 420.40625 268.070312 420.40625 264.414062 422.636719 M 167.394531 539.292969 C 167.144531 539.695312 166.632812 539.832031 166.25 539.597656 C 165.875 539.363281 165.625 539.441406 165.695312 539.765625 C 165.992188 541.089844 164.640625 542.878906 163.34375 542.878906 C 161.46875 542.878906 160.761719 545.117188 160.636719 551.445312 C 160.472656 559.636719 160.074219 559.441406 176.871094 559.441406 L 190.800781 559.441406 L 190.800781 550.441406 C 190.800781 538.222656 191.164062 538.558594 177.882812 538.558594 C 171.859375 538.558594 167.664062 538.851562 167.394531 539.292969 "/>
<path style=" stroke:none;fill-rule:evenodd;fill:rgb(94.901961%,35.686275%,30.980392%);fill-opacity:1;" d="M 466.164062 160.75 C 465.972656 161.253906 465.902344 170.242188 466.007812 180.730469 L 466.199219 199.800781 L 488.871094 199.992188 C 501.34375 200.09375 512.015625 200 512.589844 199.78125 C 513.320312 199.5 511.320312 197.046875 505.972656 191.667969 C 494.496094 180.117188 494.496094 179.578125 506.085938 168.132812 C 510.085938 164.179688 513.359375 160.699219 513.359375 160.394531 C 513.359375 159.367188 466.558594 159.722656 466.164062 160.75 M 358.738281 209.296875 C 359.433594 209.476562 360.566406 209.476562 361.261719 209.296875 C 361.953125 209.113281 361.386719 208.96875 360 208.96875 C 358.613281 208.96875 358.046875 209.113281 358.738281 209.296875 M 465.09375 276.300781 L 461.160156 280.441406 L 465.300781 276.503906 C 469.148438 272.847656 469.769531 272.160156 469.234375 272.160156 C 469.125 272.160156 467.261719 274.023438 465.09375 276.300781 M 323.804688 281.320312 C 325.082031 281.480469 327.351562 281.480469 328.84375 281.324219 C 330.335938 281.167969 329.292969 281.039062 326.519531 281.035156 C 323.746094 281.03125 322.527344 281.160156 323.804688 281.320312 M 457.199219 284.039062 C 455.449219 285.820312 454.179688 287.28125 454.378906 287.28125 C 454.578125 287.28125 456.171875 285.820312 457.921875 284.039062 C 459.667969 282.257812 460.9375 280.800781 460.742188 280.800781 C 460.542969 280.800781 458.949219 282.257812 457.199219 284.039062 M 450 291.238281 C 448.25 293.023438 446.980469 294.480469 447.179688 294.480469 C 447.378906 294.480469 448.96875 293.023438 450.71875 291.238281 C 452.46875 289.457031 453.738281 288 453.539062 288 C 453.34375 288 451.75 289.457031 450 291.238281 M 222.734375 301.320312 C 222.734375 304.882812 222.855469 306.433594 223.003906 304.761719 C 223.15625 303.089844 223.160156 300.175781 223.011719 298.28125 C 222.863281 296.386719 222.738281 297.757812 222.734375 301.320312 M 442.800781 298.441406 C 441.050781 300.222656 439.78125 301.679688 439.980469 301.679688 C 440.175781 301.679688 441.769531 300.222656 443.519531 298.441406 C 445.269531 296.65625 446.539062 295.199219 446.339844 295.199219 C 446.144531 295.199219 444.550781 296.65625 442.800781 298.441406 M 209.050781 301.679688 C 209.050781 305.046875 209.175781 306.421875 209.328125 304.738281 C 209.480469 303.058594 209.480469 300.304688 209.328125 298.621094 C 209.175781 296.9375 209.050781 298.3125 209.050781 301.679688 M 435.601562 305.640625 C 433.851562 307.421875 432.582031 308.878906 432.78125 308.878906 C 432.976562 308.878906 434.570312 307.421875 436.320312 305.640625 C 438.070312 303.859375 439.339844 302.398438 439.140625 302.398438 C 438.941406 302.398438 437.347656 303.859375 435.601562 305.640625 M 298.796875 320.1875 C 298.601562 328.976562 298.691406 335.917969 298.996094 335.617188 C 299.300781 335.308594 299.460938 328.113281 299.351562 319.628906 L 299.15625 304.199219 L 298.796875 320.1875 M 428.398438 312.839844 C 426.652344 314.621094 425.382812 316.078125 425.578125 316.078125 C 425.777344 316.078125 427.371094 314.621094 429.121094 312.839844 C 430.871094 311.058594 432.136719 309.601562 431.941406 309.601562 C 431.742188 309.601562 430.148438 311.058594 428.398438 312.839844 M 190.640625 317.328125 C 192.332031 317.480469 194.921875 317.480469 196.398438 317.324219 C 197.875 317.167969 196.488281 317.042969 193.320312 317.046875 C 190.152344 317.050781 188.945312 317.175781 190.640625 317.328125 M 236 317.328125 C 237.691406 317.480469 240.285156 317.480469 241.761719 317.324219 C 243.234375 317.167969 241.847656 317.042969 238.679688 317.046875 C 235.511719 317.050781 234.304688 317.175781 236 317.328125 M 420.601562 328.097656 C 420.535156 332.132812 420.722656 335.585938 421.019531 335.773438 C 421.316406 335.957031 421.472656 333.789062 421.363281 330.953125 C 421.007812 321.691406 420.726562 320.625 420.601562 328.097656 M 190.28125 331.011719 C 192.175781 331.160156 195.089844 331.15625 196.761719 331.003906 C 198.433594 330.855469 196.882812 330.734375 193.320312 330.734375 C 189.757812 330.738281 188.386719 330.863281 190.28125 331.011719 M 235.640625 331.011719 C 237.535156 331.160156 240.453125 331.15625 242.121094 331.003906 C 243.792969 330.855469 242.242188 330.734375 238.679688 330.734375 C 235.117188 330.738281 233.746094 330.863281 235.640625 331.011719 M 209.050781 346.320312 C 209.050781 349.6875 209.175781 351.0625 209.328125 349.378906 C 209.480469 347.695312 209.480469 344.941406 209.328125 343.261719 C 209.175781 341.578125 209.050781 342.953125 209.050781 346.320312 M 222.734375 346.679688 C 222.734375 350.242188 222.855469 351.792969 223.003906 350.121094 C 223.15625 348.453125 223.160156 345.535156 223.011719 343.640625 C 222.863281 341.746094 222.738281 343.117188 222.734375 346.679688 M 499.109375 371.332031 C 501.765625 371.472656 506.300781 371.472656 509.1875 371.335938 C 512.078125 371.199219 509.902344 371.085938 504.359375 371.085938 C 498.816406 371.082031 496.453125 371.195312 499.109375 371.332031 M 552.421875 371.335938 C 555.488281 371.46875 560.511719 371.46875 563.578125 371.335938 C 566.648438 371.199219 564.136719 371.089844 558 371.089844 C 551.863281 371.089844 549.351562 371.199219 552.421875 371.335938 M 498.453125 385.015625 C 501.539062 385.152344 506.398438 385.148438 509.253906 385.015625 C 512.105469 384.878906 509.578125 384.765625 503.640625 384.769531 C 497.699219 384.769531 495.367188 384.878906 498.453125 385.015625 M 552.421875 385.015625 C 555.488281 385.148438 560.511719 385.148438 563.578125 385.015625 C 566.648438 384.878906 564.136719 384.769531 558 384.769531 C 551.863281 384.769531 549.351562 384.878906 552.421875 385.015625 M 269.804688 407.320312 C 271.082031 407.480469 273.351562 407.480469 274.84375 407.324219 C 276.335938 407.167969 275.292969 407.039062 272.519531 407.035156 C 269.746094 407.03125 268.527344 407.160156 269.804688 407.320312 M 444.765625 407.320312 C 446.042969 407.480469 448.308594 407.480469 449.804688 407.324219 C 451.296875 407.167969 450.253906 407.039062 447.480469 407.035156 C 444.707031 407.03125 443.484375 407.160156 444.765625 407.320312 M 244.792969 436.828125 C 244.601562 440.867188 244.695312 443.917969 245.007812 443.601562 C 245.320312 443.289062 245.480469 439.980469 245.363281 436.253906 L 245.152344 429.480469 L 244.792969 436.828125 M 474.738281 436.320312 C 474.738281 440.082031 474.863281 441.621094 475.007812 439.738281 C 475.15625 437.859375 475.15625 434.78125 475.007812 432.898438 C 474.863281 431.019531 474.738281 432.558594 474.738281 436.320312 M 460.96875 433.441406 C 460.96875 434.824219 461.113281 435.394531 461.296875 434.699219 C 461.476562 434.007812 461.476562 432.871094 461.296875 432.179688 C 461.113281 431.488281 460.96875 432.054688 460.96875 433.441406 M 460.980469 439.558594 C 460.988281 441.144531 461.136719 441.707031 461.308594 440.8125 C 461.480469 439.917969 461.476562 438.621094 461.296875 437.929688 C 461.113281 437.242188 460.972656 437.976562 460.980469 439.558594 M 384.839844 453.601562 C 386.386719 455.183594 387.8125 456.480469 388.011719 456.480469 C 388.210938 456.480469 387.105469 455.183594 385.558594 453.601562 C 384.015625 452.015625 382.585938 450.71875 382.386719 450.71875 C 382.191406 450.71875 383.292969 452.015625 384.839844 453.601562 M 442.40625 453.78125 L 439.558594 456.839844 L 442.621094 453.996094 C 445.464844 451.347656 446.011719 450.71875 445.464844 450.71875 C 445.347656 450.71875 443.972656 452.097656 442.40625 453.78125 M 181.765625 473.21875 L 178.921875 476.28125 L 181.980469 473.433594 C 184.824219 470.785156 185.371094 470.160156 184.824219 470.160156 C 184.707031 470.160156 183.332031 471.535156 181.765625 473.21875 M 506.574219 472.261719 C 505.46875 473.417969 504.734375 474.796875 504.941406 475.324219 C 505.242188 476.070312 505.339844 476.050781 505.382812 475.238281 C 505.414062 474.667969 506.3125 473.289062 507.375 472.179688 C 508.4375 471.070312 509.148438 470.160156 508.949219 470.160156 C 508.753906 470.160156 507.683594 471.105469 506.574219 472.261719 M 398.390625 486 C 398.390625 488.574219 398.523438 489.628906 398.679688 488.339844 C 398.839844 487.054688 398.839844 484.945312 398.679688 483.660156 C 398.523438 482.371094 398.390625 483.425781 398.390625 486 M 429.34375 485.640625 C 429.347656 488.015625 429.480469 488.902344 429.640625 487.605469 C 429.800781 486.3125 429.796875 484.371094 429.636719 483.289062 C 429.472656 482.207031 429.339844 483.265625 429.34375 485.640625 M 506.355469 486 C 506.355469 487.78125 506.496094 488.511719 506.667969 487.621094 C 506.839844 486.730469 506.839844 485.269531 506.667969 484.378906 C 506.496094 483.488281 506.355469 484.21875 506.355469 486 M 213.289062 486 C 213.289062 487.386719 213.433594 487.953125 213.617188 487.261719 C 213.796875 486.566406 213.796875 485.433594 213.617188 484.738281 C 213.433594 484.046875 213.289062 484.613281 213.289062 486 M 250.738281 515.296875 C 251.433594 515.476562 252.566406 515.476562 253.261719 515.296875 C 253.953125 515.113281 253.386719 514.96875 252 514.96875 C 250.613281 514.96875 250.046875 515.113281 250.738281 515.296875 M 358.738281 515.296875 C 359.433594 515.476562 360.566406 515.476562 361.261719 515.296875 C 361.953125 515.113281 361.386719 514.96875 360 514.96875 C 358.613281 514.96875 358.046875 515.113281 358.738281 515.296875 M 389.699219 515.296875 C 390.394531 515.476562 391.527344 515.476562 392.21875 515.296875 C 392.914062 515.113281 392.347656 514.96875 390.960938 514.96875 C 389.574219 514.96875 389.007812 515.113281 389.699219 515.296875 M 450.230469 529.019531 C 460.453125 529.132812 476.976562 529.132812 486.949219 529.019531 C 496.921875 528.90625 488.554688 528.816406 468.359375 528.816406 C 448.164062 528.816406 440.007812 528.90625 450.230469 529.019531 M 321.480469 530.550781 C 314.503906 532.570312 312.832031 533.605469 312.886719 535.867188 C 312.910156 536.953125 312.992188 542.863281 313.066406 549 L 313.199219 560.160156 L 406.679688 560.160156 L 406.9375 547.738281 C 407.265625 532.214844 408.078125 533.636719 396.792969 529.988281 C 392.304688 528.539062 326.746094 529.027344 321.480469 530.550781 M 531 538.296875 C 535.65625 538.777344 553.5625 538.890625 552.398438 538.429688 C 551.714844 538.164062 546.136719 537.96875 540 538.003906 C 533.863281 538.042969 529.8125 538.171875 531 538.296875 M 188.542969 539.207031 C 189.085938 539.550781 189.808594 540.273438 190.152344 540.816406 C 190.613281 541.539062 190.78125 541.375 190.789062 540.179688 C 190.796875 538.972656 190.386719 538.5625 189.179688 538.570312 C 187.988281 538.578125 187.820312 538.746094 188.542969 539.207031 M 515.089844 549 C 515.089844 554.941406 515.199219 557.273438 515.335938 554.1875 C 515.472656 551.101562 515.46875 546.242188 515.335938 543.386719 C 515.199219 540.535156 515.085938 543.058594 515.089844 549 M 164.378906 541.054688 C 163.058594 542.21875 162.734375 542.835938 163.441406 542.835938 C 164.035156 542.835938 165.101562 542.035156 165.8125 541.054688 C 167.460938 538.796875 166.949219 538.796875 164.378906 541.054688 M 420.765625 549.359375 C 420.765625 555.101562 420.878906 557.449219 421.015625 554.578125 C 421.152344 551.710938 421.152344 547.011719 421.015625 544.140625 C 420.878906 541.269531 420.765625 543.617188 420.765625 549.359375 M 555.976562 541.078125 C 558.78125 544.210938 559.441406 546.554688 559.441406 553.351562 L 559.441406 559.410156 L 544.320312 559.628906 L 529.199219 559.84375 L 544.5 559.820312 L 559.800781 559.800781 L 560.027344 554.039062 C 560.304688 546.917969 559.433594 543.796875 556.394531 541.050781 L 554.039062 538.921875 L 555.976562 541.078125 M 160.558594 558.359375 C 160.558594 558.953125 161.085938 559.441406 161.726562 559.441406 C 162.683594 559.441406 162.734375 559.242188 162 558.359375 C 161.507812 557.765625 160.980469 557.28125 160.832031 557.28125 C 160.683594 557.28125 160.558594 557.765625 160.558594 558.359375 M 229.859375 559.980469 C 242.035156 560.089844 261.964844 560.089844 274.140625 559.980469 C 286.316406 559.867188 276.355469 559.777344 252 559.777344 C 227.644531 559.777344 217.683594 559.867188 229.859375 559.980469 "/>
<path style=" stroke:none;fill-rule:evenodd;fill:rgb(97.254902%,68.627451%,27.45098%);fill-opacity:1;" d="M 524.886719 168.835938 L 513.75 179.988281 L 517.265625 183.238281 L 515.894531 181.589844 L 514.519531 179.9375 L 525.628906 168.808594 C 531.742188 162.6875 536.578125 157.679688 536.382812 157.679688 C 536.183594 157.679688 531.011719 162.699219 524.886719 168.835938 M 520.53125 186.660156 C 522.296875 188.539062 523.835938 190.078125 523.949219 190.078125 C 524.492188 190.078125 523.917969 189.433594 520.738281 186.449219 L 517.320312 183.238281 L 520.53125 186.660156 M 527.730469 193.859375 C 529.496094 195.742188 531.035156 197.28125 531.148438 197.28125 C 531.691406 197.28125 531.117188 196.632812 527.941406 193.648438 L 524.519531 190.441406 L 527.730469 193.859375 M 466.132812 226.441406 C 466.132812 232.777344 466.242188 235.269531 466.375 231.984375 C 466.507812 228.699219 466.507812 223.515625 466.375 220.464844 C 466.238281 217.414062 466.128906 220.105469 466.132812 226.441406 M 344.484375 229.859375 L 341.640625 232.921875 L 344.699219 230.074219 C 347.546875 227.425781 348.089844 226.800781 347.546875 226.800781 C 347.429688 226.800781 346.050781 228.175781 344.484375 229.859375 M 374.761719 229.679688 C 376.304688 231.265625 377.734375 232.558594 377.929688 232.558594 C 378.128906 232.558594 377.027344 231.265625 375.480469 229.679688 C 373.933594 228.097656 372.507812 226.800781 372.308594 226.800781 C 372.109375 226.800781 373.214844 228.097656 374.761719 229.679688 M 335.6875 249.121094 C 335.6875 250.507812 335.835938 251.074219 336.015625 250.378906 C 336.195312 249.6875 336.195312 248.554688 336.015625 247.859375 C 335.835938 247.167969 335.6875 247.734375 335.6875 249.121094 M 321.335938 252 C 321.335938 254.179688 321.472656 255.070312 321.636719 253.980469 C 321.800781 252.890625 321.800781 251.109375 321.636719 250.019531 C 321.472656 248.929688 321.335938 249.820312 321.335938 252 M 398.375 252 C 398.375 254.179688 398.511719 255.070312 398.675781 253.980469 C 398.839844 252.890625 398.839844 251.109375 398.675781 250.019531 C 398.511719 248.929688 398.375 249.820312 398.375 252 M 438.453125 252.539062 L 434.519531 256.679688 L 438.660156 252.746094 C 440.9375 250.578125 442.800781 248.71875 442.800781 248.605469 C 442.800781 248.070312 442.113281 248.695312 438.453125 252.539062 M 458.378906 250.921875 C 460.042969 253.761719 460.078125 253.804688 460.078125 252.917969 C 460.078125 252.503906 459.414062 251.394531 458.597656 250.460938 L 457.117188 248.761719 L 458.378906 250.921875 M 335.703125 254.519531 C 335.710938 256.105469 335.855469 256.667969 336.03125 255.769531 C 336.203125 254.875 336.195312 253.582031 336.015625 252.890625 C 335.835938 252.203125 335.691406 252.9375 335.703125 254.519531 M 442.066406 264.421875 C 449.078125 271.609375 450 272.488281 450 271.96875 C 450 271.859375 446.515625 268.378906 442.261719 264.226562 L 434.519531 256.679688 L 442.066406 264.421875 M 344.519531 274.320312 C 346.066406 275.902344 347.492188 277.199219 347.691406 277.199219 C 347.890625 277.199219 346.785156 275.902344 345.238281 274.320312 C 343.695312 272.734375 342.265625 271.441406 342.070312 271.441406 C 341.871094 271.441406 342.972656 272.734375 344.519531 274.320312 M 374.726562 274.5 L 371.878906 277.558594 L 374.941406 274.714844 C 377.785156 272.066406 378.332031 271.441406 377.785156 271.441406 C 377.667969 271.441406 376.292969 272.816406 374.726562 274.5 M 538.125 351 C 538.125 356.542969 538.238281 358.714844 538.375 355.828125 C 538.511719 352.941406 538.511719 348.40625 538.371094 345.746094 C 538.234375 343.09375 538.121094 345.457031 538.125 351 M 280.394531 345.78125 L 278.28125 348.121094 L 280.621094 346.003906 C 282.800781 344.035156 283.292969 343.441406 282.734375 343.441406 C 282.609375 343.441406 281.558594 344.492188 280.394531 345.78125 M 439.199219 345.960938 C 440.542969 347.347656 441.804688 348.480469 442.003906 348.480469 C 442.199219 348.480469 441.261719 347.347656 439.921875 345.960938 C 438.578125 344.574219 437.316406 343.441406 437.117188 343.441406 C 436.917969 343.441406 437.855469 344.574219 439.199219 345.960938 M 398.484375 355.859375 L 395.640625 358.921875 L 398.699219 356.074219 C 401.546875 353.425781 402.089844 352.800781 401.546875 352.800781 C 401.429688 352.800781 400.050781 354.175781 398.484375 355.859375 M 419.761719 354.960938 C 419.761719 355.355469 420.246094 355.679688 420.839844 355.679688 C 421.433594 355.679688 421.921875 355.355469 421.921875 354.960938 C 421.921875 354.5625 421.433594 354.238281 420.839844 354.238281 C 420.246094 354.238281 419.761719 354.5625 419.761719 354.960938 M 427.679688 354.464844 C 427.679688 354.589844 428.734375 355.640625 430.019531 356.804688 L 432.359375 358.921875 L 430.246094 356.578125 C 428.273438 354.398438 427.679688 353.910156 427.679688 354.464844 M 423.359375 358.308594 C 421.632812 359.21875 421.625 359.257812 423.136719 359.269531 C 424.003906 359.273438 424.929688 358.933594 425.1875 358.511719 C 425.917969 357.332031 425.335938 357.269531 423.359375 358.308594 M 425.035156 369.71875 C 425.039062 372.492188 425.167969 373.539062 425.324219 372.042969 C 425.480469 370.550781 425.480469 368.28125 425.320312 367.003906 C 425.160156 365.726562 425.03125 366.949219 425.035156 369.71875 M 286.410156 369.921875 L 285.175781 372.601562 L 286.589844 370.902344 C 287.363281 369.964844 288 368.75 288 368.199219 C 288 366.71875 287.765625 366.972656 286.410156 369.921875 M 323.28125 372.28125 C 323.28125 373.890625 323.539062 375.042969 323.863281 374.847656 C 324.417969 374.5 324.136719 369.359375 323.5625 369.359375 C 323.40625 369.359375 323.28125 370.675781 323.28125 372.28125 M 329.511719 371.878906 C 329.753906 373.464844 330.070312 374.894531 330.214844 375.0625 C 330.761719 375.679688 330.351562 371.824219 329.726562 370.441406 C 329.273438 369.4375 329.207031 369.871094 329.511719 371.878906 M 399.078125 372.238281 C 399.078125 374.023438 399.214844 374.75 399.386719 373.859375 C 399.558594 372.96875 399.558594 371.511719 399.386719 370.621094 C 399.214844 369.730469 399.078125 370.457031 399.078125 372.238281 M 429.378906 377.28125 C 429.378906 381.042969 429.5 382.582031 429.648438 380.699219 C 429.796875 378.820312 429.796875 375.742188 429.648438 373.859375 C 429.5 371.980469 429.378906 373.519531 429.378906 377.28125 M 432.195312 373.679688 C 432.195312 375.460938 432.335938 376.191406 432.507812 375.300781 C 432.679688 374.410156 432.679688 372.949219 432.507812 372.058594 C 432.335938 371.167969 432.195312 371.898438 432.195312 373.679688 M 299.003906 374.761719 C 299.011719 376.738281 299.152344 377.464844 299.316406 376.371094 C 299.480469 375.273438 299.480469 373.65625 299.308594 372.769531 C 299.136719 371.886719 299 372.78125 299.003906 374.761719 M 396.183594 374.039062 C 396.1875 375.625 396.335938 376.1875 396.507812 375.289062 C 396.683594 374.394531 396.675781 373.101562 396.496094 372.410156 C 396.316406 371.722656 396.171875 372.457031 396.183594 374.039062 M 281.765625 377.640625 C 281.769531 380.808594 281.894531 382.015625 282.046875 380.320312 C 282.199219 378.628906 282.199219 376.035156 282.042969 374.558594 C 281.890625 373.085938 281.765625 374.472656 281.765625 377.640625 M 301.875 375.121094 C 301.875 376.902344 302.015625 377.632812 302.1875 376.738281 C 302.359375 375.847656 302.359375 374.390625 302.1875 373.5 C 302.015625 372.609375 301.875 373.339844 301.875 375.121094 M 389.761719 378 C 389.761719 380.96875 389.890625 382.183594 390.042969 380.699219 C 390.199219 379.214844 390.199219 376.785156 390.042969 375.300781 C 389.890625 373.816406 389.761719 375.03125 389.761719 378 M 438 378 C 438 380.96875 438.128906 382.183594 438.285156 380.699219 C 438.441406 379.214844 438.441406 376.785156 438.285156 375.300781 C 438.128906 373.816406 438 375.03125 438 378 M 267.335938 378 C 267.335938 380.179688 267.472656 381.070312 267.636719 379.980469 C 267.800781 378.890625 267.800781 377.109375 267.636719 376.019531 C 267.472656 374.929688 267.335938 375.820312 267.335938 378 M 417.046875 376.558594 C 417.046875 377.945312 417.195312 378.511719 417.375 377.820312 C 417.558594 377.128906 417.558594 375.992188 417.375 375.300781 C 417.195312 374.605469 417.046875 375.175781 417.046875 376.558594 M 452.382812 378.359375 C 452.386719 380.734375 452.523438 381.621094 452.683594 380.328125 C 452.84375 379.03125 452.839844 377.089844 452.675781 376.007812 C 452.511719 374.925781 452.378906 375.984375 452.382812 378.359375 M 316.308594 380.878906 C 316.308594 383.453125 316.441406 384.507812 316.601562 383.21875 C 316.761719 381.933594 316.761719 379.828125 316.601562 378.539062 C 316.441406 377.253906 316.308594 378.304688 316.308594 380.878906 M 329.105469 385.265625 C 328.617188 386.890625 328.351562 388.355469 328.515625 388.515625 C 328.675781 388.675781 329.207031 387.480469 329.695312 385.855469 C 330.179688 384.230469 330.449219 382.765625 330.285156 382.605469 C 330.125 382.441406 329.59375 383.640625 329.105469 385.265625 M 393.839844 384.007812 C 393.839844 384.269531 394.488281 385.128906 395.28125 385.921875 C 396.070312 386.710938 396.71875 387.085938 396.71875 386.75 C 396.71875 386.417969 396.070312 385.554688 395.28125 384.839844 C 394.488281 384.125 393.839844 383.75 393.839844 384.007812 M 538.125 405 C 538.125 410.542969 538.238281 412.714844 538.375 409.828125 C 538.511719 406.941406 538.511719 402.40625 538.371094 399.746094 C 538.234375 397.09375 538.121094 399.457031 538.125 405 M 465.839844 412.785156 C 465.839844 412.910156 466.894531 413.960938 468.179688 415.125 L 470.519531 417.238281 L 468.40625 414.898438 C 466.433594 412.71875 465.839844 412.230469 465.839844 412.785156 M 374.398438 421.722656 C 369.0625 423.753906 367.210938 427.4375 367.207031 436.042969 L 367.199219 443.328125 L 371.402344 444.859375 C 397.402344 454.339844 407.601562 492.527344 389.726562 513.464844 C 388.808594 514.539062 389.132812 514.699219 393.257812 515.167969 C 398.707031 515.796875 405.890625 517.921875 410.601562 520.304688 L 414.039062 522.042969 L 416.398438 520.242188 C 420.902344 516.808594 425.433594 515.324219 432.550781 514.953125 C 438.617188 514.632812 439.152344 514.492188 438.253906 513.441406 C 420.410156 492.519531 430.625 454.328125 456.597656 444.859375 L 460.800781 443.328125 L 460.800781 436.128906 C 460.800781 427.722656 459.621094 424.976562 454.996094 422.617188 C 452.257812 421.222656 377.890625 420.398438 374.398438 421.722656 M 226.039062 454.140625 L 223.558594 456.839844 L 226.261719 454.359375 C 228.773438 452.046875 229.292969 451.441406 228.742188 451.441406 C 228.621094 451.441406 227.40625 452.65625 226.039062 454.140625 M 236.484375 463.859375 L 233.640625 466.921875 L 236.699219 464.074219 C 239.546875 461.425781 240.089844 460.800781 239.546875 460.800781 C 239.429688 460.800781 238.050781 462.175781 236.484375 463.859375 M 452.484375 463.859375 L 449.640625 466.921875 L 452.699219 464.074219 C 455.546875 461.425781 456.089844 460.800781 455.546875 460.800781 C 455.429688 460.800781 454.050781 462.175781 452.484375 463.859375 M 482.761719 463.679688 C 484.304688 465.265625 485.734375 466.558594 485.929688 466.558594 C 486.128906 466.558594 485.027344 465.265625 483.480469 463.679688 C 481.933594 462.097656 480.507812 460.800781 480.308594 460.800781 C 480.109375 460.800781 481.214844 462.097656 482.761719 463.679688 M 267.121094 464.039062 C 268.460938 465.425781 269.722656 466.558594 269.921875 466.558594 C 270.121094 466.558594 269.183594 465.425781 267.839844 464.039062 C 266.496094 462.652344 265.234375 461.519531 265.039062 461.519531 C 264.839844 461.519531 265.777344 462.652344 267.121094 464.039062 M 344.121094 464.21875 L 341.640625 466.921875 L 344.511719 464.398438 C 346.089844 463.015625 347.523438 461.800781 347.691406 461.699219 C 347.859375 461.601562 347.6875 461.519531 347.300781 461.519531 C 346.917969 461.519531 345.488281 462.734375 344.121094 464.21875 M 372.308594 461.699219 C 372.476562 461.800781 373.910156 463.015625 375.488281 464.398438 L 378.359375 466.921875 L 375.878906 464.21875 C 374.511719 462.734375 373.082031 461.519531 372.699219 461.519531 C 372.3125 461.519531 372.140625 461.601562 372.308594 461.699219 M 196.738281 466.335938 C 197.433594 466.515625 198.566406 466.515625 199.261719 466.335938 C 199.953125 466.15625 199.386719 466.007812 198 466.007812 C 196.613281 466.007812 196.046875 466.15625 196.738281 466.335938 M 520.738281 466.335938 C 521.433594 466.515625 522.566406 466.515625 523.261719 466.335938 C 523.953125 466.15625 523.386719 466.007812 522 466.007812 C 520.613281 466.007812 520.046875 466.15625 520.738281 466.335938 M 275.925781 482.398438 C 275.925781 483.785156 276.074219 484.351562 276.257812 483.660156 C 276.4375 482.96875 276.4375 481.832031 276.257812 481.140625 C 276.074219 480.445312 275.925781 481.015625 275.925781 482.398438 M 491.925781 482.398438 C 491.925781 483.785156 492.074219 484.351562 492.257812 483.660156 C 492.4375 482.96875 492.4375 481.832031 492.257812 481.140625 C 492.074219 480.445312 491.925781 481.015625 491.925781 482.398438 M 227.761719 486 C 227.761719 488.96875 227.890625 490.183594 228.042969 488.699219 C 228.199219 487.214844 228.199219 484.785156 228.042969 483.300781 C 227.890625 481.816406 227.761719 483.03125 227.761719 486 M 335.761719 486 C 335.761719 488.96875 335.890625 490.183594 336.042969 488.699219 C 336.199219 487.214844 336.199219 484.785156 336.042969 483.300781 C 335.890625 481.816406 335.761719 483.03125 335.761719 486 M 443.761719 486 C 443.761719 488.96875 443.890625 490.183594 444.042969 488.699219 C 444.199219 487.214844 444.199219 484.785156 444.042969 483.300781 C 443.890625 481.816406 443.761719 483.03125 443.761719 486 M 275.957031 488.878906 C 275.957031 490.660156 276.097656 491.390625 276.269531 490.5 C 276.441406 489.609375 276.441406 488.152344 276.269531 487.261719 C 276.097656 486.367188 275.957031 487.097656 275.957031 488.878906 M 491.957031 488.878906 C 491.957031 490.660156 492.097656 491.390625 492.269531 490.5 C 492.441406 489.609375 492.441406 488.152344 492.269531 487.261719 C 492.097656 486.367188 491.957031 487.097656 491.957031 488.878906 M 173.765625 495 C 173.769531 498.167969 173.894531 499.375 174.046875 497.679688 C 174.199219 495.988281 174.199219 493.394531 174.042969 491.921875 C 173.890625 490.445312 173.765625 491.832031 173.765625 495 M 159.324219 495 C 159.332031 496.980469 159.472656 497.707031 159.636719 496.609375 C 159.800781 495.515625 159.796875 493.894531 159.628906 493.011719 C 159.457031 492.125 159.320312 493.019531 159.324219 495 M 214.277344 496.800781 C 214.523438 498.1875 215.015625 499.804688 215.371094 500.398438 C 216.136719 501.679688 215.402344 497.945312 214.449219 495.71875 C 214.035156 494.746094 213.980469 495.101562 214.277344 496.800781 M 236.519531 508.320312 C 238.066406 509.902344 239.492188 511.199219 239.691406 511.199219 C 239.890625 511.199219 238.785156 509.902344 237.238281 508.320312 C 235.695312 506.734375 234.265625 505.441406 234.070312 505.441406 C 233.871094 505.441406 234.972656 506.734375 236.519531 508.320312 M 266.726562 508.5 L 263.878906 511.558594 L 266.941406 508.714844 C 269.785156 506.066406 270.332031 505.441406 269.785156 505.441406 C 269.667969 505.441406 268.292969 506.816406 266.726562 508.5 M 344.472656 508.128906 C 346.03125 509.804688 347.464844 511.019531 347.652344 510.828125 C 347.84375 510.636719 347.859375 510.398438 347.691406 510.300781 C 347.523438 510.199219 346.089844 508.984375 344.511719 507.601562 L 341.640625 505.082031 L 344.472656 508.128906 M 374.882812 508.042969 C 373.363281 509.453125 372.253906 510.730469 372.410156 510.886719 C 372.566406 511.046875 373.953125 509.882812 375.492188 508.308594 C 378.960938 504.753906 378.59375 504.59375 374.882812 508.042969 M 452.519531 508.320312 C 454.066406 509.902344 455.492188 511.199219 455.691406 511.199219 C 455.890625 511.199219 454.785156 509.902344 453.238281 508.320312 C 451.695312 506.734375 450.265625 505.441406 450.070312 505.441406 C 449.871094 505.441406 450.972656 506.734375 452.519531 508.320312 M 482.726562 508.5 L 479.878906 511.558594 L 482.941406 508.714844 C 485.785156 506.066406 486.332031 505.441406 485.785156 505.441406 C 485.667969 505.441406 484.292969 506.816406 482.726562 508.5 M 217.96875 510.664062 L 216.699219 513 L 218.148438 511.300781 C 219.382812 509.855469 220.042969 508.308594 219.421875 508.324219 C 219.320312 508.328125 218.667969 509.378906 217.96875 510.664062 M 529.199219 548.9375 L 529.199219 559.441406 L 559.441406 559.441406 L 559.441406 553.296875 C 559.441406 540.535156 557.542969 539 541.382812 538.679688 L 529.199219 538.4375 L 529.199219 548.9375 "/>
</g>
</svg>
