<svg id="svg" version="1.1" xmlns="http://www.w3.org/2000/svg" xmlns:xlink="http://www.w3.org/1999/xlink" width="400" height="400" viewBox="0, 0, 400,400"><g id="svgg"><path id="path0" d="M92.985 114.498 C 92.880 114.774,92.840 135.700,92.897 161.000 L 93.000 207.000 132.400 207.000 L 171.800 207.000 171.800 160.600 L 171.800 114.200 132.488 114.098 C 101.250 114.017,93.137 114.099,92.985 114.498 M66.400 281.200 L 66.400 292.400 99.734 292.400 C 118.067 292.400,178.187 292.520,233.334 292.666 L 333.600 292.933 333.600 281.566 L 333.600 270.200 276.500 270.403 C 212.014 270.632,217.945 270.316,210.400 273.930 C 206.562 275.768,201.615 282.330,200.623 286.900 C 200.492 287.505,200.212 288.000,200.000 288.000 C 199.788 288.000,199.508 287.505,199.377 286.900 C 197.856 279.893,191.196 273.587,183.000 271.394 C 178.528 270.197,170.689 270.030,118.500 270.015 L 66.400 270.000 66.400 281.200 " stroke="none" fill="#2298a3" fill-rule="evenodd"></path><path id="path1" d="M66.643 92.233 C 66.509 92.581,66.400 132.721,66.400 181.433 L 66.400 270.000 118.500 270.015 C 170.689 270.030,178.528 270.197,183.000 271.394 C 191.196 273.587,197.856 279.893,199.377 286.900 C 199.508 287.505,199.788 288.000,200.000 288.000 C 200.212 288.000,200.492 287.505,200.623 286.900 C 201.615 282.330,206.562 275.768,210.400 273.930 C 217.949 270.314,212.025 270.631,276.400 270.402 L 333.400 270.200 333.509 181.800 C 333.569 133.180,333.520 92.993,333.400 92.495 L 333.182 91.589 277.491 91.747 C 225.837 91.893,218.225 92.042,214.800 92.972 C 209.734 94.348,207.712 95.354,205.233 97.730 C 203.103 99.770,201.867 101.997,201.027 105.305 C 200.149 108.759,199.223 109.292,199.206 106.353 C 199.192 103.968,196.828 99.451,194.484 97.331 C 190.459 93.691,185.720 92.453,174.000 91.979 C 157.083 91.295,66.921 91.508,66.643 92.233 M171.800 160.600 L 171.800 207.000 132.400 207.000 L 93.000 207.000 92.897 161.000 C 92.840 135.700,92.880 114.774,92.985 114.498 C 93.137 114.099,101.250 114.017,132.488 114.098 L 171.800 114.200 171.800 160.600 M313.000 125.800 L 313.000 137.400 268.000 137.400 L 223.000 137.400 222.894 126.249 C 222.818 118.336,222.920 114.938,223.244 114.547 C 223.628 114.085,230.846 114.013,268.350 114.098 L 313.000 114.200 313.000 125.800 M313.000 162.600 L 313.000 174.200 268.800 174.310 C 244.490 174.370,224.195 174.322,223.700 174.202 L 222.800 173.985 222.805 163.292 C 222.808 157.412,222.920 152.194,223.053 151.698 L 223.294 150.797 268.147 150.898 L 313.000 151.000 313.000 162.600 M312.567 190.643 C 313.135 190.861,313.200 193.595,313.200 217.443 L 313.200 244.000 290.600 244.000 L 268.000 244.000 268.000 217.467 C 268.000 202.873,268.120 190.813,268.267 190.667 C 268.600 190.333,311.701 190.310,312.567 190.643 M253.103 217.300 L 253.206 243.600 238.203 243.600 L 223.200 243.600 223.200 217.833 C 223.200 203.661,223.310 191.779,223.445 191.428 C 223.663 190.858,225.241 190.801,238.345 190.895 L 253.000 191.000 253.103 217.300 M177.200 232.000 L 177.200 243.600 132.400 243.600 L 87.600 243.600 87.600 232.000 L 87.600 220.400 132.400 220.400 L 177.200 220.400 177.200 232.000 " stroke="none" fill="#faf7e2" fill-rule="evenodd"></path><path id="path2" d="M223.244 114.547 C 222.920 114.938,222.818 118.336,222.894 126.249 L 223.000 137.400 268.000 137.400 L 313.000 137.400 313.000 125.800 L 313.000 114.200 268.350 114.098 C 230.846 114.013,223.628 114.085,223.244 114.547 M50.000 211.800 L 50.000 309.200 200.000 309.200 L 350.000 309.200 350.000 211.800 L 350.000 114.400 341.800 114.400 L 333.600 114.400 333.600 203.600 L 333.600 292.800 300.266 292.800 C 281.933 292.800,221.813 292.680,166.666 292.534 L 66.400 292.267 66.400 203.334 L 66.400 114.400 58.200 114.400 L 50.000 114.400 50.000 211.800 M223.053 151.698 C 222.920 152.194,222.808 157.412,222.805 163.292 L 222.800 173.985 223.700 174.202 C 224.195 174.322,244.490 174.370,268.800 174.310 L 313.000 174.200 313.000 162.600 L 313.000 151.000 268.147 150.898 L 223.294 150.797 223.053 151.698 M223.445 191.428 C 223.310 191.779,223.200 203.661,223.200 217.833 L 223.200 243.600 238.203 243.600 L 253.206 243.600 253.103 217.300 L 253.000 191.000 238.345 190.895 C 225.241 190.801,223.663 190.858,223.445 191.428 " stroke="none" fill="#a238b1" fill-rule="evenodd"></path><path id="path3" d="M179.003 0.275 C 177.025 0.362,175.234 0.606,175.023 0.817 C 174.812 1.028,173.416 1.200,171.920 1.200 C 170.373 1.200,169.200 1.373,169.200 1.600 C 169.200 1.820,168.221 2.000,167.024 2.000 C 165.827 2.000,164.736 2.180,164.600 2.400 C 164.464 2.620,163.474 2.800,162.400 2.800 C 161.326 2.800,160.336 2.980,160.200 3.200 C 160.064 3.420,159.243 3.600,158.376 3.600 C 157.509 3.600,156.800 3.780,156.800 4.000 C 156.800 4.220,156.091 4.400,155.224 4.400 C 154.357 4.400,153.536 4.580,153.400 4.800 C 153.264 5.020,152.454 5.200,151.600 5.200 C 150.746 5.200,149.936 5.380,149.800 5.600 C 149.664 5.820,149.023 6.000,148.376 6.000 C 147.729 6.000,147.200 6.180,147.200 6.400 C 147.200 6.620,146.570 6.800,145.800 6.800 C 145.030 6.800,144.400 6.980,144.400 7.200 C 144.400 7.420,143.781 7.600,143.024 7.600 C 142.267 7.600,141.536 7.780,141.400 8.000 C 141.264 8.220,140.711 8.400,140.171 8.400 C 139.631 8.400,138.877 8.558,138.495 8.750 C 138.113 8.943,136.180 9.606,134.200 10.225 C 132.220 10.843,130.429 11.496,130.220 11.675 C 130.011 11.854,129.426 12.000,128.920 12.000 C 128.414 12.000,128.000 12.180,128.000 12.400 C 128.000 12.620,127.651 12.800,127.224 12.800 C 126.797 12.800,126.336 12.980,126.200 13.200 C 126.064 13.420,125.513 13.600,124.976 13.600 C 124.439 13.600,124.000 13.780,124.000 14.000 C 124.000 14.220,123.728 14.400,123.395 14.400 C 123.062 14.400,122.432 14.580,121.995 14.800 C 121.558 15.020,120.842 15.380,120.405 15.600 C 119.968 15.820,119.338 16.000,119.005 16.000 C 118.672 16.000,118.400 16.180,118.400 16.400 C 118.400 16.620,118.040 16.800,117.600 16.800 C 117.160 16.800,116.800 16.980,116.800 17.200 C 116.800 17.420,116.451 17.600,116.024 17.600 C 115.597 17.600,115.136 17.780,115.000 18.000 C 114.864 18.220,114.403 18.400,113.976 18.400 C 113.549 18.400,113.200 18.580,113.200 18.800 C 113.200 19.020,112.840 19.200,112.400 19.200 C 111.960 19.200,111.600 19.380,111.600 19.600 C 111.600 19.820,111.255 20.000,110.833 20.000 C 110.412 20.000,110.007 20.135,109.933 20.300 C 109.813 20.570,107.711 21.778,105.303 22.960 C 104.810 23.202,104.405 23.535,104.403 23.700 C 104.401 23.865,104.040 24.000,103.600 24.000 C 103.160 24.000,102.800 24.180,102.800 24.400 C 102.800 24.620,102.440 24.800,102.000 24.800 C 101.560 24.800,101.200 24.980,101.200 25.200 C 101.200 25.420,100.954 25.600,100.654 25.600 C 100.354 25.600,99.634 25.973,99.054 26.429 C 98.474 26.885,98.000 27.143,98.000 27.002 C 98.000 26.861,97.477 27.118,96.838 27.573 C 96.199 28.028,95.479 28.400,95.238 28.400 C 94.997 28.400,94.800 28.580,94.800 28.800 C 94.800 29.020,94.530 29.200,94.200 29.200 C 93.870 29.200,93.600 29.358,93.600 29.551 C 93.600 29.745,93.060 30.127,92.400 30.400 C 91.740 30.673,91.200 31.055,91.200 31.249 C 91.200 31.442,90.964 31.600,90.675 31.600 C 90.387 31.600,89.764 31.960,89.292 32.400 C 88.820 32.840,88.244 33.200,88.013 33.200 C 87.782 33.200,87.028 33.740,86.337 34.400 C 85.646 35.060,84.878 35.600,84.629 35.600 C 84.380 35.600,83.917 35.960,83.600 36.400 C 83.283 36.840,82.743 37.200,82.400 37.200 C 82.057 37.200,81.517 37.560,81.200 38.000 C 80.883 38.440,80.485 38.800,80.316 38.800 C 79.976 38.800,78.793 39.723,77.368 41.100 C 76.856 41.595,76.293 42.003,76.118 42.006 C 75.943 42.010,74.990 42.727,74.000 43.600 C 73.010 44.473,72.070 45.190,71.911 45.194 C 71.751 45.197,70.851 45.967,69.911 46.905 C 68.970 47.843,67.570 49.055,66.800 49.598 C 66.030 50.140,64.005 52.028,62.301 53.792 C 58.452 57.776,57.776 58.452,53.792 62.301 C 52.028 64.005,50.140 66.030,49.598 66.800 C 49.055 67.570,47.843 68.970,46.905 69.911 C 45.967 70.851,45.197 71.751,45.194 71.911 C 45.190 72.070,44.473 73.010,43.600 74.000 C 42.727 74.990,42.010 75.943,42.006 76.118 C 42.003 76.293,41.595 76.856,41.100 77.368 C 39.723 78.793,38.800 79.976,38.800 80.316 C 38.800 80.485,38.440 80.883,38.000 81.200 C 37.560 81.517,37.200 82.057,37.200 82.400 C 37.200 82.743,36.840 83.283,36.400 83.600 C 35.960 83.917,35.600 84.380,35.600 84.629 C 35.600 84.878,35.060 85.646,34.400 86.337 C 33.740 87.028,33.200 87.782,33.200 88.013 C 33.200 88.244,32.840 88.820,32.400 89.292 C 31.960 89.764,31.600 90.387,31.600 90.675 C 31.600 90.964,31.442 91.200,31.249 91.200 C 31.055 91.200,30.673 91.740,30.400 92.400 C 30.127 93.060,29.745 93.600,29.551 93.600 C 29.358 93.600,29.200 93.870,29.200 94.200 C 29.200 94.530,29.020 94.800,28.800 94.800 C 28.580 94.800,28.400 94.997,28.400 95.238 C 28.400 95.479,28.028 96.199,27.573 96.838 C 27.118 97.477,26.861 98.000,27.002 98.000 C 27.143 98.000,26.885 98.474,26.429 99.054 C 25.973 99.634,25.600 100.354,25.600 100.654 C 25.600 100.954,25.420 101.200,25.200 101.200 C 24.980 101.200,24.800 101.560,24.800 102.000 C 24.800 102.440,24.620 102.800,24.400 102.800 C 24.180 102.800,24.000 103.160,24.000 103.600 C 24.000 104.040,23.865 104.401,23.700 104.403 C 23.535 104.405,23.202 104.810,22.960 105.303 C 21.778 107.711,20.570 109.813,20.300 109.933 C 20.135 110.007,20.000 110.412,20.000 110.833 C 20.000 111.255,19.820 111.600,19.600 111.600 C 19.380 111.600,19.200 111.960,19.200 112.400 C 19.200 112.840,19.020 113.200,18.800 113.200 C 18.580 113.200,18.400 113.549,18.400 113.976 C 18.400 114.403,18.220 114.864,18.000 115.000 C 17.780 115.136,17.600 115.597,17.600 116.024 C 17.600 116.451,17.420 116.800,17.200 116.800 C 16.980 116.800,16.800 117.160,16.800 117.600 C 16.800 118.040,16.620 118.400,16.400 118.400 C 16.180 118.400,16.000 118.672,16.000 119.005 C 16.000 119.338,15.820 119.968,15.600 120.405 C 15.380 120.842,15.020 121.558,14.800 121.995 C 14.580 122.432,14.400 123.062,14.400 123.395 C 14.400 123.728,14.220 124.000,14.000 124.000 C 13.780 124.000,13.600 124.439,13.600 124.976 C 13.600 125.513,13.420 126.064,13.200 126.200 C 12.980 126.336,12.800 126.797,12.800 127.224 C 12.800 127.651,12.620 128.000,12.400 128.000 C 12.180 128.000,12.000 128.414,12.000 128.920 C 12.000 129.426,11.854 130.011,11.675 130.220 C 11.496 130.429,10.843 132.220,10.225 134.200 C 9.606 136.180,8.943 138.113,8.750 138.495 C 8.558 138.877,8.400 139.631,8.400 140.171 C 8.400 140.711,8.220 141.264,8.000 141.400 C 7.780 141.536,7.600 142.267,7.600 143.024 C 7.600 143.781,7.420 144.400,7.200 144.400 C 6.980 144.400,6.800 145.030,6.800 145.800 C 6.800 146.570,6.620 147.200,6.400 147.200 C 6.180 147.200,6.000 147.729,6.000 148.376 C 6.000 149.023,5.820 149.664,5.600 149.800 C 5.380 149.936,5.200 150.746,5.200 151.600 C 5.200 152.454,5.020 153.264,4.800 153.400 C 4.580 153.536,4.400 154.357,4.400 155.224 C 4.400 156.091,4.220 156.800,4.000 156.800 C 3.780 156.800,3.600 157.509,3.600 158.376 C 3.600 159.243,3.420 160.064,3.200 160.200 C 2.980 160.336,2.800 161.326,2.800 162.400 C 2.800 163.474,2.620 164.464,2.400 164.600 C 2.180 164.736,2.000 165.827,2.000 167.024 C 2.000 168.221,1.820 169.200,1.600 169.200 C 1.373 169.200,1.200 170.373,1.200 171.920 C 1.200 173.563,1.002 174.838,0.700 175.140 C -0.029 175.869,-0.029 224.131,0.700 224.860 C 1.002 225.162,1.200 226.437,1.200 228.080 C 1.200 229.627,1.373 230.800,1.600 230.800 C 1.820 230.800,2.000 231.779,2.000 232.976 C 2.000 234.173,2.180 235.264,2.400 235.400 C 2.620 235.536,2.800 236.526,2.800 237.600 C 2.800 238.674,2.980 239.664,3.200 239.800 C 3.420 239.936,3.600 240.757,3.600 241.624 C 3.600 242.491,3.780 243.200,4.000 243.200 C 4.220 243.200,4.400 243.909,4.400 244.776 C 4.400 245.643,4.580 246.464,4.800 246.600 C 5.020 246.736,5.200 247.546,5.200 248.400 C 5.200 249.254,5.380 250.064,5.600 250.200 C 5.820 250.336,6.000 250.977,6.000 251.624 C 6.000 252.271,6.180 252.800,6.400 252.800 C 6.620 252.800,6.800 253.419,6.800 254.176 C 6.800 254.933,6.980 255.664,7.200 255.800 C 7.420 255.936,7.600 256.566,7.600 257.200 C 7.600 257.834,7.780 258.464,8.000 258.600 C 8.220 258.736,8.400 259.289,8.400 259.829 C 8.400 260.369,8.560 261.123,8.757 261.505 C 8.953 261.887,9.412 263.280,9.778 264.600 C 10.420 266.917,10.902 268.230,11.647 269.695 C 11.841 270.077,12.000 270.580,12.000 270.814 C 12.000 271.048,12.360 271.984,12.800 272.894 C 13.240 273.805,13.600 274.876,13.600 275.275 C 13.600 275.674,13.780 276.000,14.000 276.000 C 14.220 276.000,14.400 276.272,14.400 276.605 C 14.400 277.193,14.567 277.618,15.538 279.495 C 15.792 279.987,16.000 280.662,16.000 280.995 C 16.000 281.328,16.180 281.600,16.400 281.600 C 16.620 281.600,16.800 281.960,16.800 282.400 C 16.800 282.840,16.980 283.200,17.200 283.200 C 17.420 283.200,17.600 283.549,17.600 283.976 C 17.600 284.403,17.780 284.864,18.000 285.000 C 18.220 285.136,18.400 285.597,18.400 286.024 C 18.400 286.451,18.580 286.800,18.800 286.800 C 19.020 286.800,19.200 287.160,19.200 287.600 C 19.200 288.040,19.380 288.400,19.600 288.400 C 19.820 288.400,20.000 288.760,20.000 289.200 C 20.000 289.640,20.135 290.001,20.300 290.001 C 20.465 290.002,21.050 290.992,21.600 292.200 C 22.150 293.408,22.735 294.398,22.900 294.399 C 23.065 294.399,23.200 294.670,23.200 295.000 C 23.200 295.330,23.380 295.600,23.600 295.600 C 23.820 295.600,24.000 295.960,24.000 296.400 C 24.000 296.840,24.180 297.200,24.400 297.200 C 24.620 297.200,24.800 297.560,24.800 298.000 C 24.800 298.440,24.980 298.800,25.200 298.800 C 25.420 298.800,25.600 299.046,25.600 299.346 C 25.600 299.646,25.968 300.360,26.418 300.932 C 26.868 301.504,27.205 302.083,27.168 302.218 C 27.131 302.354,27.573 303.187,28.150 304.068 C 28.728 304.950,29.200 305.836,29.200 306.036 C 29.200 306.236,29.380 306.400,29.600 306.400 C 29.820 306.400,30.000 306.636,30.000 306.925 C 30.000 307.213,30.315 307.798,30.700 308.225 C 31.085 308.651,31.655 309.495,31.968 310.100 C 32.280 310.705,32.685 311.200,32.868 311.200 C 33.050 311.200,33.200 311.520,33.200 311.912 C 33.200 312.303,33.560 312.883,34.000 313.200 C 34.440 313.517,34.800 313.980,34.800 314.229 C 34.800 314.478,35.340 315.246,36.000 315.937 C 36.660 316.628,37.200 317.425,37.200 317.708 C 37.200 317.991,37.560 318.483,38.000 318.800 C 38.440 319.117,38.800 319.607,38.800 319.888 C 38.800 320.170,38.980 320.400,39.200 320.400 C 39.420 320.400,39.600 320.598,39.600 320.840 C 39.600 321.081,40.140 321.783,40.800 322.400 C 41.460 323.017,42.000 323.642,42.000 323.789 C 42.000 323.937,42.225 324.308,42.500 324.615 C 43.062 325.241,43.242 325.467,45.196 328.000 C 45.959 328.990,47.045 330.250,47.608 330.800 C 48.170 331.350,49.071 332.430,49.608 333.200 C 50.146 333.970,52.209 336.177,54.193 338.103 C 58.653 342.435,58.525 342.308,62.298 346.208 C 64.004 347.972,66.030 349.856,66.800 350.395 C 67.570 350.934,68.830 352.016,69.600 352.800 C 70.370 353.584,71.630 354.661,72.400 355.194 C 73.170 355.726,73.890 356.270,74.000 356.402 C 74.110 356.534,74.916 357.173,75.792 357.821 C 77.755 359.275,78.732 360.051,79.416 360.700 C 79.706 360.975,80.096 361.200,80.283 361.200 C 80.470 361.200,80.883 361.560,81.200 362.000 C 81.517 362.440,82.009 362.800,82.292 362.800 C 82.575 362.800,83.372 363.340,84.063 364.000 C 84.754 364.660,85.522 365.200,85.771 365.200 C 86.020 365.200,86.483 365.560,86.800 366.000 C 87.117 366.440,87.614 366.800,87.905 366.800 C 88.196 366.800,88.820 367.160,89.292 367.600 C 89.764 368.040,90.387 368.400,90.675 368.400 C 90.964 368.400,91.200 368.558,91.200 368.751 C 91.200 368.945,91.740 369.327,92.400 369.600 C 93.060 369.873,93.600 370.255,93.600 370.449 C 93.600 370.642,93.836 370.800,94.125 370.800 C 94.413 370.800,94.998 371.121,95.425 371.513 C 95.851 371.905,96.830 372.530,97.600 372.901 C 98.370 373.272,99.540 373.939,100.200 374.385 C 100.860 374.830,101.715 375.196,102.100 375.197 C 102.485 375.199,102.800 375.380,102.800 375.600 C 102.800 375.820,103.160 376.000,103.600 376.000 C 104.040 376.000,104.400 376.180,104.400 376.400 C 104.400 376.620,104.670 376.800,105.000 376.800 C 105.330 376.800,105.601 376.935,105.601 377.100 C 105.602 377.265,106.592 377.850,107.800 378.400 C 109.008 378.950,109.998 379.535,109.999 379.700 C 109.999 379.865,110.360 380.000,110.800 380.000 C 111.240 380.000,111.600 380.180,111.600 380.400 C 111.600 380.620,111.960 380.800,112.400 380.800 C 112.840 380.800,113.200 380.980,113.200 381.200 C 113.200 381.420,113.549 381.600,113.976 381.600 C 114.403 381.600,114.864 381.780,115.000 382.000 C 115.136 382.220,115.597 382.400,116.024 382.400 C 116.451 382.400,116.800 382.580,116.800 382.800 C 116.800 383.020,117.160 383.200,117.600 383.200 C 118.040 383.200,118.400 383.380,118.400 383.600 C 118.400 383.820,118.672 384.000,119.005 384.000 C 119.338 384.000,119.968 384.180,120.405 384.400 C 120.842 384.620,121.558 384.980,121.995 385.200 C 122.432 385.420,123.062 385.600,123.395 385.600 C 123.728 385.600,124.000 385.780,124.000 386.000 C 124.000 386.220,124.272 386.400,124.605 386.400 C 124.938 386.400,125.568 386.580,126.005 386.800 C 126.442 387.020,127.158 387.380,127.595 387.600 C 128.032 387.820,128.737 388.000,129.161 388.000 C 129.586 388.000,129.993 388.140,130.067 388.312 C 130.254 388.750,139.033 391.600,140.196 391.600 C 140.722 391.600,141.264 391.780,141.400 392.000 C 141.536 392.220,142.166 392.400,142.800 392.400 C 143.434 392.400,144.064 392.580,144.200 392.800 C 144.336 393.020,144.966 393.200,145.600 393.200 C 146.234 393.200,146.864 393.380,147.000 393.600 C 147.136 393.820,147.777 394.000,148.424 394.000 C 149.071 394.000,149.600 394.180,149.600 394.400 C 149.600 394.620,150.320 394.800,151.200 394.800 C 152.080 394.800,152.800 394.980,152.800 395.200 C 152.800 395.420,153.700 395.600,154.800 395.600 C 155.900 395.600,156.800 395.780,156.800 396.000 C 156.800 396.220,157.520 396.400,158.400 396.400 C 159.280 396.400,160.000 396.580,160.000 396.800 C 160.000 397.020,160.990 397.200,162.200 397.200 C 163.410 397.200,164.400 397.380,164.400 397.600 C 164.400 397.822,165.467 398.000,166.800 398.000 C 168.133 398.000,169.200 398.178,169.200 398.400 C 169.200 398.627,170.373 398.800,171.920 398.800 C 173.563 398.800,174.838 398.998,175.140 399.300 C 175.871 400.031,224.857 400.031,225.100 399.300 C 225.212 398.965,226.171 398.800,228.010 398.800 C 229.518 398.800,230.864 398.620,231.000 398.400 C 231.136 398.180,232.227 398.000,233.424 398.000 C 234.621 398.000,235.600 397.820,235.600 397.600 C 235.600 397.380,236.590 397.200,237.800 397.200 C 239.010 397.200,240.000 397.020,240.000 396.800 C 240.000 396.580,240.720 396.400,241.600 396.400 C 242.480 396.400,243.200 396.220,243.200 396.000 C 243.200 395.780,243.999 395.600,244.976 395.600 C 245.953 395.600,246.864 395.420,247.000 395.200 C 247.136 394.980,247.957 394.800,248.824 394.800 C 249.691 394.800,250.400 394.620,250.400 394.400 C 250.400 394.180,250.929 394.000,251.576 394.000 C 252.223 394.000,252.864 393.820,253.000 393.600 C 253.136 393.380,253.867 393.200,254.624 393.200 C 255.381 393.200,256.000 393.020,256.000 392.800 C 256.000 392.580,256.630 392.400,257.400 392.400 C 258.170 392.400,258.800 392.220,258.800 392.000 C 258.800 391.780,259.241 391.600,259.780 391.600 C 260.960 391.600,269.744 388.755,269.933 388.312 C 270.007 388.140,270.414 388.000,270.839 388.000 C 271.263 388.000,271.968 387.820,272.405 387.600 C 272.842 387.380,273.558 387.020,273.995 386.800 C 274.432 386.580,275.062 386.400,275.395 386.400 C 275.728 386.400,276.000 386.220,276.000 386.000 C 276.000 385.780,276.439 385.600,276.976 385.600 C 277.513 385.600,278.064 385.420,278.200 385.200 C 278.336 384.980,278.797 384.800,279.224 384.800 C 279.651 384.800,280.000 384.620,280.000 384.400 C 280.000 384.180,280.360 384.000,280.800 384.000 C 281.240 384.000,281.600 383.820,281.600 383.600 C 281.600 383.380,281.960 383.200,282.400 383.200 C 282.840 383.200,283.200 383.020,283.200 382.800 C 283.200 382.580,283.472 382.400,283.805 382.400 C 284.138 382.400,284.723 382.240,285.105 382.044 C 285.487 381.848,286.700 381.263,287.800 380.744 C 288.900 380.225,289.860 379.665,289.933 379.500 C 290.007 379.335,290.412 379.200,290.833 379.200 C 291.255 379.200,291.600 379.020,291.600 378.800 C 291.600 378.580,291.945 378.400,292.367 378.400 C 292.788 378.400,293.193 378.265,293.267 378.100 C 293.434 377.724,295.564 376.425,296.500 376.129 C 296.885 376.007,297.200 375.748,297.200 375.553 C 297.200 375.359,297.479 375.200,297.820 375.200 C 298.442 375.200,300.825 374.102,301.200 373.644 C 301.310 373.509,301.940 373.134,302.600 372.810 C 304.261 371.995,308.571 369.127,308.733 368.728 C 308.807 368.547,309.172 368.400,309.545 368.400 C 309.918 368.400,310.483 368.040,310.800 367.600 C 311.117 367.160,311.657 366.800,312.000 366.800 C 312.343 366.800,312.883 366.440,313.200 366.000 C 313.517 365.560,314.009 365.200,314.292 365.200 C 314.575 365.200,315.372 364.660,316.063 364.000 C 316.754 363.340,317.522 362.800,317.771 362.800 C 318.020 362.800,318.483 362.440,318.800 362.000 C 319.117 361.560,319.572 361.200,319.810 361.200 C 320.049 361.200,320.931 360.570,321.772 359.800 C 322.613 359.030,323.423 358.400,323.572 358.400 C 323.721 358.400,324.531 357.770,325.372 357.000 C 326.213 356.230,327.054 355.600,327.242 355.600 C 327.429 355.600,328.573 354.610,329.783 353.400 C 330.993 352.190,332.157 351.200,332.371 351.200 C 332.584 351.200,334.703 349.230,337.079 346.821 C 342.316 341.514,341.514 342.316,346.821 337.079 C 349.230 334.703,351.200 332.584,351.200 332.371 C 351.200 332.157,352.190 330.993,353.400 329.783 C 354.610 328.573,355.600 327.429,355.600 327.242 C 355.600 327.054,356.230 326.213,357.000 325.372 C 357.770 324.531,358.400 323.721,358.400 323.572 C 358.400 323.423,359.030 322.613,359.800 321.772 C 360.570 320.931,361.200 320.049,361.200 319.810 C 361.200 319.572,361.560 319.117,362.000 318.800 C 362.440 318.483,362.800 318.020,362.800 317.771 C 362.800 317.522,363.340 316.754,364.000 316.063 C 364.660 315.372,365.200 314.575,365.200 314.292 C 365.200 314.009,365.560 313.517,366.000 313.200 C 366.440 312.883,366.800 312.343,366.800 312.000 C 366.800 311.657,367.160 311.117,367.600 310.800 C 368.040 310.483,368.400 309.918,368.400 309.545 C 368.400 309.172,368.547 308.807,368.728 308.733 C 369.127 308.571,371.995 304.261,372.810 302.600 C 373.134 301.940,373.509 301.310,373.644 301.200 C 374.091 300.835,375.200 298.449,375.200 297.853 C 375.200 297.531,375.335 297.207,375.500 297.133 C 375.876 296.966,377.175 294.836,377.471 293.900 C 377.593 293.515,377.852 293.200,378.047 293.200 C 378.241 293.200,378.400 292.840,378.400 292.400 C 378.400 291.960,378.580 291.600,378.800 291.600 C 379.020 291.600,379.200 291.255,379.200 290.833 C 379.200 290.412,379.335 290.007,379.500 289.933 C 379.665 289.860,380.225 288.900,380.744 287.800 C 381.263 286.700,381.848 285.487,382.044 285.105 C 382.240 284.723,382.400 284.138,382.400 283.805 C 382.400 283.472,382.580 283.200,382.800 283.200 C 383.020 283.200,383.200 282.840,383.200 282.400 C 383.200 281.960,383.380 281.600,383.600 281.600 C 383.820 281.600,384.000 281.240,384.000 280.800 C 384.000 280.360,384.180 280.000,384.400 280.000 C 384.620 280.000,384.800 279.651,384.800 279.224 C 384.800 278.797,384.980 278.336,385.200 278.200 C 385.420 278.064,385.600 277.513,385.600 276.976 C 385.600 276.439,385.780 276.000,386.000 276.000 C 386.220 276.000,386.400 275.728,386.400 275.395 C 386.400 275.062,386.580 274.432,386.800 273.995 C 387.020 273.558,387.380 272.842,387.600 272.405 C 387.820 271.968,388.000 271.263,388.000 270.839 C 388.000 270.414,388.140 270.007,388.312 269.933 C 388.755 269.744,391.600 260.960,391.600 259.780 C 391.600 259.241,391.780 258.800,392.000 258.800 C 392.220 258.800,392.400 258.170,392.400 257.400 C 392.400 256.630,392.580 256.000,392.800 256.000 C 393.020 256.000,393.200 255.381,393.200 254.624 C 393.200 253.867,393.380 253.136,393.600 253.000 C 393.820 252.864,394.000 252.223,394.000 251.576 C 394.000 250.929,394.180 250.400,394.400 250.400 C 394.620 250.400,394.800 249.691,394.800 248.824 C 394.800 247.957,394.980 247.136,395.200 247.000 C 395.420 246.864,395.600 245.953,395.600 244.976 C 395.600 243.999,395.780 243.200,396.000 243.200 C 396.220 243.200,396.400 242.480,396.400 241.600 C 396.400 240.720,396.580 240.000,396.800 240.000 C 397.020 240.000,397.200 239.010,397.200 237.800 C 397.200 236.590,397.380 235.600,397.600 235.600 C 397.820 235.600,398.000 234.621,398.000 233.424 C 398.000 232.227,398.180 231.136,398.400 231.000 C 398.620 230.864,398.800 229.518,398.800 228.010 C 398.800 226.171,398.965 225.212,399.300 225.100 C 399.693 224.969,399.800 219.591,399.800 200.000 C 399.800 180.409,399.693 175.031,399.300 174.900 C 398.964 174.788,398.800 173.824,398.800 171.967 C 398.800 170.389,398.628 169.200,398.400 169.200 C 398.178 169.200,398.000 168.133,398.000 166.800 C 398.000 165.467,397.822 164.400,397.600 164.400 C 397.380 164.400,397.200 163.511,397.200 162.424 C 397.200 161.337,397.020 160.336,396.800 160.200 C 396.580 160.064,396.400 159.243,396.400 158.376 C 396.400 157.509,396.220 156.800,396.000 156.800 C 395.780 156.800,395.600 156.001,395.600 155.024 C 395.600 154.047,395.420 153.136,395.200 153.000 C 394.980 152.864,394.800 152.144,394.800 151.400 C 394.800 150.656,394.620 149.936,394.400 149.800 C 394.180 149.664,394.000 149.023,394.000 148.376 C 394.000 147.729,393.820 147.200,393.600 147.200 C 393.380 147.200,393.200 146.581,393.200 145.824 C 393.200 145.067,393.020 144.336,392.800 144.200 C 392.580 144.064,392.400 143.453,392.400 142.843 C 392.400 142.233,392.268 141.601,392.106 141.440 C 391.945 141.278,391.610 140.213,391.363 139.073 C 390.842 136.669,389.288 132.143,388.353 130.305 C 388.159 129.923,388.000 129.248,388.000 128.805 C 388.000 128.362,387.820 128.000,387.600 128.000 C 387.380 128.000,387.200 127.651,387.200 127.224 C 387.200 126.797,387.020 126.336,386.800 126.200 C 386.580 126.064,386.400 125.513,386.400 124.976 C 386.400 124.439,386.220 124.000,386.000 124.000 C 385.780 124.000,385.600 123.728,385.600 123.395 C 385.600 123.062,385.420 122.432,385.200 121.995 C 384.980 121.558,384.620 120.842,384.400 120.405 C 384.180 119.968,384.000 119.338,384.000 119.005 C 384.000 118.672,383.820 118.400,383.600 118.400 C 383.380 118.400,383.200 118.040,383.200 117.600 C 383.200 117.160,383.020 116.800,382.800 116.800 C 382.580 116.800,382.400 116.451,382.400 116.024 C 382.400 115.597,382.220 115.136,382.000 115.000 C 381.780 114.864,381.600 114.403,381.600 113.976 C 381.600 113.549,381.420 113.200,381.200 113.200 C 380.980 113.200,380.800 112.840,380.800 112.400 C 380.800 111.960,380.620 111.600,380.400 111.600 C 380.180 111.600,380.000 111.240,380.000 110.800 C 380.000 110.360,379.865 109.999,379.700 109.999 C 379.535 109.998,378.950 109.008,378.400 107.800 C 377.850 106.592,377.265 105.602,377.100 105.601 C 376.935 105.601,376.800 105.330,376.800 105.000 C 376.800 104.670,376.620 104.400,376.400 104.400 C 376.180 104.400,376.000 104.040,376.000 103.600 C 376.000 103.160,375.820 102.800,375.600 102.800 C 375.380 102.800,375.199 102.485,375.197 102.100 C 375.196 101.715,374.830 100.860,374.385 100.200 C 373.939 99.540,373.272 98.370,372.901 97.600 C 372.530 96.830,371.905 95.851,371.513 95.425 C 371.121 94.998,370.800 94.413,370.800 94.125 C 370.800 93.836,370.642 93.600,370.449 93.600 C 370.255 93.600,369.873 93.060,369.600 92.400 C 369.327 91.740,368.945 91.200,368.751 91.200 C 368.558 91.200,368.400 90.964,368.400 90.675 C 368.400 90.387,368.040 89.764,367.600 89.292 C 367.160 88.820,366.800 88.196,366.800 87.905 C 366.800 87.614,366.440 87.117,366.000 86.800 C 365.560 86.483,365.200 86.020,365.200 85.771 C 365.200 85.522,364.660 84.754,364.000 84.063 C 363.340 83.372,362.800 82.575,362.800 82.292 C 362.800 82.009,362.440 81.517,362.000 81.200 C 361.560 80.883,361.200 80.485,361.200 80.316 C 361.200 80.042,360.597 79.218,359.400 77.855 C 359.180 77.605,358.470 76.680,357.821 75.800 C 357.173 74.920,356.534 74.110,356.402 74.000 C 356.270 73.890,355.726 73.170,355.194 72.400 C 354.661 71.630,353.584 70.370,352.800 69.600 C 352.016 68.830,350.934 67.570,350.395 66.800 C 349.856 66.030,347.972 64.004,346.208 62.298 C 342.308 58.525,342.435 58.653,338.103 54.193 C 336.177 52.209,333.970 50.146,333.200 49.608 C 332.430 49.071,331.350 48.170,330.800 47.608 C 330.250 47.045,328.990 45.960,328.000 45.198 C 327.010 44.435,325.981 43.629,325.714 43.406 C 325.447 43.183,324.959 42.775,324.631 42.500 C 324.302 42.225,323.918 42.000,323.777 42.000 C 323.636 42.000,323.017 41.460,322.400 40.800 C 321.783 40.140,321.081 39.600,320.840 39.600 C 320.598 39.600,320.400 39.420,320.400 39.200 C 320.400 38.980,320.170 38.800,319.888 38.800 C 319.607 38.800,319.117 38.440,318.800 38.000 C 318.483 37.560,317.991 37.200,317.708 37.200 C 317.425 37.200,316.628 36.660,315.937 36.000 C 315.246 35.340,314.478 34.800,314.229 34.800 C 313.980 34.800,313.517 34.440,313.200 34.000 C 312.883 33.560,312.303 33.200,311.912 33.200 C 311.520 33.200,311.200 33.050,311.200 32.868 C 311.200 32.685,310.705 32.280,310.100 31.968 C 309.495 31.655,308.651 31.085,308.225 30.700 C 307.798 30.315,307.213 30.000,306.925 30.000 C 306.636 30.000,306.400 29.820,306.400 29.600 C 306.400 29.380,306.236 29.200,306.036 29.200 C 305.836 29.200,304.950 28.728,304.068 28.150 C 303.187 27.573,302.401 27.168,302.323 27.250 C 302.244 27.333,301.666 26.995,301.036 26.500 C 300.407 26.005,299.646 25.600,299.346 25.600 C 299.046 25.600,298.800 25.420,298.800 25.200 C 298.800 24.980,298.440 24.800,298.000 24.800 C 297.560 24.800,297.200 24.620,297.200 24.400 C 297.200 24.180,296.840 24.000,296.400 24.000 C 295.960 24.000,295.600 23.820,295.600 23.600 C 295.600 23.380,295.330 23.200,295.000 23.200 C 294.670 23.200,294.399 23.065,294.399 22.900 C 294.398 22.735,293.408 22.150,292.200 21.600 C 290.992 21.050,290.002 20.465,290.001 20.300 C 290.001 20.135,289.640 20.000,289.200 20.000 C 288.760 20.000,288.400 19.820,288.400 19.600 C 288.400 19.380,288.040 19.200,287.600 19.200 C 287.160 19.200,286.800 19.020,286.800 18.800 C 286.800 18.580,286.451 18.400,286.024 18.400 C 285.597 18.400,285.136 18.220,285.000 18.000 C 284.864 17.780,284.403 17.600,283.976 17.600 C 283.549 17.600,283.200 17.420,283.200 17.200 C 283.200 16.980,282.840 16.800,282.400 16.800 C 281.960 16.800,281.600 16.620,281.600 16.400 C 281.600 16.180,281.328 16.000,280.995 16.000 C 280.662 16.000,280.032 15.820,279.595 15.600 C 279.158 15.380,278.442 15.020,278.005 14.800 C 277.568 14.580,276.938 14.400,276.605 14.400 C 276.272 14.400,276.000 14.220,276.000 14.000 C 276.000 13.780,275.674 13.600,275.275 13.600 C 274.876 13.600,273.805 13.240,272.894 12.800 C 271.984 12.360,271.048 12.000,270.814 12.000 C 270.580 12.000,270.077 11.841,269.695 11.647 C 268.230 10.902,266.917 10.420,264.600 9.778 C 263.280 9.412,261.887 8.953,261.505 8.757 C 261.123 8.560,260.369 8.400,259.829 8.400 C 259.289 8.400,258.736 8.220,258.600 8.000 C 258.464 7.780,257.834 7.600,257.200 7.600 C 256.566 7.600,255.936 7.420,255.800 7.200 C 255.664 6.980,254.933 6.800,254.176 6.800 C 253.419 6.800,252.800 6.620,252.800 6.400 C 252.800 6.180,252.271 6.000,251.624 6.000 C 250.977 6.000,250.336 5.820,250.200 5.600 C 250.064 5.380,249.254 5.200,248.400 5.200 C 247.546 5.200,246.736 5.020,246.600 4.800 C 246.464 4.580,245.643 4.400,244.776 4.400 C 243.909 4.400,243.200 4.220,243.200 4.000 C 243.200 3.780,242.491 3.600,241.624 3.600 C 240.757 3.600,239.936 3.420,239.800 3.200 C 239.664 2.980,238.674 2.800,237.600 2.800 C 236.526 2.800,235.536 2.620,235.400 2.400 C 235.264 2.180,234.173 2.000,232.976 2.000 C 231.779 2.000,230.800 1.820,230.800 1.600 C 230.800 1.373,229.627 1.200,228.080 1.200 C 226.483 1.200,225.160 1.000,224.875 0.715 C 224.394 0.234,187.860 -0.116,179.003 0.275 M182.000 91.791 C 183.430 91.943,184.771 92.232,184.980 92.434 C 185.189 92.635,185.729 92.803,186.180 92.806 C 187.715 92.817,192.296 94.676,193.436 95.752 C 193.697 95.998,194.383 96.541,194.959 96.959 C 196.455 98.041,197.643 100.112,198.856 103.748 C 200.007 107.201,200.417 107.188,200.953 103.683 C 201.559 99.712,207.521 93.600,210.789 93.600 C 211.209 93.600,211.664 93.420,211.800 93.200 C 211.936 92.980,212.667 92.800,213.424 92.800 C 214.181 92.800,214.800 92.620,214.800 92.400 C 214.800 92.176,215.907 92.000,217.320 92.000 C 218.706 92.000,220.021 91.819,220.241 91.599 C 220.507 91.333,239.749 91.232,277.157 91.299 L 333.672 91.400 333.619 102.692 L 333.567 113.984 342.083 114.092 L 350.600 114.200 350.701 211.622 C 350.784 292.188,350.710 309.171,350.269 309.773 C 349.756 310.475,344.536 310.488,199.769 310.150 L 49.800 309.800 49.800 212.000 L 49.800 114.200 57.900 114.092 L 66.000 113.983 66.000 102.858 C 66.000 96.740,66.121 91.612,66.269 91.464 C 66.621 91.113,178.596 91.429,182.000 91.791 M268.900 191.463 C 268.507 191.623,268.400 197.235,268.400 217.633 L 268.400 243.600 290.403 243.600 L 312.406 243.600 312.303 217.500 L 312.200 191.400 290.800 191.330 C 279.030 191.291,269.175 191.351,268.900 191.463 M88.000 232.200 L 88.000 243.600 132.600 243.600 L 177.200 243.600 177.200 232.200 L 177.200 220.800 132.600 220.800 L 88.000 220.800 88.000 232.200 " stroke="none" fill="#fc9f15" fill-rule="evenodd"></path><path id="path4" d="M49.785 114.500 C 49.680 114.775,49.641 158.830,49.698 212.400 L 49.800 309.800 199.769 310.150 C 344.536 310.488,349.756 310.475,350.269 309.773 C 350.710 309.171,350.784 292.188,350.701 211.622 L 350.600 114.200 342.000 114.187 L 333.400 114.175 341.700 114.295 L 350.000 114.416 350.000 211.808 L 350.000 309.200 200.000 309.200 L 50.000 309.200 50.000 211.808 L 50.000 114.416 58.300 114.300 L 66.600 114.183 58.287 114.091 C 51.937 114.022,49.930 114.118,49.785 114.500 " stroke="none" fill="#bf5948" fill-rule="evenodd"></path><path id="path5" d="M66.269 91.464 C 66.121 91.612,66.039 96.788,66.088 102.967 L 66.175 114.200 66.403 103.000 C 66.529 96.840,66.670 91.755,66.716 91.700 C 66.950 91.421,166.618 91.681,174.000 91.979 C 189.459 92.604,195.321 95.252,198.198 102.909 C 199.139 105.413,199.395 105.121,198.493 102.571 C 197.584 99.999,196.264 97.904,194.959 96.959 C 194.383 96.541,193.697 95.998,193.436 95.752 C 192.296 94.676,187.715 92.817,186.180 92.806 C 185.729 92.803,185.189 92.635,184.980 92.434 C 184.078 91.564,67.125 90.608,66.269 91.464 M220.200 91.600 C 220.064 91.820,218.793 92.000,217.376 92.000 C 215.925 92.000,214.800 92.175,214.800 92.400 C 214.800 92.620,214.181 92.800,213.424 92.800 C 212.667 92.800,211.936 92.980,211.800 93.200 C 211.664 93.420,211.209 93.600,210.789 93.600 C 207.491 93.600,201.481 99.793,201.005 103.683 C 200.809 105.282,200.824 105.318,201.227 104.200 C 203.174 98.804,206.862 95.279,212.200 93.713 C 215.240 92.821,215.812 92.699,218.800 92.302 C 223.586 91.668,332.865 91.458,333.251 92.083 C 333.419 92.355,333.674 92.459,333.818 92.315 C 333.962 92.171,333.961 91.861,333.816 91.627 C 333.459 91.049,220.557 91.022,220.200 91.600 M199.246 106.200 C 199.197 107.953,199.789 108.742,200.357 107.680 C 201.002 106.475,200.957 105.090,200.309 106.200 C 199.857 106.974,199.833 106.968,199.561 106.000 C 199.290 105.037,199.279 105.044,199.246 106.200 M268.267 190.667 C 268.120 190.813,268.000 202.873,268.000 217.467 L 268.000 244.000 290.600 244.000 L 313.200 244.000 313.200 217.443 C 313.200 193.595,313.135 190.861,312.567 190.643 C 311.701 190.310,268.600 190.333,268.267 190.667 M312.303 217.500 L 312.406 243.600 290.403 243.600 L 268.400 243.600 268.400 217.633 C 268.400 197.235,268.507 191.623,268.900 191.463 C 269.175 191.351,279.030 191.291,290.800 191.330 L 312.200 191.400 312.303 217.500 M87.694 232.100 L 87.787 243.800 87.900 232.302 L 88.012 220.803 132.706 220.700 L 177.400 220.597 132.500 220.498 L 87.600 220.400 87.694 232.100 " stroke="none" fill="#fccc41" fill-rule="evenodd"></path></g></svg>