<svg id="svg" version="1.1" xmlns="http://www.w3.org/2000/svg" xmlns:xlink="http://www.w3.org/1999/xlink" width="400" height="400" viewBox="0, 0, 400,400"><g id="svgg"><path id="path0" d="M92.985 114.498 C 92.880 114.774,92.840 135.700,92.897 161.000 L 93.000 207.000 132.400 207.000 L 171.800 207.000 171.800 160.600 L 171.800 114.200 132.488 114.098 C 101.250 114.017,93.137 114.099,92.985 114.498 M66.400 281.200 L 66.400 292.400 99.734 292.400 C 118.067 292.400,178.187 292.520,233.334 292.666 L 333.600 292.933 333.600 281.566 L 333.600 270.200 276.500 270.403 C 212.014 270.632,217.945 270.316,210.400 273.930 C 206.562 275.768,201.615 282.330,200.623 286.900 C 200.492 287.505,200.212 288.000,200.000 288.000 C 199.788 288.000,199.508 287.505,199.377 286.900 C 197.856 279.893,191.196 273.587,183.000 271.394 C 178.528 270.197,170.689 270.030,118.500 270.015 L 66.400 270.000 66.400 281.200 " stroke="none" fill="#2298a3" fill-rule="evenodd"></path><path id="path1" d="M66.667 91.867 C 66.520 92.013,66.400 132.153,66.400 181.067 L 66.400 270.000 118.500 270.015 C 170.689 270.030,178.528 270.197,183.000 271.394 C 191.196 273.587,197.856 279.893,199.377 286.900 C 199.508 287.505,199.788 288.000,200.000 288.000 C 200.212 288.000,200.492 287.505,200.623 286.900 C 201.615 282.330,206.562 275.768,210.400 273.930 C 217.949 270.314,212.025 270.631,276.400 270.402 L 333.400 270.200 333.501 180.900 L 333.602 91.600 278.208 91.600 C 222.136 91.600,220.936 91.628,214.044 93.092 C 208.592 94.250,203.927 97.532,202.237 101.400 C 201.061 104.092,200.800 104.879,200.800 105.742 C 200.800 107.562,199.739 108.353,199.412 106.777 C 197.454 97.321,192.013 93.300,179.400 91.988 C 175.330 91.565,67.085 91.448,66.667 91.867 M171.800 160.600 L 171.800 207.000 132.400 207.000 L 93.000 207.000 92.897 161.000 C 92.840 135.700,92.880 114.774,92.985 114.498 C 93.137 114.099,101.250 114.017,132.488 114.098 L 171.800 114.200 171.800 160.600 M313.000 125.800 L 313.000 137.400 268.000 137.400 L 223.000 137.400 222.894 126.249 C 222.818 118.336,222.920 114.938,223.244 114.547 C 223.628 114.085,230.846 114.013,268.350 114.098 L 313.000 114.200 313.000 125.800 M313.000 162.600 L 313.000 174.200 268.800 174.310 C 244.490 174.370,224.195 174.322,223.700 174.202 L 222.800 173.985 222.805 163.292 C 222.808 157.412,222.920 152.194,223.053 151.698 L 223.294 150.797 268.147 150.898 L 313.000 151.000 313.000 162.600 M252.957 191.433 C 253.091 191.781,253.200 203.661,253.200 217.833 L 253.200 243.600 238.200 243.600 L 223.200 243.600 223.200 217.833 C 223.200 203.661,223.309 191.781,223.443 191.433 C 223.812 190.470,252.588 190.470,252.957 191.433 M313.200 217.157 C 313.200 240.823,313.135 243.539,312.567 243.757 C 311.741 244.074,269.459 244.074,268.633 243.757 C 268.065 243.539,268.000 240.823,268.000 217.157 L 268.000 190.800 290.600 190.800 L 313.200 190.800 313.200 217.157 M177.200 232.000 L 177.200 243.600 132.400 243.600 L 87.600 243.600 87.600 232.000 L 87.600 220.400 132.400 220.400 L 177.200 220.400 177.200 232.000 " stroke="none" fill="#faf7e2" fill-rule="evenodd"></path><path id="path2" d="M223.244 114.547 C 222.920 114.938,222.818 118.336,222.894 126.249 L 223.000 137.400 268.000 137.400 L 313.000 137.400 313.000 125.800 L 313.000 114.200 268.350 114.098 C 230.846 114.013,223.628 114.085,223.244 114.547 M50.000 211.800 L 50.000 309.200 200.000 309.200 L 350.000 309.200 350.000 211.800 L 350.000 114.400 341.800 114.400 L 333.600 114.400 333.600 203.600 L 333.600 292.800 300.266 292.800 C 281.933 292.800,221.813 292.680,166.666 292.534 L 66.400 292.267 66.400 203.334 L 66.400 114.400 58.200 114.400 L 50.000 114.400 50.000 211.800 M223.053 151.698 C 222.920 152.194,222.808 157.412,222.805 163.292 L 222.800 173.985 223.700 174.202 C 224.195 174.322,244.490 174.370,268.800 174.310 L 313.000 174.200 313.000 162.600 L 313.000 151.000 268.147 150.898 L 223.294 150.797 223.053 151.698 M223.443 191.433 C 223.309 191.781,223.200 203.661,223.200 217.833 L 223.200 243.600 238.200 243.600 L 253.200 243.600 253.200 217.833 C 253.200 203.661,253.091 191.781,252.957 191.433 C 252.588 190.470,223.812 190.470,223.443 191.433 " stroke="none" fill="#a238b1" fill-rule="evenodd"></path><path id="path3" d="M179.003 0.275 C 177.025 0.362,175.234 0.606,175.023 0.817 C 174.812 1.028,173.416 1.200,171.920 1.200 C 170.373 1.200,169.200 1.373,169.200 1.600 C 169.200 1.820,168.221 2.000,167.024 2.000 C 165.827 2.000,164.736 2.180,164.600 2.400 C 164.464 2.620,163.373 2.800,162.176 2.800 C 160.979 2.800,160.000 2.980,160.000 3.200 C 160.000 3.420,159.280 3.600,158.400 3.600 C 157.520 3.600,156.800 3.780,156.800 4.000 C 156.800 4.220,156.091 4.400,155.224 4.400 C 154.357 4.400,153.536 4.580,153.400 4.800 C 153.264 5.020,152.353 5.200,151.376 5.200 C 150.399 5.200,149.600 5.380,149.600 5.600 C 149.600 5.820,149.060 6.000,148.400 6.000 C 147.740 6.000,147.200 6.180,147.200 6.400 C 147.200 6.620,146.469 6.800,145.576 6.800 C 144.596 6.800,144.051 6.958,144.200 7.200 C 144.349 7.442,143.804 7.600,142.824 7.600 C 141.931 7.600,141.200 7.780,141.200 8.000 C 141.200 8.220,140.756 8.400,140.214 8.400 C 139.219 8.400,135.908 9.349,134.800 9.952 C 134.470 10.131,133.255 10.519,132.100 10.815 C 130.945 11.110,130.000 11.497,130.000 11.676 C 130.000 11.854,129.550 12.000,129.000 12.000 C 128.450 12.000,128.000 12.147,128.000 12.328 C 128.000 12.508,127.100 12.900,126.000 13.200 C 124.900 13.500,124.000 13.892,124.000 14.072 C 124.000 14.253,123.728 14.400,123.395 14.400 C 123.062 14.400,122.432 14.580,121.995 14.800 C 121.558 15.020,120.842 15.380,120.405 15.600 C 119.968 15.820,119.338 16.000,119.005 16.000 C 118.672 16.000,118.400 16.180,118.400 16.400 C 118.400 16.620,118.040 16.800,117.600 16.800 C 117.160 16.800,116.800 16.980,116.800 17.200 C 116.800 17.420,116.451 17.600,116.024 17.600 C 115.597 17.600,115.136 17.780,115.000 18.000 C 114.864 18.220,114.403 18.400,113.976 18.400 C 113.549 18.400,113.200 18.580,113.200 18.800 C 113.200 19.020,112.928 19.200,112.595 19.200 C 112.039 19.200,110.478 19.922,110.000 20.400 C 109.522 20.878,107.961 21.600,107.405 21.600 C 107.072 21.600,106.800 21.758,106.800 21.951 C 106.800 22.145,106.260 22.527,105.600 22.800 C 104.940 23.073,104.400 23.455,104.400 23.649 C 104.400 23.842,104.040 24.000,103.600 24.000 C 103.160 24.000,102.800 24.180,102.800 24.400 C 102.800 24.620,102.476 24.800,102.080 24.800 C 101.684 24.800,101.189 24.958,100.980 25.151 C 100.771 25.343,99.790 25.948,98.800 26.494 C 94.465 28.885,91.965 30.434,91.200 31.201 C 91.090 31.311,90.505 31.656,89.900 31.968 C 89.295 32.280,88.800 32.685,88.800 32.868 C 88.800 33.050,88.480 33.200,88.088 33.200 C 87.697 33.200,87.117 33.560,86.800 34.000 C 86.483 34.440,85.975 34.800,85.672 34.800 C 85.369 34.800,84.617 35.340,84.000 36.000 C 83.383 36.660,82.631 37.200,82.328 37.200 C 82.025 37.200,81.517 37.560,81.200 38.000 C 80.883 38.440,80.485 38.800,80.316 38.800 C 79.976 38.800,78.793 39.723,77.368 41.100 C 76.856 41.595,76.293 42.003,76.118 42.006 C 75.943 42.010,74.994 42.719,74.009 43.582 C 73.023 44.445,72.148 45.081,72.063 44.996 C 71.977 44.911,71.040 45.732,69.980 46.821 C 68.920 47.909,67.860 48.800,67.626 48.800 C 67.392 48.800,67.200 48.980,67.200 49.200 C 67.200 49.420,67.014 49.600,66.786 49.600 C 66.558 49.600,64.573 51.445,62.373 53.700 C 57.566 58.628,58.628 57.566,53.700 62.373 C 51.445 64.573,49.600 66.558,49.600 66.786 C 49.600 67.014,49.420 67.200,49.200 67.200 C 48.980 67.200,48.800 67.392,48.800 67.626 C 48.800 67.860,47.909 68.920,46.821 69.980 C 45.732 71.040,44.911 71.977,44.996 72.063 C 45.081 72.148,44.445 73.023,43.582 74.009 C 42.719 74.994,42.010 75.943,42.006 76.118 C 42.003 76.293,41.595 76.856,41.100 77.368 C 39.723 78.793,38.800 79.976,38.800 80.316 C 38.800 80.485,38.440 80.883,38.000 81.200 C 37.560 81.517,37.200 82.025,37.200 82.328 C 37.200 82.631,36.660 83.383,36.000 84.000 C 35.340 84.617,34.800 85.369,34.800 85.672 C 34.800 85.975,34.440 86.483,34.000 86.800 C 33.560 87.117,33.200 87.697,33.200 88.088 C 33.200 88.480,33.050 88.800,32.868 88.800 C 32.685 88.800,32.280 89.295,31.968 89.900 C 31.656 90.505,31.311 91.090,31.201 91.200 C 30.434 91.965,28.885 94.465,26.494 98.800 C 25.948 99.790,25.343 100.771,25.151 100.980 C 24.958 101.189,24.800 101.684,24.800 102.080 C 24.800 102.476,24.620 102.800,24.400 102.800 C 24.180 102.800,24.000 103.160,24.000 103.600 C 24.000 104.040,23.842 104.400,23.649 104.400 C 23.455 104.400,23.073 104.940,22.800 105.600 C 22.527 106.260,22.145 106.800,21.951 106.800 C 21.758 106.800,21.600 107.072,21.600 107.405 C 21.600 107.961,20.878 109.522,20.400 110.000 C 19.922 110.478,19.200 112.039,19.200 112.595 C 19.200 112.928,19.020 113.200,18.800 113.200 C 18.580 113.200,18.400 113.549,18.400 113.976 C 18.400 114.403,18.220 114.864,18.000 115.000 C 17.780 115.136,17.600 115.597,17.600 116.024 C 17.600 116.451,17.420 116.800,17.200 116.800 C 16.980 116.800,16.800 117.160,16.800 117.600 C 16.800 118.040,16.620 118.400,16.400 118.400 C 16.180 118.400,16.000 118.672,16.000 119.005 C 16.000 119.338,15.820 119.968,15.600 120.405 C 15.380 120.842,15.020 121.558,14.800 121.995 C 14.580 122.432,14.400 123.062,14.400 123.395 C 14.400 123.728,14.253 124.000,14.072 124.000 C 13.892 124.000,13.500 124.900,13.200 126.000 C 12.900 127.100,12.508 128.000,12.328 128.000 C 12.147 128.000,12.000 128.450,12.000 129.000 C 12.000 129.550,11.854 130.000,11.676 130.000 C 11.497 130.000,11.110 130.945,10.815 132.100 C 10.519 133.255,10.131 134.470,9.952 134.800 C 9.349 135.908,8.400 139.219,8.400 140.214 C 8.400 140.756,8.220 141.200,8.000 141.200 C 7.780 141.200,7.600 141.931,7.600 142.824 C 7.600 143.804,7.442 144.349,7.200 144.200 C 6.958 144.051,6.800 144.596,6.800 145.576 C 6.800 146.469,6.620 147.200,6.400 147.200 C 6.180 147.200,6.000 147.740,6.000 148.400 C 6.000 149.060,5.820 149.600,5.600 149.600 C 5.380 149.600,5.200 150.399,5.200 151.376 C 5.200 152.353,5.020 153.264,4.800 153.400 C 4.580 153.536,4.400 154.357,4.400 155.224 C 4.400 156.091,4.220 156.800,4.000 156.800 C 3.780 156.800,3.600 157.520,3.600 158.400 C 3.600 159.280,3.420 160.000,3.200 160.000 C 2.980 160.000,2.800 160.979,2.800 162.176 C 2.800 163.373,2.620 164.464,2.400 164.600 C 2.180 164.736,2.000 165.827,2.000 167.024 C 2.000 168.221,1.820 169.200,1.600 169.200 C 1.373 169.200,1.200 170.373,1.200 171.920 C 1.200 173.563,1.002 174.838,0.700 175.140 C -0.029 175.869,-0.029 224.131,0.700 224.860 C 1.002 225.162,1.200 226.437,1.200 228.080 C 1.200 229.627,1.373 230.800,1.600 230.800 C 1.822 230.800,2.000 231.867,2.000 233.200 C 2.000 234.533,2.178 235.600,2.400 235.600 C 2.620 235.600,2.800 236.489,2.800 237.576 C 2.800 238.663,2.980 239.664,3.200 239.800 C 3.420 239.936,3.600 240.757,3.600 241.624 C 3.600 242.491,3.780 243.200,4.000 243.200 C 4.220 243.200,4.400 243.909,4.400 244.776 C 4.400 245.643,4.580 246.464,4.800 246.600 C 5.020 246.736,5.200 247.546,5.200 248.400 C 5.200 249.254,5.380 250.064,5.600 250.200 C 5.820 250.336,6.000 250.977,6.000 251.624 C 6.000 252.271,6.180 252.800,6.400 252.800 C 6.620 252.800,6.800 253.419,6.800 254.176 C 6.800 254.933,6.980 255.664,7.200 255.800 C 7.420 255.936,7.600 256.667,7.600 257.424 C 7.600 258.181,7.780 258.800,8.000 258.800 C 8.220 258.800,8.400 259.246,8.400 259.792 C 8.400 260.821,10.124 266.478,10.809 267.695 C 11.024 268.077,11.200 268.752,11.200 269.195 C 11.200 269.638,11.380 270.000,11.600 270.000 C 11.820 270.000,12.000 270.279,12.000 270.619 C 12.000 270.960,12.360 271.984,12.800 272.894 C 13.240 273.805,13.600 274.876,13.600 275.275 C 13.600 275.674,13.780 276.000,14.000 276.000 C 14.220 276.000,14.400 276.272,14.400 276.605 C 14.400 277.193,14.567 277.618,15.538 279.495 C 15.792 279.987,16.000 280.662,16.000 280.995 C 16.000 281.328,16.180 281.600,16.400 281.600 C 16.620 281.600,16.800 281.960,16.800 282.400 C 16.800 282.840,16.980 283.200,17.200 283.200 C 17.420 283.200,17.600 283.472,17.600 283.805 C 17.600 284.138,17.768 284.723,17.974 285.105 C 18.179 285.487,18.583 286.385,18.871 287.100 C 19.160 287.815,19.531 288.400,19.698 288.400 C 19.864 288.400,20.000 288.760,20.000 289.200 C 20.000 289.640,20.180 290.000,20.400 290.000 C 20.620 290.000,20.800 290.345,20.800 290.767 C 20.800 291.188,20.935 291.593,21.100 291.667 C 21.265 291.740,21.833 292.655,22.363 293.700 C 22.892 294.745,23.477 295.600,23.663 295.600 C 23.848 295.600,24.000 295.960,24.000 296.400 C 24.000 296.840,24.180 297.200,24.400 297.200 C 24.620 297.200,24.813 297.515,24.829 297.900 C 24.845 298.285,25.203 299.140,25.623 299.800 C 26.044 300.460,26.553 301.360,26.754 301.800 C 26.955 302.240,27.543 303.230,28.060 304.000 C 28.577 304.770,29.254 305.892,29.564 306.493 C 29.874 307.095,30.459 307.942,30.864 308.377 C 31.269 308.811,31.600 309.404,31.600 309.695 C 31.600 309.986,31.960 310.483,32.400 310.800 C 32.840 311.117,33.200 311.657,33.200 312.000 C 33.200 312.343,33.560 312.883,34.000 313.200 C 34.440 313.517,34.800 314.025,34.800 314.328 C 34.800 314.631,35.340 315.383,36.000 316.000 C 36.660 316.617,37.200 317.369,37.200 317.672 C 37.200 317.975,37.560 318.483,38.000 318.800 C 38.440 319.117,38.800 319.585,38.800 319.840 C 38.800 320.095,39.520 321.045,40.400 321.952 C 41.280 322.859,42.000 323.704,42.000 323.829 C 42.000 323.954,42.225 324.299,42.500 324.594 C 43.316 325.471,44.849 327.533,44.928 327.859 C 44.967 328.026,45.855 329.017,46.900 330.062 C 47.945 331.107,48.800 332.150,48.800 332.381 C 48.800 332.611,48.980 332.800,49.200 332.800 C 49.420 332.800,49.600 332.986,49.600 333.214 C 49.600 333.442,51.445 335.427,53.700 337.627 C 58.628 342.434,57.566 341.372,62.373 346.300 C 64.573 348.555,66.540 350.400,66.746 350.400 C 66.951 350.400,67.995 351.257,69.065 352.305 C 70.135 353.353,71.638 354.654,72.405 355.197 C 73.172 355.739,74.213 356.592,74.718 357.091 C 75.223 357.591,75.763 358.000,75.918 358.000 C 76.073 358.001,76.680 358.406,77.266 358.900 C 79.732 360.981,80.023 361.200,80.316 361.200 C 80.485 361.200,80.883 361.560,81.200 362.000 C 81.517 362.440,82.025 362.800,82.328 362.800 C 82.631 362.800,83.383 363.340,84.000 364.000 C 84.617 364.660,85.369 365.200,85.672 365.200 C 85.975 365.200,86.483 365.560,86.800 366.000 C 87.117 366.440,87.657 366.800,88.000 366.800 C 88.343 366.800,88.883 367.160,89.200 367.600 C 89.517 368.040,90.082 368.400,90.455 368.400 C 90.828 368.400,91.193 368.535,91.267 368.700 C 91.451 369.116,93.891 370.800,94.308 370.800 C 94.496 370.800,94.998 371.121,95.425 371.513 C 95.851 371.905,96.830 372.530,97.600 372.901 C 98.370 373.272,99.540 373.939,100.200 374.385 C 100.860 374.830,101.715 375.196,102.100 375.197 C 102.485 375.199,102.800 375.380,102.800 375.600 C 102.800 375.820,103.160 376.000,103.600 376.000 C 104.040 376.000,104.400 376.152,104.400 376.337 C 104.400 376.523,105.255 377.108,106.300 377.637 C 107.345 378.167,108.260 378.735,108.333 378.900 C 108.407 379.065,108.812 379.200,109.233 379.200 C 109.655 379.200,110.001 379.335,110.003 379.500 C 110.007 379.859,111.944 380.800,112.680 380.800 C 112.966 380.800,113.200 380.980,113.200 381.200 C 113.200 381.420,113.549 381.600,113.976 381.600 C 114.403 381.600,114.864 381.780,115.000 382.000 C 115.136 382.220,115.597 382.400,116.024 382.400 C 116.451 382.400,116.800 382.580,116.800 382.800 C 116.800 383.020,117.160 383.200,117.600 383.200 C 118.040 383.200,118.400 383.380,118.400 383.600 C 118.400 383.820,118.760 384.000,119.200 384.000 C 119.640 384.000,120.000 384.180,120.000 384.400 C 120.000 384.620,120.439 384.800,120.976 384.800 C 121.513 384.800,122.064 384.980,122.200 385.200 C 122.336 385.420,122.797 385.600,123.224 385.600 C 123.651 385.600,124.000 385.780,124.000 386.000 C 124.000 386.220,124.272 386.400,124.605 386.400 C 124.938 386.400,125.568 386.580,126.005 386.800 C 126.442 387.020,127.158 387.380,127.595 387.600 C 128.032 387.820,128.737 388.000,129.161 388.000 C 129.586 388.000,129.993 388.140,130.067 388.312 C 130.254 388.750,139.033 391.600,140.196 391.600 C 140.722 391.600,141.264 391.780,141.400 392.000 C 141.536 392.220,142.166 392.400,142.800 392.400 C 143.434 392.400,144.064 392.580,144.200 392.800 C 144.336 393.020,144.966 393.200,145.600 393.200 C 146.234 393.200,146.864 393.380,147.000 393.600 C 147.136 393.820,147.777 394.000,148.424 394.000 C 149.071 394.000,149.600 394.180,149.600 394.400 C 149.600 394.620,150.320 394.800,151.200 394.800 C 152.080 394.800,152.800 394.980,152.800 395.200 C 152.800 395.420,153.700 395.600,154.800 395.600 C 155.900 395.600,156.800 395.780,156.800 396.000 C 156.800 396.220,157.520 396.400,158.400 396.400 C 159.280 396.400,160.000 396.580,160.000 396.800 C 160.000 397.020,160.990 397.200,162.200 397.200 C 163.410 397.200,164.400 397.380,164.400 397.600 C 164.400 397.822,165.467 398.000,166.800 398.000 C 168.133 398.000,169.200 398.178,169.200 398.400 C 169.200 398.627,170.373 398.800,171.920 398.800 C 173.563 398.800,174.838 398.998,175.140 399.300 C 175.871 400.031,224.857 400.031,225.100 399.300 C 225.212 398.965,226.171 398.800,228.010 398.800 C 229.518 398.800,230.864 398.620,231.000 398.400 C 231.136 398.180,232.227 398.000,233.424 398.000 C 234.621 398.000,235.600 397.820,235.600 397.600 C 235.600 397.380,236.590 397.200,237.800 397.200 C 239.010 397.200,240.000 397.020,240.000 396.800 C 240.000 396.580,240.720 396.400,241.600 396.400 C 242.480 396.400,243.200 396.220,243.200 396.000 C 243.200 395.780,243.999 395.600,244.976 395.600 C 245.953 395.600,246.864 395.420,247.000 395.200 C 247.136 394.980,247.957 394.800,248.824 394.800 C 249.691 394.800,250.400 394.620,250.400 394.400 C 250.400 394.180,250.929 394.000,251.576 394.000 C 252.223 394.000,252.864 393.820,253.000 393.600 C 253.136 393.380,253.867 393.200,254.624 393.200 C 255.381 393.200,256.000 393.020,256.000 392.800 C 256.000 392.580,256.630 392.400,257.400 392.400 C 258.170 392.400,258.800 392.220,258.800 392.000 C 258.800 391.780,259.238 391.600,259.772 391.600 C 260.759 391.600,266.823 389.823,268.095 389.161 C 268.477 388.963,269.062 388.800,269.395 388.800 C 269.728 388.800,270.000 388.620,270.000 388.400 C 270.000 388.180,270.362 388.000,270.805 388.000 C 271.248 388.000,271.968 387.820,272.405 387.600 C 272.842 387.380,273.558 387.020,273.995 386.800 C 274.432 386.580,275.062 386.400,275.395 386.400 C 275.728 386.400,276.000 386.220,276.000 386.000 C 276.000 385.780,276.439 385.600,276.976 385.600 C 277.513 385.600,278.064 385.420,278.200 385.200 C 278.336 384.980,278.797 384.800,279.224 384.800 C 279.651 384.800,280.000 384.620,280.000 384.400 C 280.000 384.180,280.360 384.000,280.800 384.000 C 281.240 384.000,281.600 383.820,281.600 383.600 C 281.600 383.380,281.960 383.200,282.400 383.200 C 282.840 383.200,283.200 383.020,283.200 382.800 C 283.200 382.580,283.472 382.400,283.805 382.400 C 284.138 382.400,284.723 382.240,285.105 382.044 C 285.487 381.848,286.700 381.263,287.800 380.744 C 288.900 380.225,289.860 379.665,289.933 379.500 C 290.007 379.335,290.412 379.200,290.833 379.200 C 291.255 379.200,291.600 379.020,291.600 378.800 C 291.600 378.580,291.945 378.400,292.367 378.400 C 292.788 378.400,293.193 378.265,293.267 378.100 C 293.434 377.724,295.564 376.425,296.500 376.129 C 296.885 376.007,297.200 375.748,297.200 375.553 C 297.200 375.359,297.479 375.200,297.820 375.200 C 298.442 375.200,300.825 374.102,301.200 373.644 C 301.310 373.509,301.940 373.135,302.600 372.812 C 303.260 372.489,304.552 371.724,305.472 371.112 C 306.392 370.501,307.297 370.000,307.484 370.000 C 307.671 370.000,308.083 369.640,308.400 369.200 C 308.717 368.760,309.257 368.400,309.600 368.400 C 309.943 368.400,310.483 368.040,310.800 367.600 C 311.117 367.160,311.657 366.800,312.000 366.800 C 312.343 366.800,312.883 366.440,313.200 366.000 C 313.517 365.560,314.009 365.200,314.292 365.200 C 314.575 365.200,315.372 364.660,316.063 364.000 C 316.754 363.340,317.522 362.800,317.771 362.800 C 318.020 362.800,318.483 362.440,318.800 362.000 C 319.117 361.560,319.613 361.200,319.902 361.200 C 320.190 361.200,321.057 360.570,321.827 359.800 C 322.597 359.030,323.365 358.400,323.535 358.400 C 323.705 358.400,324.531 357.770,325.372 357.000 C 326.213 356.230,327.054 355.600,327.242 355.600 C 327.429 355.600,328.573 354.610,329.783 353.400 C 330.993 352.190,332.157 351.200,332.371 351.200 C 332.584 351.200,334.703 349.230,337.079 346.821 C 342.316 341.514,341.514 342.316,346.821 337.079 C 349.230 334.703,351.200 332.584,351.200 332.371 C 351.200 332.157,352.190 330.993,353.400 329.783 C 354.610 328.573,355.600 327.429,355.600 327.242 C 355.600 327.054,356.230 326.213,357.000 325.372 C 357.770 324.531,358.400 323.705,358.400 323.535 C 358.400 323.365,359.030 322.597,359.800 321.827 C 360.570 321.057,361.200 320.190,361.200 319.902 C 361.200 319.613,361.560 319.117,362.000 318.800 C 362.440 318.483,362.800 318.020,362.800 317.771 C 362.800 317.522,363.340 316.754,364.000 316.063 C 364.660 315.372,365.200 314.575,365.200 314.292 C 365.200 314.009,365.560 313.517,366.000 313.200 C 366.440 312.883,366.800 312.343,366.800 312.000 C 366.800 311.657,367.160 311.117,367.600 310.800 C 368.040 310.483,368.400 309.943,368.400 309.600 C 368.400 309.257,368.760 308.717,369.200 308.400 C 369.640 308.083,370.000 307.671,370.000 307.484 C 370.000 307.297,370.501 306.392,371.112 305.472 C 371.724 304.552,372.489 303.260,372.812 302.600 C 373.135 301.940,373.509 301.310,373.644 301.200 C 374.091 300.835,375.200 298.449,375.200 297.853 C 375.200 297.531,375.335 297.207,375.500 297.133 C 375.876 296.966,377.175 294.836,377.471 293.900 C 377.593 293.515,377.852 293.200,378.047 293.200 C 378.241 293.200,378.400 292.840,378.400 292.400 C 378.400 291.960,378.580 291.600,378.800 291.600 C 379.020 291.600,379.200 291.255,379.200 290.833 C 379.200 290.412,379.335 290.007,379.500 289.933 C 379.665 289.860,380.225 288.900,380.744 287.800 C 381.263 286.700,381.848 285.487,382.044 285.105 C 382.240 284.723,382.400 284.138,382.400 283.805 C 382.400 283.472,382.580 283.200,382.800 283.200 C 383.020 283.200,383.200 282.840,383.200 282.400 C 383.200 281.960,383.380 281.600,383.600 281.600 C 383.820 281.600,384.000 281.240,384.000 280.800 C 384.000 280.360,384.180 280.000,384.400 280.000 C 384.620 280.000,384.800 279.651,384.800 279.224 C 384.800 278.797,384.980 278.336,385.200 278.200 C 385.420 278.064,385.600 277.513,385.600 276.976 C 385.600 276.439,385.780 276.000,386.000 276.000 C 386.220 276.000,386.400 275.728,386.400 275.395 C 386.400 275.062,386.580 274.432,386.800 273.995 C 387.020 273.558,387.380 272.842,387.600 272.405 C 387.820 271.968,388.000 271.248,388.000 270.805 C 388.000 270.362,388.180 270.000,388.400 270.000 C 388.620 270.000,388.800 269.728,388.800 269.395 C 388.800 269.062,388.963 268.477,389.161 268.095 C 389.823 266.823,391.600 260.759,391.600 259.772 C 391.600 259.238,391.780 258.800,392.000 258.800 C 392.220 258.800,392.400 258.170,392.400 257.400 C 392.400 256.630,392.580 256.000,392.800 256.000 C 393.020 256.000,393.200 255.381,393.200 254.624 C 393.200 253.867,393.380 253.136,393.600 253.000 C 393.820 252.864,394.000 252.223,394.000 251.576 C 394.000 250.929,394.180 250.400,394.400 250.400 C 394.620 250.400,394.800 249.691,394.800 248.824 C 394.800 247.957,394.980 247.136,395.200 247.000 C 395.420 246.864,395.600 245.953,395.600 244.976 C 395.600 243.999,395.780 243.200,396.000 243.200 C 396.220 243.200,396.400 242.480,396.400 241.600 C 396.400 240.720,396.580 240.000,396.800 240.000 C 397.020 240.000,397.200 239.010,397.200 237.800 C 397.200 236.590,397.380 235.600,397.600 235.600 C 397.820 235.600,398.000 234.621,398.000 233.424 C 398.000 232.227,398.180 231.136,398.400 231.000 C 398.620 230.864,398.800 229.518,398.800 228.010 C 398.800 226.171,398.965 225.212,399.300 225.100 C 399.693 224.969,399.800 219.591,399.800 200.000 C 399.800 180.409,399.693 175.031,399.300 174.900 C 398.964 174.788,398.800 173.824,398.800 171.967 C 398.800 170.389,398.628 169.200,398.400 169.200 C 398.178 169.200,398.000 168.133,398.000 166.800 C 398.000 165.467,397.822 164.400,397.600 164.400 C 397.380 164.400,397.200 163.511,397.200 162.424 C 397.200 161.337,397.020 160.336,396.800 160.200 C 396.580 160.064,396.400 159.243,396.400 158.376 C 396.400 157.509,396.220 156.800,396.000 156.800 C 395.780 156.800,395.600 156.001,395.600 155.024 C 395.600 154.047,395.420 153.136,395.200 153.000 C 394.980 152.864,394.800 152.144,394.800 151.400 C 394.800 150.656,394.620 149.936,394.400 149.800 C 394.180 149.664,394.000 149.023,394.000 148.376 C 394.000 147.729,393.820 147.200,393.600 147.200 C 393.380 147.200,393.200 146.480,393.200 145.600 C 393.200 144.720,393.020 144.000,392.800 144.000 C 392.580 144.000,392.400 143.370,392.400 142.600 C 392.400 141.830,392.220 141.200,392.000 141.200 C 391.780 141.200,391.600 140.756,391.600 140.214 C 391.600 139.166,390.633 135.864,389.987 134.705 C 389.774 134.323,389.600 133.736,389.600 133.400 C 389.600 133.064,389.420 132.432,389.200 131.995 C 388.980 131.558,388.620 130.842,388.400 130.405 C 388.180 129.968,388.000 129.248,388.000 128.805 C 388.000 128.362,387.820 128.000,387.600 128.000 C 387.380 128.000,387.200 127.651,387.200 127.224 C 387.200 126.797,387.020 126.336,386.800 126.200 C 386.580 126.064,386.400 125.513,386.400 124.976 C 386.400 124.439,386.220 124.000,386.000 124.000 C 385.780 124.000,385.600 123.651,385.600 123.224 C 385.600 122.797,385.420 122.336,385.200 122.200 C 384.980 122.064,384.800 121.513,384.800 120.976 C 384.800 120.439,384.620 120.000,384.400 120.000 C 384.180 120.000,384.000 119.640,384.000 119.200 C 384.000 118.760,383.820 118.400,383.600 118.400 C 383.380 118.400,383.200 118.040,383.200 117.600 C 383.200 117.160,383.020 116.800,382.800 116.800 C 382.580 116.800,382.400 116.451,382.400 116.024 C 382.400 115.597,382.220 115.136,382.000 115.000 C 381.780 114.864,381.600 114.403,381.600 113.976 C 381.600 113.549,381.420 113.200,381.200 113.200 C 380.980 113.200,380.800 112.966,380.800 112.680 C 380.800 111.944,379.859 110.007,379.500 110.003 C 379.335 110.001,379.200 109.655,379.200 109.233 C 379.200 108.812,379.065 108.407,378.900 108.333 C 378.735 108.260,378.167 107.345,377.637 106.300 C 377.108 105.255,376.523 104.400,376.337 104.400 C 376.152 104.400,376.000 104.040,376.000 103.600 C 376.000 103.160,375.820 102.800,375.600 102.800 C 375.380 102.800,375.199 102.485,375.197 102.100 C 375.196 101.715,374.830 100.860,374.385 100.200 C 373.939 99.540,373.272 98.370,372.901 97.600 C 372.530 96.830,371.905 95.851,371.513 95.425 C 371.121 94.998,370.800 94.496,370.800 94.308 C 370.800 93.891,369.116 91.451,368.700 91.267 C 368.535 91.193,368.400 90.828,368.400 90.455 C 368.400 90.082,368.040 89.517,367.600 89.200 C 367.160 88.883,366.800 88.343,366.800 88.000 C 366.800 87.657,366.440 87.117,366.000 86.800 C 365.560 86.483,365.200 85.975,365.200 85.672 C 365.200 85.369,364.660 84.617,364.000 84.000 C 363.340 83.383,362.800 82.631,362.800 82.328 C 362.800 82.025,362.440 81.517,362.000 81.200 C 361.560 80.883,361.200 80.485,361.200 80.316 C 361.200 80.023,360.981 79.732,358.900 77.266 C 358.406 76.680,358.001 76.073,358.000 75.918 C 358.000 75.763,357.591 75.223,357.091 74.718 C 356.592 74.213,355.739 73.172,355.197 72.405 C 354.654 71.638,353.353 70.135,352.305 69.065 C 351.257 67.995,350.400 66.951,350.400 66.746 C 350.400 66.540,348.555 64.573,346.300 62.373 C 341.372 57.566,342.434 58.628,337.627 53.700 C 335.427 51.445,333.442 49.600,333.214 49.600 C 332.986 49.600,332.800 49.420,332.800 49.200 C 332.800 48.980,332.611 48.800,332.381 48.800 C 332.150 48.800,331.066 47.904,329.971 46.810 C 328.877 45.715,327.850 44.799,327.690 44.775 C 327.384 44.728,325.502 43.346,324.594 42.500 C 324.299 42.225,323.954 42.000,323.829 42.000 C 323.704 42.000,322.859 41.280,321.952 40.400 C 321.045 39.520,320.095 38.800,319.840 38.800 C 319.585 38.800,319.117 38.440,318.800 38.000 C 318.483 37.560,317.975 37.200,317.672 37.200 C 317.369 37.200,316.617 36.660,316.000 36.000 C 315.383 35.340,314.631 34.800,314.328 34.800 C 314.025 34.800,313.517 34.440,313.200 34.000 C 312.883 33.560,312.343 33.200,312.000 33.200 C 311.657 33.200,311.117 32.840,310.800 32.400 C 310.483 31.960,309.986 31.600,309.695 31.600 C 309.404 31.600,308.811 31.269,308.377 30.864 C 307.942 30.459,307.095 29.874,306.493 29.564 C 305.892 29.254,304.770 28.577,304.000 28.060 C 303.230 27.543,302.240 26.955,301.800 26.754 C 301.360 26.553,300.460 26.044,299.800 25.623 C 299.140 25.203,298.285 24.845,297.900 24.829 C 297.515 24.813,297.200 24.620,297.200 24.400 C 297.200 24.180,296.840 24.000,296.400 24.000 C 295.960 24.000,295.600 23.848,295.600 23.663 C 295.600 23.477,294.745 22.892,293.700 22.363 C 292.655 21.833,291.740 21.265,291.667 21.100 C 291.593 20.935,291.188 20.800,290.767 20.800 C 290.345 20.800,290.000 20.620,290.000 20.400 C 290.000 20.180,289.640 20.000,289.200 20.000 C 288.760 20.000,288.400 19.864,288.400 19.698 C 288.400 19.531,287.815 19.160,287.100 18.871 C 286.385 18.583,285.487 18.179,285.105 17.974 C 284.723 17.768,284.138 17.600,283.805 17.600 C 283.472 17.600,283.200 17.420,283.200 17.200 C 283.200 16.980,282.840 16.800,282.400 16.800 C 281.960 16.800,281.600 16.620,281.600 16.400 C 281.600 16.180,281.328 16.000,280.995 16.000 C 280.662 16.000,280.032 15.820,279.595 15.600 C 279.158 15.380,278.442 15.020,278.005 14.800 C 277.568 14.580,276.938 14.400,276.605 14.400 C 276.272 14.400,276.000 14.220,276.000 14.000 C 276.000 13.780,275.674 13.600,275.275 13.600 C 274.876 13.600,273.805 13.240,272.894 12.800 C 271.984 12.360,270.960 12.000,270.619 12.000 C 270.279 12.000,270.000 11.820,270.000 11.600 C 270.000 11.380,269.638 11.200,269.195 11.200 C 268.752 11.200,268.077 11.024,267.695 10.809 C 266.478 10.124,260.821 8.400,259.792 8.400 C 259.246 8.400,258.800 8.220,258.800 8.000 C 258.800 7.780,258.181 7.600,257.424 7.600 C 256.667 7.600,255.936 7.420,255.800 7.200 C 255.664 6.980,254.933 6.800,254.176 6.800 C 253.419 6.800,252.800 6.620,252.800 6.400 C 252.800 6.180,252.271 6.000,251.624 6.000 C 250.977 6.000,250.336 5.820,250.200 5.600 C 250.064 5.380,249.254 5.200,248.400 5.200 C 247.546 5.200,246.736 5.020,246.600 4.800 C 246.464 4.580,245.643 4.400,244.776 4.400 C 243.909 4.400,243.200 4.220,243.200 4.000 C 243.200 3.780,242.491 3.600,241.624 3.600 C 240.757 3.600,239.936 3.420,239.800 3.200 C 239.664 2.980,238.663 2.800,237.576 2.800 C 236.489 2.800,235.600 2.620,235.600 2.400 C 235.600 2.178,234.533 2.000,233.200 2.000 C 231.867 2.000,230.800 1.822,230.800 1.600 C 230.800 1.373,229.627 1.200,228.080 1.200 C 226.483 1.200,225.160 1.000,224.875 0.715 C 224.394 0.234,187.860 -0.116,179.003 0.275 M179.400 91.988 C 192.013 93.300,197.454 97.321,199.412 106.777 C 199.739 108.353,200.800 107.562,200.800 105.742 C 200.800 104.879,201.061 104.092,202.237 101.400 C 203.927 97.532,208.592 94.250,214.044 93.092 C 220.936 91.628,222.136 91.600,278.207 91.600 L 333.600 91.600 333.600 102.792 L 333.600 113.984 342.100 114.092 L 350.600 114.200 350.701 211.622 C 350.784 292.188,350.710 309.171,350.269 309.773 C 349.756 310.475,344.536 310.488,199.769 310.150 L 49.800 309.800 49.800 212.000 L 49.800 114.200 58.100 114.092 L 66.400 113.984 66.400 103.059 C 66.400 97.050,66.520 92.013,66.667 91.867 C 67.085 91.448,175.330 91.565,179.400 91.988 M268.000 217.157 C 268.000 240.823,268.065 243.539,268.633 243.757 C 269.459 244.074,311.741 244.074,312.567 243.757 C 313.135 243.539,313.200 240.823,313.200 217.157 L 313.200 190.800 290.600 190.800 L 268.000 190.800 268.000 217.157 M87.600 232.000 L 87.600 243.600 132.400 243.600 L 177.200 243.600 177.200 232.000 L 177.200 220.400 132.400 220.400 L 87.600 220.400 87.600 232.000 " stroke="none" fill="#fc9f15" fill-rule="evenodd"></path><path id="path4" d="M49.785 114.500 C 49.680 114.775,49.641 158.830,49.698 212.400 L 49.800 309.800 199.769 310.150 C 344.536 310.488,349.756 310.475,350.269 309.773 C 350.710 309.171,350.784 292.188,350.701 211.622 L 350.600 114.200 342.000 114.187 L 333.400 114.175 341.700 114.295 L 350.000 114.416 350.000 211.808 L 350.000 309.200 200.000 309.200 L 50.000 309.200 50.000 211.808 L 50.000 114.416 58.300 114.300 L 66.600 114.183 58.287 114.091 C 51.937 114.022,49.930 114.118,49.785 114.500 " stroke="none" fill="#bf5948" fill-rule="evenodd"></path></g></svg>