<?xml version="1.0" encoding="UTF-8"?>
<svg xmlns="http://www.w3.org/2000/svg" xmlns:xlink="http://www.w3.org/1999/xlink" width="720px" height="px" viewBox="0 0 720 720" version="1.1">
<g id="surface1">
<path style=" stroke:none;fill-rule:evenodd;fill:rgb(13.333333%,59.607843%,63.921569%);fill-opacity:1;" d="M 167.371094 206.097656 C 167.183594 206.59375 167.113281 244.261719 167.214844 289.800781 L 167.398438 372.601562 L 309.238281 372.601562 L 309.238281 205.558594 L 238.476562 205.375 C 182.25 205.230469 167.648438 205.378906 167.371094 206.097656 M 119.519531 506.160156 L 119.519531 526.320312 L 179.519531 526.320312 C 212.519531 526.320312 320.738281 526.535156 420 526.796875 L 600.480469 527.28125 L 600.480469 486.359375 L 497.699219 486.726562 C 381.625 487.136719 392.300781 486.570312 378.71875 493.074219 C 371.8125 496.382812 362.90625 508.195312 361.121094 516.421875 C 360.886719 517.507812 360.382812 518.398438 360 518.398438 C 359.617188 518.398438 359.113281 517.507812 358.878906 516.421875 C 356.140625 503.808594 344.152344 492.457031 329.398438 488.507812 C 321.351562 486.355469 307.238281 486.054688 213.300781 486.027344 L 119.519531 486 L 119.519531 506.160156 "/>
<path style=" stroke:none;fill-rule:evenodd;fill:rgb(98.039216%,96.862745%,88.627451%);fill-opacity:1;" d="M 120 165.359375 C 119.734375 165.625 119.519531 237.875 119.519531 325.921875 L 119.519531 486 L 213.300781 486.027344 C 307.238281 486.054688 321.351562 486.355469 329.398438 488.507812 C 344.152344 492.457031 356.140625 503.808594 358.878906 516.421875 C 359.113281 517.507812 359.617188 518.398438 360 518.398438 C 360.382812 518.398438 360.886719 517.507812 361.121094 516.421875 C 362.90625 508.195312 371.8125 496.382812 378.71875 493.074219 C 392.308594 486.566406 381.644531 487.136719 497.519531 486.722656 L 600.121094 486.359375 L 600.300781 325.621094 L 600.484375 164.878906 L 500.773438 164.878906 C 399.84375 164.878906 397.683594 164.929688 385.277344 167.566406 C 375.464844 169.648438 367.070312 175.558594 364.027344 182.519531 C 361.910156 187.367188 361.441406 188.78125 361.441406 190.335938 C 361.441406 193.613281 359.53125 195.035156 358.941406 192.199219 C 355.417969 175.179688 345.625 167.941406 322.921875 165.578125 C 315.59375 164.816406 120.753906 164.605469 120 165.359375 M 309.238281 289.078125 L 309.238281 372.601562 L 167.398438 372.601562 L 167.214844 289.800781 C 167.113281 244.261719 167.183594 206.59375 167.371094 206.097656 C 167.648438 205.378906 182.25 205.230469 238.476562 205.375 L 309.238281 205.558594 L 309.238281 289.078125 M 563.398438 226.441406 L 563.398438 247.320312 L 401.398438 247.320312 L 401.210938 227.25 C 401.074219 213.003906 401.257812 206.886719 401.839844 206.183594 C 402.53125 205.351562 415.523438 205.222656 483.03125 205.375 L 563.398438 205.558594 L 563.398438 226.441406 M 563.398438 292.679688 L 563.398438 313.558594 L 483.839844 313.757812 C 440.082031 313.867188 403.550781 313.78125 402.660156 313.5625 L 401.039062 313.171875 L 401.050781 293.925781 C 401.054688 283.339844 401.257812 273.949219 401.496094 273.054688 L 401.929688 271.433594 L 563.398438 271.800781 L 563.398438 292.679688 M 455.324219 344.578125 C 455.5625 345.207031 455.761719 366.589844 455.761719 392.097656 L 455.761719 438.480469 L 401.761719 438.480469 L 401.761719 392.097656 C 401.761719 366.589844 401.957031 345.207031 402.199219 344.578125 C 402.863281 342.847656 454.660156 342.847656 455.324219 344.578125 M 563.761719 390.882812 C 563.761719 433.480469 563.644531 438.371094 562.621094 438.761719 C 561.132812 439.332031 485.027344 439.332031 483.539062 438.761719 C 482.515625 438.371094 482.398438 433.480469 482.398438 390.882812 L 482.398438 343.441406 L 563.761719 343.441406 L 563.761719 390.882812 M 318.960938 417.601562 L 318.960938 438.480469 L 157.679688 438.480469 L 157.679688 396.71875 L 318.960938 396.71875 L 318.960938 417.601562 "/>
<path style=" stroke:none;fill-rule:evenodd;fill:rgb(63.529412%,21.960784%,69.411765%);fill-opacity:1;" d="M 401.839844 206.183594 C 401.257812 206.886719 401.074219 213.003906 401.210938 227.25 L 401.398438 247.320312 L 563.398438 247.320312 L 563.398438 205.558594 L 483.03125 205.375 C 415.523438 205.222656 402.53125 205.351562 401.839844 206.183594 M 90 381.238281 L 90 556.558594 L 630 556.558594 L 630 205.921875 L 600.480469 205.921875 L 600.480469 527.039062 L 540.480469 527.039062 C 507.480469 527.039062 399.261719 526.824219 300 526.5625 L 119.519531 526.082031 L 119.519531 205.921875 L 90 205.921875 L 90 381.238281 M 401.496094 273.054688 C 401.257812 273.949219 401.054688 283.339844 401.050781 293.925781 L 401.039062 313.171875 L 402.660156 313.5625 C 403.550781 313.78125 440.082031 313.867188 483.839844 313.757812 L 563.398438 313.558594 L 563.398438 271.800781 L 401.929688 271.433594 L 401.496094 273.054688 M 402.199219 344.578125 C 401.957031 345.207031 401.761719 366.589844 401.761719 392.097656 L 401.761719 438.480469 L 455.761719 438.480469 L 455.761719 392.097656 C 455.761719 366.589844 455.5625 345.207031 455.324219 344.578125 C 454.660156 342.847656 402.863281 342.847656 402.199219 344.578125 "/>
<path style=" stroke:none;fill-rule:evenodd;fill:rgb(98.823529%,62.352941%,8.235294%);fill-opacity:1;" d="M 322.207031 0.496094 C 318.644531 0.652344 315.421875 1.089844 315.042969 1.46875 C 314.660156 1.851562 312.148438 2.160156 309.457031 2.160156 C 306.671875 2.160156 304.558594 2.472656 304.558594 2.878906 C 304.558594 3.277344 302.796875 3.601562 300.644531 3.601562 C 298.488281 3.601562 296.523438 3.925781 296.28125 4.320312 C 296.035156 4.714844 294.070312 5.039062 291.917969 5.039062 C 289.761719 5.039062 288 5.363281 288 5.761719 C 288 6.15625 286.703125 6.480469 285.121094 6.480469 C 283.535156 6.480469 282.238281 6.804688 282.238281 7.199219 C 282.238281 7.597656 280.964844 7.921875 279.402344 7.921875 C 277.84375 7.921875 276.363281 8.242188 276.121094 8.640625 C 275.875 9.035156 274.234375 9.359375 272.476562 9.359375 C 270.71875 9.359375 269.28125 9.683594 269.28125 10.078125 C 269.28125 10.476562 268.308594 10.800781 267.121094 10.800781 C 265.933594 10.800781 264.960938 11.125 264.960938 11.519531 C 264.960938 11.914062 263.644531 12.238281 262.035156 12.238281 C 260.273438 12.238281 259.292969 12.523438 259.558594 12.960938 C 259.828125 13.394531 258.847656 13.679688 257.082031 13.679688 C 255.476562 13.679688 254.160156 14.003906 254.160156 14.398438 C 254.160156 14.796875 253.359375 15.121094 252.386719 15.121094 C 250.59375 15.121094 244.632812 16.828125 242.640625 17.914062 C 242.046875 18.234375 239.859375 18.933594 237.78125 19.46875 C 235.699219 19.996094 234 20.695312 234 21.015625 C 234 21.335938 233.191406 21.601562 232.199219 21.601562 C 231.210938 21.601562 230.398438 21.863281 230.398438 22.191406 C 230.398438 22.515625 228.78125 23.21875 226.800781 23.761719 C 224.820312 24.300781 223.199219 25.003906 223.199219 25.328125 C 223.199219 25.65625 222.710938 25.921875 222.109375 25.921875 C 221.511719 25.921875 220.378906 26.242188 219.589844 26.640625 C 218.804688 27.035156 217.515625 27.683594 216.730469 28.078125 C 215.941406 28.476562 214.808594 28.800781 214.210938 28.800781 C 213.609375 28.800781 213.121094 29.125 213.121094 29.519531 C 213.121094 29.914062 212.472656 30.238281 211.679688 30.238281 C 210.886719 30.238281 210.238281 30.5625 210.238281 30.960938 C 210.238281 31.355469 209.613281 31.679688 208.84375 31.679688 C 208.074219 31.679688 207.246094 32.003906 207 32.398438 C 206.753906 32.796875 205.925781 33.121094 205.15625 33.121094 C 204.386719 33.121094 203.761719 33.445312 203.761719 33.839844 C 203.761719 34.234375 203.269531 34.558594 202.671875 34.558594 C 201.671875 34.558594 198.859375 35.859375 198 36.71875 C 197.140625 37.582031 194.328125 38.878906 193.328125 38.878906 C 192.730469 38.878906 192.238281 39.164062 192.238281 39.511719 C 192.238281 39.859375 191.269531 40.546875 190.078125 41.039062 C 188.890625 41.53125 187.921875 42.21875 187.921875 42.566406 C 187.921875 42.914062 187.273438 43.199219 186.480469 43.199219 C 185.6875 43.199219 185.039062 43.523438 185.039062 43.921875 C 185.039062 44.316406 184.457031 44.640625 183.742188 44.640625 C 183.03125 44.640625 182.140625 44.925781 181.765625 45.273438 C 181.386719 45.617188 179.621094 46.707031 177.839844 47.6875 C 170.035156 51.992188 165.535156 54.78125 164.160156 56.160156 C 163.960938 56.359375 162.910156 56.980469 161.820312 57.542969 C 160.730469 58.105469 159.839844 58.832031 159.839844 59.164062 C 159.839844 59.488281 159.265625 59.761719 158.558594 59.761719 C 157.855469 59.761719 156.8125 60.40625 156.238281 61.199219 C 155.667969 61.992188 154.753906 62.640625 154.210938 62.640625 C 153.664062 62.640625 152.3125 63.613281 151.199219 64.800781 C 150.089844 65.988281 148.734375 66.960938 148.191406 66.960938 C 147.644531 66.960938 146.730469 67.609375 146.160156 68.398438 C 145.589844 69.191406 144.871094 69.839844 144.570312 69.839844 C 143.957031 69.839844 141.828125 71.5 139.261719 73.980469 C 138.339844 74.871094 137.328125 75.605469 137.011719 75.609375 C 136.699219 75.617188 134.988281 76.894531 133.214844 78.449219 C 131.441406 80 129.867188 81.144531 129.714844 80.992188 C 129.558594 80.839844 127.871094 82.316406 125.964844 84.277344 C 124.054688 86.234375 122.148438 87.839844 121.726562 87.839844 C 121.304688 87.839844 120.960938 88.164062 120.960938 88.558594 C 120.960938 88.957031 120.625 89.28125 120.214844 89.28125 C 119.804688 89.28125 116.230469 92.601562 112.269531 96.660156 C 103.617188 105.53125 105.53125 103.617188 96.660156 112.269531 C 92.601562 116.230469 89.28125 119.804688 89.28125 120.214844 C 89.28125 120.625 88.957031 120.960938 88.558594 120.960938 C 88.164062 120.960938 87.839844 121.304688 87.839844 121.726562 C 87.839844 122.148438 86.234375 124.054688 84.277344 125.964844 C 82.316406 127.871094 80.839844 129.558594 80.992188 129.714844 C 81.144531 129.867188 80 131.441406 78.449219 133.214844 C 76.894531 134.988281 75.617188 136.699219 75.609375 137.011719 C 75.605469 137.328125 74.871094 138.339844 73.980469 139.261719 C 71.5 141.828125 69.839844 143.957031 69.839844 144.570312 C 69.839844 144.871094 69.191406 145.589844 68.398438 146.160156 C 67.609375 146.730469 66.960938 147.644531 66.960938 148.191406 C 66.960938 148.734375 65.988281 150.089844 64.800781 151.199219 C 63.613281 152.3125 62.640625 153.664062 62.640625 154.210938 C 62.640625 154.753906 61.992188 155.667969 61.199219 156.238281 C 60.40625 156.8125 59.761719 157.855469 59.761719 158.558594 C 59.761719 159.265625 59.488281 159.839844 59.164062 159.839844 C 58.832031 159.839844 58.105469 160.730469 57.542969 161.820312 C 56.980469 162.910156 56.359375 163.960938 56.160156 164.160156 C 54.78125 165.535156 51.992188 170.035156 47.6875 177.839844 C 46.707031 179.621094 45.617188 181.386719 45.273438 181.765625 C 44.925781 182.140625 44.640625 183.03125 44.640625 183.742188 C 44.640625 184.457031 44.316406 185.039062 43.921875 185.039062 C 43.523438 185.039062 43.199219 185.6875 43.199219 186.480469 C 43.199219 187.273438 42.914062 187.921875 42.566406 187.921875 C 42.21875 187.921875 41.53125 188.890625 41.039062 190.078125 C 40.546875 191.269531 39.859375 192.238281 39.511719 192.238281 C 39.164062 192.238281 38.878906 192.730469 38.878906 193.328125 C 38.878906 194.328125 37.582031 197.140625 36.71875 198 C 35.859375 198.859375 34.558594 201.671875 34.558594 202.671875 C 34.558594 203.269531 34.234375 203.761719 33.839844 203.761719 C 33.445312 203.761719 33.121094 204.386719 33.121094 205.15625 C 33.121094 205.925781 32.796875 206.753906 32.398438 207 C 32.003906 207.246094 31.679688 208.074219 31.679688 208.84375 C 31.679688 209.613281 31.355469 210.238281 30.960938 210.238281 C 30.5625 210.238281 30.238281 210.886719 30.238281 211.679688 C 30.238281 212.472656 29.914062 213.121094 29.519531 213.121094 C 29.125 213.121094 28.800781 213.609375 28.800781 214.210938 C 28.800781 214.808594 28.476562 215.941406 28.078125 216.730469 C 27.683594 217.515625 27.035156 218.804688 26.640625 219.589844 C 26.242188 220.378906 25.921875 221.511719 25.921875 222.109375 C 25.921875 222.710938 25.65625 223.199219 25.328125 223.199219 C 25.003906 223.199219 24.300781 224.820312 23.761719 226.800781 C 23.21875 228.78125 22.515625 230.398438 22.191406 230.398438 C 21.863281 230.398438 21.601562 231.210938 21.601562 232.199219 C 21.601562 233.191406 21.335938 234 21.015625 234 C 20.695312 234 19.996094 235.699219 19.46875 237.78125 C 18.933594 239.859375 18.234375 242.046875 17.914062 242.640625 C 16.828125 244.632812 15.121094 250.59375 15.121094 252.386719 C 15.121094 253.359375 14.796875 254.160156 14.398438 254.160156 C 14.003906 254.160156 13.679688 255.476562 13.679688 257.082031 C 13.679688 258.847656 13.394531 259.828125 12.960938 259.558594 C 12.523438 259.292969 12.238281 260.273438 12.238281 262.035156 C 12.238281 263.644531 11.914062 264.960938 11.519531 264.960938 C 11.125 264.960938 10.800781 265.933594 10.800781 267.121094 C 10.800781 268.308594 10.476562 269.28125 10.078125 269.28125 C 9.683594 269.28125 9.359375 270.71875 9.359375 272.476562 C 9.359375 274.234375 9.035156 275.875 8.640625 276.121094 C 8.242188 276.363281 7.921875 277.84375 7.921875 279.402344 C 7.921875 280.964844 7.597656 282.238281 7.199219 282.238281 C 6.804688 282.238281 6.480469 283.535156 6.480469 285.121094 C 6.480469 286.703125 6.15625 288 5.761719 288 C 5.363281 288 5.039062 289.761719 5.039062 291.917969 C 5.039062 294.070312 4.714844 296.035156 4.320312 296.28125 C 3.925781 296.523438 3.601562 298.488281 3.601562 300.644531 C 3.601562 302.796875 3.277344 304.558594 2.878906 304.558594 C 2.472656 304.558594 2.160156 306.671875 2.160156 309.457031 C 2.160156 312.414062 1.804688 314.707031 1.261719 315.253906 C -0.0507812 316.5625 -0.0507812 403.4375 1.261719 404.746094 C 1.804688 405.292969 2.160156 407.585938 2.160156 410.542969 C 2.160156 413.328125 2.472656 415.441406 2.878906 415.441406 C 3.28125 415.441406 3.601562 417.359375 3.601562 419.761719 C 3.601562 422.160156 3.921875 424.078125 4.320312 424.078125 C 4.714844 424.078125 5.039062 425.679688 5.039062 427.636719 C 5.039062 429.59375 5.363281 431.394531 5.761719 431.640625 C 6.15625 431.886719 6.480469 433.363281 6.480469 434.921875 C 6.480469 436.484375 6.804688 437.761719 7.199219 437.761719 C 7.597656 437.761719 7.921875 439.035156 7.921875 440.597656 C 7.921875 442.15625 8.242188 443.636719 8.640625 443.878906 C 9.035156 444.125 9.359375 445.582031 9.359375 447.121094 C 9.359375 448.65625 9.683594 450.113281 10.078125 450.359375 C 10.476562 450.605469 10.800781 451.757812 10.800781 452.921875 C 10.800781 454.085938 11.125 455.039062 11.519531 455.039062 C 11.914062 455.039062 12.238281 456.152344 12.238281 457.515625 C 12.238281 458.878906 12.5625 460.195312 12.960938 460.441406 C 13.355469 460.683594 13.679688 462 13.679688 463.363281 C 13.679688 464.726562 14.003906 465.839844 14.398438 465.839844 C 14.796875 465.839844 15.121094 466.644531 15.121094 467.625 C 15.121094 469.476562 18.222656 479.660156 19.457031 481.851562 C 19.84375 482.539062 20.160156 483.753906 20.160156 484.550781 C 20.160156 485.347656 20.484375 486 20.878906 486 C 21.277344 486 21.601562 486.503906 21.601562 487.113281 C 21.601562 487.726562 22.246094 489.570312 23.039062 491.210938 C 23.832031 492.847656 24.480469 494.777344 24.480469 495.496094 C 24.480469 496.214844 24.804688 496.800781 25.199219 496.800781 C 25.597656 496.800781 25.921875 497.289062 25.921875 497.890625 C 25.921875 498.949219 26.21875 499.710938 27.96875 503.089844 C 28.425781 503.976562 28.800781 505.191406 28.800781 505.789062 C 28.800781 506.390625 29.125 506.878906 29.519531 506.878906 C 29.914062 506.878906 30.238281 507.527344 30.238281 508.320312 C 30.238281 509.113281 30.5625 509.761719 30.960938 509.761719 C 31.355469 509.761719 31.679688 510.25 31.679688 510.847656 C 31.679688 511.449219 31.980469 512.5 32.351562 513.1875 C 32.722656 513.875 33.449219 515.492188 33.96875 516.78125 C 34.488281 518.066406 35.15625 519.121094 35.457031 519.121094 C 35.753906 519.121094 36 519.769531 36 520.558594 C 36 521.351562 36.324219 522 36.71875 522 C 37.117188 522 37.441406 522.621094 37.441406 523.378906 C 37.441406 524.136719 37.683594 524.867188 37.980469 525 C 38.277344 525.132812 39.300781 526.777344 40.253906 528.660156 C 41.207031 530.539062 42.257812 532.078125 42.59375 532.078125 C 42.925781 532.078125 43.199219 532.726562 43.199219 533.519531 C 43.199219 534.3125 43.523438 534.960938 43.921875 534.960938 C 44.316406 534.960938 44.664062 535.527344 44.691406 536.21875 C 44.722656 536.914062 45.367188 538.453125 46.121094 539.640625 C 46.878906 540.828125 47.796875 542.449219 48.15625 543.238281 C 48.519531 544.03125 49.578125 545.8125 50.507812 547.199219 C 51.4375 548.585938 52.65625 550.605469 53.214844 551.6875 C 53.773438 552.769531 54.828125 554.296875 55.554688 555.078125 C 56.285156 555.859375 56.878906 556.925781 56.878906 557.449219 C 56.878906 557.976562 57.527344 558.871094 58.320312 559.441406 C 59.113281 560.011719 59.761719 560.984375 59.761719 561.601562 C 59.761719 562.21875 60.40625 563.1875 61.199219 563.761719 C 61.992188 564.332031 62.640625 565.246094 62.640625 565.789062 C 62.640625 566.335938 63.613281 567.6875 64.800781 568.800781 C 65.988281 569.910156 66.960938 571.265625 66.960938 571.808594 C 66.960938 572.355469 67.609375 573.269531 68.398438 573.839844 C 69.191406 574.410156 69.839844 575.253906 69.839844 575.710938 C 69.839844 576.171875 71.136719 577.882812 72.71875 579.511719 C 74.304688 581.144531 75.601562 582.667969 75.601562 582.890625 C 75.601562 583.117188 76.003906 583.738281 76.5 584.269531 C 77.96875 585.847656 80.726562 589.558594 80.871094 590.144531 C 80.941406 590.445312 82.539062 592.230469 84.421875 594.113281 C 86.300781 595.992188 87.839844 597.871094 87.839844 598.285156 C 87.839844 598.699219 88.164062 599.039062 88.558594 599.039062 C 88.957031 599.039062 89.28125 599.375 89.28125 599.785156 C 89.28125 600.195312 92.601562 603.769531 96.660156 607.730469 C 105.53125 616.382812 103.617188 614.46875 112.269531 623.339844 C 116.230469 627.398438 119.773438 630.71875 120.144531 630.71875 C 120.511719 630.71875 122.390625 632.261719 124.316406 634.148438 C 126.242188 636.035156 128.949219 638.378906 130.328125 639.355469 C 131.710938 640.332031 133.582031 641.867188 134.492188 642.765625 C 135.402344 643.664062 136.375 644.398438 136.652344 644.398438 C 136.929688 644.402344 138.023438 645.128906 139.078125 646.019531 C 143.519531 649.765625 144.042969 650.160156 144.570312 650.160156 C 144.871094 650.160156 145.589844 650.808594 146.160156 651.601562 C 146.730469 652.390625 147.644531 653.039062 148.191406 653.039062 C 148.734375 653.039062 150.089844 654.011719 151.199219 655.199219 C 152.3125 656.386719 153.664062 657.359375 154.210938 657.359375 C 154.753906 657.359375 155.667969 658.007812 156.238281 658.800781 C 156.8125 659.59375 157.78125 660.238281 158.398438 660.238281 C 159.015625 660.238281 159.988281 660.886719 160.558594 661.679688 C 161.128906 662.472656 162.148438 663.121094 162.820312 663.121094 C 163.492188 663.121094 164.148438 663.363281 164.28125 663.660156 C 164.613281 664.410156 169.003906 667.441406 169.753906 667.441406 C 170.09375 667.441406 170.996094 668.019531 171.765625 668.722656 C 172.53125 669.429688 174.292969 670.554688 175.679688 671.222656 C 177.066406 671.890625 179.171875 673.089844 180.359375 673.894531 C 181.546875 674.695312 183.085938 675.351562 183.78125 675.355469 C 184.472656 675.359375 185.039062 675.683594 185.039062 676.078125 C 185.039062 676.476562 185.6875 676.800781 186.480469 676.800781 C 187.273438 676.800781 187.921875 677.074219 187.921875 677.40625 C 187.921875 677.742188 189.460938 678.792969 191.339844 679.746094 C 193.222656 680.699219 194.867188 681.722656 195 682.019531 C 195.132812 682.316406 195.863281 682.558594 196.621094 682.558594 C 197.378906 682.558594 198 682.804688 198.003906 683.101562 C 198.011719 683.746094 201.5 685.441406 202.824219 685.441406 C 203.339844 685.441406 203.761719 685.765625 203.761719 686.160156 C 203.761719 686.554688 204.386719 686.878906 205.15625 686.878906 C 205.925781 686.878906 206.753906 687.203125 207 687.601562 C 207.246094 687.996094 208.074219 688.320312 208.84375 688.320312 C 209.613281 688.320312 210.238281 688.644531 210.238281 689.039062 C 210.238281 689.4375 210.886719 689.761719 211.679688 689.761719 C 212.472656 689.761719 213.121094 690.085938 213.121094 690.480469 C 213.121094 690.875 213.769531 691.199219 214.558594 691.199219 C 215.351562 691.199219 216 691.523438 216 691.921875 C 216 692.316406 216.789062 692.640625 217.757812 692.640625 C 218.722656 692.640625 219.714844 692.964844 219.960938 693.359375 C 220.203125 693.757812 221.035156 694.078125 221.804688 694.078125 C 222.570312 694.078125 223.199219 694.402344 223.199219 694.800781 C 223.199219 695.195312 223.691406 695.519531 224.289062 695.519531 C 224.886719 695.519531 226.023438 695.84375 226.808594 696.238281 C 227.59375 696.636719 228.882812 697.285156 229.671875 697.679688 C 230.457031 698.074219 231.726562 698.398438 232.488281 698.398438 C 233.253906 698.398438 233.988281 698.652344 234.121094 698.960938 C 234.457031 699.75 250.257812 704.878906 252.351562 704.878906 C 253.300781 704.878906 254.273438 705.203125 254.519531 705.601562 C 254.765625 705.996094 255.898438 706.320312 257.039062 706.320312 C 258.179688 706.320312 259.316406 706.644531 259.558594 707.039062 C 259.804688 707.4375 260.9375 707.761719 262.078125 707.761719 C 263.222656 707.761719 264.355469 708.085938 264.601562 708.480469 C 264.84375 708.875 266 709.199219 267.164062 709.199219 C 268.328125 709.199219 269.28125 709.523438 269.28125 709.921875 C 269.28125 710.316406 270.574219 710.640625 272.160156 710.640625 C 273.742188 710.640625 275.039062 710.964844 275.039062 711.359375 C 275.039062 711.757812 276.660156 712.078125 278.640625 712.078125 C 280.621094 712.078125 282.238281 712.402344 282.238281 712.800781 C 282.238281 713.195312 283.535156 713.519531 285.121094 713.519531 C 286.703125 713.519531 288 713.84375 288 714.238281 C 288 714.636719 289.78125 714.960938 291.960938 714.960938 C 294.136719 714.960938 295.921875 715.285156 295.921875 715.679688 C 295.921875 716.078125 297.839844 716.398438 300.238281 716.398438 C 302.640625 716.398438 304.558594 716.71875 304.558594 717.121094 C 304.558594 717.527344 306.671875 717.839844 309.457031 717.839844 C 312.414062 717.839844 314.707031 718.195312 315.253906 718.738281 C 316.566406 720.054688 404.742188 720.054688 405.179688 718.738281 C 405.382812 718.136719 407.109375 717.839844 410.417969 717.839844 C 413.132812 717.839844 415.554688 717.515625 415.800781 717.121094 C 416.042969 716.722656 418.007812 716.398438 420.164062 716.398438 C 422.316406 716.398438 424.078125 716.074219 424.078125 715.679688 C 424.078125 715.285156 425.863281 714.960938 428.039062 714.960938 C 430.21875 714.960938 432 714.636719 432 714.238281 C 432 713.84375 433.296875 713.519531 434.878906 713.519531 C 436.464844 713.519531 437.761719 713.195312 437.761719 712.800781 C 437.761719 712.402344 439.199219 712.078125 440.957031 712.078125 C 442.714844 712.078125 444.355469 711.757812 444.601562 711.359375 C 444.84375 710.964844 446.324219 710.640625 447.882812 710.640625 C 449.445312 710.640625 450.71875 710.316406 450.71875 709.921875 C 450.71875 709.523438 451.671875 709.199219 452.835938 709.199219 C 454 709.199219 455.15625 708.875 455.398438 708.480469 C 455.644531 708.085938 456.960938 707.761719 458.324219 707.761719 C 459.6875 707.761719 460.800781 707.4375 460.800781 707.039062 C 460.800781 706.644531 461.933594 706.320312 463.320312 706.320312 C 464.707031 706.320312 465.839844 705.996094 465.839844 705.601562 C 465.839844 705.203125 466.628906 704.878906 467.589844 704.878906 C 469.367188 704.878906 480.28125 701.679688 482.570312 700.488281 C 483.257812 700.132812 484.3125 699.839844 484.910156 699.839844 C 485.511719 699.839844 486 699.515625 486 699.121094 C 486 698.722656 486.652344 698.398438 487.449219 698.398438 C 488.246094 698.398438 489.542969 698.074219 490.328125 697.679688 C 491.117188 697.285156 492.40625 696.636719 493.191406 696.238281 C 493.976562 695.84375 495.113281 695.519531 495.710938 695.519531 C 496.308594 695.519531 496.800781 695.195312 496.800781 694.800781 C 496.800781 694.402344 497.589844 694.078125 498.558594 694.078125 C 499.523438 694.078125 500.515625 693.757812 500.761719 693.359375 C 501.003906 692.964844 501.835938 692.640625 502.601562 692.640625 C 503.371094 692.640625 504 692.316406 504 691.921875 C 504 691.523438 504.648438 691.199219 505.441406 691.199219 C 506.230469 691.199219 506.878906 690.875 506.878906 690.480469 C 506.878906 690.085938 507.527344 689.761719 508.320312 689.761719 C 509.113281 689.761719 509.761719 689.4375 509.761719 689.039062 C 509.761719 688.644531 510.25 688.320312 510.847656 688.320312 C 511.449219 688.320312 512.5 688.03125 513.1875 687.679688 C 513.875 687.328125 516.058594 686.273438 518.039062 685.339844 C 520.019531 684.40625 521.746094 683.398438 521.878906 683.101562 C 522.011719 682.804688 522.742188 682.558594 523.5 682.558594 C 524.257812 682.558594 524.878906 682.234375 524.878906 681.839844 C 524.878906 681.445312 525.5 681.121094 526.261719 681.121094 C 527.019531 681.121094 527.746094 680.878906 527.878906 680.578125 C 528.179688 679.902344 532.015625 677.566406 533.699219 677.03125 C 534.394531 676.8125 534.960938 676.347656 534.960938 675.996094 C 534.960938 675.644531 535.460938 675.359375 536.074219 675.359375 C 537.195312 675.359375 541.484375 673.382812 542.160156 672.558594 C 542.359375 672.316406 543.492188 671.644531 544.679688 671.0625 C 545.867188 670.480469 548.195312 669.101562 549.847656 668 C 551.503906 666.902344 553.132812 666 553.472656 666 C 553.808594 666 554.550781 665.351562 555.121094 664.558594 C 555.691406 663.769531 556.664062 663.121094 557.28125 663.121094 C 557.898438 663.121094 558.871094 662.472656 559.441406 661.679688 C 560.011719 660.886719 560.984375 660.238281 561.601562 660.238281 C 562.21875 660.238281 563.1875 659.59375 563.761719 658.800781 C 564.332031 658.007812 565.214844 657.359375 565.726562 657.359375 C 566.234375 657.359375 567.667969 656.386719 568.914062 655.199219 C 570.15625 654.011719 571.539062 653.039062 571.988281 653.039062 C 572.4375 653.039062 573.269531 652.390625 573.839844 651.601562 C 574.410156 650.808594 575.304688 650.160156 575.824219 650.160156 C 576.34375 650.160156 577.902344 649.027344 579.289062 647.640625 C 580.675781 646.253906 582.058594 645.121094 582.363281 645.121094 C 582.667969 645.121094 584.15625 643.984375 585.667969 642.601562 C 587.183594 641.214844 588.695312 640.078125 589.035156 640.078125 C 589.371094 640.078125 591.429688 638.296875 593.609375 636.121094 C 595.789062 633.941406 597.882812 632.160156 598.269531 632.160156 C 598.652344 632.160156 602.464844 628.613281 606.742188 624.277344 C 616.167969 614.726562 614.726562 616.167969 624.277344 606.742188 C 628.613281 602.464844 632.160156 598.652344 632.160156 598.269531 C 632.160156 597.882812 633.941406 595.789062 636.121094 593.609375 C 638.296875 591.429688 640.078125 589.371094 640.078125 589.035156 C 640.078125 588.695312 641.214844 587.183594 642.601562 585.667969 C 643.984375 584.15625 645.121094 582.667969 645.121094 582.363281 C 645.121094 582.058594 646.253906 580.675781 647.640625 579.289062 C 649.027344 577.902344 650.160156 576.34375 650.160156 575.824219 C 650.160156 575.304688 650.808594 574.410156 651.601562 573.839844 C 652.390625 573.269531 653.039062 572.4375 653.039062 571.988281 C 653.039062 571.539062 654.011719 570.15625 655.199219 568.914062 C 656.386719 567.667969 657.359375 566.234375 657.359375 565.726562 C 657.359375 565.214844 658.007812 564.332031 658.800781 563.761719 C 659.59375 563.1875 660.238281 562.21875 660.238281 561.601562 C 660.238281 560.984375 660.886719 560.011719 661.679688 559.441406 C 662.472656 558.871094 663.121094 557.898438 663.121094 557.28125 C 663.121094 556.664062 663.769531 555.691406 664.558594 555.121094 C 665.351562 554.550781 666 553.808594 666 553.472656 C 666 553.132812 666.902344 551.503906 668 549.847656 C 669.101562 548.195312 670.480469 545.867188 671.0625 544.679688 C 671.644531 543.492188 672.316406 542.359375 672.558594 542.160156 C 673.363281 541.503906 675.359375 537.207031 675.359375 536.136719 C 675.359375 535.554688 675.601562 534.972656 675.898438 534.839844 C 676.578125 534.539062 678.914062 530.703125 679.449219 529.019531 C 679.667969 528.328125 680.132812 527.761719 680.484375 527.761719 C 680.832031 527.761719 681.121094 527.113281 681.121094 526.320312 C 681.121094 525.527344 681.445312 524.878906 681.839844 524.878906 C 682.234375 524.878906 682.558594 524.257812 682.558594 523.5 C 682.558594 522.742188 682.804688 522.011719 683.101562 521.878906 C 683.398438 521.746094 684.40625 520.019531 685.339844 518.039062 C 686.273438 516.058594 687.328125 513.875 687.679688 513.1875 C 688.03125 512.5 688.320312 511.449219 688.320312 510.847656 C 688.320312 510.25 688.644531 509.761719 689.039062 509.761719 C 689.4375 509.761719 689.761719 509.113281 689.761719 508.320312 C 689.761719 507.527344 690.085938 506.878906 690.480469 506.878906 C 690.875 506.878906 691.199219 506.230469 691.199219 505.441406 C 691.199219 504.648438 691.523438 504 691.921875 504 C 692.316406 504 692.640625 503.371094 692.640625 502.601562 C 692.640625 501.835938 692.964844 501.003906 693.359375 500.761719 C 693.757812 500.515625 694.078125 499.523438 694.078125 498.558594 C 694.078125 497.589844 694.402344 496.800781 694.800781 496.800781 C 695.195312 496.800781 695.519531 496.308594 695.519531 495.710938 C 695.519531 495.113281 695.84375 493.976562 696.238281 493.191406 C 696.636719 492.40625 697.285156 491.117188 697.679688 490.328125 C 698.074219 489.542969 698.398438 488.246094 698.398438 487.449219 C 698.398438 486.652344 698.722656 486 699.121094 486 C 699.515625 486 699.839844 485.511719 699.839844 484.910156 C 699.839844 484.3125 700.132812 483.257812 700.488281 482.570312 C 701.679688 480.28125 704.878906 469.367188 704.878906 467.589844 C 704.878906 466.628906 705.203125 465.839844 705.601562 465.839844 C 705.996094 465.839844 706.320312 464.707031 706.320312 463.320312 C 706.320312 461.933594 706.644531 460.800781 707.039062 460.800781 C 707.4375 460.800781 707.761719 459.6875 707.761719 458.324219 C 707.761719 456.960938 708.085938 455.644531 708.480469 455.398438 C 708.875 455.15625 709.199219 454 709.199219 452.835938 C 709.199219 451.671875 709.523438 450.71875 709.921875 450.71875 C 710.316406 450.71875 710.640625 449.445312 710.640625 447.882812 C 710.640625 446.324219 710.964844 444.84375 711.359375 444.601562 C 711.757812 444.355469 712.078125 442.714844 712.078125 440.957031 C 712.078125 439.199219 712.402344 437.761719 712.800781 437.761719 C 713.195312 437.761719 713.519531 436.464844 713.519531 434.878906 C 713.519531 433.296875 713.84375 432 714.238281 432 C 714.636719 432 714.960938 430.21875 714.960938 428.039062 C 714.960938 425.863281 715.285156 424.078125 715.679688 424.078125 C 716.074219 424.078125 716.398438 422.316406 716.398438 420.164062 C 716.398438 418.007812 716.722656 416.042969 717.121094 415.800781 C 717.515625 415.554688 717.839844 413.132812 717.839844 410.417969 C 717.839844 407.109375 718.136719 405.382812 718.738281 405.179688 C 719.449219 404.945312 719.640625 395.265625 719.640625 360 C 719.640625 324.734375 719.449219 315.054688 718.738281 314.820312 C 718.136719 314.617188 717.839844 312.882812 717.839844 309.539062 C 717.839844 306.699219 717.53125 304.558594 717.121094 304.558594 C 716.71875 304.558594 716.398438 302.640625 716.398438 300.238281 C 716.398438 297.839844 716.078125 295.921875 715.679688 295.921875 C 715.285156 295.921875 714.960938 294.320312 714.960938 292.363281 C 714.960938 290.40625 714.636719 288.605469 714.238281 288.359375 C 713.84375 288.113281 713.519531 286.636719 713.519531 285.078125 C 713.519531 283.515625 713.195312 282.238281 712.800781 282.238281 C 712.402344 282.238281 712.078125 280.800781 712.078125 279.042969 C 712.078125 277.285156 711.757812 275.644531 711.359375 275.398438 C 710.964844 275.15625 710.640625 273.859375 710.640625 272.519531 C 710.640625 271.179688 710.316406 269.886719 709.921875 269.640625 C 709.523438 269.394531 709.199219 268.242188 709.199219 267.078125 C 709.199219 265.914062 708.875 264.960938 708.480469 264.960938 C 708.085938 264.960938 707.761719 263.664062 707.761719 262.078125 C 707.761719 260.496094 707.4375 259.199219 707.039062 259.199219 C 706.644531 259.199219 706.320312 258.066406 706.320312 256.679688 C 706.320312 255.292969 705.996094 254.160156 705.601562 254.160156 C 705.203125 254.160156 704.878906 253.359375 704.878906 252.386719 C 704.878906 250.5 703.140625 244.554688 701.976562 242.46875 C 701.59375 241.78125 701.28125 240.726562 701.28125 240.121094 C 701.28125 239.515625 700.957031 238.378906 700.558594 237.589844 C 700.164062 236.804688 699.515625 235.515625 699.121094 234.730469 C 698.722656 233.941406 698.398438 232.644531 698.398438 231.847656 C 698.398438 231.050781 698.074219 230.398438 697.679688 230.398438 C 697.285156 230.398438 696.960938 229.773438 696.960938 229.003906 C 696.960938 228.234375 696.636719 227.40625 696.238281 227.160156 C 695.84375 226.914062 695.519531 225.921875 695.519531 224.957031 C 695.519531 223.988281 695.195312 223.199219 694.800781 223.199219 C 694.402344 223.199219 694.078125 222.570312 694.078125 221.804688 C 694.078125 221.035156 693.757812 220.203125 693.359375 219.960938 C 692.964844 219.714844 692.640625 218.722656 692.640625 217.757812 C 692.640625 216.789062 692.316406 216 691.921875 216 C 691.523438 216 691.199219 215.351562 691.199219 214.558594 C 691.199219 213.769531 690.875 213.121094 690.480469 213.121094 C 690.085938 213.121094 689.761719 212.472656 689.761719 211.679688 C 689.761719 210.886719 689.4375 210.238281 689.039062 210.238281 C 688.644531 210.238281 688.320312 209.613281 688.320312 208.84375 C 688.320312 208.074219 687.996094 207.246094 687.601562 207 C 687.203125 206.753906 686.878906 205.925781 686.878906 205.15625 C 686.878906 204.386719 686.554688 203.761719 686.160156 203.761719 C 685.765625 203.761719 685.441406 203.339844 685.441406 202.824219 C 685.441406 201.5 683.746094 198.011719 683.101562 198.003906 C 682.804688 198 682.558594 197.378906 682.558594 196.621094 C 682.558594 195.863281 682.316406 195.132812 682.019531 195 C 681.722656 194.867188 680.699219 193.222656 679.746094 191.339844 C 678.792969 189.460938 677.742188 187.921875 677.40625 187.921875 C 677.074219 187.921875 676.800781 187.273438 676.800781 186.480469 C 676.800781 185.6875 676.476562 185.039062 676.078125 185.039062 C 675.683594 185.039062 675.359375 184.472656 675.355469 183.78125 C 675.351562 183.085938 674.695312 181.546875 673.894531 180.359375 C 673.089844 179.171875 671.890625 177.066406 671.222656 175.679688 C 670.554688 174.292969 669.429688 172.53125 668.722656 171.765625 C 668.019531 170.996094 667.441406 170.09375 667.441406 169.753906 C 667.441406 169.003906 664.410156 164.613281 663.660156 164.28125 C 663.363281 164.148438 663.121094 163.492188 663.121094 162.820312 C 663.121094 162.148438 662.472656 161.128906 661.679688 160.558594 C 660.886719 159.988281 660.238281 159.015625 660.238281 158.398438 C 660.238281 157.78125 659.59375 156.8125 658.800781 156.238281 C 658.007812 155.667969 657.359375 154.753906 657.359375 154.210938 C 657.359375 153.664062 656.386719 152.3125 655.199219 151.199219 C 654.011719 150.089844 653.039062 148.734375 653.039062 148.191406 C 653.039062 147.644531 652.390625 146.730469 651.601562 146.160156 C 650.808594 145.589844 650.160156 144.871094 650.160156 144.570312 C 650.160156 144.042969 649.765625 143.519531 646.019531 139.078125 C 645.128906 138.023438 644.402344 136.929688 644.398438 136.652344 C 644.398438 136.375 643.664062 135.402344 642.765625 134.492188 C 641.867188 133.582031 640.332031 131.710938 639.355469 130.328125 C 638.378906 128.949219 636.035156 126.242188 634.148438 124.316406 C 632.261719 122.390625 630.71875 120.511719 630.71875 120.144531 C 630.71875 119.773438 627.398438 116.230469 623.339844 112.269531 C 614.46875 103.617188 616.382812 105.53125 607.730469 96.660156 C 603.769531 92.601562 600.195312 89.28125 599.785156 89.28125 C 599.375 89.28125 599.039062 88.957031 599.039062 88.558594 C 599.039062 88.164062 598.699219 87.839844 598.285156 87.839844 C 597.871094 87.839844 595.917969 86.226562 593.949219 84.257812 C 591.980469 82.285156 590.128906 80.636719 589.84375 80.59375 C 589.292969 80.511719 585.902344 78.023438 584.269531 76.5 C 583.738281 76.003906 583.117188 75.601562 582.890625 75.601562 C 582.667969 75.601562 581.144531 74.304688 579.511719 72.71875 C 577.882812 71.136719 576.171875 69.839844 575.710938 69.839844 C 575.253906 69.839844 574.410156 69.191406 573.839844 68.398438 C 573.269531 67.609375 572.355469 66.960938 571.808594 66.960938 C 571.265625 66.960938 569.910156 65.988281 568.800781 64.800781 C 567.6875 63.613281 566.335938 62.640625 565.789062 62.640625 C 565.246094 62.640625 564.332031 61.992188 563.761719 61.199219 C 563.1875 60.40625 562.21875 59.761719 561.601562 59.761719 C 560.984375 59.761719 560.011719 59.113281 559.441406 58.320312 C 558.871094 57.527344 557.976562 56.878906 557.449219 56.878906 C 556.925781 56.878906 555.859375 56.285156 555.078125 55.554688 C 554.296875 54.828125 552.769531 53.773438 551.6875 53.214844 C 550.605469 52.65625 548.585938 51.4375 547.199219 50.507812 C 545.8125 49.578125 544.03125 48.519531 543.238281 48.15625 C 542.449219 47.796875 540.828125 46.878906 539.640625 46.121094 C 538.453125 45.367188 536.914062 44.722656 536.21875 44.691406 C 535.527344 44.664062 534.960938 44.316406 534.960938 43.921875 C 534.960938 43.523438 534.3125 43.199219 533.519531 43.199219 C 532.726562 43.199219 532.078125 42.925781 532.078125 42.59375 C 532.078125 42.257812 530.539062 41.207031 528.660156 40.253906 C 526.777344 39.300781 525.132812 38.277344 525 37.980469 C 524.867188 37.683594 524.136719 37.441406 523.378906 37.441406 C 522.621094 37.441406 522 37.117188 522 36.71875 C 522 36.324219 521.351562 36 520.558594 36 C 519.769531 36 519.121094 35.753906 519.121094 35.457031 C 519.121094 35.15625 518.066406 34.488281 516.78125 33.96875 C 515.492188 33.449219 513.875 32.722656 513.1875 32.351562 C 512.5 31.980469 511.449219 31.679688 510.847656 31.679688 C 510.25 31.679688 509.761719 31.355469 509.761719 30.960938 C 509.761719 30.5625 509.113281 30.238281 508.320312 30.238281 C 507.527344 30.238281 506.878906 29.914062 506.878906 29.519531 C 506.878906 29.125 506.390625 28.800781 505.789062 28.800781 C 505.191406 28.800781 504.058594 28.476562 503.269531 28.078125 C 502.484375 27.683594 501.195312 27.035156 500.410156 26.640625 C 499.621094 26.242188 498.488281 25.921875 497.890625 25.921875 C 497.289062 25.921875 496.800781 25.597656 496.800781 25.199219 C 496.800781 24.804688 496.214844 24.480469 495.496094 24.480469 C 494.777344 24.480469 492.847656 23.832031 491.210938 23.039062 C 489.570312 22.246094 487.726562 21.601562 487.113281 21.601562 C 486.503906 21.601562 486 21.277344 486 20.878906 C 486 20.484375 485.347656 20.160156 484.550781 20.160156 C 483.753906 20.160156 482.539062 19.84375 481.851562 19.457031 C 479.660156 18.222656 469.476562 15.121094 467.625 15.121094 C 466.644531 15.121094 465.839844 14.796875 465.839844 14.398438 C 465.839844 14.003906 464.726562 13.679688 463.363281 13.679688 C 462 13.679688 460.683594 13.355469 460.441406 12.960938 C 460.195312 12.5625 458.878906 12.238281 457.515625 12.238281 C 456.152344 12.238281 455.039062 11.914062 455.039062 11.519531 C 455.039062 11.125 454.085938 10.800781 452.921875 10.800781 C 451.757812 10.800781 450.605469 10.476562 450.359375 10.078125 C 450.113281 9.683594 448.65625 9.359375 447.121094 9.359375 C 445.582031 9.359375 444.125 9.035156 443.878906 8.640625 C 443.636719 8.242188 442.15625 7.921875 440.597656 7.921875 C 439.035156 7.921875 437.761719 7.597656 437.761719 7.199219 C 437.761719 6.804688 436.484375 6.480469 434.921875 6.480469 C 433.363281 6.480469 431.886719 6.15625 431.640625 5.761719 C 431.394531 5.363281 429.59375 5.039062 427.636719 5.039062 C 425.679688 5.039062 424.078125 4.714844 424.078125 4.320312 C 424.078125 3.921875 422.160156 3.601562 419.761719 3.601562 C 417.359375 3.601562 415.441406 3.28125 415.441406 2.878906 C 415.441406 2.472656 413.328125 2.160156 410.542969 2.160156 C 407.667969 2.160156 405.289062 1.800781 404.773438 1.285156 C 403.910156 0.421875 338.148438 -0.207031 322.207031 0.496094 M 322.921875 165.578125 C 345.625 167.941406 355.417969 175.179688 358.941406 192.199219 C 359.53125 195.035156 361.441406 193.613281 361.441406 190.335938 C 361.441406 188.78125 361.910156 187.367188 364.027344 182.519531 C 367.070312 175.558594 375.464844 169.648438 385.277344 167.566406 C 397.683594 164.929688 399.84375 164.878906 500.773438 164.878906 L 600.480469 164.878906 L 600.480469 205.171875 L 615.78125 205.367188 L 631.078125 205.558594 L 631.261719 380.917969 C 631.410156 525.9375 631.277344 556.507812 630.484375 557.589844 C 629.5625 558.855469 620.164062 558.878906 359.585938 558.269531 L 89.640625 557.640625 L 89.640625 205.558594 L 104.578125 205.367188 L 119.519531 205.171875 L 119.519531 185.507812 C 119.519531 174.691406 119.734375 165.625 120 165.359375 C 120.753906 164.605469 315.59375 164.816406 322.921875 165.578125 M 482.398438 390.882812 C 482.398438 433.480469 482.515625 438.371094 483.539062 438.761719 C 485.027344 439.332031 561.132812 439.332031 562.621094 438.761719 C 563.644531 438.371094 563.761719 433.480469 563.761719 390.882812 L 563.761719 343.441406 L 482.398438 343.441406 L 482.398438 390.882812 M 157.679688 417.601562 L 157.679688 438.480469 L 318.960938 438.480469 L 318.960938 396.71875 L 157.679688 396.71875 L 157.679688 417.601562 "/>
<path style=" stroke:none;fill-rule:evenodd;fill:rgb(74.901961%,34.901961%,28.235294%);fill-opacity:1;" d="M 89.613281 206.101562 C 89.425781 206.59375 89.355469 285.894531 89.457031 382.320312 L 89.640625 557.640625 L 359.585938 558.269531 C 620.164062 558.878906 629.5625 558.855469 630.484375 557.589844 C 631.277344 556.507812 631.410156 525.9375 631.261719 380.917969 L 631.078125 205.558594 L 615.601562 205.535156 L 600.121094 205.515625 L 615.058594 205.730469 L 630 205.949219 L 630 556.558594 L 90 556.558594 L 90 205.949219 L 104.941406 205.738281 L 119.878906 205.53125 L 104.917969 205.363281 C 93.488281 205.238281 89.875 205.414062 89.613281 206.101562 "/>
</g>
</svg>
