<svg id="svg" version="1.1" xmlns="http://www.w3.org/2000/svg" xmlns:xlink="http://www.w3.org/1999/xlink" width="400" height="400" viewBox="0, 0, 400,400"><g id="svgg"><path id="path0" d="M184.180 38.368 C 183.824 38.712,182.940 38.824,175.800 39.428 C 174.260 39.558,172.829 39.830,172.620 40.032 C 172.411 40.235,171.387 40.400,170.344 40.400 C 169.301 40.400,168.336 40.580,168.200 40.800 C 168.064 41.020,167.153 41.200,166.176 41.200 C 165.199 41.200,164.400 41.341,164.400 41.513 C 164.400 41.685,163.913 41.866,163.318 41.915 C 162.722 41.964,162.056 42.184,161.838 42.402 C 161.619 42.621,160.756 42.800,159.920 42.800 C 159.084 42.800,158.400 42.991,158.400 43.224 C 158.400 43.457,158.213 43.532,157.985 43.391 C 157.570 43.134,154.112 43.802,152.600 44.431 C 152.160 44.613,150.990 44.983,150.000 45.252 C 149.010 45.520,148.002 45.888,147.760 46.070 C 147.517 46.251,146.842 46.439,146.260 46.487 C 145.677 46.535,145.200 46.715,145.200 46.887 C 145.200 47.059,144.928 47.200,144.595 47.200 C 144.262 47.200,143.677 47.362,143.295 47.560 C 142.084 48.187,138.631 49.728,137.800 50.013 C 137.360 50.163,136.218 50.672,135.262 51.143 C 134.306 51.614,133.316 51.999,133.062 51.997 C 132.456 51.992,125.840 55.302,125.667 55.696 C 125.593 55.863,125.188 56.000,124.767 56.000 C 124.345 56.000,124.000 56.180,124.000 56.400 C 124.000 56.620,123.640 56.800,123.200 56.800 C 122.760 56.800,122.400 56.980,122.400 57.200 C 122.400 57.420,122.040 57.600,121.600 57.600 C 121.160 57.600,120.800 57.780,120.800 58.000 C 120.800 58.220,120.530 58.400,120.200 58.400 C 119.870 58.400,119.600 58.610,119.600 58.867 C 119.600 59.123,119.493 59.226,119.361 59.095 C 119.037 58.770,108.632 65.215,107.600 66.380 C 107.490 66.504,105.150 68.306,102.400 70.385 C 99.650 72.463,97.200 74.352,96.957 74.582 C 96.713 74.812,95.372 75.990,93.978 77.200 C 89.603 80.995,85.189 85.166,82.852 87.711 C 81.613 89.060,80.330 90.454,80.000 90.810 C 79.438 91.416,76.154 95.159,74.529 97.047 C 74.128 97.512,73.350 98.495,72.800 99.230 C 72.250 99.966,71.215 101.227,70.500 102.032 C 69.785 102.838,69.200 103.700,69.200 103.948 C 69.200 104.197,69.059 104.400,68.886 104.400 C 68.714 104.400,68.279 104.895,67.921 105.500 C 67.563 106.105,66.804 107.140,66.235 107.800 C 65.666 108.460,65.201 109.210,65.200 109.467 C 65.200 109.723,65.042 109.993,64.849 110.067 C 64.400 110.237,60.000 116.994,60.000 117.512 C 60.000 117.727,59.732 118.124,59.404 118.396 C 59.077 118.668,58.906 119.048,59.025 119.240 C 59.144 119.432,58.872 119.986,58.420 120.470 C 57.969 120.955,57.600 121.587,57.600 121.875 C 57.600 122.164,57.420 122.400,57.200 122.400 C 56.980 122.400,56.800 122.760,56.800 123.200 C 56.800 123.640,56.620 124.000,56.400 124.000 C 56.180 124.000,56.000 124.360,56.000 124.800 C 56.000 125.240,55.865 125.601,55.700 125.601 C 55.535 125.602,54.950 126.592,54.400 127.800 C 53.850 129.008,53.265 129.998,53.100 129.999 C 52.935 129.999,52.800 130.349,52.800 130.776 C 52.800 131.203,52.620 131.664,52.400 131.800 C 52.180 131.936,52.000 132.487,52.000 133.024 C 52.000 133.561,51.820 134.000,51.600 134.000 C 51.380 134.000,51.200 134.349,51.200 134.776 C 51.200 135.203,51.020 135.664,50.800 135.800 C 50.580 135.936,50.400 136.326,50.400 136.666 C 50.400 137.007,49.887 138.391,49.259 139.743 C 46.804 145.032,46.400 146.017,46.400 146.716 C 46.400 147.114,46.247 147.611,46.059 147.820 C 45.871 148.029,45.483 149.100,45.197 150.200 C 44.910 151.300,44.546 152.380,44.388 152.600 C 44.005 153.133,43.537 155.488,43.494 157.100 C 43.475 157.815,43.312 158.400,43.130 158.400 C 42.949 158.400,42.800 159.105,42.800 159.967 C 42.800 160.828,42.626 161.593,42.413 161.667 C 42.200 161.740,41.980 162.399,41.925 163.130 C 41.870 163.862,41.685 164.548,41.513 164.654 C 41.341 164.760,41.200 165.456,41.200 166.200 C 41.200 166.944,41.020 167.664,40.800 167.800 C 40.580 167.936,40.400 169.027,40.400 170.224 C 40.400 171.421,40.234 172.400,40.032 172.400 C 39.829 172.400,39.561 173.705,39.437 175.300 C 38.845 182.896,38.709 184.000,38.367 184.000 C 38.150 184.000,38.000 190.554,38.000 200.000 C 38.000 209.521,38.150 216.000,38.370 216.000 C 38.573 216.000,38.835 217.395,38.951 219.100 C 39.284 223.965,39.643 226.568,40.037 226.980 C 40.237 227.189,40.400 228.314,40.400 229.480 C 40.400 230.646,40.580 231.600,40.800 231.600 C 41.020 231.600,41.200 232.500,41.200 233.600 C 41.200 234.700,41.342 235.600,41.515 235.600 C 41.688 235.600,41.874 236.178,41.928 236.884 C 41.982 237.591,42.172 238.266,42.352 238.384 C 42.531 238.503,42.793 239.733,42.935 241.118 C 43.076 242.504,43.373 243.977,43.596 244.392 C 43.818 244.808,44.000 245.599,44.000 246.150 C 44.000 246.702,44.180 247.264,44.400 247.400 C 44.620 247.536,44.800 248.087,44.800 248.624 C 44.800 249.161,44.957 249.600,45.148 249.600 C 45.517 249.600,46.397 252.387,46.506 253.900 C 46.541 254.395,46.712 254.800,46.885 254.800 C 47.058 254.800,47.200 255.072,47.200 255.404 C 47.200 256.037,48.342 258.777,49.639 261.254 C 50.057 262.054,50.400 263.079,50.400 263.531 C 50.400 263.983,50.580 264.464,50.800 264.600 C 51.020 264.736,51.200 265.287,51.200 265.824 C 51.200 266.361,51.380 266.800,51.600 266.800 C 51.820 266.800,52.000 267.160,52.000 267.600 C 52.000 268.040,52.180 268.400,52.400 268.400 C 52.620 268.400,52.800 268.760,52.800 269.200 C 52.800 269.640,52.959 270.000,53.153 270.000 C 53.348 270.000,53.610 270.315,53.736 270.700 C 53.862 271.085,54.423 272.170,54.982 273.111 C 55.542 274.052,56.000 275.087,56.000 275.411 C 56.000 275.735,56.180 276.000,56.400 276.000 C 56.620 276.000,56.800 276.360,56.800 276.800 C 56.800 277.240,56.980 277.600,57.200 277.600 C 57.420 277.600,57.600 277.960,57.600 278.400 C 57.600 278.840,57.780 279.200,58.000 279.200 C 58.220 279.200,58.400 279.470,58.400 279.800 C 58.400 280.130,58.610 280.400,58.867 280.400 C 59.123 280.400,59.221 280.512,59.084 280.649 C 58.947 280.787,59.251 281.462,59.760 282.149 C 60.270 282.837,60.949 283.940,61.269 284.600 C 61.980 286.061,62.837 287.525,63.478 288.370 C 66.137 291.878,67.600 293.970,67.600 294.267 C 67.600 294.463,67.960 294.883,68.400 295.200 C 68.840 295.517,69.200 296.057,69.200 296.400 C 69.200 296.743,69.560 297.283,70.000 297.600 C 70.440 297.917,70.800 298.378,70.800 298.625 C 70.800 298.871,71.475 299.780,72.300 300.644 C 73.125 301.508,74.421 303.022,75.179 304.008 C 75.938 304.993,76.793 305.944,77.079 306.120 C 77.366 306.296,77.600 306.689,77.600 306.994 C 77.600 307.299,78.307 308.055,79.171 308.674 C 80.035 309.293,81.035 310.296,81.394 310.901 C 82.228 312.309,86.625 316.800,87.169 316.800 C 87.396 316.800,88.328 317.745,89.241 318.900 C 90.154 320.055,90.968 320.910,91.049 320.800 C 91.131 320.690,91.693 321.058,92.299 321.619 C 92.904 322.179,94.201 323.259,95.180 324.019 C 96.159 324.778,97.739 326.165,98.691 327.100 C 99.642 328.035,100.588 328.800,100.792 328.800 C 100.997 328.800,101.587 329.205,102.104 329.700 C 102.621 330.195,103.439 330.825,103.922 331.100 C 104.405 331.375,105.194 331.825,105.675 332.100 C 106.156 332.375,107.152 333.185,107.888 333.900 C 108.624 334.615,109.388 335.200,109.585 335.200 C 109.782 335.200,110.181 335.425,110.471 335.700 C 110.762 335.975,111.990 336.719,113.200 337.353 C 114.410 337.986,115.580 338.721,115.800 338.985 C 116.240 339.514,117.605 340.279,120.500 341.619 C 121.545 342.103,122.400 342.656,122.400 342.849 C 122.400 343.042,122.653 343.200,122.962 343.200 C 123.719 343.200,126.800 344.865,126.800 345.274 C 126.800 345.453,127.053 345.600,127.362 345.600 C 128.028 345.600,131.341 347.268,131.533 347.700 C 131.607 347.865,132.085 348.000,132.596 348.000 C 133.538 348.000,136.889 349.551,137.133 350.100 C 137.207 350.265,137.702 350.400,138.233 350.400 C 138.765 350.400,139.200 350.580,139.200 350.800 C 139.200 351.020,139.526 351.200,139.925 351.200 C 140.324 351.200,141.395 351.560,142.306 352.000 C 143.216 352.440,144.341 352.800,144.806 352.800 C 145.270 352.800,146.767 353.339,148.132 353.997 C 149.497 354.655,151.105 355.234,151.707 355.284 C 152.308 355.334,152.800 355.515,152.800 355.687 C 152.800 355.859,153.329 356.000,153.976 356.000 C 154.623 356.000,155.257 356.169,155.385 356.375 C 155.512 356.582,156.018 356.670,156.508 356.571 C 156.999 356.472,157.760 356.547,158.200 356.736 C 161.189 358.023,165.793 359.055,170.400 359.471 C 171.610 359.581,172.771 359.835,172.980 360.035 C 173.189 360.236,174.314 360.400,175.480 360.400 C 176.646 360.400,177.600 360.580,177.600 360.800 C 177.600 361.038,179.107 361.200,181.320 361.200 C 183.366 361.200,185.224 361.384,185.450 361.610 C 186.263 362.423,222.400 361.604,222.400 360.773 C 222.400 360.568,223.570 360.400,225.000 360.400 C 226.430 360.400,227.600 360.237,227.600 360.037 C 227.600 359.837,228.545 359.578,229.700 359.461 C 232.955 359.130,234.957 358.740,235.459 358.337 C 235.712 358.135,236.522 357.990,237.259 358.016 C 238.608 358.063,243.201 357.006,244.495 356.352 C 244.877 356.158,245.494 356.000,245.866 356.000 C 247.055 356.000,252.603 354.040,256.000 352.421 C 256.330 352.263,257.455 351.885,258.500 351.580 C 259.545 351.275,260.400 350.885,260.400 350.713 C 260.400 350.541,260.940 350.400,261.600 350.400 C 262.260 350.400,262.800 350.220,262.800 350.000 C 262.800 349.780,263.149 349.600,263.576 349.600 C 264.003 349.600,264.464 349.420,264.600 349.200 C 264.736 348.980,265.287 348.800,265.824 348.800 C 266.361 348.800,266.801 348.665,266.803 348.500 C 266.807 348.141,268.744 347.200,269.480 347.200 C 269.766 347.200,270.001 347.065,270.003 346.900 C 270.007 346.541,271.944 345.600,272.680 345.600 C 272.966 345.600,273.200 345.420,273.200 345.200 C 273.200 344.980,273.470 344.800,273.800 344.800 C 274.130 344.800,274.400 344.620,274.400 344.400 C 274.400 344.180,274.760 344.000,275.200 344.000 C 275.640 344.000,276.000 343.820,276.000 343.600 C 276.000 343.380,276.360 343.200,276.800 343.200 C 277.240 343.200,277.600 343.062,277.600 342.894 C 277.600 342.726,278.319 342.277,279.199 341.896 C 281.297 340.987,295.256 331.775,295.533 331.117 C 295.607 330.943,295.877 330.800,296.133 330.800 C 296.390 330.799,297.123 330.349,297.762 329.800 C 298.401 329.250,299.070 328.800,299.249 328.800 C 299.427 328.800,300.200 328.173,300.967 327.407 C 301.733 326.640,302.567 325.965,302.821 325.907 C 303.075 325.848,303.761 325.350,304.347 324.800 C 304.932 324.250,306.193 323.170,307.148 322.400 C 309.400 320.585,320.585 309.400,322.400 307.148 C 323.170 306.193,324.250 304.932,324.800 304.347 C 325.350 303.761,325.848 303.075,325.907 302.821 C 325.965 302.567,326.640 301.733,327.407 300.967 C 328.173 300.200,328.800 299.427,328.800 299.249 C 328.800 299.070,329.250 298.401,329.800 297.762 C 330.349 297.123,330.799 296.457,330.800 296.283 C 330.800 296.109,330.985 295.749,331.212 295.483 C 331.439 295.217,332.333 294.010,333.200 292.800 C 334.067 291.590,334.961 290.383,335.188 290.117 C 335.415 289.851,335.600 289.528,335.600 289.398 C 335.600 289.269,336.842 287.326,338.360 285.082 C 339.879 282.837,341.451 280.235,341.855 279.300 C 342.258 278.365,342.726 277.600,342.894 277.600 C 343.062 277.600,343.200 277.240,343.200 276.800 C 343.200 276.360,343.380 276.000,343.600 276.000 C 343.820 276.000,344.000 275.655,344.000 275.233 C 344.000 274.812,344.137 274.407,344.304 274.333 C 344.712 274.154,348.007 267.533,348.003 266.900 C 348.001 266.625,348.180 266.400,348.400 266.400 C 348.620 266.400,348.800 266.051,348.800 265.624 C 348.800 265.197,348.980 264.736,349.200 264.600 C 349.420 264.464,349.600 264.003,349.600 263.576 C 349.600 263.149,349.780 262.800,350.000 262.800 C 350.220 262.800,350.400 262.348,350.400 261.795 C 350.400 261.242,350.559 260.477,350.753 260.095 C 351.081 259.450,351.446 258.587,352.359 256.300 C 352.557 255.805,353.007 254.743,353.359 253.940 C 353.712 253.136,354.001 252.326,354.002 252.140 C 354.004 251.953,354.272 251.287,354.599 250.661 C 354.926 250.034,355.234 248.985,355.284 248.330 C 355.334 247.675,355.515 247.052,355.687 246.946 C 355.859 246.840,356.000 246.401,356.000 245.971 C 356.000 245.541,356.163 244.877,356.363 244.495 C 356.960 243.352,358.069 238.295,358.023 236.930 C 357.999 236.232,358.164 235.546,358.389 235.406 C 358.615 235.267,358.800 234.454,358.800 233.600 C 358.800 232.746,358.980 231.936,359.200 231.800 C 359.420 231.664,359.600 230.663,359.600 229.576 C 359.600 228.489,359.780 227.600,360.000 227.600 C 360.229 227.600,360.400 226.392,360.400 224.776 C 360.400 223.135,360.556 222.049,360.772 222.183 C 361.376 222.556,361.654 215.620,361.652 200.200 C 361.651 184.766,361.372 177.600,360.773 177.600 C 360.568 177.600,360.400 176.520,360.400 175.200 C 360.400 173.880,360.236 172.800,360.036 172.800 C 359.835 172.800,359.580 171.765,359.469 170.500 C 359.148 166.855,358.396 162.764,357.773 161.273 C 357.458 160.519,357.200 159.564,357.200 159.151 C 357.200 158.738,357.020 158.400,356.800 158.400 C 356.580 158.400,356.424 157.815,356.452 157.100 C 356.524 155.299,355.354 151.081,353.964 148.125 C 353.324 146.764,352.800 145.200,352.800 144.649 C 352.800 144.098,352.620 143.536,352.400 143.400 C 352.180 143.264,352.000 142.713,352.000 142.176 C 352.000 141.639,351.820 141.200,351.600 141.200 C 351.380 141.200,351.200 140.739,351.200 140.176 C 351.200 139.596,351.027 139.260,350.800 139.400 C 350.567 139.544,350.400 139.137,350.400 138.424 C 350.400 137.751,350.262 137.200,350.094 137.200 C 349.717 137.200,348.443 134.314,348.130 132.752 C 348.004 132.118,347.743 131.600,347.550 131.600 C 347.358 131.600,347.200 131.240,347.200 130.800 C 347.200 130.360,347.064 130.000,346.898 130.000 C 346.731 130.000,346.342 129.415,346.032 128.700 C 345.723 127.985,344.959 126.648,344.335 125.728 C 343.711 124.808,343.200 123.683,343.200 123.228 C 343.200 122.773,343.020 122.400,342.800 122.400 C 342.580 122.400,342.400 122.055,342.400 121.633 C 342.400 121.212,342.265 120.807,342.100 120.733 C 341.935 120.660,341.403 119.786,340.918 118.792 C 340.433 117.798,339.488 116.370,338.818 115.620 C 338.148 114.870,337.600 114.059,337.600 113.819 C 337.600 113.578,336.970 112.425,336.200 111.256 C 335.430 110.087,334.800 109.056,334.800 108.966 C 334.800 108.876,334.215 108.181,333.500 107.422 C 332.785 106.663,331.840 105.357,331.400 104.521 C 330.960 103.684,330.195 102.587,329.700 102.082 C 329.205 101.577,328.800 101.031,328.800 100.869 C 328.800 100.707,328.015 99.770,327.056 98.787 C 326.096 97.804,324.834 96.235,324.251 95.300 C 323.667 94.365,323.012 93.600,322.795 93.600 C 322.578 93.600,322.400 93.343,322.400 93.029 C 322.400 92.715,321.926 92.085,321.346 91.629 C 320.766 91.173,320.433 90.800,320.606 90.800 C 320.779 90.800,320.182 90.266,319.281 89.613 C 318.379 88.959,317.435 88.039,317.182 87.566 C 316.594 86.468,311.739 81.600,311.231 81.600 C 311.020 81.600,310.089 80.700,309.161 79.600 C 308.234 78.500,307.233 77.600,306.937 77.600 C 306.642 77.600,306.400 77.448,306.400 77.262 C 306.400 77.076,305.221 76.058,303.779 75.000 C 302.338 73.941,300.943 72.772,300.679 72.401 C 300.416 72.030,299.750 71.490,299.200 71.201 C 298.650 70.911,297.909 70.343,297.553 69.937 C 297.197 69.532,296.652 69.200,296.341 69.200 C 296.031 69.200,295.517 68.840,295.200 68.400 C 294.883 67.960,294.368 67.600,294.055 67.600 C 293.742 67.600,292.971 67.060,292.340 66.400 C 291.709 65.740,291.043 65.200,290.859 65.200 C 290.675 65.200,290.198 64.840,289.800 64.400 C 289.402 63.960,288.911 63.600,288.710 63.600 C 288.509 63.600,287.592 63.096,286.672 62.481 C 285.752 61.865,284.246 61.032,283.324 60.630 C 282.402 60.229,281.548 59.641,281.426 59.325 C 281.305 59.008,281.015 58.867,280.782 59.011 C 280.548 59.156,280.031 58.897,279.632 58.437 C 279.233 57.977,278.612 57.600,278.253 57.600 C 277.894 57.600,277.600 57.420,277.600 57.200 C 277.600 56.980,277.240 56.800,276.800 56.800 C 276.360 56.800,276.000 56.649,276.000 56.464 C 276.000 56.279,275.285 55.892,274.410 55.603 C 273.536 55.315,272.464 54.746,272.027 54.339 C 271.591 53.933,270.956 53.600,270.617 53.600 C 270.278 53.600,270.000 53.420,270.000 53.200 C 270.000 52.980,269.766 52.800,269.480 52.800 C 268.744 52.800,266.807 51.859,266.803 51.500 C 266.801 51.335,266.361 51.200,265.824 51.200 C 265.287 51.200,264.736 51.020,264.600 50.800 C 264.464 50.580,264.085 50.400,263.757 50.400 C 263.429 50.400,262.416 50.040,261.506 49.600 C 260.595 49.160,259.614 48.800,259.325 48.800 C 259.036 48.800,258.800 48.620,258.800 48.400 C 258.800 48.180,258.438 48.000,257.995 48.000 C 257.552 48.000,256.877 47.841,256.495 47.647 C 255.200 46.988,253.806 46.508,251.800 46.031 C 250.700 45.769,249.740 45.385,249.667 45.177 C 249.593 44.970,249.199 44.800,248.790 44.800 C 248.382 44.800,247.960 44.659,247.854 44.487 C 247.748 44.315,247.069 44.130,246.346 44.075 C 245.623 44.020,244.934 43.845,244.816 43.687 C 244.526 43.301,243.835 43.159,241.000 42.901 C 239.680 42.781,238.496 42.524,238.370 42.331 C 238.243 42.137,237.569 41.939,236.871 41.889 C 236.173 41.840,235.601 41.665,235.601 41.500 C 235.600 41.335,234.880 41.200,234.000 41.200 C 233.120 41.200,232.400 41.035,232.400 40.834 C 232.400 40.633,231.275 40.374,229.900 40.258 C 228.525 40.143,226.230 39.845,224.800 39.597 C 223.370 39.348,220.850 39.054,219.200 38.942 C 217.550 38.831,216.029 38.573,215.820 38.370 C 215.318 37.881,184.685 37.879,184.180 38.368 M247.923 58.847 C 248.434 59.041,249.444 59.200,250.166 59.200 C 250.889 59.200,252.002 59.358,252.640 59.550 C 253.278 59.743,254.790 60.119,256.000 60.387 C 258.263 60.888,260.395 61.485,261.800 62.010 C 262.240 62.174,263.410 62.542,264.400 62.826 C 265.390 63.111,266.380 63.462,266.600 63.605 C 266.820 63.749,267.630 64.108,268.400 64.403 C 274.687 66.817,285.620 73.156,288.400 76.000 C 288.510 76.113,289.318 76.740,290.195 77.395 C 302.796 86.800,315.421 107.063,318.860 123.400 C 319.091 124.500,319.438 126.120,319.631 127.000 C 321.278 134.536,321.569 141.611,320.307 143.453 C 318.871 145.549,318.519 145.600,305.481 145.601 L 293.400 145.601 293.379 149.901 C 293.359 153.954,293.279 154.361,291.997 157.000 C 283.655 174.169,258.400 168.361,258.400 149.273 L 258.400 145.600 246.162 145.600 C 229.479 145.600,230.780 146.935,230.672 129.710 L 230.600 118.200 227.200 117.957 C 220.162 117.454,214.309 113.235,211.996 107.000 C 211.833 106.560,211.497 105.697,211.250 105.081 C 210.664 103.625,210.669 97.159,211.257 95.719 C 214.757 87.141,220.357 82.800,227.921 82.800 L 230.319 82.800 230.579 80.100 C 230.722 78.615,230.787 73.980,230.724 69.800 C 230.548 58.189,230.876 57.813,240.797 58.232 C 244.205 58.376,247.412 58.652,247.923 58.847 M166.841 76.514 C 169.515 78.313,169.559 78.599,169.580 94.200 C 169.601 109.823,169.562 110.074,166.841 111.892 C 165.057 113.084,164.176 113.039,161.136 111.600 C 154.380 108.404,147.691 114.005,149.981 120.941 C 151.392 125.219,157.177 127.220,161.312 124.862 C 163.264 123.749,165.708 123.737,167.247 124.833 C 169.477 126.421,169.600 127.269,169.600 141.034 L 169.600 153.570 183.593 153.685 L 197.586 153.800 198.893 155.108 C 200.827 157.043,200.753 159.756,198.684 162.740 C 194.426 168.881,198.498 175.259,206.428 174.870 C 212.085 174.593,214.334 166.160,209.994 161.501 C 208.816 160.237,208.892 156.959,210.134 155.515 C 211.734 153.654,212.292 153.600,229.767 153.600 L 246.282 153.600 247.635 154.512 C 249.688 155.896,249.988 156.852,249.987 162.000 C 249.985 171.374,248.646 179.150,245.249 189.514 C 243.870 193.720,238.905 204.112,237.094 206.583 C 236.926 206.812,236.341 207.675,235.794 208.500 C 230.563 216.391,224.716 222.711,216.845 228.980 C 206.834 236.954,204.800 241.354,204.800 255.031 L 204.800 261.600 206.405 261.600 C 207.288 261.600,208.323 261.755,208.705 261.946 C 209.087 262.136,210.447 262.786,211.728 263.390 C 226.450 270.340,223.671 292.145,207.525 296.359 L 205.000 297.018 204.733 302.409 C 204.215 312.883,201.468 320.360,195.554 327.392 C 189.489 334.604,183.889 338.020,172.800 341.272 C 170.354 341.990,158.449 341.990,156.000 341.273 C 155.010 340.983,153.570 340.566,152.800 340.346 C 151.149 339.875,150.686 339.687,147.000 337.986 C 140.685 335.071,130.449 326.032,130.407 323.333 C 130.403 323.077,130.263 322.807,130.097 322.733 C 129.656 322.540,127.454 318.163,126.507 315.600 C 124.665 310.616,124.000 306.856,124.000 301.425 L 124.000 296.910 121.744 296.457 C 115.390 295.181,111.035 291.180,108.057 283.881 C 107.469 282.441,107.464 275.576,108.050 274.119 C 110.654 267.641,113.646 264.650,120.119 262.049 C 120.734 261.802,121.859 261.600,122.619 261.600 L 124.000 261.600 124.000 254.900 C 123.999 241.145,121.781 236.627,110.723 227.860 C 86.335 208.526,74.445 176.096,80.416 145.200 C 80.649 143.990,80.941 142.324,81.063 141.497 C 81.185 140.671,81.445 139.895,81.642 139.774 C 81.839 139.652,82.000 139.180,82.000 138.724 C 82.000 134.943,88.076 121.834,93.673 113.537 C 98.675 106.124,110.264 93.933,113.348 92.840 C 113.597 92.752,113.890 92.551,114.000 92.393 C 115.291 90.537,129.270 83.043,135.600 80.813 C 136.370 80.541,137.360 80.178,137.800 80.005 C 138.553 79.710,139.340 79.493,143.500 78.433 C 148.953 77.044,152.359 76.418,154.824 76.353 C 155.801 76.327,157.140 76.168,157.800 76.000 C 160.632 75.279,165.409 75.551,166.841 76.514 " stroke="none" fill="#f1c48c" fill-rule="evenodd"></path><path id="path1" d="M0.000 1.000 C 0.000 2.185,0.430 2.272,1.338 1.269 C 2.243 0.268,2.171 0.000,1.000 0.000 C 0.200 0.000,0.000 0.200,0.000 1.000 M6.500 6.621 L -0.000 13.183 -0.000 15.391 C 0.000 18.287,-0.704 18.782,9.039 9.039 C 18.802 -0.723,18.305 -0.009,15.300 0.030 L 13.000 0.060 6.500 6.621 M14.394 14.394 L 0.000 28.789 0.000 30.994 C 0.000 32.208,0.111 33.200,0.246 33.200 C 0.568 33.200,33.200 0.568,33.200 0.246 C 33.200 0.111,32.208 0.000,30.994 0.000 L 28.789 0.000 14.394 14.394 M22.203 22.203 L 0.000 44.405 0.000 46.603 C 0.000 47.811,0.115 48.800,0.255 48.800 C 0.589 48.800,48.800 0.589,48.800 0.255 C 48.800 0.115,47.811 0.000,46.603 0.000 L 44.405 0.000 22.203 22.203 M30.009 30.009 L 0.000 60.019 0.000 62.209 C 0.000 63.414,0.118 64.400,0.262 64.400 C 0.605 64.400,64.400 0.605,64.400 0.262 C 64.400 0.118,63.414 0.000,62.209 0.000 L 60.019 0.000 30.009 30.009 M37.822 37.822 L 0.000 75.643 0.000 77.822 C 0.000 79.020,0.135 79.996,0.300 79.990 C 0.679 79.978,80.000 0.637,80.000 0.270 C 80.000 0.122,79.020 0.000,77.822 0.000 L 75.643 0.000 37.822 37.822 M45.637 45.637 L 0.000 91.274 0.000 93.437 C 0.000 94.627,0.135 95.600,0.301 95.600 C 0.693 95.600,95.600 0.692,95.600 0.299 C 95.600 0.135,94.627 0.000,93.437 0.000 L 91.274 0.000 45.637 45.637 M53.452 53.452 L 0.000 106.904 0.000 109.052 C 0.000 110.233,0.135 111.200,0.301 111.200 C 0.693 111.200,111.200 0.692,111.200 0.299 C 111.200 0.135,110.233 0.000,109.052 0.000 L 106.904 0.000 53.452 53.452 M61.383 61.180 L 0.200 122.360 0.079 124.621 C -0.003 126.143,0.102 126.833,0.401 126.733 C 1.000 126.533,126.800 0.715,126.800 0.316 C 126.800 0.142,125.847 0.000,124.683 0.000 L 122.565 0.000 61.383 61.180 M69.100 69.100 L 0.000 138.201 0.000 140.300 C 0.000 141.455,0.154 142.400,0.342 142.400 C 0.789 142.400,142.400 0.789,142.400 0.342 C 142.400 0.154,141.455 0.000,140.300 0.000 L 138.199 0.000 69.100 69.100 M76.900 76.900 L 0.000 153.801 0.000 155.900 C 0.000 157.055,0.162 158.000,0.359 158.000 C 0.829 158.000,158.000 0.829,158.000 0.359 C 158.000 0.162,157.055 0.000,155.900 0.000 L 153.799 0.000 76.900 76.900 M84.700 84.735 L 0.000 169.453 0.000 171.527 C 0.000 172.667,0.166 173.600,0.369 173.600 C 0.744 173.600,65.200 109.340,65.200 108.967 C 65.200 108.855,65.650 108.314,66.200 107.764 C 66.750 107.214,67.200 106.600,67.200 106.400 C 67.200 106.200,67.650 105.586,68.200 105.036 C 68.750 104.486,69.200 103.875,69.200 103.678 C 69.200 103.480,69.740 102.754,70.400 102.063 C 71.060 101.372,71.600 100.670,71.600 100.501 C 71.600 100.333,72.320 99.431,73.200 98.497 C 74.080 97.563,74.800 96.701,74.800 96.581 C 74.800 96.461,75.205 95.954,75.700 95.453 C 76.195 94.952,77.274 93.745,78.099 92.771 C 83.695 86.157,86.600 83.230,92.000 78.764 C 92.550 78.310,93.754 77.232,94.677 76.369 C 95.599 75.506,96.462 74.800,96.595 74.800 C 96.728 74.800,97.256 74.395,97.768 73.900 C 99.110 72.603,100.371 71.600,100.658 71.600 C 100.794 71.600,101.197 71.276,101.553 70.881 C 101.909 70.486,102.830 69.725,103.600 69.192 C 104.370 68.658,105.349 67.902,105.775 67.511 C 106.202 67.120,106.747 66.800,106.987 66.800 C 107.227 66.800,107.683 66.440,108.000 66.000 C 108.317 65.560,108.710 65.200,108.873 65.200 C 109.308 65.200,173.600 0.805,173.600 0.369 C 173.600 0.166,172.655 0.004,171.500 0.009 L 169.400 0.017 84.700 84.735 M159.287 25.759 C 141.336 43.725,133.880 51.436,134.587 51.300 C 135.144 51.194,135.600 50.948,135.600 50.753 C 135.600 50.559,135.949 50.400,136.376 50.400 C 136.803 50.400,137.264 50.220,137.400 50.000 C 137.536 49.780,138.087 49.600,138.624 49.600 C 139.161 49.600,139.600 49.420,139.600 49.200 C 139.600 48.980,139.955 48.800,140.390 48.800 C 141.188 48.800,189.200 1.179,189.200 0.387 C 189.200 0.174,188.255 0.006,187.100 0.012 L 185.000 0.025 159.287 25.759 M179.500 21.162 C 167.895 32.788,158.400 42.413,158.400 42.550 C 158.400 42.942,160.373 42.842,161.182 42.410 C 161.583 42.195,162.471 41.977,163.155 41.925 C 163.840 41.873,164.400 41.684,164.400 41.506 C 164.400 41.329,173.490 32.100,184.600 20.998 C 195.710 9.896,204.800 0.630,204.800 0.407 C 204.800 0.181,203.864 0.005,202.700 0.012 L 200.600 0.024 179.500 21.162 M196.700 19.559 C 185.975 30.295,177.200 39.232,177.200 39.419 C 177.200 39.607,177.416 39.544,177.680 39.280 C 177.944 39.016,179.121 38.800,180.295 38.800 L 182.429 38.800 201.615 19.606 C 212.167 9.050,220.800 0.320,220.800 0.206 C 220.800 0.093,219.765 0.009,218.500 0.020 L 216.200 0.039 196.700 19.559 M213.100 18.772 C 202.815 29.070,194.400 37.609,194.400 37.748 C 194.400 37.886,195.399 38.000,196.620 38.000 L 198.840 38.000 217.620 19.226 C 227.949 8.901,236.400 0.351,236.400 0.226 C 236.400 0.102,235.365 0.011,234.100 0.024 L 231.800 0.048 213.100 18.772 M228.700 18.790 C 218.415 29.095,210.000 37.633,210.000 37.763 C 210.000 37.894,211.004 38.000,212.232 38.000 L 214.463 38.000 233.232 19.232 C 243.554 8.909,252.000 0.359,252.000 0.232 C 252.000 0.104,250.965 0.012,249.700 0.027 L 247.400 0.054 228.700 18.790 M243.500 19.603 C 232.775 30.352,224.000 39.231,224.000 39.335 C 224.000 39.438,224.945 39.593,226.100 39.679 L 228.200 39.836 247.900 20.152 C 258.735 9.326,267.600 0.363,267.600 0.234 C 267.600 0.105,266.565 0.013,265.300 0.030 L 263.000 0.060 243.500 19.603 M257.957 20.828 C 246.498 32.284,237.185 41.697,237.261 41.747 C 237.843 42.129,239.753 42.800,240.257 42.800 C 240.829 42.800,283.200 0.818,283.200 0.252 C 283.200 0.113,282.208 0.000,280.995 0.000 L 278.790 0.000 257.957 20.828 M271.971 22.433 C 259.630 34.771,249.641 44.974,249.774 45.107 C 249.906 45.240,250.673 45.574,251.476 45.851 L 252.938 46.353 275.869 23.437 C 288.481 10.833,298.800 0.403,298.800 0.260 C 298.800 0.117,297.812 0.000,296.604 0.000 L 294.409 0.000 271.971 22.433 M285.682 24.341 C 272.303 37.728,261.096 48.777,260.778 48.894 C 260.340 49.055,260.393 49.173,261.000 49.383 C 261.440 49.534,262.113 49.825,262.495 50.029 C 262.877 50.233,263.491 50.400,263.860 50.400 C 264.471 50.400,314.400 0.866,314.400 0.260 C 314.400 0.117,313.412 -0.000,312.204 -0.000 L 310.008 -0.000 285.682 24.341 M298.620 27.022 C 270.722 54.923,271.227 54.400,272.167 54.400 C 272.478 54.400,272.793 54.552,272.867 54.738 C 273.699 56.848,273.943 56.628,302.502 28.046 C 317.626 12.910,330.000 0.407,330.000 0.263 C 330.000 0.118,329.019 0.000,327.820 0.000 L 325.641 0.000 298.620 27.022 M311.638 29.629 C 295.337 45.925,282.000 59.392,282.000 59.555 C 282.000 59.718,282.662 60.168,283.471 60.554 L 284.943 61.255 315.271 30.929 C 331.952 14.249,345.600 0.467,345.600 0.301 C 345.600 0.135,344.627 0.000,343.438 0.000 L 341.276 0.000 311.638 29.629 M328.351 28.569 C 287.753 69.192,291.382 65.440,292.047 66.105 C 293.990 68.047,291.689 70.113,327.726 34.074 C 346.137 15.662,361.200 0.464,361.200 0.299 C 361.200 0.135,360.233 -0.000,359.051 -0.000 L 356.902 -0.000 328.351 28.569 M336.501 36.063 L 300.437 72.126 301.913 73.478 C 302.880 74.364,303.443 74.653,303.544 74.315 C 303.629 74.032,320.098 57.384,340.143 37.319 C 360.187 17.255,376.650 0.650,376.727 0.419 C 376.813 0.162,376.038 -0.000,374.716 -0.000 L 372.565 -0.000 336.501 36.063 M348.699 39.501 C 326.975 61.226,309.200 79.128,309.200 79.283 C 309.200 79.562,311.112 81.600,311.374 81.600 C 311.680 81.600,392.400 0.639,392.400 0.332 C 392.400 0.149,391.455 0.000,390.299 0.000 L 388.198 0.000 348.699 39.501 M358.087 45.713 L 316.775 87.026 317.995 88.195 L 319.215 89.364 322.047 86.582 C 323.605 85.052,341.781 66.908,362.440 46.262 L 400.000 8.724 400.000 6.562 C 400.000 5.373,399.865 4.400,399.699 4.400 C 399.534 4.400,380.808 22.991,358.087 45.713 M361.900 57.545 C 341.275 78.186,324.400 95.205,324.400 95.365 C 324.400 95.526,324.666 95.923,324.991 96.248 C 325.316 96.573,325.739 97.119,325.929 97.460 C 326.202 97.946,334.239 90.117,363.138 61.218 L 400.000 24.357 400.000 22.178 C 400.000 20.980,399.865 20.004,399.700 20.008 C 399.535 20.013,382.525 36.904,361.900 57.545 M369.736 65.310 C 353.421 81.640,338.020 97.019,335.512 99.486 L 330.952 103.972 331.988 105.186 C 332.558 105.854,333.147 106.400,333.297 106.400 C 333.447 106.400,348.517 91.457,366.785 73.193 L 400.000 39.986 400.000 37.793 C 400.000 36.587,399.865 35.605,399.700 35.610 C 399.535 35.616,386.051 48.981,369.736 65.310 M368.500 82.167 C 351.505 99.185,337.606 113.264,337.614 113.454 C 337.622 113.644,338.052 114.317,338.569 114.949 L 339.509 116.098 369.754 85.844 L 400.000 55.590 400.000 53.395 C 400.000 52.188,399.865 51.206,399.700 51.213 C 399.535 51.220,385.495 65.149,368.500 82.167 M232.621 59.699 L 231.200 61.120 231.200 71.952 L 231.200 82.785 230.300 82.967 C 229.805 83.067,228.098 83.240,226.507 83.351 C 204.737 84.866,207.205 117.837,229.100 117.986 L 231.200 118.000 231.200 130.325 L 231.200 142.650 232.426 143.825 L 233.651 145.000 246.126 145.200 L 258.600 145.400 258.670 149.102 C 259.116 172.876,293.200 172.536,293.200 148.758 L 293.200 145.200 305.594 145.200 L 317.987 145.200 319.294 144.028 L 320.600 142.856 320.524 138.128 C 320.457 133.991,320.112 131.286,318.799 124.600 C 316.817 114.513,308.649 97.092,303.100 91.119 C 302.825 90.823,301.610 89.420,300.400 88.001 C 285.165 70.133,263.383 59.518,239.921 58.526 L 234.043 58.277 232.621 59.699 M371.300 94.970 C 345.408 120.893,342.444 124.000,343.600 124.000 C 343.820 124.000,344.000 124.341,344.000 124.757 C 344.000 127.088,345.551 125.671,372.617 98.599 L 400.000 71.211 400.000 69.005 C 400.000 67.792,399.865 66.808,399.700 66.818 C 399.535 66.827,386.755 79.496,371.300 94.970 M247.635 68.579 C 265.285 71.294,282.076 80.715,293.652 94.400 C 295.976 97.147,300.000 102.619,300.000 103.032 C 300.000 103.167,300.362 103.785,300.804 104.406 C 305.289 110.705,312.562 133.073,310.965 135.656 C 310.848 135.845,304.868 136.009,297.676 136.019 C 282.861 136.041,282.409 136.120,281.091 138.920 C 280.385 140.419,280.750 143.600,281.628 143.600 C 283.346 143.600,284.496 150.288,283.244 153.000 C 279.594 160.908,268.000 158.129,268.000 149.346 C 268.000 147.127,268.215 146.566,270.100 143.859 C 271.282 142.163,271.528 140.160,270.737 138.682 C 269.347 136.085,268.807 136.000,253.781 136.000 L 240.400 136.000 240.400 123.387 C 240.400 109.687,240.295 108.919,238.195 107.267 C 236.737 106.121,235.014 106.173,232.473 107.438 C 226.627 110.352,220.400 106.720,220.400 100.397 C 220.400 94.225,226.468 90.671,232.340 93.404 C 235.618 94.930,238.022 94.605,239.494 92.438 C 240.121 91.516,240.214 90.093,240.322 79.700 L 240.444 68.000 242.157 68.000 C 243.099 68.000,245.564 68.261,247.635 68.579 M159.200 76.280 C 131.647 78.432,108.445 91.939,93.271 114.662 C 90.792 118.374,87.489 124.457,86.246 127.600 C 85.855 128.590,85.294 129.940,85.000 130.600 C 83.075 134.925,81.368 141.334,79.939 149.600 C 79.252 153.580,79.237 169.248,79.918 173.000 C 81.056 179.278,82.186 184.048,83.519 188.200 C 88.463 203.606,99.769 219.246,113.658 229.895 C 116.000 231.690,118.332 233.753,118.839 234.480 C 119.346 235.206,119.886 235.890,120.038 236.000 C 120.190 236.110,120.866 237.288,121.540 238.617 C 123.719 242.909,124.112 245.052,124.300 253.664 L 124.471 261.528 122.136 262.013 C 103.590 265.863,103.289 293.141,121.760 296.061 C 124.314 296.465,124.387 296.619,124.394 301.665 C 124.436 331.301,155.638 350.629,182.252 337.505 C 196.421 330.517,204.659 316.411,204.783 298.925 L 204.800 296.449 206.700 296.179 C 225.231 293.547,225.557 265.774,207.100 262.012 L 204.800 261.543 204.805 253.672 C 204.813 240.293,206.284 237.208,216.731 228.658 C 233.521 214.919,244.485 197.147,247.985 178.000 C 248.247 176.570,248.653 174.509,248.889 173.421 C 249.125 172.333,249.336 168.039,249.359 163.881 L 249.400 156.319 248.015 155.160 L 246.630 154.000 229.475 154.000 L 212.320 154.000 210.960 155.360 C 209.057 157.263,209.060 159.409,210.971 162.246 C 216.189 169.995,208.473 178.783,200.511 174.160 C 196.142 171.623,195.508 166.035,199.059 161.362 C 200.537 159.418,200.359 157.186,198.587 155.413 L 197.173 154.000 183.218 154.000 L 169.264 154.000 169.055 152.900 C 168.941 152.295,168.846 146.670,168.845 140.400 C 168.844 134.130,168.833 128.519,168.822 127.931 C 168.761 124.915,164.512 123.416,161.312 125.281 C 156.128 128.303,149.200 124.434,149.200 118.517 C 149.200 111.781,155.391 108.277,161.687 111.449 C 164.411 112.822,166.258 112.546,168.121 110.487 C 169.217 109.276,169.327 79.864,168.242 78.207 C 166.953 76.241,165.009 75.827,159.200 76.280 M373.940 107.940 C 350.725 131.189,348.498 133.533,348.687 134.519 C 348.800 135.114,349.052 135.600,349.247 135.600 C 349.441 135.600,349.600 135.870,349.600 136.200 C 349.600 137.260,349.703 137.162,375.032 111.808 L 400.000 86.816 400.000 84.608 C 400.000 83.394,399.865 82.409,399.700 82.421 C 399.535 82.432,387.943 93.916,373.940 107.940 M159.451 86.100 C 159.643 86.375,159.800 89.750,159.800 93.600 L 159.800 100.600 156.800 100.850 C 134.905 102.672,134.176 134.071,155.996 135.485 L 159.526 135.714 159.740 140.557 C 159.858 143.221,159.930 148.640,159.899 152.600 C 159.812 163.718,159.046 163.196,175.466 163.199 L 187.531 163.200 187.666 167.700 C 188.344 190.415,221.870 190.123,222.151 167.400 L 222.200 163.400 230.400 163.287 C 240.555 163.146,240.259 163.085,240.101 165.286 C 238.402 189.063,228.822 206.964,209.563 222.346 C 202.809 227.740,200.341 230.859,197.495 237.600 C 195.774 241.675,195.200 245.721,195.200 253.771 L 195.200 261.082 186.947 261.368 C 182.300 261.529,178.541 261.501,178.343 261.303 C 178.148 261.108,178.038 252.933,178.096 242.976 L 178.200 225.000 182.600 224.989 C 187.565 224.977,188.967 224.721,191.753 223.317 C 206.520 215.874,201.169 193.512,184.600 193.422 C 174.880 193.369,169.195 199.333,168.800 210.000 L 168.600 215.400 164.500 215.514 L 160.400 215.628 160.400 212.069 C 160.400 200.331,154.464 193.411,144.400 193.414 C 127.502 193.418,122.349 215.814,137.525 223.293 C 140.006 224.516,140.514 224.613,145.389 224.800 L 150.600 225.000 150.704 243.300 L 150.808 261.600 142.204 261.600 L 133.600 261.600 133.592 254.500 C 133.582 245.122,132.760 240.507,130.160 235.230 C 127.620 230.077,124.140 226.090,118.407 221.766 C 76.723 190.328,79.035 127.892,123.000 97.716 C 124.118 96.948,125.426 96.199,129.700 93.876 C 133.995 91.542,142.876 88.223,146.800 87.487 C 147.350 87.383,149.150 87.015,150.800 86.667 C 153.568 86.084,155.326 85.842,158.051 85.667 C 158.629 85.630,159.259 85.825,159.451 86.100 M376.036 121.471 C 355.267 142.299,352.723 144.985,353.136 145.646 C 353.391 146.055,353.600 146.651,353.600 146.971 C 353.600 148.633,356.157 146.279,377.196 125.249 L 400.000 102.455 400.000 100.228 C 400.000 99.002,399.865 98.009,399.700 98.020 C 399.535 98.031,388.886 108.584,376.036 121.471 M378.279 134.834 C 366.662 146.487,357.011 155.931,356.832 155.820 C 356.528 155.632,356.960 158.749,357.402 159.933 C 357.523 160.259,365.849 152.220,378.800 139.271 L 400.000 118.075 400.000 115.838 C 400.000 114.607,399.865 113.610,399.700 113.623 C 399.535 113.636,389.895 123.180,378.279 134.834 M379.700 149.088 C 359.761 169.014,359.600 169.188,359.600 170.800 C 359.600 174.075,359.906 173.817,380.434 153.268 L 400.041 133.640 399.921 131.320 L 399.800 129.000 379.700 149.088 M25.900 159.150 L -0.000 185.079 -0.000 187.139 C -0.000 188.273,0.173 189.200,0.384 189.200 C 0.894 189.200,48.000 142.106,48.000 141.596 C 48.000 141.378,48.180 141.200,48.400 141.200 C 48.620 141.200,48.800 140.840,48.800 140.400 C 48.800 139.960,48.980 139.600,49.200 139.600 C 49.420 139.600,49.600 139.161,49.600 138.624 C 49.600 138.087,49.780 137.536,50.000 137.400 C 50.220 137.264,50.400 136.803,50.400 136.376 C 50.400 135.949,50.580 135.600,50.800 135.600 C 51.020 135.600,51.200 135.276,51.200 134.880 C 51.200 134.484,51.416 133.944,51.680 133.680 C 51.944 133.416,52.079 133.205,51.980 133.210 C 51.881 133.216,40.145 144.889,25.900 159.150 M380.100 164.240 C 362.299 182.116,360.602 183.983,361.600 184.600 C 361.820 184.736,362.000 185.409,362.000 186.096 C 362.000 187.245,363.519 185.824,381.000 168.324 L 400.000 149.302 400.000 147.251 C 400.000 145.860,399.839 145.210,399.500 145.231 C 399.225 145.248,390.495 153.802,380.100 164.240 M21.100 179.554 L 0.000 200.676 0.000 202.738 C 0.000 203.872,0.183 204.800,0.407 204.800 C 0.630 204.800,9.896 195.710,20.998 184.600 C 32.100 173.490,41.330 164.400,41.510 164.400 C 41.689 164.400,41.882 163.725,41.937 162.901 C 41.993 162.076,42.210 161.230,42.419 161.021 C 42.868 160.572,42.936 158.393,42.500 158.416 C 42.335 158.425,32.705 167.937,21.100 179.554 M380.500 179.455 L 362.000 198.037 362.000 200.492 L 362.000 202.947 381.000 183.932 L 400.000 164.917 400.000 162.859 C 400.000 161.459,399.840 160.812,399.500 160.837 C 399.225 160.857,390.675 169.235,380.500 179.455 M380.600 194.970 C 370.480 205.138,362.138 213.804,362.061 214.228 C 361.985 214.653,361.760 215.171,361.561 215.380 C 361.363 215.589,361.200 216.569,361.200 217.558 L 361.200 219.355 380.592 199.978 L 399.985 180.600 399.992 178.500 C 399.998 177.061,399.843 176.413,399.500 176.442 C 399.225 176.465,390.720 184.803,380.600 194.970 M19.479 196.793 L -0.041 216.361 0.079 218.681 L 0.200 221.000 19.500 201.715 L 38.800 182.429 38.800 180.295 C 38.800 179.121,39.016 177.944,39.280 177.680 C 39.544 177.416,39.589 177.206,39.380 177.213 C 39.171 177.220,30.216 186.031,19.479 196.793 M379.000 212.202 C 360.901 230.398,358.977 232.457,358.760 233.855 C 358.628 234.705,358.384 235.895,358.217 236.500 C 357.670 238.482,358.397 237.806,379.301 216.899 L 400.000 196.197 400.000 194.099 C 400.000 192.661,399.842 192.015,399.500 192.047 C 399.225 192.072,390.000 201.142,379.000 212.202 M18.700 213.188 L 0.000 231.946 0.000 234.173 C 0.000 235.398,0.102 236.400,0.226 236.400 C 0.351 236.400,8.901 227.949,19.226 217.620 L 38.000 198.840 38.000 196.620 C 38.000 195.399,37.865 194.407,37.700 194.415 C 37.535 194.424,28.985 202.872,18.700 213.188 M146.851 202.965 C 149.932 204.256,150.800 206.104,150.800 211.374 L 150.800 215.600 146.700 215.599 C 142.333 215.597,140.819 215.089,139.167 213.069 C 135.027 208.005,140.791 200.426,146.851 202.965 M187.304 203.204 C 192.015 205.436,192.292 212.137,187.778 214.693 C 186.432 215.456,185.598 215.588,182.100 215.593 L 178.000 215.600 178.000 211.392 C 178.000 204.096,181.916 200.650,187.304 203.204 M377.124 229.800 C 364.904 242.010,354.691 252.000,354.429 252.000 C 354.167 252.000,354.064 252.180,354.200 252.400 C 354.336 252.620,354.302 252.801,354.124 252.803 C 353.699 252.807,352.800 254.761,352.800 255.680 C 352.800 256.076,352.620 256.400,352.400 256.400 C 352.180 256.400,352.000 256.839,352.000 257.376 C 352.000 257.913,351.820 258.464,351.600 258.600 C 351.380 258.736,351.200 259.241,351.200 259.722 C 351.200 260.366,357.669 254.129,375.600 236.200 L 400.000 211.802 400.000 209.701 C 400.000 208.546,399.852 207.600,399.671 207.600 C 399.490 207.600,389.344 217.590,377.124 229.800 M18.700 228.803 L 0.000 247.564 0.000 249.782 C 0.000 251.002,0.104 252.000,0.232 252.000 C 0.359 252.000,8.909 243.554,19.232 233.232 L 38.000 214.463 38.000 212.232 C 38.000 211.004,37.865 210.009,37.700 210.021 C 37.535 210.032,28.985 218.484,18.700 228.803 M369.881 252.700 C 353.664 268.925,339.973 282.830,339.457 283.600 C 338.941 284.370,337.817 286.123,336.960 287.497 C 336.102 288.870,335.265 289.995,335.100 289.997 C 334.935 289.998,334.800 290.225,334.799 290.500 C 334.799 290.775,334.259 291.630,333.600 292.400 C 332.941 293.170,332.401 293.959,332.401 294.153 C 332.400 294.347,332.011 294.843,331.536 295.256 C 331.061 295.668,330.756 296.089,330.859 296.192 C 330.962 296.295,346.516 280.914,365.423 262.013 L 399.800 227.646 399.920 225.423 C 399.986 224.200,399.888 223.200,399.703 223.200 C 399.518 223.200,386.098 236.475,369.881 252.700 M19.500 243.615 L 0.000 263.181 0.000 265.390 C 0.000 266.606,0.105 267.600,0.234 267.600 C 0.363 267.600,9.341 258.734,20.185 247.897 L 39.901 228.195 39.700 226.097 C 39.589 224.944,39.386 224.011,39.249 224.024 C 39.112 224.038,30.225 232.853,19.500 243.615 M168.167 225.043 C 168.815 225.291,169.184 259.333,168.557 260.967 C 168.358 261.485,167.597 261.600,164.357 261.600 L 160.400 261.600 160.400 243.467 C 160.400 233.493,160.520 225.213,160.667 225.067 C 161.000 224.733,167.308 224.713,168.167 225.043 M20.700 258.025 L 0.000 278.790 0.000 280.995 C 0.000 282.208,0.113 283.200,0.252 283.200 C 0.747 283.200,42.800 240.866,42.800 240.367 C 42.800 239.637,41.881 237.194,41.620 237.230 C 41.499 237.246,32.085 246.604,20.700 258.025 M319.100 319.100 C 274.935 363.266,238.800 399.536,238.800 399.700 C 238.800 399.865,239.766 400.000,240.947 400.000 L 243.094 400.000 321.547 321.547 L 400.000 243.094 400.000 240.947 C 400.000 239.766,399.865 238.800,399.700 238.800 C 399.534 238.800,363.264 274.935,319.100 319.100 M22.300 272.040 L 0.000 294.409 0.000 296.604 C 0.000 297.812,0.117 298.800,0.260 298.800 C 0.403 298.800,10.833 288.481,23.437 275.869 L 46.353 252.938 45.819 251.383 C 45.525 250.528,45.130 249.793,44.942 249.749 C 44.754 249.706,34.565 259.737,22.300 272.040 M326.900 326.900 C 287.025 366.776,254.400 399.536,254.400 399.700 C 254.400 399.865,255.373 400.000,256.562 400.000 L 258.725 400.000 329.362 329.362 L 400.000 258.725 400.000 256.562 C 400.000 255.373,399.865 254.400,399.700 254.400 C 399.534 254.400,366.774 287.025,326.900 326.900 M48.800 260.795 C 48.800 261.038,37.820 272.211,24.400 285.623 L 0.000 310.008 0.000 312.204 C 0.000 313.412,0.117 314.400,0.260 314.400 C 0.403 314.400,11.743 303.180,25.460 289.466 C 49.735 265.196,51.346 263.432,50.000 262.600 C 49.780 262.464,49.600 262.014,49.600 261.600 C 49.600 261.186,49.420 260.736,49.200 260.600 C 48.980 260.464,48.800 260.552,48.800 260.795 M334.700 334.738 C 299.115 370.334,270.000 399.580,270.000 399.729 C 270.000 399.878,270.980 400.000,272.178 400.000 L 274.355 400.000 337.178 337.178 L 400.000 274.355 400.000 272.178 C 400.000 270.980,399.865 270.004,399.700 270.009 C 399.535 270.014,370.285 299.142,334.700 334.738 M207.753 272.151 C 213.684 275.627,212.585 285.209,206.082 286.724 C 204.308 287.137,125.244 287.400,123.126 286.999 C 116.026 285.657,115.028 274.953,121.704 271.756 L 123.800 270.752 164.864 270.917 L 205.928 271.082 207.753 272.151 M27.000 298.558 L 0.200 325.435 0.080 327.718 C 0.014 328.973,0.087 330.000,0.243 330.000 C 0.398 330.000,12.910 317.626,28.046 302.502 C 56.628 273.943,56.848 273.699,54.738 272.867 C 54.552 272.793,54.400 272.478,54.400 272.167 C 54.400 271.105,53.779 271.703,27.000 298.558 M29.629 311.638 L 0.000 341.276 0.000 343.438 C 0.000 344.627,0.135 345.600,0.301 345.600 C 0.467 345.600,14.249 331.952,30.929 315.271 L 61.255 284.943 60.554 283.471 C 60.168 282.662,59.718 282.000,59.555 282.000 C 59.392 282.000,45.925 295.337,29.629 311.638 M342.500 342.550 C 311.205 373.859,285.600 399.593,285.600 399.738 C 285.600 399.882,286.586 400.000,287.790 400.000 L 289.980 400.000 344.990 344.990 L 400.000 289.980 400.000 287.790 C 400.000 286.586,399.865 285.606,399.700 285.612 C 399.535 285.619,373.795 311.241,342.500 342.550 M32.669 324.240 L -0.000 356.880 -0.000 359.040 C -0.000 360.228,0.135 361.200,0.299 361.200 C 1.450 361.200,67.516 294.191,67.111 293.435 C 66.665 292.599,65.785 291.600,65.497 291.600 C 65.409 291.600,50.636 306.288,32.669 324.240 M195.200 300.974 C 195.200 322.670,175.070 337.480,154.530 330.895 C 152.136 330.127,147.379 327.692,146.320 326.692 C 146.033 326.421,144.948 325.516,143.907 324.679 C 137.605 319.614,133.644 310.617,133.614 301.300 L 133.600 296.800 164.400 296.800 L 195.200 296.800 195.200 300.974 M36.163 336.398 L 0.200 372.360 0.079 374.620 C -0.002 376.134,0.103 376.832,0.398 376.734 C 0.640 376.653,17.255 360.187,37.319 340.143 C 57.384 320.098,74.032 303.629,74.315 303.544 C 74.653 303.443,74.363 302.880,73.478 301.913 L 72.126 300.437 36.163 336.398 M350.300 350.359 C 323.295 377.380,301.200 399.604,301.200 399.744 C 301.200 399.885,302.189 400.000,303.398 400.000 L 305.597 400.000 352.798 352.798 L 400.000 305.597 400.000 303.398 C 400.000 302.189,399.865 301.207,399.700 301.215 C 399.535 301.223,377.305 323.337,350.300 350.359 M39.499 348.701 L -0.000 388.202 -0.000 390.301 C -0.000 391.455,0.149 392.400,0.332 392.400 C 0.639 392.400,81.600 311.680,81.600 311.374 C 81.600 311.111,79.562 309.200,79.281 309.200 C 79.126 309.200,61.224 326.975,39.499 348.701 M45.696 358.104 C 22.983 380.818,4.400 399.536,4.400 399.701 C 4.400 399.865,5.373 400.000,6.562 400.000 L 8.724 400.000 46.262 362.440 C 66.908 341.781,85.056 323.601,86.591 322.038 L 89.382 319.197 88.187 318.002 L 86.992 316.807 45.696 358.104 M358.100 358.171 C 335.385 380.906,316.800 399.618,316.800 399.753 C 316.800 399.889,317.793 400.000,319.008 400.000 L 321.215 400.000 360.608 360.608 L 400.000 321.215 400.000 319.008 C 400.000 317.793,399.865 316.808,399.700 316.818 C 399.535 316.827,380.815 335.436,358.100 358.171 M57.545 361.900 C 36.904 382.525,20.013 399.535,20.008 399.700 C 20.004 399.865,20.980 400.000,22.178 400.000 L 24.357 400.000 61.182 363.175 C 99.060 325.296,99.149 325.200,96.429 325.200 C 96.193 325.200,96.000 325.020,96.000 324.800 C 96.000 323.611,92.029 327.442,57.545 361.900 M103.600 331.126 C 103.600 331.309,88.300 346.764,69.600 365.471 C 50.900 384.178,35.600 399.600,35.600 399.742 C 35.600 399.884,36.587 400.000,37.793 400.000 L 39.986 400.000 73.193 366.785 C 104.158 335.813,107.394 332.400,105.800 332.400 C 105.470 332.400,105.200 332.263,105.200 332.096 C 105.200 331.929,104.840 331.568,104.400 331.293 C 103.960 331.018,103.600 330.943,103.600 331.126 M295.200 331.600 C 294.883 332.040,294.427 332.400,294.187 332.400 C 293.947 332.400,293.355 332.768,292.872 333.219 C 292.389 333.669,289.790 335.467,287.097 337.214 C 282.296 340.329,281.621 340.970,252.700 369.879 C 236.475 386.097,223.200 399.518,223.200 399.703 C 223.200 399.888,224.200 399.986,225.423 399.920 L 227.646 399.800 262.023 365.413 C 280.930 346.500,296.400 330.975,296.400 330.913 C 296.400 330.518,295.685 330.927,295.200 331.600 M365.900 365.983 C 347.475 384.431,332.400 399.631,332.400 399.762 C 332.400 399.893,333.397 400.000,334.616 400.000 L 336.833 400.000 368.416 368.416 L 400.000 336.833 400.000 334.616 C 400.000 333.397,399.865 332.409,399.700 332.421 C 399.535 332.432,384.325 347.535,365.900 365.983 M112.800 337.543 C 112.800 337.745,98.940 351.763,82.000 368.694 C 65.060 385.625,51.200 399.595,51.200 399.739 C 51.200 399.882,52.188 400.000,53.395 400.000 L 55.590 400.000 85.795 369.803 C 102.408 353.195,115.999 339.470,115.997 339.303 C 115.995 339.137,115.275 338.590,114.397 338.088 C 113.519 337.586,112.800 337.341,112.800 337.543 M94.989 371.317 C 79.485 386.822,66.800 399.618,66.800 399.754 C 66.800 399.889,67.792 400.000,69.005 400.000 L 71.211 400.000 98.599 372.617 C 125.651 345.571,126.652 344.474,124.872 343.839 C 124.503 343.707,123.970 343.493,123.689 343.363 C 123.373 343.216,112.382 353.922,94.989 371.317 M133.200 348.281 C 133.200 348.523,121.770 360.152,107.800 374.123 C 93.830 388.094,82.400 399.632,82.400 399.763 C 82.400 399.893,83.394 400.000,84.608 400.000 L 86.816 400.000 111.808 375.032 C 137.162 349.703,137.260 349.600,136.200 349.600 C 135.870 349.600,135.600 349.420,135.600 349.200 C 135.600 348.980,135.276 348.800,134.880 348.800 C 134.484 348.800,133.944 348.584,133.680 348.320 C 133.354 347.994,133.200 347.982,133.200 348.281 M373.700 373.793 C 359.565 387.954,348.000 399.644,348.000 399.770 C 348.000 399.897,349.001 400.000,350.224 400.000 L 352.449 400.000 376.224 376.224 L 400.000 352.449 400.000 350.224 C 400.000 349.001,399.865 348.010,399.700 348.023 C 399.535 348.036,387.835 359.632,373.700 373.793 M260.400 350.785 C 260.070 350.945,259.397 351.284,258.905 351.538 C 258.413 351.792,257.648 352.000,257.205 352.000 C 256.762 352.000,256.400 352.180,256.400 352.400 C 256.400 352.620,256.038 352.800,255.595 352.800 C 255.152 352.800,254.414 353.025,253.956 353.300 C 252.850 353.965,207.600 399.252,207.600 399.695 C 207.600 399.885,208.589 399.986,209.799 399.920 L 211.998 399.800 236.586 375.220 C 250.110 361.702,261.135 350.608,261.087 350.567 C 261.039 350.527,260.730 350.625,260.400 350.785 M121.300 376.190 C 108.485 389.022,98.000 399.629,98.000 399.761 C 98.000 399.892,99.002 400.000,100.228 400.000 L 102.455 400.000 125.228 377.218 C 148.207 354.229,148.787 353.600,147.024 353.600 C 146.487 353.600,145.936 353.420,145.800 353.200 C 145.248 352.306,143.704 353.755,121.300 376.190 M134.900 378.173 C 123.185 389.927,113.600 399.646,113.600 399.771 C 113.600 399.897,114.607 400.000,115.838 400.000 L 118.075 400.000 139.244 378.827 C 150.887 367.183,160.245 357.551,160.039 357.424 C 159.834 357.298,158.886 357.106,157.933 356.999 L 156.200 356.804 134.900 378.173 M236.000 358.400 C 235.450 358.576,234.440 358.738,233.757 358.760 C 232.563 358.798,192.000 398.509,192.000 399.640 C 192.000 399.838,192.946 400.000,194.101 400.000 L 196.203 400.000 216.901 379.299 C 228.286 367.913,237.600 358.463,237.600 358.299 C 237.600 357.950,237.357 357.965,236.000 358.400 M149.088 379.700 L 129.000 399.800 131.320 399.921 L 133.640 400.041 153.268 380.434 C 173.817 359.906,174.075 359.600,170.800 359.600 C 169.188 359.600,169.014 359.761,149.088 379.700 M164.210 380.193 C 153.754 390.638,145.200 399.368,145.200 399.593 C 145.200 399.817,146.123 400.000,147.251 400.000 L 149.302 400.000 168.324 381.000 C 185.824 363.519,187.245 362.000,186.096 362.000 C 185.409 362.000,184.736 361.820,184.600 361.600 C 183.982 360.601,182.110 362.308,164.210 380.193 M215.400 361.600 C 215.264 361.820,214.816 362.000,214.404 362.000 C 213.653 362.000,176.400 398.881,176.400 399.625 C 176.400 399.831,177.345 399.997,178.500 399.992 L 180.600 399.985 199.978 380.592 L 219.355 361.200 217.501 361.200 C 216.482 361.200,215.536 361.380,215.400 361.600 M179.418 380.609 C 169.178 390.845,160.800 399.395,160.800 399.609 C 160.800 399.824,161.726 400.000,162.859 400.000 L 164.917 400.000 183.932 381.000 L 202.947 362.000 200.492 362.000 L 198.037 362.000 179.418 380.609 M381.500 381.601 C 371.655 391.474,363.600 399.653,363.600 399.776 C 363.600 399.899,364.606 400.000,365.835 400.000 L 368.070 400.000 384.035 384.035 L 400.000 368.070 400.000 365.835 C 400.000 364.606,399.865 363.611,399.700 363.625 C 399.535 363.639,391.345 371.728,381.500 381.601 M389.400 389.400 L 379.000 399.800 381.325 399.921 L 383.650 400.041 391.846 391.846 L 400.041 383.650 399.921 381.325 L 399.800 379.000 389.400 389.400 M397.100 397.209 C 394.621 399.762,394.666 400.068,397.500 399.920 L 399.800 399.800 399.920 397.500 C 400.070 394.621,399.654 394.578,397.100 397.209 " stroke="none" fill="#4e4574" fill-rule="evenodd"></path><path id="path2" d="M152.600 86.448 C 151.720 86.649,150.100 87.000,149.000 87.227 C 144.533 88.148,140.154 89.387,137.800 90.395 C 137.360 90.584,136.190 91.067,135.200 91.469 C 117.065 98.835,101.338 114.941,93.867 133.800 C 88.152 148.227,87.073 167.333,91.202 181.000 C 96.226 197.631,104.576 210.474,116.600 220.065 C 130.528 231.175,133.182 236.268,133.498 252.500 L 133.668 261.200 142.234 261.200 L 150.800 261.200 150.800 243.200 L 150.800 225.200 146.700 225.195 C 136.118 225.183,129.237 219.627,128.540 210.531 C 127.350 195.016,145.678 187.001,156.334 198.376 C 159.272 201.513,160.390 205.014,160.396 211.100 L 160.400 215.600 164.343 215.600 L 168.287 215.600 168.495 210.300 C 168.755 203.712,169.612 201.505,173.353 197.791 C 186.255 184.981,207.147 200.427,198.686 216.521 C 195.615 222.363,190.217 225.186,182.096 225.195 L 177.992 225.200 178.096 243.100 L 178.200 261.000 186.700 261.108 L 195.200 261.216 195.200 253.638 C 195.200 239.147,198.614 231.036,207.800 223.708 C 217.711 215.801,222.269 211.067,227.350 203.400 C 234.785 192.182,239.418 178.736,239.696 167.569 L 239.800 163.400 231.000 163.406 L 222.200 163.413 222.184 167.214 C 222.085 190.300,187.810 190.680,187.403 167.600 L 187.328 163.400 174.964 163.200 C 158.248 162.930,159.871 164.535,159.600 148.000 L 159.400 135.800 158.248 135.935 C 157.614 136.010,155.904 135.854,154.448 135.589 C 133.856 131.841,135.336 102.498,156.200 100.852 L 159.400 100.600 159.509 93.300 L 159.618 86.000 156.909 86.041 C 155.419 86.064,153.480 86.247,152.600 86.448 M142.600 202.874 C 138.154 204.505,136.616 209.569,139.489 213.119 C 141.016 215.006,142.654 215.533,147.100 215.570 L 150.800 215.600 150.800 211.535 C 150.800 204.876,147.279 201.157,142.600 202.874 M182.447 202.936 C 179.127 204.173,177.896 206.760,178.084 212.103 L 178.200 215.400 181.600 215.524 C 185.711 215.674,187.639 215.117,189.215 213.322 C 193.459 208.488,188.396 200.718,182.447 202.936 M160.400 243.200 L 160.400 261.200 164.400 261.200 L 168.400 261.200 168.400 243.200 L 168.400 225.200 164.400 225.200 L 160.400 225.200 160.400 243.200 M121.400 272.115 C 115.763 275.294,115.894 283.249,121.632 286.216 C 122.692 286.765,127.633 286.835,164.495 286.826 L 206.160 286.816 207.949 285.708 C 212.220 283.064,212.832 276.703,209.139 273.347 C 206.638 271.074,209.267 271.199,164.320 271.207 L 123.000 271.213 121.400 272.115 M133.867 297.067 C 132.959 297.975,133.950 307.468,135.398 311.734 C 144.144 337.494,181.085 339.201,192.309 314.364 C 194.253 310.063,195.200 305.560,195.200 300.623 L 195.200 296.800 164.667 296.800 C 147.873 296.800,134.013 296.920,133.867 297.067 " stroke="none" fill="#d3e5f8" fill-rule="evenodd"></path><path id="path3" d="M230.524 66.600 C 230.526 67.920,230.601 68.412,230.690 67.693 C 230.779 66.974,230.777 65.894,230.686 65.293 C 230.595 64.692,230.522 65.280,230.524 66.600 M160.512 75.895 C 161.564 75.977,163.184 75.976,164.112 75.892 C 165.040 75.808,164.180 75.741,162.200 75.742 C 160.220 75.743,159.460 75.812,160.512 75.895 M240.800 84.351 C 240.800 90.992,240.415 92.565,238.447 93.967 C 236.971 95.018,234.318 95.069,232.862 94.075 C 225.116 88.787,216.408 99.175,223.013 105.824 C 225.873 108.702,229.074 109.005,233.047 106.773 C 235.737 105.263,238.623 106.101,239.996 108.792 C 240.751 110.272,240.800 111.137,240.800 122.984 L 240.800 135.600 253.900 135.623 C 262.968 135.638,267.419 135.792,268.363 136.123 C 271.588 137.253,272.419 141.133,270.137 144.417 C 266.926 149.041,267.997 154.365,272.554 156.435 C 280.259 159.934,286.708 151.589,281.806 144.463 C 277.612 138.367,280.790 135.600,291.987 135.600 L 299.200 135.600 299.200 134.300 C 299.200 132.688,298.274 127.785,297.240 123.917 C 292.209 105.108,278.531 90.769,258.400 83.202 C 256.530 82.499,254.640 81.781,254.200 81.607 C 253.760 81.434,252.590 81.078,251.600 80.818 C 250.610 80.559,249.260 80.189,248.600 79.997 C 247.440 79.660,241.458 78.400,241.017 78.400 C 240.898 78.400,240.800 81.078,240.800 84.351 M169.381 94.200 C 169.380 102.120,169.434 105.417,169.499 101.526 C 169.565 97.635,169.565 91.155,169.500 87.126 C 169.434 83.097,169.381 86.280,169.381 94.200 M230.501 81.400 C 230.505 82.280,230.587 82.593,230.683 82.095 C 230.779 81.598,230.775 80.878,230.675 80.495 C 230.575 80.113,230.496 80.520,230.501 81.400 M296.600 83.600 C 297.906 84.920,299.065 86.000,299.175 86.000 C 299.285 86.000,298.306 84.920,297.000 83.600 C 295.694 82.280,294.535 81.200,294.425 81.200 C 294.315 81.200,295.294 82.280,296.600 83.600 M157.300 85.876 C 157.685 85.976,158.315 85.976,158.700 85.876 C 159.085 85.775,158.770 85.693,158.000 85.693 C 157.230 85.693,156.915 85.775,157.300 85.876 M159.597 96.882 C 159.489 99.017,159.542 100.620,159.716 100.445 C 159.891 100.270,159.979 98.523,159.914 96.564 L 159.794 93.000 159.597 96.882 M144.778 105.900 L 143.400 107.400 144.900 106.022 C 145.725 105.263,146.400 104.588,146.400 104.522 C 146.400 104.216,146.062 104.504,144.778 105.900 M163.700 112.676 C 164.085 112.776,164.715 112.776,165.100 112.676 C 165.485 112.575,165.170 112.493,164.400 112.493 C 163.630 112.493,163.315 112.575,163.700 112.676 M139.731 118.200 C 139.733 119.740,139.805 120.321,139.892 119.491 C 139.979 118.661,139.977 117.401,139.889 116.691 C 139.800 115.981,139.729 116.660,139.731 118.200 M149.309 118.400 C 149.309 119.390,149.387 119.795,149.482 119.300 C 149.578 118.805,149.578 117.995,149.482 117.500 C 149.387 117.005,149.309 117.410,149.309 118.400 M230.524 129.000 C 230.526 130.320,230.601 130.812,230.690 130.093 C 230.779 129.374,230.777 128.294,230.686 127.693 C 230.595 127.092,230.522 127.680,230.524 129.000 M169.379 140.800 C 169.379 147.950,169.433 150.875,169.499 147.300 C 169.566 143.725,169.566 137.875,169.499 134.300 C 169.433 130.725,169.379 133.650,169.379 140.800 M156.300 135.882 C 156.795 135.978,157.605 135.978,158.100 135.882 C 158.595 135.787,158.190 135.709,157.200 135.709 C 156.210 135.709,155.805 135.787,156.300 135.882 M320.901 137.400 C 320.905 138.280,320.987 138.593,321.083 138.095 C 321.179 137.598,321.175 136.878,321.075 136.495 C 320.975 136.113,320.896 136.520,320.901 137.400 M159.753 145.000 C 159.753 147.640,159.818 148.668,159.897 147.284 C 159.975 145.901,159.974 143.741,159.895 142.484 C 159.816 141.228,159.752 142.360,159.753 145.000 M170.705 153.883 C 171.202 153.979,171.922 153.975,172.305 153.875 C 172.687 153.775,172.280 153.696,171.400 153.701 C 170.520 153.705,170.207 153.787,170.705 153.883 M179.119 153.898 C 180.944 153.972,183.824 153.972,185.519 153.897 C 187.214 153.822,185.720 153.761,182.200 153.762 C 178.680 153.762,177.294 153.824,179.119 153.898 M192.691 153.889 C 193.401 153.977,194.661 153.979,195.491 153.892 C 196.321 153.805,195.740 153.733,194.200 153.731 C 192.660 153.729,191.981 153.800,192.691 153.889 M214.512 153.895 C 215.564 153.977,217.184 153.976,218.112 153.892 C 219.040 153.808,218.180 153.741,216.200 153.742 C 214.220 153.743,213.460 153.812,214.512 153.895 M225.919 153.898 C 227.744 153.972,230.624 153.972,232.319 153.897 C 234.014 153.822,232.520 153.761,229.000 153.762 C 225.480 153.762,224.094 153.824,225.919 153.898 M240.300 153.895 C 241.455 153.976,243.345 153.976,244.500 153.895 C 245.655 153.814,244.710 153.748,242.400 153.748 C 240.090 153.748,239.145 153.814,240.300 153.895 M78.901 156.200 C 78.905 157.080,78.987 157.393,79.083 156.895 C 79.179 156.398,79.175 155.678,79.075 155.295 C 78.975 154.913,78.896 155.320,78.901 156.200 M88.501 157.400 C 88.505 158.280,88.587 158.593,88.683 158.095 C 88.779 157.598,88.775 156.878,88.675 156.495 C 88.575 156.113,88.496 156.520,88.501 157.400 M159.714 157.800 C 159.717 158.900,159.795 159.303,159.887 158.695 C 159.979 158.086,159.977 157.186,159.882 156.695 C 159.787 156.203,159.711 156.700,159.714 157.800 M88.520 164.800 C 88.520 166.010,88.595 166.505,88.687 165.900 C 88.778 165.295,88.778 164.305,88.687 163.700 C 88.595 163.095,88.520 163.590,88.520 164.800 M226.100 163.487 C 226.705 163.578,227.695 163.578,228.300 163.487 C 228.905 163.395,228.410 163.320,227.200 163.320 C 225.990 163.320,225.495 163.395,226.100 163.487 M78.920 166.000 C 78.920 167.210,78.995 167.705,79.087 167.100 C 79.178 166.495,79.178 165.505,79.087 164.900 C 78.995 164.295,78.920 164.790,78.920 166.000 M187.324 167.400 C 187.326 168.720,187.401 169.212,187.490 168.493 C 187.579 167.774,187.577 166.694,187.486 166.093 C 187.395 165.492,187.322 166.080,187.324 167.400 M196.914 167.400 C 196.917 168.500,196.995 168.903,197.087 168.295 C 197.179 167.686,197.177 166.786,197.082 166.295 C 196.987 165.803,196.911 166.300,196.914 167.400 M249.293 171.200 C 249.293 171.970,249.375 172.285,249.476 171.900 C 249.576 171.515,249.576 170.885,249.476 170.500 C 249.375 170.115,249.293 170.430,249.293 171.200 M216.575 180.100 L 215.400 181.400 216.700 180.225 C 217.415 179.579,218.000 178.994,218.000 178.925 C 218.000 178.616,217.670 178.888,216.575 180.100 M204.100 185.076 C 204.485 185.176,205.115 185.176,205.500 185.076 C 205.885 184.975,205.570 184.893,204.800 184.893 C 204.030 184.893,203.715 184.975,204.100 185.076 M143.700 193.076 C 144.085 193.176,144.715 193.176,145.100 193.076 C 145.485 192.975,145.170 192.893,144.400 192.893 C 143.630 192.893,143.315 192.975,143.700 193.076 M183.505 193.083 C 184.002 193.179,184.722 193.175,185.105 193.075 C 185.487 192.975,185.080 192.896,184.200 192.901 C 183.320 192.905,183.007 192.987,183.505 193.083 M195.200 197.400 C 195.946 198.170,196.647 198.800,196.757 198.800 C 196.867 198.800,196.346 198.170,195.600 197.400 C 194.854 196.630,194.153 196.000,194.043 196.000 C 193.933 196.000,194.454 196.630,195.200 197.400 M168.548 211.200 C 168.548 213.510,168.614 214.455,168.695 213.300 C 168.776 212.145,168.776 210.255,168.695 209.100 C 168.614 207.945,168.548 208.890,168.548 211.200 M133.200 220.600 C 133.946 221.370,134.647 222.000,134.757 222.000 C 134.867 222.000,134.346 221.370,133.600 220.600 C 132.854 219.830,132.153 219.200,132.043 219.200 C 131.933 219.200,132.454 219.830,133.200 220.600 M123.983 226.500 C 125.641 228.266,126.000 228.584,126.000 228.283 C 126.000 228.219,125.145 227.364,124.100 226.383 L 122.200 224.600 123.983 226.500 M144.115 225.096 C 145.388 225.176,147.368 225.175,148.515 225.094 C 149.662 225.014,148.620 224.949,146.200 224.950 C 143.780 224.951,142.842 225.016,144.115 225.096 M162.500 225.094 C 163.545 225.176,165.255 225.176,166.300 225.094 C 167.345 225.012,166.490 224.944,164.400 224.944 C 162.310 224.944,161.455 225.012,162.500 225.094 M179.911 225.093 C 180.851 225.178,182.291 225.177,183.111 225.091 C 183.930 225.005,183.160 224.936,181.400 224.937 C 179.640 224.939,178.970 225.009,179.911 225.093 M168.584 243.000 C 168.584 252.900,168.636 256.893,168.700 251.873 C 168.763 246.853,168.763 238.753,168.700 233.873 C 168.636 228.993,168.584 233.100,168.584 243.000 M117.200 233.400 C 117.946 234.170,118.647 234.800,118.757 234.800 C 118.867 234.800,118.346 234.170,117.600 233.400 C 116.854 232.630,116.153 232.000,116.043 232.000 C 115.933 232.000,116.454 232.630,117.200 233.400 M211.375 233.300 L 210.200 234.600 211.500 233.425 C 212.215 232.779,212.800 232.194,212.800 232.125 C 212.800 231.816,212.470 232.088,211.375 233.300 M178.355 261.316 C 178.530 261.491,180.277 261.579,182.236 261.514 L 185.800 261.394 181.918 261.197 C 179.783 261.089,178.180 261.142,178.355 261.316 M137.678 261.498 C 140.031 261.569,143.991 261.569,146.478 261.499 C 148.965 261.429,147.040 261.371,142.200 261.370 C 137.360 261.370,135.325 261.428,137.678 261.498 M162.300 261.495 C 163.455 261.576,165.345 261.576,166.500 261.495 C 167.655 261.414,166.710 261.348,164.400 261.348 C 162.090 261.348,161.145 261.414,162.300 261.495 M215.200 265.725 C 215.200 265.794,215.785 266.379,216.500 267.025 L 217.800 268.200 216.625 266.900 C 215.530 265.688,215.200 265.416,215.200 265.725 M138.900 271.100 C 147.425 271.160,161.375 271.160,169.900 271.100 C 178.425 271.040,171.450 270.990,154.400 270.990 C 137.350 270.990,130.375 271.040,138.900 271.100 M202.100 271.076 C 202.485 271.176,203.115 271.176,203.500 271.076 C 203.885 270.975,203.570 270.893,202.800 270.893 C 202.030 270.893,201.715 270.975,202.100 271.076 M141.700 287.100 C 149.785 287.160,163.015 287.160,171.100 287.100 C 179.185 287.039,172.570 286.990,156.400 286.990 C 140.230 286.990,133.615 287.039,141.700 287.100 M124.093 305.600 C 124.093 306.370,124.175 306.685,124.276 306.300 C 124.376 305.915,124.376 305.285,124.276 304.900 C 124.175 304.515,124.093 304.830,124.093 305.600 M142.200 323.200 C 143.059 324.080,143.852 324.800,143.962 324.800 C 144.072 324.800,143.459 324.080,142.600 323.200 C 141.741 322.320,140.948 321.600,140.838 321.600 C 140.728 321.600,141.341 322.320,142.200 323.200 M185.978 323.500 L 184.600 325.000 186.100 323.622 C 187.496 322.338,187.784 322.000,187.478 322.000 C 187.412 322.000,186.737 322.675,185.978 323.500 M160.900 332.276 C 161.285 332.376,161.915 332.376,162.300 332.276 C 162.685 332.175,162.370 332.093,161.600 332.093 C 160.830 332.093,160.515 332.175,160.900 332.276 M160.900 341.876 C 161.285 341.976,161.915 341.976,162.300 341.876 C 162.685 341.775,162.370 341.693,161.600 341.693 C 160.830 341.693,160.515 341.775,160.900 341.876 M166.500 341.876 C 166.885 341.976,167.515 341.976,167.900 341.876 C 168.285 341.775,167.970 341.693,167.200 341.693 C 166.430 341.693,166.115 341.775,166.500 341.876 " stroke="none" fill="#f49199" fill-rule="evenodd"></path><path id="path4" d="M236.100 58.287 C 236.705 58.378,237.695 58.378,238.300 58.287 C 238.905 58.195,238.410 58.120,237.200 58.120 C 235.990 58.120,235.495 58.195,236.100 58.287 M243.100 58.682 C 243.595 58.778,244.405 58.778,244.900 58.682 C 245.395 58.587,244.990 58.509,244.000 58.509 C 243.010 58.509,242.605 58.587,243.100 58.682 M232.001 59.798 C 231.486 60.348,231.139 60.864,231.232 60.946 C 231.324 61.028,231.819 60.578,232.330 59.947 C 233.476 58.535,233.274 58.444,232.001 59.798 M230.974 72.600 C 230.975 78.320,231.031 80.604,231.099 77.676 C 231.168 74.748,231.167 70.068,231.099 67.276 C 231.030 64.484,230.974 66.880,230.974 72.600 M240.395 78.900 C 240.392 84.895,240.286 90.250,240.160 90.800 C 239.980 91.584,240.023 91.671,240.359 91.200 C 240.618 90.837,240.790 88.188,240.794 84.500 C 240.797 81.145,240.898 78.400,241.017 78.400 C 241.458 78.400,247.440 79.660,248.600 79.997 C 249.260 80.189,250.610 80.559,251.600 80.818 C 252.590 81.078,253.760 81.434,254.200 81.607 C 254.640 81.781,256.530 82.499,258.400 83.202 C 278.531 90.769,292.209 105.108,297.240 123.917 C 298.274 127.785,299.200 132.688,299.200 134.300 L 299.200 135.600 291.987 135.600 C 284.436 135.600,282.814 135.887,281.607 137.438 C 281.044 138.161,281.055 138.168,281.807 137.577 C 283.701 136.090,284.615 136.000,297.795 136.000 C 304.922 136.000,310.848 135.845,310.965 135.656 C 312.562 133.073,305.289 110.705,300.804 104.406 C 300.362 103.785,300.000 103.167,300.000 103.032 C 300.000 102.013,292.733 93.046,288.826 89.245 C 276.318 77.074,256.374 68.000,242.135 68.000 L 240.400 68.000 240.395 78.900 M158.705 76.283 C 159.202 76.379,159.922 76.375,160.305 76.275 C 160.687 76.175,160.280 76.096,159.400 76.101 C 158.520 76.105,158.207 76.187,158.705 76.283 M154.100 76.676 C 154.485 76.776,155.115 76.776,155.500 76.676 C 155.885 76.575,155.570 76.493,154.800 76.493 C 154.030 76.493,153.715 76.575,154.100 76.676 M291.600 78.925 C 291.600 78.994,292.185 79.579,292.900 80.225 L 294.200 81.400 293.025 80.100 C 291.930 78.888,291.600 78.616,291.600 78.925 M87.694 82.412 C 86.975 83.065,86.537 83.600,86.719 83.600 C 86.901 83.600,87.568 83.060,88.200 82.400 C 89.670 80.865,89.386 80.872,87.694 82.412 M227.107 83.090 C 227.826 83.179,228.906 83.177,229.507 83.086 C 230.108 82.995,229.520 82.922,228.200 82.924 C 226.880 82.926,226.388 83.001,227.107 83.090 M168.959 88.800 C 168.959 91.990,169.021 93.295,169.097 91.700 C 169.173 90.105,169.173 87.495,169.097 85.900 C 169.021 84.305,168.959 85.610,168.959 88.800 M239.361 92.558 C 238.716 94.238,235.363 94.889,233.080 93.776 L 231.800 93.152 232.800 93.967 C 234.723 95.535,241.523 93.827,239.909 92.182 C 239.750 92.019,239.503 92.188,239.361 92.558 M225.800 92.800 L 225.000 93.144 225.800 93.144 C 226.240 93.144,226.960 92.989,227.400 92.800 L 228.200 92.456 227.400 92.456 C 226.960 92.456,226.240 92.611,225.800 92.800 M229.800 92.800 C 230.240 92.989,230.870 93.144,231.200 93.144 C 231.578 93.144,231.504 93.017,231.000 92.800 C 230.560 92.611,229.930 92.456,229.600 92.456 C 229.222 92.456,229.296 92.583,229.800 92.800 M223.222 94.243 C 222.540 94.817,221.794 95.672,221.564 96.143 C 221.224 96.841,221.295 96.815,221.949 96.001 C 222.391 95.452,223.258 94.598,223.876 94.103 C 224.494 93.609,224.879 93.203,224.731 93.202 C 224.583 93.201,223.904 93.669,223.222 94.243 M220.673 97.753 C 220.523 98.145,220.411 98.766,220.425 99.133 C 220.442 99.575,220.581 99.474,220.837 98.834 C 221.049 98.303,221.161 97.682,221.085 97.454 C 221.009 97.227,220.824 97.361,220.673 97.753 M210.893 98.800 C 210.893 99.570,210.975 99.885,211.076 99.500 C 211.176 99.115,211.176 98.485,211.076 98.100 C 210.975 97.715,210.893 98.030,210.893 98.800 M103.988 101.100 L 101.400 103.800 104.100 101.212 C 106.608 98.807,106.983 98.400,106.688 98.400 C 106.627 98.400,105.412 99.615,103.988 101.100 M168.955 103.800 C 168.956 106.660,169.020 107.778,169.097 106.283 C 169.174 104.789,169.174 102.449,169.096 101.083 C 169.018 99.718,168.955 100.940,168.955 103.800 M210.893 102.400 C 210.893 103.170,210.975 103.485,211.076 103.100 C 211.176 102.715,211.176 102.085,211.076 101.700 C 210.975 101.315,210.893 101.630,210.893 102.400 M220.621 102.400 C 220.939 104.762,223.818 107.738,226.200 108.168 C 227.260 108.360,227.237 108.329,226.004 107.907 C 224.093 107.253,221.487 104.538,220.909 102.600 C 220.443 101.036,220.437 101.031,220.621 102.400 M233.000 106.763 C 232.340 107.151,231.260 107.664,230.600 107.903 C 229.940 108.142,229.670 108.350,230.000 108.367 C 230.330 108.383,231.486 107.947,232.568 107.398 C 234.988 106.170,236.748 106.129,238.195 107.267 C 240.295 108.919,240.400 109.687,240.400 123.387 L 240.400 136.000 253.900 135.906 L 267.400 135.811 254.100 135.700 L 240.800 135.589 240.800 122.979 C 240.800 111.137,240.751 110.272,239.996 108.792 C 238.642 106.138,235.574 105.248,233.000 106.763 M214.800 111.725 C 214.800 111.794,215.385 112.379,216.100 113.025 L 217.400 114.200 216.225 112.900 C 215.130 111.688,214.800 111.416,214.800 111.725 M230.977 129.600 C 230.977 136.090,231.032 138.745,231.099 135.500 C 231.166 132.255,231.166 126.945,231.099 123.700 C 231.032 120.455,230.977 123.110,230.977 129.600 M163.500 124.282 C 163.995 124.378,164.805 124.378,165.300 124.282 C 165.795 124.187,165.390 124.109,164.400 124.109 C 163.410 124.109,163.005 124.187,163.500 124.282 M318.856 125.200 C 318.856 125.530,319.011 126.160,319.200 126.600 C 319.417 127.104,319.544 127.178,319.544 126.800 C 319.544 126.470,319.389 125.840,319.200 125.400 C 318.983 124.896,318.856 124.822,318.856 125.200 M168.959 135.600 C 168.959 138.790,169.021 140.095,169.097 138.500 C 169.173 136.905,169.173 134.295,169.097 132.700 C 169.021 131.105,168.959 132.410,168.959 135.600 M268.400 136.520 C 269.591 137.075,270.095 137.528,270.714 138.600 C 270.970 139.045,271.181 139.164,271.188 138.869 C 271.206 138.076,268.969 135.996,268.131 136.027 C 267.561 136.048,267.620 136.156,268.400 136.520 M320.901 140.200 C 320.905 141.080,320.987 141.393,321.083 140.895 C 321.179 140.398,321.175 139.678,321.075 139.295 C 320.975 138.913,320.896 139.320,320.901 140.200 M271.293 140.800 C 271.293 141.570,271.375 141.885,271.476 141.500 C 271.576 141.115,271.576 140.485,271.476 140.100 C 271.375 139.715,271.293 140.030,271.293 140.800 M280.428 141.876 C 280.413 142.358,280.580 142.864,280.800 143.000 C 281.273 143.292,281.273 142.901,280.800 141.800 C 280.469 141.029,280.455 141.031,280.428 141.876 M269.874 144.085 C 269.255 144.964,268.824 145.757,268.916 145.849 C 269.008 145.941,269.573 145.276,270.171 144.371 C 271.584 142.237,271.341 142.004,269.874 144.085 M282.212 145.056 C 282.755 145.857,283.200 146.697,283.200 146.922 C 283.200 147.148,283.308 147.225,283.440 147.093 C 283.730 146.803,281.986 143.600,281.538 143.600 C 281.366 143.600,281.669 144.255,282.212 145.056 M246.377 145.497 L 258.355 145.612 258.521 147.306 L 258.688 149.000 258.644 147.200 L 258.600 145.400 246.500 145.391 L 234.400 145.382 246.377 145.497 M299.325 145.499 C 302.804 145.566,308.384 145.566,311.725 145.499 C 315.066 145.432,312.220 145.378,305.400 145.378 C 298.580 145.378,295.846 145.433,299.325 145.499 M168.944 149.200 C 168.944 151.290,169.012 152.145,169.094 151.100 C 169.176 150.055,169.176 148.345,169.094 147.300 C 169.012 146.255,168.944 147.110,168.944 149.200 M268.267 146.667 C 268.120 146.813,268.015 147.398,268.034 147.967 C 268.068 148.981,268.075 148.979,268.421 147.820 C 268.785 146.603,268.731 146.202,268.267 146.667 M283.572 149.868 C 282.936 157.057,274.246 159.901,269.873 154.350 C 269.288 153.608,268.807 153.210,268.804 153.466 C 268.797 154.256,272.327 157.085,273.649 157.350 C 279.582 158.536,284.406 154.617,283.927 149.000 C 283.809 147.627,283.759 147.750,283.572 149.868 M293.320 149.600 C 293.320 150.810,293.395 151.305,293.487 150.700 C 293.578 150.095,293.578 149.105,293.487 148.500 C 293.395 147.895,293.320 148.390,293.320 149.600 M258.501 151.400 C 258.505 152.280,258.587 152.593,258.683 152.095 C 258.779 151.598,258.775 150.878,258.675 150.495 C 258.575 150.113,258.496 150.520,258.501 151.400 M268.006 151.033 C 268.009 151.455,268.195 152.070,268.418 152.400 C 268.715 152.838,268.752 152.676,268.556 151.800 C 268.227 150.329,267.998 150.010,268.006 151.033 M79.293 154.400 C 79.293 155.170,79.375 155.485,79.476 155.100 C 79.576 154.715,79.576 154.085,79.476 153.700 C 79.375 153.315,79.293 153.630,79.293 154.400 M173.500 153.882 C 173.995 153.978,174.805 153.978,175.300 153.882 C 175.795 153.787,175.390 153.709,174.400 153.709 C 173.410 153.709,173.005 153.787,173.500 153.882 M189.100 153.882 C 189.595 153.978,190.405 153.978,190.900 153.882 C 191.395 153.787,190.990 153.709,190.000 153.709 C 189.010 153.709,188.605 153.787,189.100 153.882 M220.300 153.882 C 220.795 153.978,221.605 153.978,222.100 153.882 C 222.595 153.787,222.190 153.709,221.200 153.709 C 220.210 153.709,219.805 153.787,220.300 153.882 M235.900 153.882 C 236.395 153.978,237.205 153.978,237.700 153.882 C 238.195 153.787,237.790 153.709,236.800 153.709 C 235.810 153.709,235.405 153.787,235.900 153.882 M209.301 158.600 C 209.305 159.480,209.387 159.793,209.483 159.295 C 209.579 158.798,209.575 158.078,209.475 157.695 C 209.375 157.313,209.296 157.720,209.301 158.600 M78.940 160.800 C 78.940 162.670,79.009 163.435,79.093 162.500 C 79.177 161.565,79.177 160.035,79.093 159.100 C 79.009 158.165,78.940 158.930,78.940 160.800 M249.751 162.000 C 249.751 164.530,249.816 165.565,249.896 164.300 C 249.975 163.035,249.975 160.965,249.896 159.700 C 249.816 158.435,249.751 159.470,249.751 162.000 M212.514 167.400 C 212.517 168.500,212.595 168.903,212.687 168.295 C 212.779 167.686,212.777 166.786,212.682 166.295 C 212.587 165.803,212.511 166.300,212.514 167.400 M274.700 167.089 C 275.415 167.178,276.585 167.178,277.300 167.089 C 278.015 167.001,277.430 166.928,276.000 166.928 C 274.570 166.928,273.985 167.001,274.700 167.089 M249.293 168.800 C 249.293 169.570,249.375 169.885,249.476 169.500 C 249.576 169.115,249.576 168.485,249.476 168.100 C 249.375 167.715,249.293 168.030,249.293 168.800 M204.100 175.476 C 204.485 175.576,205.115 175.576,205.500 175.476 C 205.885 175.375,205.570 175.293,204.800 175.293 C 204.030 175.293,203.715 175.375,204.100 175.476 M224.792 221.500 L 221.000 225.400 224.900 221.608 C 227.045 219.522,228.800 217.767,228.800 217.708 C 228.800 217.418,228.314 217.878,224.792 221.500 M104.200 222.000 C 105.728 223.540,107.069 224.800,107.179 224.800 C 107.289 224.800,106.128 223.540,104.600 222.000 C 103.072 220.460,101.731 219.200,101.621 219.200 C 101.511 219.200,102.672 220.460,104.200 222.000 M116.400 232.125 C 116.400 232.194,116.985 232.779,117.700 233.425 L 119.000 234.600 117.825 233.300 C 116.730 232.088,116.400 231.816,116.400 232.125 M124.166 254.400 C 124.166 258.470,124.225 260.135,124.298 258.100 C 124.371 256.065,124.371 252.735,124.298 250.700 C 124.225 248.665,124.166 250.330,124.166 254.400 M112.800 266.600 C 111.828 267.590,111.123 268.400,111.233 268.400 C 111.343 268.400,112.228 267.590,113.200 266.600 C 114.172 265.610,114.877 264.800,114.767 264.800 C 114.657 264.800,113.772 265.610,112.800 266.600 M107.737 279.400 C 107.739 281.160,107.809 281.830,107.893 280.889 C 107.978 279.949,107.977 278.509,107.891 277.689 C 107.805 276.870,107.736 277.640,107.737 279.400 M124.144 300.800 C 124.144 302.890,124.212 303.745,124.294 302.700 C 124.376 301.655,124.376 299.945,124.294 298.900 C 124.212 297.855,124.144 298.710,124.144 300.800 M204.514 304.200 C 204.517 305.300,204.595 305.703,204.687 305.095 C 204.779 304.486,204.777 303.586,204.682 303.095 C 204.587 302.603,204.511 303.100,204.514 304.200 M136.000 330.200 C 137.417 331.630,138.667 332.800,138.777 332.800 C 138.887 332.800,137.817 331.630,136.400 330.200 C 134.983 328.770,133.733 327.600,133.623 327.600 C 133.513 327.600,134.583 328.770,136.000 330.200 M163.500 341.882 C 163.995 341.978,164.805 341.978,165.300 341.882 C 165.795 341.787,165.390 341.709,164.400 341.709 C 163.410 341.709,163.005 341.787,163.500 341.882 " stroke="none" fill="#e7647c" fill-rule="evenodd"></path></g></svg>